<svg width="170" height="135" viewBox="0 0 170 135" fill="none" xmlns="http://www.w3.org/2000/svg">
<rect width="170" height="134" fill="#1784A9"/>
<ellipse cx="60" cy="21.9264" rx="22" ry="19.8449" fill="white"/>
<ellipse cx="60.5" cy="21.4755" rx="8.5" ry="7.66735" fill="#1784A9"/>
<ellipse cx="110" cy="21.9264" rx="22" ry="19.8449" fill="white"/>
<ellipse cx="110.5" cy="21.4755" rx="8.5" ry="7.66735" fill="#1784A9"/>
<rect x="78" y="16.5143" width="14" height="12.6286" fill="white"/>
<rect x="53" y="37.2612" width="14" height="12.6286" fill="white"/>
<rect x="105" y="37.2612" width="14" height="12.6286" fill="white"/>
<ellipse cx="60" cy="67.0286" rx="22" ry="19.8449" fill="white"/>
<ellipse cx="60.5" cy="66.5775" rx="8.5" ry="7.66735" fill="#1784A9"/>
<ellipse cx="110" cy="67.0286" rx="22" ry="19.8449" fill="white"/>
<ellipse cx="110.5" cy="66.5775" rx="8.5" ry="7.66735" fill="#1784A9"/>
<rect x="78" y="61.6163" width="14" height="12.6286" fill="white"/>
<path d="M22.8871 102.094C22.745 100.662 22.1354 99.5495 21.0582 98.7564C19.9811 97.9633 18.5192 97.5668 16.6726 97.5668C15.4179 97.5668 14.3584 97.7443 13.4943 98.0994C12.6302 98.4427 11.9673 98.9221 11.5057 99.5376C11.0559 100.153 10.831 100.852 10.831 101.633C10.8073 102.284 10.9434 102.852 11.2393 103.337C11.5471 103.823 11.9673 104.243 12.5 104.598C13.0327 104.941 13.6482 105.243 14.3466 105.504C15.045 105.752 15.7907 105.965 16.5838 106.143L19.8509 106.924C21.437 107.279 22.893 107.753 24.2188 108.344C25.5445 108.936 26.6927 109.664 27.6634 110.528C28.634 111.393 29.3857 112.411 29.9183 113.582C30.4628 114.754 30.741 116.098 30.7528 117.613C30.741 119.838 30.1728 121.768 29.0483 123.401C27.9356 125.023 26.3258 126.284 24.2188 127.183C22.1236 128.071 19.5964 128.515 16.6371 128.515C13.7015 128.515 11.1446 128.065 8.96662 127.165C6.80043 126.266 5.10772 124.934 3.88849 123.17C2.68111 121.395 2.04782 119.199 1.98864 116.583H9.42827C9.51113 117.802 9.86032 118.82 10.4759 119.637C11.1032 120.442 11.9377 121.052 12.9794 121.466C14.0329 121.868 15.2225 122.07 16.5483 122.07C17.8504 122.07 18.9808 121.88 19.9396 121.501C20.9103 121.123 21.6619 120.596 22.1946 119.921C22.7273 119.246 22.9936 118.471 22.9936 117.595C22.9936 116.778 22.7509 116.092 22.2656 115.536C21.7921 114.979 21.0938 114.506 20.1705 114.115C19.259 113.724 18.1404 113.369 16.8146 113.05L12.8551 112.055C9.7893 111.31 7.36861 110.144 5.59304 108.558C3.81747 106.971 2.93561 104.835 2.94744 102.148C2.93561 99.946 3.52154 98.0225 4.70526 96.3771C5.90081 94.7318 7.54025 93.4474 9.62358 92.5241C11.7069 91.6009 14.0743 91.1392 16.7259 91.1392C19.4247 91.1392 21.7803 91.6009 23.7926 92.5241C25.8168 93.4474 27.3911 94.7318 28.5156 96.3771C29.6402 98.0225 30.2202 99.9283 30.2557 102.094H22.8871ZM41.3619 128H33.1232L45.6765 91.6364H55.5842L68.1197 128H59.881L50.7724 99.946H50.4883L41.3619 128ZM40.8469 113.707H60.3072V119.708H40.8469V113.707ZM78.7642 128H70.5256L83.0788 91.6364H92.9865L105.522 128H97.2834L88.1747 99.946H87.8906L78.7642 128ZM78.2493 113.707H97.7095V119.708H78.2493V113.707ZM109.899 128V91.6364H124.245C127.003 91.6364 129.353 92.1631 131.294 93.2166C133.236 94.2583 134.715 95.7083 135.733 97.5668C136.763 99.4134 137.278 101.544 137.278 103.959C137.278 106.374 136.757 108.504 135.716 110.351C134.674 112.197 133.165 113.636 131.188 114.665C129.223 115.695 126.844 116.21 124.05 116.21H114.906V110.049H122.807C124.287 110.049 125.506 109.795 126.465 109.286C127.435 108.765 128.158 108.049 128.631 107.137C129.116 106.214 129.359 105.154 129.359 103.959C129.359 102.751 129.116 101.698 128.631 100.798C128.158 99.8868 127.435 99.1825 126.465 98.6854C125.494 98.1764 124.263 97.9219 122.772 97.9219H117.587V128H109.899ZM142.272 128V91.6364H166.775V97.9751H149.96V106.64H165.514V112.979H149.96V121.661H166.846V128H142.272Z" fill="white"/>
</svg>
