<svg width="29" height="29" viewBox="0 0 29 29" fill="none" xmlns="http://www.w3.org/2000/svg">
<path fill-rule="evenodd" clip-rule="evenodd" d="M23.1572 0.0855749C22.7898 0.149174 21.6676 0.344536 20.6633 0.51968C19.6591 0.694825 18.3405 0.92364 17.7331 1.02812C16.4006 1.25738 16.2368 1.31508 16.1072 1.60069C16.0037 1.82879 16.0607 2.23132 16.8364 6.74949C16.9842 7.61045 17.2664 9.26082 17.4635 10.417C17.6607 11.5731 17.8985 12.9618 17.9922 13.503C18.0858 14.0442 18.3061 15.3323 18.4818 16.3654C18.6574 17.3986 18.8778 18.6867 18.9716 19.2279C19.0654 19.7691 19.2858 21.0571 19.4615 22.0903C19.6371 23.1235 19.8576 24.4116 19.9513 24.9527C20.0451 25.4939 20.2238 26.5405 20.3485 27.2785C20.5508 28.4767 20.6005 28.6428 20.8138 28.8314C21.0844 29.0709 20.9802 29.0765 23.0681 28.7097C23.7784 28.5849 25.3012 28.3207 26.4521 28.1226C27.6029 27.9246 28.6344 27.7033 28.7441 27.6312C28.8539 27.5589 28.9668 27.4071 28.9951 27.2938C29.0234 27.1806 28.9257 26.3861 28.778 25.5283C28.5309 24.0942 28.3521 23.0473 27.6026 18.6464C27.4559 17.7855 27.2593 16.6383 27.1656 16.0971C27.0719 15.5559 26.8515 14.2678 26.6758 13.2347C26.5002 12.2015 26.2795 10.9134 26.1854 10.3722C26.0914 9.83107 25.8707 8.54297 25.695 7.50982C25.5194 6.47666 25.299 5.18857 25.2053 4.64739C25.1116 4.10621 24.911 2.93888 24.7595 2.05331C24.5048 0.563779 24.3443 0.0406707 24.1422 0.0406707C24.0983 0.0406707 24.009 0.0247481 23.9438 0.00524783C23.8785 -0.014163 23.5246 0.0219754 23.1572 0.0855749ZM0.699436 1.02427C0.48826 1.13752 0.309148 1.33422 0.187306 1.58701L0 1.97558L0.00195974 14.7165C0.00383013 26.9444 0.0105988 27.4721 0.169582 27.8237C0.266397 28.0379 0.465549 28.2709 0.649114 28.3849C0.960044 28.5778 0.995047 28.5793 4.42267 28.5456C8.54197 28.5051 7.40487 28.5052 11.4895 28.545C15.3993 28.5831 15.3551 28.5903 15.7411 27.857L15.9446 27.4706L15.9215 14.6119L15.8983 1.7533L15.712 1.50078C15.6095 1.36186 15.3912 1.1563 15.2268 1.04404L14.9279 0.839735L11.4942 0.875784C7.41297 0.918541 8.54536 0.917647 4.45331 0.881061C1.19464 0.851811 1.00814 0.858967 0.699436 1.02427ZM23.5147 2.59261C23.6154 3.18156 23.8349 4.46849 24.0025 5.45245C24.3698 7.60947 24.7076 9.57989 24.938 10.9089C25.0317 11.4501 25.2522 12.7382 25.428 13.7714C25.6037 14.8045 25.8684 16.3543 26.016 17.2152C26.1637 18.0762 26.4007 19.4649 26.5426 20.3013C26.8192 21.931 27.2558 24.4752 27.4713 25.7121C27.544 26.1297 27.5742 26.5009 27.5383 26.5369C27.4764 26.5992 26.6511 26.7516 23.5135 27.2802C22.7542 27.4082 22.0476 27.5337 21.9433 27.5592C21.7273 27.6119 21.7943 27.895 21.2 24.416C21.0068 23.2845 20.7656 21.8756 20.664 21.2852C20.5624 20.6949 20.3186 19.2659 20.1223 18.1097C19.926 16.9536 19.6651 15.424 19.5424 14.7106C19.4198 13.9972 19.1823 12.6085 19.0148 11.6246C18.8472 10.6406 18.6304 9.37263 18.533 8.80685C18.4355 8.24108 18.2521 7.17438 18.1253 6.43641C17.9986 5.69844 17.7943 4.51509 17.6712 3.80673C17.5483 3.09837 17.4798 2.491 17.5191 2.4571C17.5584 2.4231 18.3721 2.26165 19.3273 2.09813C20.2826 1.93461 21.5451 1.71367 22.1329 1.60713C22.7208 1.50051 23.2309 1.43771 23.2666 1.46759C23.3024 1.49747 23.414 2.00367 23.5147 2.59261ZM7.30342 14.7106V27.2337H4.31971H1.33599V14.7106V2.18749H4.31971H7.30342V14.7106ZM14.5623 14.7106V27.189L11.6009 27.2125L8.63941 27.2361V14.7106V2.18508L11.6009 2.20869L14.5623 2.23222V14.7106ZM21.6334 2.67428C21.6117 2.69602 21.3546 2.75354 21.0619 2.80202C18.847 3.16895 18.7571 3.19811 18.6058 3.59768C18.4966 3.88607 18.7266 4.31419 19.032 4.3912C19.2505 4.44621 21.276 4.15997 22.0074 3.9706C22.6272 3.81013 22.8346 3.27521 22.4403 2.85372C22.2566 2.65729 21.7602 2.54699 21.6334 2.67428ZM2.48886 3.42585C2.22104 3.64366 2.21748 4.09646 2.48147 4.36168C2.66869 4.54962 2.74689 4.55794 4.32986 4.55794H5.98284L6.19784 4.30694C6.46112 3.9995 6.46851 3.80342 6.22813 3.4966L6.04358 3.2609H4.36762C2.87167 3.2609 2.66993 3.27861 2.48886 3.42585ZM9.71471 3.4966C9.46773 3.81192 9.48207 4.07893 9.75995 4.34111C9.986 4.55436 10.0167 4.55794 11.6278 4.55794C13.1955 4.55794 13.2743 4.54953 13.4614 4.36168C13.7254 4.09646 13.7218 3.64366 13.454 3.42585C13.2729 3.27861 13.0712 3.2609 11.5752 3.2609H9.89925L9.71471 3.4966ZM20.9451 5.23106C20.145 5.37167 19.3941 5.54995 19.2766 5.62723C19.0105 5.80229 18.9135 6.16117 19.0585 6.43345C19.2731 6.83607 19.461 6.84725 21.1221 6.55618C22.4626 6.32137 22.6939 6.25625 22.8677 6.06519C22.978 5.94407 23.0681 5.75103 23.0681 5.63627C23.0681 5.38733 22.8261 5.08311 22.5783 5.02049C22.4803 4.99571 21.7454 5.09044 20.9451 5.23106ZM2.5285 5.79612C2.21401 6.06778 2.1953 6.5247 2.48886 6.76344C2.66913 6.91005 2.86944 6.92839 4.29094 6.92839C5.24778 6.92839 5.96102 6.89028 6.06665 6.83348C6.49381 6.60386 6.45364 5.89442 6.00172 5.6877C5.86545 5.62527 5.20476 5.58662 4.27597 5.58662C2.82616 5.58662 2.76212 5.59432 2.5285 5.79612ZM9.93087 5.69468C9.48536 5.95131 9.41028 6.36896 9.74873 6.70878C9.96454 6.92561 9.98734 6.92839 11.5673 6.92839C12.4473 6.92839 13.2321 6.90334 13.3114 6.87284C13.5128 6.79519 13.7363 6.32799 13.6709 6.12118C13.6411 6.02654 13.5134 5.8675 13.3872 5.76785C13.1767 5.60156 13.0318 5.58689 11.6334 5.58931C10.6546 5.5911 10.0452 5.62875 9.93087 5.69468ZM21.0473 7.63487C19.6076 7.90805 19.3915 8.02738 19.4343 8.52508C19.4525 8.73592 19.5362 8.88995 19.6983 9.01098L19.9357 9.18818L21.5242 8.90436C23.2519 8.59557 23.454 8.50165 23.454 8.00788C23.454 7.85823 23.3811 7.65473 23.2919 7.55571C23.0759 7.31607 22.6484 7.33118 21.0473 7.63487ZM2.48886 8.16674C2.1953 8.40549 2.21401 8.8624 2.5285 9.13407C2.76212 9.33587 2.82616 9.34356 4.27597 9.34356C5.20476 9.34356 5.86545 9.30492 6.00172 9.24248C6.45364 9.03576 6.49381 8.32632 6.06665 8.0967C5.96102 8.0399 5.24778 8.0018 4.29094 8.0018C2.86944 8.0018 2.66913 8.02013 2.48886 8.16674ZM9.74873 8.2214C9.40476 8.56677 9.48812 8.9939 9.94726 9.23953C10.0731 9.3068 10.6742 9.34356 11.6498 9.34356C13.0294 9.34356 13.1773 9.32808 13.3872 9.16233C13.5134 9.06268 13.6411 8.90364 13.6709 8.809C13.7363 8.60219 13.5128 8.13499 13.3114 8.05735C13.2321 8.02684 12.4473 8.0018 11.5673 8.0018C9.98734 8.0018 9.96454 8.00457 9.74873 8.2214ZM3.56264 21.3831C2.09083 22.0234 1.97851 24.0666 3.37008 24.8857C4.14718 25.3431 5.30237 25.1324 5.81753 24.4392C6.17727 23.9551 6.25333 23.7443 6.25778 23.219C6.26972 21.8185 4.82462 20.8341 3.56264 21.3831ZM10.8165 21.4092C10.0704 21.7496 9.53675 22.7069 9.67285 23.4607C9.85793 24.4857 10.602 25.1179 11.6231 25.1179C12.721 25.1179 13.5405 24.294 13.5361 23.1949C13.5302 21.7588 12.1036 20.8221 10.8165 21.4092ZM22.9256 21.6207C22.3412 22.0159 21.9672 22.719 22.0227 23.3177C22.1173 24.3386 22.8309 25.09 23.7708 25.1583C24.4095 25.2047 24.8506 25.0695 25.2719 24.6981C26.0755 23.9893 26.1356 22.7026 25.4014 21.9255C25.0062 21.5074 24.5672 21.33 23.9279 21.33C23.4296 21.33 23.2998 21.3676 22.9256 21.6207ZM4.80307 22.818C5.04551 23.1275 5.03615 23.3468 4.76904 23.615C4.35248 24.0334 3.74078 23.8061 3.74078 23.2328C3.74078 22.8183 3.95356 22.5823 4.32701 22.5823C4.53587 22.5823 4.67089 22.6491 4.80307 22.818ZM12.0392 22.7303C12.2681 22.9385 12.2513 23.4237 12.0071 23.6522C11.7437 23.8987 11.4392 23.8816 11.1638 23.6051C10.9789 23.4194 10.9459 23.3211 10.9909 23.0907C11.0216 22.9341 11.1138 22.7556 11.1961 22.6941C11.4068 22.5364 11.8466 22.5553 12.0392 22.7303ZM24.3476 22.7677C24.8277 23.147 24.5543 23.8712 23.9375 23.8536C23.3756 23.8376 23.1469 23.2106 23.554 22.8019C23.821 22.5336 24.0394 22.5242 24.3476 22.7677Z" fill="white"/>
</svg>
