<svg width="41" height="48" viewBox="0 0 41 48" fill="none" xmlns="http://www.w3.org/2000/svg">
<path fill-rule="evenodd" clip-rule="evenodd" d="M6.44063 0.108432C5.02269 0.356826 3.59842 1.63178 3.11307 3.08695C3.01454 3.38205 2.93409 4.29294 2.93409 5.11118C2.93409 6.54521 2.95046 6.61575 3.38547 7.0603C3.86759 7.55283 4.36499 7.63947 5.00416 7.34184C5.58171 7.07293 5.86817 6.29839 5.86817 5.00498C5.86817 4.02876 5.91728 3.8274 6.23478 3.50294C6.45592 3.27711 6.86993 3.08884 7.27715 3.02903C7.64885 2.97459 14.5356 2.95123 22.5813 2.97696L37.2096 3.02398L37.6107 3.43382C37.8616 3.69042 38.044 4.08873 38.0977 4.49825C38.2738 5.84027 39.6012 6.41218 40.5667 5.56205C40.9541 5.22086 40.9983 5.08294 40.9839 4.26011C40.9551 2.61431 39.9351 1.12852 38.3054 0.35793C37.607 0.0276329 37.5075 0.025424 22.3917 0.00206802C14.0257 -0.0107146 6.84769 0.0371019 6.44063 0.108432ZM38.5218 9.51726C37.5066 10.6366 38.6815 12.4661 40.0423 11.8847C40.7365 11.5882 40.993 11.2102 40.993 10.4834C40.993 9.99211 40.8993 9.77291 40.5633 9.47749C39.9507 8.93904 39.0298 8.95703 38.5218 9.51726ZM0.475168 10.9286C0.0795291 11.2686 0 11.4512 0 12.0192C0 12.5871 0.0795291 12.7697 0.475168 13.1098L0.950181 13.5184H4.35125H7.75216L8.27721 12.9818C8.56599 12.6867 8.80226 12.2894 8.80226 12.0987C8.80226 11.6087 8.35381 10.8932 7.92018 10.6912C7.69225 10.5852 6.29593 10.52 4.25134 10.52H0.950181L0.475168 10.9286ZM22.0436 10.6914C20.1102 11.1569 18.4258 12.801 17.8491 14.7853C17.0103 17.672 18.3729 20.7106 21.0791 21.9881C21.858 22.3558 22.2149 22.4262 23.3183 22.4296C25.5103 22.4364 27.1264 21.5899 28.2883 19.8264C28.9911 18.7594 29.2586 17.8473 29.2586 16.5168C29.2586 15.1863 28.9911 14.2741 28.2883 13.2072C26.9311 11.147 24.3946 10.1251 22.0436 10.6914ZM24.712 13.8735C25.1068 14.0775 25.5913 14.5115 25.8513 14.8942C26.2304 15.4516 26.3038 15.7151 26.3038 16.5168C26.3038 17.3185 26.2304 17.582 25.8513 18.1394C24.2553 20.4873 20.8002 19.58 20.5707 16.753C20.3802 14.4051 22.6658 12.8158 24.712 13.8735ZM38.5242 15.5114L38.1479 15.9263L38.107 30.0265L38.0659 44.1265L37.6378 44.5641L37.2096 45.0016L22.4269 45.0477C14.2963 45.0729 7.41042 45.0505 7.12489 44.9977C6.83936 44.9449 6.43986 44.7322 6.23694 44.5249C5.91697 44.1979 5.86817 43.9987 5.86817 43.0206C5.86817 41.7272 5.58171 40.9527 5.00416 40.6837C4.35943 40.3834 3.86774 40.4724 3.37188 40.9792L2.90691 41.4545L2.96049 43.1491C3.00095 44.4308 3.08774 44.9964 3.31644 45.4698C3.72567 46.3173 4.57609 47.1559 5.494 47.6176L6.25424 48H21.9284C37.5393 48 37.6054 47.9986 38.3054 47.6677C39.2913 47.2016 40.1003 46.4285 40.5852 45.4892L41 44.686V30.2985V15.911L40.6257 15.5038C40.0918 14.9231 39.0544 14.9268 38.5242 15.5114ZM0.475168 16.9254C0.0795291 17.2654 0 17.448 0 18.016C0 18.5839 0.0795291 18.7665 0.475168 19.1066L0.950181 19.5152H4.25134C6.29593 19.5152 7.69225 19.45 7.92018 19.344C8.32385 19.1559 8.80226 18.4358 8.80226 18.016C8.80226 17.5962 8.32385 16.8761 7.92018 16.688C7.69225 16.582 6.29593 16.5168 4.25134 16.5168H0.950181L0.475168 16.9254ZM0.475168 22.9222C0.0795291 23.2622 0 23.4448 0 24.0128C0 24.5808 0.0795291 24.7633 0.475168 25.1034L0.950181 25.512H4.25134C6.29593 25.512 7.69225 25.4468 7.92018 25.3408C8.32385 25.1527 8.80226 24.4326 8.80226 24.0128C8.80226 23.593 8.32385 22.8729 7.92018 22.6848C7.69225 22.5788 6.29593 22.5136 4.25134 22.5136H0.950181L0.475168 22.9222ZM22.2972 24.1076C16.9002 24.7824 13.1262 29.2508 13.1262 34.9666C13.1262 35.6605 13.2093 36.4145 13.3107 36.6421C13.7009 37.5173 13.5627 37.5056 23.5541 37.5056H32.762L33.2134 37.0443C33.6572 36.5908 33.6648 36.554 33.6648 34.8602C33.6648 31.6118 32.7773 29.3403 30.6558 27.1587C28.3725 24.8107 25.3877 23.7212 22.2972 24.1076ZM25.4907 27.3442C26.7141 27.7149 27.3404 28.0804 28.3203 28.9957C29.7157 30.2989 30.7307 32.4012 30.7307 33.988V34.5072H23.381H16.0312L16.1416 33.6875C16.5535 30.6273 18.5142 28.2443 21.3879 27.3117C22.2773 27.023 24.4887 27.0405 25.4907 27.3442ZM0.475168 28.919C0.0795291 29.259 0 29.4416 0 30.0096C0 30.5776 0.0795291 30.7601 0.475168 31.1002L0.950181 31.5088H4.26616C6.83411 31.5088 7.6782 31.4581 8.00774 31.2839C8.43087 31.0603 8.80226 30.454 8.80226 29.987C8.80226 29.587 8.31458 28.8653 7.92018 28.6816C7.69225 28.5756 6.29593 28.5104 4.25134 28.5104H0.950181L0.475168 28.919ZM0.475168 34.9158C0.0795291 35.2558 0 35.4384 0 36.0064C0 36.5744 0.0795291 36.7569 0.475168 37.097L0.950181 37.5056H4.25134C6.29593 37.5056 7.69225 37.4404 7.92018 37.3344C8.35381 37.1324 8.80226 36.4169 8.80226 35.9269C8.80226 35.7362 8.56599 35.3389 8.27721 35.0438L7.75216 34.5072H4.35125H0.950181L0.475168 34.9158Z" fill="black"/>
</svg>
