<svg width="51" height="64" viewBox="0 0 41 54" fill="none" xmlns="http://www.w3.org/2000/svg">
<path fill-rule="evenodd" clip-rule="evenodd" d="M18.2976 0.157414C17.1552 0.343305 16.7805 0.445903 15.9411 0.802712C12.8479 2.11787 10.8954 4.53353 10.3843 7.67789C10.1228 9.28646 10.5101 10.7713 11.7971 13.095C12.4184 14.2165 12.753 14.7293 14.0587 16.5606C14.4371 17.0911 14.7137 17.574 14.6737 17.6337C14.6336 17.6932 14.4322 17.7761 14.2262 17.8176C13.5997 17.9439 11.9757 18.5496 10.7412 19.1173C6.58142 21.0302 2.94504 24.7726 1.2662 28.8686C0.751086 30.1255 0.239537 32.2397 0.072418 33.8027C-0.246663 36.7861 0.504101 40.4097 2.02015 43.2046C3.66498 46.2369 5.91115 48.5803 8.93536 50.4192C14.7764 53.9709 22.334 54.4093 28.5346 51.5562C30.1858 50.7964 31.2312 50.1665 32.6299 49.0887C35.697 46.7251 38.1045 43.1734 39.0367 39.6365C40.337 34.7034 39.4194 29.6456 36.4594 25.4327C34.5483 22.7124 31.7552 20.4087 28.6789 19.0155C27.528 18.4944 26.0572 17.9617 25.3934 17.8259C25.1978 17.7859 25.0107 17.6883 24.9776 17.6092C24.9446 17.53 25.4052 16.7883 26.0012 15.9609C27.0887 14.4511 28.58 11.8413 28.9173 10.8578C29.613 8.83009 29.4139 6.93199 28.2857 4.83559C26.935 2.32553 24.3638 0.616001 21.2273 0.142439C19.947 -0.0508227 19.5663 -0.0489506 18.2976 0.157414ZM21.2529 1.50639C22.0926 1.66116 22.4739 1.78505 23.5201 2.24258C24.666 2.74387 26.368 4.30704 26.9138 5.35945C28.4989 8.4162 28.1228 10.3356 25.0685 14.7769C24.1394 16.1278 21.21 19.7748 20.2762 20.7432L19.8249 21.2111L19.3696 20.7432C17.7973 19.1269 14.9799 15.499 13.6916 13.4315C11.8606 10.4929 11.4909 9.02055 12.062 6.93877C12.3928 5.73276 13.1707 4.49024 14.1498 3.60431C14.9962 2.83828 15.1581 2.7241 16.0048 2.29675C17.5832 1.49995 19.5837 1.19859 21.2529 1.50639ZM19.0772 4.32436C16.9977 4.63273 15.3875 6.26961 15.2626 8.20234C15.1446 10.0245 16.1699 11.5745 18.0029 12.3452C20.9333 13.5773 24.4117 11.5005 24.4117 8.51879C24.4117 6.87969 23.4328 5.44497 21.7945 4.68292C21.3395 4.47118 21.035 4.39841 20.0172 4.25791C19.8771 4.23861 19.4541 4.26855 19.0772 4.32436ZM21.2836 5.9927C22.3663 6.57553 22.8832 7.40719 22.8832 8.56676C22.8832 9.17322 22.8167 9.39093 22.4685 9.92637C21.4293 11.5234 19.2965 11.8115 17.6922 10.5717C17.1056 10.1183 16.7532 9.32343 16.7532 8.45363C16.7532 7.62888 16.959 7.15426 17.5795 6.54862C18.5815 5.57038 20.0809 5.34542 21.2836 5.9927ZM16.0922 19.1842C16.4589 19.5007 16.4662 19.7642 16.1163 20.0524C15.3019 20.7228 13.0592 23.5925 12.4906 24.6915C12.3658 24.9328 12.2026 25.1301 12.1281 25.1299C11.7421 25.1292 9.26896 23.7427 8.31069 22.9898L7.81341 22.5992L8.11963 22.3339C9.23953 21.3637 11.9881 19.935 13.8394 19.3609C15.4645 18.8568 15.692 18.839 16.0922 19.1842ZM25.8951 19.3893C27.8877 20.0445 30.5739 21.4527 31.4705 22.3123L31.8288 22.6558L30.718 23.4101C29.5773 24.1848 28.137 24.9731 27.669 25.0788C27.455 25.1271 27.3357 25.0216 27.0378 24.5201C26.3601 23.3794 25.0848 21.6871 24.1713 20.7162C23.673 20.1866 23.2653 19.6964 23.2653 19.6268C23.2653 19.5573 23.3657 19.37 23.4883 19.2107C23.6849 18.955 23.7787 18.9285 24.2844 18.9846C24.5996 19.0196 25.3244 19.2017 25.8951 19.3893ZM19.0716 22.4687C19.3965 22.7744 19.7361 23.0244 19.8261 23.0244C20.0083 23.0244 20.8955 22.2205 21.691 21.3344L22.2105 20.7559L22.7437 21.2759C23.8036 22.3098 25.9403 25.231 25.9403 25.6463C25.9403 25.7335 25.8399 25.8312 25.7174 25.8635C23.015 26.5741 22.0517 26.7102 19.7625 26.7042C17.6463 26.6989 16.4994 26.552 14.6355 26.0478C13.9575 25.8644 13.712 25.7451 13.712 25.5989C13.712 25.1894 15.8366 22.3192 16.9591 21.2124L17.4325 20.7458L17.9566 21.3294C18.2449 21.6504 18.7466 22.1631 19.0716 22.4687ZM7.40912 24.0952C8.17593 24.6822 9.85515 25.693 10.7746 26.1209C11.5499 26.4817 11.5493 26.4765 10.972 27.9356C10.3743 29.4462 9.99972 30.9809 9.75796 32.9098C9.67733 33.5532 9.58485 34.1191 9.5525 34.1674C9.44767 34.3233 1.63916 34.2738 1.58223 34.1169C1.52452 33.9579 1.78348 32.2655 1.99901 31.3939C2.4405 29.6075 3.40296 27.5945 4.59916 25.9556C5.39757 24.8617 6.51174 23.6094 6.68663 23.6094C6.73503 23.6094 7.0601 23.828 7.40912 24.0952ZM33.6448 24.2235C34.9517 25.5814 36.3965 27.8794 37.0755 29.6803C37.6134 31.1071 38.0378 32.9526 38.0401 33.8749L38.0412 34.2551H34.1C31.9322 34.2551 30.1283 34.2099 30.0911 34.1546C30.0539 34.0993 29.9333 33.3818 29.823 32.56C29.6082 30.9601 28.992 28.6099 28.4496 27.3231L28.1166 26.5328L28.3978 26.3766C28.5524 26.2906 29.1088 25.9934 29.6342 25.7163C30.6788 25.1653 31.5885 24.5916 32.3639 23.9947C32.6392 23.7827 32.9071 23.6094 32.959 23.6094C33.0111 23.6094 33.3196 23.8858 33.6448 24.2235ZM15.6741 27.7076C17.7638 28.1095 19.646 28.2309 21.3228 28.0722C23.0036 27.9131 24.7806 27.5953 25.8576 27.2614C26.7194 26.9941 26.7391 27.0073 27.187 28.1533C27.8069 29.7389 28.4878 32.7296 28.4878 33.8663V34.2551H19.8261H11.1645V33.8078C11.1645 32.1576 12.4359 27.4094 12.9571 27.1137C13.0272 27.0738 13.4066 27.1411 13.8002 27.2631C14.1936 27.3851 15.0369 27.5851 15.6741 27.7076ZM9.56193 35.8052C9.58677 35.8857 9.67402 36.5832 9.75567 37.3553C9.95934 39.2796 10.2788 40.7032 10.898 42.4442C11.0466 42.8624 11.2247 43.296 11.2938 43.4077C11.5577 43.8352 11.429 44.0178 10.5711 44.433C9.51225 44.9456 8.25032 45.71 7.35549 46.3809L6.6674 46.8969L6.35532 46.6301C5.77817 46.1364 4.32403 44.2658 3.73809 43.2631C3.0449 42.077 2.46419 40.7563 2.12842 39.6024C1.80819 38.5019 1.41995 36.0974 1.52274 35.8513C1.59496 35.6785 2.00576 35.659 5.55985 35.659C8.61615 35.659 9.5269 35.6922 9.56193 35.8052ZM28.4878 36.282C28.4878 36.9579 28.1745 39.1746 27.9723 39.929C27.5938 41.3415 26.9747 43.0463 26.7673 43.2472C26.6286 43.3817 26.4653 43.3688 25.7301 43.1659C23.3401 42.506 22.4588 42.39 19.8261 42.3892C17.2957 42.3884 16.5418 42.4789 14.359 43.0456C12.8283 43.443 12.8707 43.4575 12.4456 42.3917C11.7801 40.7226 11.1645 37.8438 11.1645 36.4003V35.659H19.8261H28.4878V36.282ZM38.0726 36.3609C38.0094 37.6192 37.6295 39.3479 37.0788 40.8828C36.5148 42.455 34.8773 45.0106 33.6215 46.2792L33.0097 46.8972L31.7767 46.0453C31.0986 45.5767 30.0257 44.9302 29.3925 44.6084C28.718 44.2657 28.2396 43.9479 28.2371 43.841C28.2349 43.7405 28.376 43.3236 28.5505 42.9144C29.0846 41.6628 29.6322 39.4318 29.843 37.6479C29.9534 36.7148 30.0646 35.8849 30.0904 35.8036C30.127 35.6875 30.9964 35.6622 34.121 35.6866L38.1048 35.7175L38.0726 36.3609ZM23.9659 44.14C24.7366 44.315 25.5255 44.5333 25.7191 44.6249L26.0712 44.7916L25.737 45.3435C24.6012 47.2185 23.0219 49.1061 21.4587 50.4566C19.9996 51.7174 19.912 51.7637 19.4759 51.5065C18.846 51.1352 16.5688 48.9588 15.7739 47.9683C15.3464 47.4357 14.674 46.5207 14.2796 45.9353C13.6828 45.0492 13.5913 44.845 13.7329 44.7165C13.9423 44.5267 16.1538 43.9842 17.2786 43.8469C17.734 43.7913 19.1096 43.7629 20.3357 43.7837C22.2436 43.8162 22.7667 43.8676 23.9659 44.14ZM12.6112 46.0092C13.5111 47.591 14.8698 49.2721 16.4566 50.7674C16.9787 51.2595 17.406 51.7225 17.406 51.7963C17.406 51.9457 16.9748 51.9001 15.6227 51.6076C13.7501 51.2026 11.7535 50.4427 10.1215 49.5138C9.32628 49.0612 7.85265 48.0289 7.85265 47.9243C7.85265 47.5701 11.3853 45.3968 11.9924 45.3775C12.1757 45.3717 12.3493 45.549 12.6112 46.0092ZM28.3965 45.6766C29.2176 46.057 31.1425 47.2567 31.5134 47.6193C31.6644 47.767 31.7475 47.9431 31.6983 48.0109C31.5125 48.2659 29.8687 49.3429 28.907 49.8396C27.3302 50.654 25.61 51.2663 23.7749 51.6662C22.7042 51.8995 22.2463 51.9383 22.2463 51.7959C22.2463 51.7218 22.7766 51.1488 23.4246 50.5228C24.7271 49.2644 26.0256 47.6601 26.8597 46.2789C27.1597 45.7822 27.4786 45.3741 27.5685 45.3722C27.6585 45.3704 28.031 45.5074 28.3965 45.6766Z" fill="black"/>
<path fill-rule="evenodd" clip-rule="evenodd" d="M19.158 0.157414C18.0155 0.343305 17.6409 0.445903 16.8015 0.802712C13.7082 2.11787 11.7558 4.53353 11.2446 7.67789C10.9831 9.28646 11.3705 10.7713 12.6575 13.095C13.2787 14.2165 13.6133 14.7293 14.9191 16.5606C15.2974 17.0911 15.5741 17.574 15.5341 17.6337C15.4939 17.6932 15.2926 17.7761 15.0866 17.8176C14.46 17.9439 12.8361 18.5496 11.6015 19.1173C7.44177 21.0302 3.80539 24.7726 2.12655 28.8686C1.61144 30.1255 1.09989 32.2397 0.93277 33.8027C0.613689 36.7861 1.36445 40.4097 2.8805 43.2046C4.52533 46.2369 6.77151 48.5803 9.79571 50.4192C15.6367 53.9709 23.1943 54.4093 29.3949 51.5562C31.0461 50.7964 32.0915 50.1665 33.4902 49.0887C36.5574 46.7251 38.9648 43.1734 39.8971 39.6365C41.1974 34.7034 40.2797 29.6456 37.3197 25.4327C35.4087 22.7124 32.6155 20.4087 29.5392 19.0155C28.3884 18.4944 26.9176 17.9617 26.2538 17.8259C26.0581 17.7859 25.871 17.6883 25.8379 17.6092C25.8049 17.53 26.2655 16.7883 26.8615 15.9609C27.9491 14.4511 29.4404 11.8413 29.7777 10.8578C30.4733 8.83009 30.2742 6.93199 29.146 4.83559C27.7953 2.32553 25.2242 0.616001 22.0877 0.142439C20.8074 -0.0508227 20.4266 -0.0489506 19.158 0.157414ZM22.1133 1.50639C22.9529 1.66116 23.3343 1.78505 24.3804 2.24258C25.5263 2.74387 27.2284 4.30704 27.7742 5.35945C29.3593 8.4162 28.9831 10.3356 25.9289 14.7769C24.9998 16.1278 22.0703 19.7748 21.1365 20.7432L20.6852 21.2111L20.23 20.7432C18.6576 19.1269 15.8403 15.499 14.552 13.4315C12.7209 10.4929 12.3513 9.02055 12.9223 6.93877C13.2531 5.73276 14.031 4.49024 15.0102 3.60431C15.8566 2.83828 16.0185 2.7241 16.8652 2.29675C18.4435 1.49995 20.4441 1.19859 22.1133 1.50639ZM19.9375 4.32436C17.8581 4.63273 16.2479 6.26961 16.1229 8.20234C16.005 10.0245 17.0302 11.5745 18.8632 12.3452C21.7937 13.5773 25.2721 11.5005 25.2721 8.51879C25.2721 6.87969 24.2932 5.44497 22.6549 4.68292C22.1999 4.47118 21.8953 4.39841 20.8776 4.25791C20.7374 4.23861 20.3144 4.26855 19.9375 4.32436ZM22.144 5.9927C23.2267 6.57553 23.7436 7.40719 23.7436 8.56676C23.7436 9.17322 23.6771 9.39093 23.3288 9.92637C22.2897 11.5234 20.1569 11.8115 18.5525 10.5717C17.966 10.1183 17.6135 9.32343 17.6135 8.45363C17.6135 7.62888 17.8194 7.15426 18.4398 6.54862C19.4419 5.57038 20.9413 5.34542 22.144 5.9927ZM16.9525 19.1842C17.3193 19.5007 17.3265 19.7642 16.9766 20.0524C16.1623 20.7228 13.9196 23.5925 13.3509 24.6915C13.2261 24.9328 13.0629 25.1301 12.9884 25.1299C12.6025 25.1292 10.1293 23.7427 9.17105 22.9898L8.67377 22.5992L8.97998 22.3339C10.0999 21.3637 12.8484 19.935 14.6997 19.3609C16.3248 18.8568 16.5523 18.839 16.9525 19.1842ZM26.7554 19.3893C28.7481 20.0445 31.4342 21.4527 32.3309 22.3123L32.6892 22.6558L31.5783 23.4101C30.4376 24.1848 28.9974 24.9731 28.5294 25.0788C28.3154 25.1271 28.196 25.0216 27.8981 24.5201C27.2205 23.3794 25.9452 21.6871 25.0316 20.7162C24.5333 20.1866 24.1257 19.6964 24.1257 19.6268C24.1257 19.5573 24.2261 19.37 24.3486 19.2107C24.5453 18.955 24.639 18.9285 25.1447 18.9846C25.46 19.0196 26.1848 19.2017 26.7554 19.3893ZM19.9319 22.4687C20.2569 22.7744 20.5964 23.0244 20.6865 23.0244C20.8686 23.0244 21.7558 22.2205 22.5513 21.3344L23.0709 20.7559L23.6041 21.2759C24.664 22.3098 26.8006 25.231 26.8006 25.6463C26.8006 25.7335 26.7003 25.8312 26.5777 25.8635C23.8754 26.5741 22.912 26.7102 20.6228 26.7042C18.5067 26.6989 17.3598 26.552 15.4959 26.0478C14.8178 25.8644 14.5724 25.7451 14.5724 25.5989C14.5724 25.1894 16.6969 22.3192 17.8195 21.2124L18.2928 20.7458L18.817 21.3294C19.1052 21.6504 19.607 22.1631 19.9319 22.4687ZM8.26947 24.0952C9.03628 24.6822 10.7155 25.693 11.6349 26.1209C12.4103 26.4817 12.4096 26.4765 11.8323 27.9356C11.2347 29.4462 10.8601 30.9809 10.6183 32.9098C10.5377 33.5532 10.4452 34.1191 10.4129 34.1674C10.308 34.3233 2.49952 34.2738 2.44258 34.1169C2.38488 33.9579 2.64383 32.2655 2.85936 31.3939C3.30085 29.6075 4.26331 27.5945 5.45952 25.9556C6.25792 24.8617 7.37209 23.6094 7.54698 23.6094C7.59538 23.6094 7.92045 23.828 8.26947 24.0952ZM34.5052 24.2235C35.8121 25.5814 37.2568 27.8794 37.9359 29.6803C38.4738 31.1071 38.8982 32.9526 38.9005 33.8749L38.9015 34.2551H34.9603C32.7926 34.2551 30.9887 34.2099 30.9515 34.1546C30.9143 34.0993 30.7937 33.3818 30.6833 32.56C30.4686 30.9601 29.8523 28.6099 29.31 27.3231L28.977 26.5328L29.2581 26.3766C29.4128 26.2906 29.9691 25.9934 30.4946 25.7163C31.5392 25.1653 32.4488 24.5916 33.2243 23.9947C33.4995 23.7827 33.7674 23.6094 33.8194 23.6094C33.8715 23.6094 34.18 23.8858 34.5052 24.2235ZM16.5345 27.7076C18.6241 28.1095 20.5064 28.2309 22.1832 28.0722C23.8639 27.9131 25.641 27.5953 26.718 27.2614C27.5798 26.9941 27.5994 27.0073 28.0474 28.1533C28.6672 29.7389 29.3482 32.7296 29.3482 33.8663V34.2551H20.6865H12.0248V33.8078C12.0248 32.1576 13.2963 27.4094 13.8174 27.1137C13.8876 27.0738 14.2669 27.1411 14.6605 27.2631C15.054 27.3851 15.8972 27.5851 16.5345 27.7076ZM10.4223 35.8052C10.4471 35.8857 10.5344 36.5832 10.616 37.3553C10.8197 39.2796 11.1392 40.7032 11.7583 42.4442C11.907 42.8624 12.0851 43.296 12.1541 43.4077C12.418 43.8352 12.2894 44.0178 11.4315 44.433C10.3726 44.9456 9.11067 45.71 8.21584 46.3809L7.52775 46.8969L7.21567 46.6301C6.63852 46.1364 5.18438 44.2658 4.59844 43.2631C3.90525 42.077 3.32454 40.7563 2.98877 39.6024C2.66854 38.5019 2.2803 36.0974 2.38309 35.8513C2.45531 35.6785 2.86611 35.659 6.4202 35.659C9.4765 35.659 10.3872 35.6922 10.4223 35.8052ZM29.3482 36.282C29.3482 36.9579 29.0348 39.1746 28.8327 39.929C28.4541 41.3415 27.8351 43.0463 27.6277 43.2472C27.489 43.3817 27.3257 43.3688 26.5905 43.1659C24.2005 42.506 23.3191 42.39 20.6865 42.3892C18.156 42.3884 17.4022 42.4789 15.2193 43.0456C13.6886 43.443 13.731 43.4575 13.306 42.3917C12.6404 40.7226 12.0248 37.8438 12.0248 36.4003V35.659H20.6865H29.3482V36.282ZM38.933 36.3609C38.8698 37.6192 38.4898 39.3479 37.9392 40.8828C37.3751 42.455 35.7377 45.0106 34.4819 46.2792L33.8701 46.8972L32.6371 46.0453C31.9589 45.5767 30.886 44.9302 30.2528 44.6084C29.5783 44.2657 29.0999 43.9479 29.0975 43.841C29.0952 43.7405 29.2363 43.3236 29.4108 42.9144C29.9449 41.6628 30.4925 39.4318 30.7033 37.6479C30.8138 36.7148 30.925 35.8849 30.9507 35.8036C30.9874 35.6875 31.8568 35.6622 34.9813 35.6866L38.9652 35.7175L38.933 36.3609ZM24.8263 44.14C25.5969 44.315 26.3859 44.5333 26.5795 44.6249L26.9316 44.7916L26.5973 45.3435C25.4615 47.2185 23.8823 49.1061 22.3191 50.4566C20.86 51.7174 20.7723 51.7637 20.3362 51.5065C19.7063 51.1352 17.4292 48.9588 16.6342 47.9683C16.2068 47.4357 15.5343 46.5207 15.14 45.9353C14.5432 45.0492 14.4516 44.845 14.5933 44.7165C14.8027 44.5267 17.0142 43.9842 18.1389 43.8469C18.5943 43.7913 19.97 43.7629 21.196 43.7837C23.104 43.8162 23.627 43.8676 24.8263 44.14ZM13.4716 46.0092C14.3715 47.591 15.7301 49.2721 17.317 50.7674C17.8391 51.2595 18.2663 51.7225 18.2663 51.7963C18.2663 51.9457 17.8351 51.9001 16.483 51.6076C14.6105 51.2026 12.6138 50.4427 10.9818 49.5138C10.1866 49.0612 8.713 48.0289 8.713 47.9243C8.713 47.5701 12.2457 45.3968 12.8528 45.3775C13.0361 45.3717 13.2097 45.549 13.4716 46.0092ZM29.2568 45.6766C30.0779 46.057 32.0029 47.2567 32.3738 47.6193C32.5247 47.767 32.6079 47.9431 32.5586 48.0109C32.3729 48.2659 30.7291 49.3429 29.7674 49.8396C28.1906 50.654 26.4703 51.2663 24.6352 51.6662C23.5646 51.8995 23.1067 51.9383 23.1067 51.7959C23.1067 51.7218 23.6369 51.1488 24.2849 50.5228C25.5875 49.2644 26.886 47.6601 27.72 46.2789C28.02 45.7822 28.339 45.3741 28.4289 45.3722C28.5188 45.3704 28.8914 45.5074 29.2568 45.6766Z" fill="black"/>
</svg>
