<svg width="62" height="53" viewBox="0 0 62 53" fill="none" xmlns="http://www.w3.org/2000/svg">
<path fill-rule="evenodd" clip-rule="evenodd" d="M30.5985 1.07259C28.1304 2.01569 26.2372 2.7314 24.2575 3.46988C23.2437 3.84802 21.7469 4.41181 20.9313 4.72296C20.1157 5.03397 19.3794 5.28849 19.2952 5.28849C19.0318 5.28849 18.6839 5.77289 18.4568 6.45605C18.3368 6.81726 17.862 8.29495 17.4017 9.73981C16.6328 12.1536 15.1041 16.9341 14.5648 18.6106C14.4414 18.9944 14.2297 19.367 14.0947 19.4387C13.9596 19.5102 10.932 20.5347 7.36671 21.7154C3.8013 22.8963 0.801413 23.9272 0.699957 24.0066C0.598648 24.0862 0.515625 24.2638 0.515625 24.4014C0.515625 24.5392 3.21394 27.273 6.51186 30.4768C9.80977 33.6804 16.1957 39.8974 20.7029 44.2922C27.037 50.4683 28.9798 52.2827 29.2591 52.2827C29.4577 52.2827 29.9898 52.157 30.4412 52.0035C31.3308 51.7008 34.3719 50.725 39.5939 49.0662C41.4188 48.4865 42.9937 47.9374 43.0937 47.8461C43.1937 47.7547 43.912 45.8423 44.6899 43.5962C45.4679 41.3502 46.3332 38.8558 46.6128 38.0531C46.8924 37.2504 47.336 35.9697 47.5985 35.2071L48.0758 33.8207L50.9501 32.4049C52.5309 31.6262 55.3341 30.2545 57.1791 29.3568C59.6461 28.1566 60.534 27.657 60.534 27.4694C60.534 27.3231 55.4277 22.3062 48.5589 15.704C32.424 0.195757 32.7167 0.471739 32.4137 0.476701C32.267 0.479036 31.4501 0.747282 30.5985 1.07259ZM36.534 5.37212C38.0548 6.82894 39.299 8.05502 39.299 8.09691C39.299 8.16915 37.6944 9.22637 31.7196 13.0908L29.0801 14.798L27.9499 13.686C27.1332 12.8824 26.7506 12.6002 26.5708 12.6685C26.116 12.8411 26.312 13.2404 27.3543 14.2641C27.922 14.8216 28.3866 15.3585 28.3866 15.4572C28.3866 15.6141 28.0848 16.3383 27.0594 18.6424C26.9166 18.9635 26.2529 20.4577 25.5847 21.9627C24.9165 23.4676 24.3422 24.6991 24.3085 24.6991C24.1503 24.6991 16.1469 17.0315 16.1469 16.8799C16.1469 16.7279 17.22 13.2511 18.0352 10.7614C18.193 10.2798 18.536 9.21265 18.7973 8.38982C19.0588 7.56698 19.3469 6.89389 19.4378 6.89389C19.5285 6.89389 20.8757 8.14784 22.4316 9.68026C25.2708 12.4767 25.7416 12.8058 25.8488 12.0685C25.8807 11.8499 25.1425 11.0594 23.0101 9.02891C21.4253 7.51955 20.1285 6.19963 20.1285 6.09557C20.1285 5.99151 20.2446 5.87227 20.3866 5.83068C20.6862 5.74297 21.7373 5.35461 26.3958 3.61086C28.2612 2.91266 30.3133 2.15025 30.956 1.91659C31.5986 1.68293 32.1565 1.46008 32.1957 1.4214C32.2835 1.33456 33.0056 1.99219 36.534 5.37212ZM42.8494 11.4547C44.3836 12.9195 45.6392 14.1599 45.6395 14.2108C45.6397 14.2618 45.476 14.4097 45.2757 14.5396C44.9355 14.7603 44.8798 14.7568 44.4325 14.4877C43.148 13.7145 41.3427 14.0863 40.6785 15.2609C40.5412 15.5037 40.444 15.4976 38.9207 15.1508C38.0339 14.949 36.9432 14.7086 36.4971 14.6167C36.0511 14.5247 35.487 14.3989 35.2437 14.3371C35.0004 14.2752 34.4031 14.1443 33.9165 14.046C32.7185 13.8042 32.631 13.7737 32.6877 13.6184C32.7288 13.5055 39.8657 8.80445 40.0111 8.79452C40.0379 8.79263 41.3151 9.98981 42.8494 11.4547ZM35.8427 15.3555C38.0455 15.8353 39.9565 16.2692 40.0894 16.3197C40.2224 16.3702 40.3312 16.5605 40.3312 16.7425C40.3312 16.9245 40.3708 17.2691 40.4191 17.5081C40.5041 17.9288 40.4325 17.9953 38.193 19.5772C36.9204 20.4761 35.8268 21.1916 35.7626 21.1676C35.6047 21.1079 29.8612 15.542 29.8612 15.4486C29.8612 15.2626 31.1533 14.4953 31.4762 14.4896C31.675 14.4859 33.64 14.8756 35.8427 15.3555ZM43.9834 15.245C44.3103 15.5135 44.6077 16.1873 44.6077 16.6595C44.6077 17.4311 43.2531 20.4857 42.9073 20.4939C42.5487 20.5022 41.216 17.4479 41.216 16.6174C41.216 16.0154 41.7599 15.1882 42.2499 15.0447C42.7107 14.9099 43.7169 15.0261 43.9834 15.245ZM49.4711 17.8145C51.0949 19.3659 52.4234 20.6816 52.4234 20.7383C52.4234 20.7951 51.6455 21.4304 50.6948 22.1501C49.7441 22.8697 47.6185 24.4931 45.971 25.7572C44.3237 27.0214 42.9274 28.0559 42.8681 28.0559C42.8087 28.0559 41.8994 27.2021 40.8474 26.1586C39.7953 25.1151 38.8246 24.2613 38.6901 24.2613C38.5558 24.2613 38.403 24.3716 38.3506 24.5065C38.252 24.7609 38.2769 24.7899 41.0013 27.5881C41.7277 28.3342 42.3415 29.0302 42.3654 29.135C42.4177 29.3645 41.2737 33.1652 41.1006 33.3366C41.0335 33.403 39.0247 32.9666 36.6365 32.3671C31.4302 31.06 31.6308 31.1162 31.6308 30.9663C31.6308 30.9 32.0036 30.0703 32.4592 29.1224C32.9149 28.1747 33.5371 26.8737 33.8417 26.2315C35.3702 23.0103 35.6241 22.51 35.7314 22.51C35.7952 22.51 36.1067 22.7727 36.4234 23.0937C37.0259 23.7044 37.4769 23.8369 37.6278 23.4478C37.6857 23.2984 37.4933 22.9926 37.0768 22.5727C36.6943 22.187 36.4936 21.8786 36.5777 21.8059C36.9277 21.5038 40.5225 18.9815 40.6981 18.9148C40.8276 18.8656 41.1073 19.244 41.5158 20.0212C42.2324 21.3843 42.6295 21.9262 42.9119 21.9262C43.2103 21.9262 43.6222 21.3396 44.4287 19.7663C45.3231 18.0213 45.5608 17.1904 45.4349 16.2508C45.3427 15.5624 45.3564 15.5261 45.8214 15.2316C46.0867 15.0636 46.3519 14.9413 46.4112 14.96C46.4704 14.9786 47.8472 16.2631 49.4711 17.8145ZM32.164 19.0242L34.9859 21.8142L34.1769 23.512C33.7319 24.4459 33.1004 25.7682 32.7735 26.4505C32.4466 27.1328 31.8571 28.3683 31.4636 29.1961C30.9588 30.2577 30.6933 30.6687 30.5627 30.5909C30.133 30.3351 25.1423 25.489 25.1423 25.3277C25.1423 25.1517 25.6074 24.0595 27.0262 20.9046C27.1885 20.5434 27.6361 19.5254 28.0208 18.6424C28.8755 16.6802 29.1007 16.2343 29.2368 16.2343C29.2949 16.2343 30.6121 17.4898 32.164 19.0242ZM22.1666 23.9316C25.6282 27.2019 28.8584 30.2526 29.3451 30.7109L30.2299 31.5442L29.5725 32.2081C29.2109 32.5733 28.8285 32.872 28.7228 32.872C28.483 32.872 15.2621 19.9047 15.2621 19.6694C15.2621 19.3959 15.7079 17.9857 15.7945 17.9857C15.8377 17.9857 18.7052 20.6614 22.1666 23.9316ZM21.2345 26.9565L28.0179 33.5908L25.9534 35.5071L24.9211 35.4192C24.3534 35.3707 23.5902 35.274 23.2253 35.2039C22.8603 35.134 21.6658 34.9399 20.5709 34.7728C18.458 34.4504 15.4272 33.9745 14.0824 33.754C13.6363 33.6808 12.6864 33.5367 11.9715 33.4335L10.6714 33.2458L6.24907 28.9512C3.55886 26.3387 1.87983 24.6041 1.96241 24.5224C2.08598 24.4001 13.9612 20.3733 14.3036 20.3376C14.3847 20.3291 17.5036 23.3077 21.2345 26.9565ZM55.8505 23.9453C57.2504 25.2968 58.5783 26.5564 58.8013 26.7447C59.0242 26.9328 59.2057 27.1571 59.2046 27.2429C59.2019 27.423 48.2833 32.7767 47.7828 32.8433C47.5225 32.8779 47.0297 32.4524 45.5102 30.8813C44.443 29.778 43.5892 28.8177 43.6128 28.7476C43.6793 28.5503 52.9153 21.5095 53.1224 21.4983C53.2228 21.4929 54.4504 22.594 55.8505 23.9453ZM15.5233 24.5749C14.5795 24.8354 13.7828 26.0344 13.7921 27.1802C13.7972 27.8107 14.4207 29.3882 15.2484 30.8653C16.4134 32.9443 16.6126 32.858 18.2325 29.5732C18.8138 28.3944 18.873 28.1739 18.874 27.1802C18.8749 26.2545 18.8181 26.0014 18.5064 25.5399C17.8999 24.6421 16.6934 24.252 15.5233 24.5749ZM17.3444 25.5871C17.7853 25.8153 18.1066 26.7228 18.0063 27.4569C17.9031 28.2123 16.6107 31.0061 16.397 30.9356C16.1496 30.854 14.9839 28.4735 14.8059 27.6868C14.6534 27.0123 14.6659 26.8525 14.9104 26.3569C15.3702 25.4253 16.4016 25.099 17.3444 25.5871ZM45.2532 31.8546C46.277 32.9005 47.1146 33.8231 47.1146 33.9052C47.1146 33.987 47.0117 34.2512 46.8858 34.4922C46.7277 34.7946 46.5793 34.9059 46.4065 34.8519C46.2688 34.8089 45.2634 34.5521 44.1723 34.2813C43.0812 34.0104 42.1651 33.7195 42.1365 33.6349C42.108 33.5502 42.2906 32.7693 42.5422 31.8995C43.1241 29.8872 43.0999 29.9531 43.2577 29.9531C43.3314 29.9531 44.2293 30.8088 45.2532 31.8546ZM37.3606 33.4679C40.576 34.2773 43.8704 35.1056 44.6815 35.3084C45.4925 35.5113 46.208 35.7247 46.2713 35.7825C46.3347 35.8402 46.0148 36.9659 45.5605 38.2838C45.1063 39.6018 44.5445 41.2383 44.3121 41.9206C43.3602 44.7147 42.7289 46.4557 42.6333 46.5502C42.5776 46.6054 40.7522 44.8901 38.577 42.7385C35.7073 39.8998 34.5454 38.841 34.343 38.8795C34.1896 38.9087 34.064 39.0445 34.064 39.1811C34.064 39.3177 35.806 41.1604 37.9349 43.276C40.064 45.3916 41.8059 47.1855 41.8059 47.2627C41.8059 47.383 39.5935 48.1259 30.8457 50.9427L29.2495 51.4566L24.6153 46.8719C22.0665 44.3503 19.981 42.2481 19.981 42.2004C19.981 42.1526 20.7635 41.3969 21.7199 40.5211C26.8761 35.7995 28.4293 34.3992 28.5654 34.3502C28.648 34.3202 29.7275 35.2956 30.9639 36.5174C32.5548 38.0894 33.293 38.7235 33.4889 38.6862C34.183 38.5539 33.8783 38.0917 31.6087 35.8329L29.3451 33.5803L30.2299 32.7885C30.7165 32.3532 31.2046 31.9968 31.3145 31.9967C31.4245 31.9965 34.1452 32.6587 37.3606 33.4679ZM13.935 34.6232C14.381 34.6974 15.1774 34.8249 15.7045 34.9068C16.2317 34.9887 17.4926 35.1847 18.5064 35.3423C19.5202 35.4999 21.3119 35.7736 22.4879 35.9503C23.664 36.1269 24.6794 36.3178 24.7445 36.3744C24.8782 36.4909 19.4642 41.4828 19.2042 41.4828C19.0144 41.4828 12.0179 34.6241 12.0179 34.4382C12.0179 34.3214 12.2564 34.3443 13.935 34.6232Z" fill="black"/>
<path fill-rule="evenodd" clip-rule="evenodd" d="M31.1991 1.07259C28.731 2.01569 26.8378 2.7314 24.8581 3.46988C23.8443 3.84802 22.3475 4.41181 21.5319 4.72296C20.7163 5.03397 19.98 5.28849 19.8958 5.28849C19.6324 5.28849 19.2845 5.77289 19.0574 6.45605C18.9374 6.81726 18.4625 8.29495 18.0023 9.73981C17.2334 12.1536 15.7047 16.9341 15.1654 18.6106C15.0419 18.9944 14.8303 19.367 14.6952 19.4387C14.5602 19.5102 11.5326 20.5347 7.9673 21.7154C4.40188 22.8963 1.402 23.9272 1.30054 24.0066C1.19923 24.0862 1.11621 24.2638 1.11621 24.4014C1.11621 24.5392 3.81453 27.273 7.11244 30.4768C10.4104 33.6804 16.7963 39.8974 21.3035 44.2922C27.6375 50.4683 29.5804 52.2827 29.8597 52.2827C30.0583 52.2827 30.5904 52.157 31.0418 52.0035C31.9314 51.7008 34.9725 50.725 40.1945 49.0662C42.0194 48.4865 43.5943 47.9374 43.6943 47.8461C43.7943 47.7547 44.5126 45.8423 45.2905 43.5962C46.0685 41.3502 46.9338 38.8558 47.2134 38.0531C47.493 37.2504 47.9366 35.9697 48.1991 35.2071L48.6764 33.8207L51.5506 32.4049C53.1315 31.6262 55.9346 30.2545 57.7797 29.3568C60.2467 28.1566 61.1346 27.657 61.1346 27.4694C61.1346 27.3231 56.0283 22.3062 49.1595 15.704C33.0246 0.195757 33.3173 0.471739 33.0143 0.476701C32.8675 0.479036 32.0507 0.747282 31.1991 1.07259ZM37.1346 5.37212C38.6554 6.82894 39.8996 8.05502 39.8996 8.09691C39.8996 8.16915 38.295 9.22637 32.3201 13.0908L29.6807 14.798L28.5505 13.686C27.7338 12.8824 27.3512 12.6002 27.1714 12.6685C26.7166 12.8411 26.9126 13.2404 27.9549 14.2641C28.5226 14.8216 28.9871 15.3585 28.9871 15.4572C28.9871 15.6141 28.6854 16.3383 27.66 18.6424C27.5172 18.9635 26.8535 20.4577 26.1853 21.9627C25.5171 23.4676 24.9428 24.6991 24.9091 24.6991C24.7509 24.6991 16.7475 17.0315 16.7475 16.8799C16.7475 16.7279 17.8206 13.2511 18.6358 10.7614C18.7936 10.2798 19.1366 9.21265 19.3979 8.38982C19.6594 7.56698 19.9475 6.89389 20.0384 6.89389C20.129 6.89389 21.4763 8.14784 23.0322 9.68026C25.8713 12.4767 26.3422 12.8058 26.4494 12.0685C26.4813 11.8499 25.7431 11.0594 23.6107 9.02891C22.0259 7.51955 20.7291 6.19963 20.7291 6.09557C20.7291 5.99151 20.8451 5.87227 20.9872 5.83068C21.2868 5.74297 22.3379 5.35461 26.9964 3.61086C28.8618 2.91266 30.9139 2.15025 31.5566 1.91659C32.1992 1.68293 32.7571 1.46008 32.7963 1.4214C32.8841 1.33456 33.6062 1.99219 37.1346 5.37212ZM43.4499 11.4547C44.9842 12.9195 46.2398 14.1599 46.2401 14.2108C46.2403 14.2618 46.0766 14.4097 45.8763 14.5396C45.5361 14.7603 45.4804 14.7568 45.0331 14.4877C43.7486 13.7145 41.9433 14.0863 41.2791 15.2609C41.1418 15.5037 41.0446 15.4976 39.5213 15.1508C38.6345 14.949 37.5438 14.7086 37.0977 14.6167C36.6516 14.5247 36.0876 14.3989 35.8443 14.3371C35.601 14.2752 35.0037 14.1443 34.5171 14.046C33.3191 13.8042 33.2316 13.7737 33.2883 13.6184C33.3294 13.5055 40.4663 8.80445 40.6117 8.79452C40.6385 8.79263 41.9157 9.98981 43.4499 11.4547ZM36.4433 15.3555C38.6461 15.8353 40.5571 16.2692 40.69 16.3197C40.823 16.3702 40.9318 16.5605 40.9318 16.7425C40.9318 16.9245 40.9713 17.2691 41.0197 17.5081C41.1047 17.9288 41.0331 17.9953 38.7936 19.5772C37.521 20.4761 36.4274 21.1916 36.3632 21.1676C36.2053 21.1079 30.4618 15.542 30.4618 15.4486C30.4618 15.2626 31.7539 14.4953 32.0768 14.4896C32.2756 14.4859 34.2406 14.8756 36.4433 15.3555ZM44.5839 15.245C44.9109 15.5135 45.2083 16.1873 45.2083 16.6595C45.2083 17.4311 43.8537 20.4857 43.5079 20.4939C43.1493 20.5022 41.8166 17.4479 41.8166 16.6174C41.8166 16.0154 42.3605 15.1882 42.8505 15.0447C43.3113 14.9099 44.3175 15.0261 44.5839 15.245ZM50.0717 17.8145C51.6955 19.3659 53.024 20.6816 53.024 20.7383C53.024 20.7951 52.2461 21.4304 51.2954 22.1501C50.3447 22.8697 48.2191 24.4931 46.5716 25.7572C44.9243 27.0214 43.5279 28.0559 43.4687 28.0559C43.4092 28.0559 42.5 27.2021 41.4479 26.1586C40.3959 25.1151 39.4252 24.2613 39.2907 24.2613C39.1563 24.2613 39.0036 24.3716 38.9512 24.5065C38.8526 24.7609 38.8775 24.7899 41.6019 27.5881C42.3283 28.3342 42.9421 29.0302 42.966 29.135C43.0183 29.3645 41.8743 33.1652 41.7011 33.3366C41.6341 33.403 39.6253 32.9666 37.2371 32.3671C32.0308 31.06 32.2314 31.1162 32.2314 30.9663C32.2314 30.9 32.6042 30.0703 33.0598 29.1224C33.5155 28.1747 34.1377 26.8737 34.4423 26.2315C35.9708 23.0103 36.2247 22.51 36.3319 22.51C36.3958 22.51 36.7072 22.7727 37.024 23.0937C37.6265 23.7044 38.0775 23.8369 38.2283 23.4478C38.2863 23.2984 38.0939 22.9926 37.6774 22.5727C37.2949 22.187 37.0942 21.8786 37.1782 21.8059C37.5283 21.5038 41.1231 18.9815 41.2987 18.9148C41.4282 18.8656 41.7079 19.244 42.1164 20.0212C42.8329 21.3843 43.2301 21.9262 43.5125 21.9262C43.8109 21.9262 44.2228 21.3396 45.0293 19.7663C45.9237 18.0213 46.1614 17.1904 46.0354 16.2508C45.9433 15.5624 45.957 15.5261 46.422 15.2316C46.6872 15.0636 46.9525 14.9413 47.0118 14.96C47.0709 14.9786 48.4478 16.2631 50.0717 17.8145ZM32.7646 19.0242L35.5865 21.8142L34.7775 23.512C34.3325 24.4459 33.701 25.7682 33.3741 26.4505C33.0472 27.1328 32.4577 28.3683 32.0641 29.1961C31.5594 30.2577 31.2939 30.6687 31.1633 30.5909C30.7336 30.3351 25.7429 25.489 25.7429 25.3277C25.7429 25.1517 26.208 24.0595 27.6268 20.9046C27.7891 20.5434 28.2367 19.5254 28.6214 18.6424C29.4761 16.6802 29.7013 16.2343 29.8374 16.2343C29.8955 16.2343 31.2127 17.4898 32.7646 19.0242ZM22.7672 23.9316C26.2288 27.2019 29.459 30.2526 29.9457 30.7109L30.8305 31.5442L30.1731 32.2081C29.8115 32.5733 29.4291 32.872 29.3234 32.872C29.0836 32.872 15.8627 19.9047 15.8627 19.6694C15.8627 19.3959 16.3085 17.9857 16.3951 17.9857C16.4383 17.9857 19.3058 20.6614 22.7672 23.9316ZM21.8351 26.9565L28.6185 33.5908L26.554 35.5071L25.5217 35.4192C24.954 35.3707 24.1908 35.274 23.8259 35.2039C23.4609 35.134 22.2664 34.9399 21.1715 34.7728C19.0586 34.4504 16.0277 33.9745 14.683 33.754C14.2369 33.6808 13.287 33.5367 12.572 33.4335L11.272 33.2458L6.84966 28.9512C4.15945 26.3387 2.48041 24.6041 2.56299 24.5224C2.68657 24.4001 14.5618 20.3733 14.9042 20.3376C14.9853 20.3291 18.1042 23.3077 21.8351 26.9565ZM56.4511 23.9453C57.8509 25.2968 59.1789 26.5564 59.4018 26.7447C59.6248 26.9328 59.8063 27.1571 59.8052 27.2429C59.8025 27.423 48.8839 32.7767 48.3834 32.8433C48.1231 32.8779 47.6303 32.4524 46.1108 30.8813C45.0436 29.778 44.1898 28.8177 44.2134 28.7476C44.2799 28.5503 53.5159 21.5095 53.723 21.4983C53.8234 21.4929 55.051 22.594 56.4511 23.9453ZM16.1239 24.5749C15.1801 24.8354 14.3834 26.0344 14.3927 27.1802C14.3978 27.8107 15.0213 29.3882 15.849 30.8653C17.014 32.9443 17.2132 32.858 18.8331 29.5732C19.4144 28.3944 19.4736 28.1739 19.4746 27.1802C19.4755 26.2545 19.4187 26.0014 19.107 25.5399C18.5004 24.6421 17.294 24.252 16.1239 24.5749ZM17.9449 25.5871C18.3859 25.8153 18.7072 26.7228 18.6069 27.4569C18.5037 28.2123 17.2113 31.0061 16.9976 30.9356C16.7502 30.854 15.5845 28.4735 15.4065 27.6868C15.254 27.0123 15.2665 26.8525 15.511 26.3569C15.9708 25.4253 17.0022 25.099 17.9449 25.5871ZM45.8538 31.8546C46.8776 32.9005 47.7152 33.8231 47.7152 33.9052C47.7152 33.987 47.6123 34.2512 47.4864 34.4922C47.3283 34.7946 47.1799 34.9059 47.0071 34.8519C46.8694 34.8089 45.8639 34.5521 44.7728 34.2813C43.6818 34.0104 42.7657 33.7195 42.7371 33.6349C42.7086 33.5502 42.8912 32.7693 43.1428 31.8995C43.7247 29.8872 43.7005 29.9531 43.8583 29.9531C43.932 29.9531 44.8299 30.8088 45.8538 31.8546ZM37.9611 33.4679C41.1766 34.2773 44.471 35.1056 45.282 35.3084C46.0931 35.5113 46.8086 35.7247 46.8719 35.7825C46.9353 35.8402 46.6154 36.9659 46.1611 38.2838C45.7069 39.6018 45.1451 41.2383 44.9126 41.9206C43.9608 44.7147 43.3295 46.4557 43.2339 46.5502C43.1782 46.6054 41.3528 44.8901 39.1776 42.7385C36.3079 39.8998 35.146 38.841 34.9436 38.8795C34.7902 38.9087 34.6645 39.0445 34.6645 39.1811C34.6645 39.3177 36.4066 41.1604 38.5355 43.276C40.6646 45.3916 42.4065 47.1855 42.4065 47.2627C42.4065 47.383 40.1941 48.1259 31.4463 50.9427L29.8501 51.4566L25.2159 46.8719C22.6671 44.3503 20.5816 42.2481 20.5816 42.2004C20.5816 42.1526 21.3641 41.3969 22.3205 40.5211C27.4767 35.7995 29.0299 34.3992 29.166 34.3502C29.2486 34.3202 30.328 35.2956 31.5645 36.5174C33.1554 38.0894 33.8936 38.7235 34.0894 38.6862C34.7836 38.5539 34.4789 38.0917 32.2093 35.8329L29.9457 33.5803L30.8305 32.7885C31.3171 32.3532 31.8052 31.9968 31.9151 31.9967C32.0251 31.9965 34.7458 32.6587 37.9611 33.4679ZM14.5355 34.6232C14.9816 34.6974 15.7779 34.8249 16.3051 34.9068C16.8323 34.9887 18.0931 35.1847 19.107 35.3423C20.1208 35.4999 21.9125 35.7736 23.0885 35.9503C24.2646 36.1269 25.28 36.3178 25.345 36.3744C25.4788 36.4909 20.0648 41.4828 19.8048 41.4828C19.615 41.4828 12.6185 34.6241 12.6185 34.4382C12.6185 34.3214 12.8569 34.3443 14.5355 34.6232Z" fill="black"/>
<path fill-rule="evenodd" clip-rule="evenodd" d="M31.4643 1.07259C28.9961 2.01569 27.103 2.7314 25.1232 3.46988C24.1094 3.84802 22.6127 4.41181 21.797 4.72296C20.9814 5.03397 20.2451 5.28849 20.1609 5.28849C19.8975 5.28849 19.5497 5.77289 19.3226 6.45605C19.2025 6.81726 18.7277 8.29495 18.2674 9.73981C17.4986 12.1536 15.9698 16.9341 15.4305 18.6106C15.3071 18.9944 15.0955 19.367 14.9604 19.4387C14.8253 19.5102 11.7977 20.5347 8.23243 21.7154C4.66702 22.8963 1.66714 23.9272 1.56568 24.0066C1.46437 24.0862 1.38135 24.2638 1.38135 24.4014C1.38135 24.5392 4.07967 27.273 7.37758 30.4768C10.6755 33.6804 17.0615 39.8974 21.5686 44.2922C27.9027 50.4683 29.8455 52.2827 30.1248 52.2827C30.3235 52.2827 30.8555 52.157 31.3069 52.0035C32.1966 51.7008 35.2376 50.725 40.4596 49.0662C42.2845 48.4865 43.8594 47.9374 43.9594 47.8461C44.0594 47.7547 44.7777 45.8423 45.5556 43.5962C46.3336 41.3502 47.1989 38.8558 47.4785 38.0531C47.7581 37.2504 48.2017 35.9697 48.4642 35.2071L48.9415 33.8207L51.8158 32.4049C53.3966 31.6262 56.1998 30.2545 58.0449 29.3568C60.5118 28.1566 61.3997 27.657 61.3997 27.4694C61.3997 27.3231 56.2934 22.3062 49.4246 15.704C33.2897 0.195757 33.5824 0.471739 33.2794 0.476701C33.1327 0.479036 32.3159 0.747282 31.4643 1.07259ZM37.3997 5.37212C38.9205 6.82894 40.1647 8.05502 40.1647 8.09691C40.1647 8.16915 38.5601 9.22637 32.5853 13.0908L29.9458 14.798L28.8156 13.686C27.999 12.8824 27.6163 12.6002 27.4365 12.6685C26.9818 12.8411 27.1777 13.2404 28.22 14.2641C28.7878 14.8216 29.2523 15.3585 29.2523 15.4572C29.2523 15.6141 28.9506 16.3383 27.9251 18.6424C27.7823 18.9635 27.1186 20.4577 26.4504 21.9627C25.7823 23.4676 25.2079 24.6991 25.1743 24.6991C25.016 24.6991 17.0127 17.0315 17.0127 16.8799C17.0127 16.7279 18.0858 13.2511 18.901 10.7614C19.0587 10.2798 19.4017 9.21265 19.6631 8.38982C19.9245 7.56698 20.2127 6.89389 20.3035 6.89389C20.3942 6.89389 21.7414 8.14784 23.2973 9.68026C26.1365 12.4767 26.6073 12.8058 26.7145 12.0685C26.7464 11.8499 26.0082 11.0594 23.8758 9.02891C22.291 7.51955 20.9942 6.19963 20.9942 6.09557C20.9942 5.99151 21.1103 5.87227 21.2523 5.83068C21.5519 5.74297 22.6031 5.35461 27.2615 3.61086C29.1269 2.91266 31.1791 2.15025 31.8217 1.91659C32.4644 1.68293 33.0222 1.46008 33.0614 1.4214C33.1492 1.33456 33.8713 1.99219 37.3997 5.37212ZM43.7151 11.4547C45.2493 12.9195 46.505 14.1599 46.5053 14.2108C46.5054 14.2618 46.3417 14.4097 46.1415 14.5396C45.8013 14.7603 45.7455 14.7568 45.2983 14.4877C44.0137 13.7145 42.2084 14.0863 41.5442 15.2609C41.407 15.5037 41.3098 15.4976 39.7865 15.1508C38.8996 14.949 37.8089 14.7086 37.3629 14.6167C36.9168 14.5247 36.3527 14.3989 36.1094 14.3371C35.8661 14.2752 35.2689 14.1443 34.7822 14.046C33.5842 13.8042 33.4968 13.7737 33.5534 13.6184C33.5945 13.5055 40.7314 8.80445 40.8768 8.79452C40.9036 8.79263 42.1808 9.98981 43.7151 11.4547ZM36.7084 15.3555C38.9112 15.8353 40.8222 16.2692 40.9551 16.3197C41.0881 16.3702 41.197 16.5605 41.197 16.7425C41.197 16.9245 41.2365 17.2691 41.2848 17.5081C41.3698 17.9288 41.2983 17.9953 39.0587 19.5772C37.7861 20.4761 36.6925 21.1916 36.6283 21.1676C36.4704 21.1079 30.7269 15.542 30.7269 15.4486C30.7269 15.2626 32.019 14.4953 32.342 14.4896C32.5407 14.4859 34.5057 14.8756 36.7084 15.3555ZM44.8491 15.245C45.176 15.5135 45.4734 16.1873 45.4734 16.6595C45.4734 17.4311 44.1188 20.4857 43.773 20.4939C43.4144 20.5022 42.0817 17.4479 42.0817 16.6174C42.0817 16.0154 42.6256 15.1882 43.1156 15.0447C43.5765 14.9099 44.5826 15.0261 44.8491 15.245ZM50.3369 17.8145C51.9606 19.3659 53.2891 20.6816 53.2891 20.7383C53.2891 20.7951 52.5112 21.4304 51.5605 22.1501C50.6098 22.8697 48.4842 24.4931 46.8368 25.7572C45.1894 27.0214 43.7931 28.0559 43.7338 28.0559C43.6744 28.0559 42.7651 27.2021 41.7131 26.1586C40.6611 25.1151 39.6903 24.2613 39.5558 24.2613C39.4215 24.2613 39.2687 24.3716 39.2164 24.5065C39.1177 24.7609 39.1426 24.7899 41.867 27.5881C42.5935 28.3342 43.2072 29.0302 43.2311 29.135C43.2834 29.3645 42.1394 33.1652 41.9663 33.3366C41.8992 33.403 39.8904 32.9666 37.5022 32.3671C32.296 31.06 32.4965 31.1162 32.4965 30.9663C32.4965 30.9 32.8693 30.0703 33.325 29.1224C33.7806 28.1747 34.4028 26.8737 34.7075 26.2315C36.2359 23.0103 36.4899 22.51 36.5971 22.51C36.6609 22.51 36.9724 22.7727 37.2891 23.0937C37.8917 23.7044 38.3426 23.8369 38.4935 23.4478C38.5514 23.2984 38.359 22.9926 37.9425 22.5727C37.56 22.187 37.3593 21.8786 37.4434 21.8059C37.7935 21.5038 41.3882 18.9815 41.5639 18.9148C41.6933 18.8656 41.9731 19.244 42.3815 20.0212C43.0981 21.3843 43.4952 21.9262 43.7776 21.9262C44.0761 21.9262 44.4879 21.3396 45.2944 19.7663C46.1888 18.0213 46.4265 17.1904 46.3006 16.2508C46.2084 15.5624 46.2221 15.5261 46.6871 15.2316C46.9524 15.0636 47.2177 14.9413 47.277 14.96C47.3361 14.9786 48.713 16.2631 50.3369 17.8145ZM33.0297 19.0242L35.8516 21.8142L35.0426 23.512C34.5976 24.4459 33.9661 25.7682 33.6392 26.4505C33.3123 27.1328 32.7229 28.3683 32.3293 29.1961C31.8245 30.2577 31.5591 30.6687 31.4284 30.5909C30.9987 30.3351 26.008 25.489 26.008 25.3277C26.008 25.1517 26.4731 24.0595 27.8919 20.9046C28.0543 20.5434 28.5018 19.5254 28.8866 18.6424C29.7413 16.6802 29.9664 16.2343 30.1026 16.2343C30.1607 16.2343 31.4778 17.4898 33.0297 19.0242ZM23.0323 23.9316C26.4939 27.2019 29.7242 30.2526 30.2108 30.7109L31.0956 31.5442L30.4382 32.2081C30.0766 32.5733 29.6942 32.872 29.5885 32.872C29.3487 32.872 16.1279 19.9047 16.1279 19.6694C16.1279 19.3959 16.5737 17.9857 16.6602 17.9857C16.7034 17.9857 19.5709 20.6614 23.0323 23.9316ZM22.1002 26.9565L28.8836 33.5908L26.8191 35.5071L25.7868 35.4192C25.2191 35.3707 24.456 35.274 24.091 35.2039C23.726 35.134 22.5315 34.9399 21.4366 34.7728C19.3237 34.4504 16.2929 33.9745 14.9481 33.754C14.5021 33.6808 13.5521 33.5367 12.8372 33.4335L11.5371 33.2458L7.11479 28.9512C4.42459 26.3387 2.74555 24.6041 2.82813 24.5224C2.9517 24.4001 14.8269 20.3733 15.1693 20.3376C15.2505 20.3291 18.3693 23.3077 22.1002 26.9565ZM56.7162 23.9453C58.1161 25.2968 59.444 26.5564 59.667 26.7447C59.8899 26.9328 60.0715 27.1571 60.0703 27.2429C60.0676 27.423 49.149 32.7767 48.6485 32.8433C48.3883 32.8779 47.8954 32.4524 46.3759 30.8813C45.3087 29.778 44.4549 28.8177 44.4785 28.7476C44.545 28.5503 53.7811 21.5095 53.9881 21.4983C54.0885 21.4929 55.3162 22.594 56.7162 23.9453ZM16.389 24.5749C15.4453 24.8354 14.6485 26.0344 14.6578 27.1802C14.663 27.8107 15.2864 29.3882 16.1142 30.8653C17.2791 32.9443 17.4784 32.858 19.0983 29.5732C19.6796 28.3944 19.7387 28.1739 19.7397 27.1802C19.7406 26.2545 19.6838 26.0014 19.3721 25.5399C18.7656 24.6421 17.5592 24.252 16.389 24.5749ZM18.2101 25.5871C18.651 25.8153 18.9723 26.7228 18.872 27.4569C18.7688 28.2123 17.4764 31.0061 17.2628 30.9356C17.0153 30.854 15.8496 28.4735 15.6716 27.6868C15.5191 27.0123 15.5317 26.8525 15.7762 26.3569C16.236 25.4253 17.2673 25.099 18.2101 25.5871ZM46.1189 31.8546C47.1428 32.9005 47.9804 33.8231 47.9804 33.9052C47.9804 33.987 47.8774 34.2512 47.7515 34.4922C47.5934 34.7946 47.4451 34.9059 47.2722 34.8519C47.1345 34.8089 46.1291 34.5521 45.038 34.2813C43.9469 34.0104 43.0308 33.7195 43.0022 33.6349C42.9738 33.5502 43.1563 32.7693 43.4079 31.8995C43.9898 29.8872 43.9656 29.9531 44.1234 29.9531C44.1971 29.9531 45.0951 30.8088 46.1189 31.8546ZM38.2263 33.4679C41.4418 34.2773 44.7361 35.1056 45.5472 35.3084C46.3582 35.5113 47.0737 35.7247 47.137 35.7825C47.2004 35.8402 46.8806 36.9659 46.4262 38.2838C45.972 39.6018 45.4102 41.2383 45.1778 41.9206C44.2259 44.7147 43.5946 46.4557 43.499 46.5502C43.4433 46.6054 41.618 44.8901 39.4427 42.7385C36.573 39.8998 35.4112 38.841 35.2087 38.8795C35.0553 38.9087 34.9297 39.0445 34.9297 39.1811C34.9297 39.3177 36.6717 41.1604 38.8006 43.276C40.9298 45.3916 42.6716 47.1855 42.6716 47.2627C42.6716 47.383 40.4592 48.1259 31.7114 50.9427L30.1152 51.4566L25.481 46.8719C22.9322 44.3503 20.8468 42.2481 20.8468 42.2004C20.8468 42.1526 21.6292 41.3969 22.5857 40.5211C27.7418 35.7995 29.295 34.3992 29.4312 34.3502C29.5137 34.3202 30.5932 35.2956 31.8297 36.5174C33.4205 38.0894 34.1587 38.7235 34.3546 38.6862C35.0487 38.5539 34.744 38.0917 32.4744 35.8329L30.2108 33.5803L31.0956 32.7885C31.5822 32.3532 32.0703 31.9968 32.1802 31.9967C32.2902 31.9965 35.0109 32.6587 38.2263 33.4679ZM14.8007 34.6232C15.2468 34.6974 16.0431 34.8249 16.5703 34.9068C17.0975 34.9887 18.3583 35.1847 19.3721 35.3423C20.3859 35.4999 22.1776 35.7736 23.3537 35.9503C24.5297 36.1269 25.5451 36.3178 25.6102 36.3744C25.7439 36.4909 20.3299 41.4828 20.0699 41.4828C19.8801 41.4828 12.8836 34.6241 12.8836 34.4382C12.8836 34.3214 13.1221 34.3443 14.8007 34.6232Z" fill="black"/>
<path fill-rule="evenodd" clip-rule="evenodd" d="M32.0648 1.07259C29.5967 2.01569 27.7036 2.7314 25.7238 3.46988C24.71 3.84802 23.2132 4.41181 22.3976 4.72296C21.582 5.03397 20.8457 5.28849 20.7615 5.28849C20.4981 5.28849 20.1502 5.77289 19.9231 6.45605C19.8031 6.81726 19.3283 8.29495 18.868 9.73981C18.0991 12.1536 16.5704 16.9341 16.0311 18.6106C15.9077 18.9944 15.6961 19.367 15.561 19.4387C15.4259 19.5102 12.3983 20.5347 8.83302 21.7154C5.26761 22.8963 2.26772 23.9272 2.16627 24.0066C2.06496 24.0862 1.98193 24.2638 1.98193 24.4014C1.98193 24.5392 4.68025 27.273 7.97816 30.4768C11.2761 33.6804 17.6621 39.8974 22.1692 44.2922C28.5033 50.4683 30.4461 52.2827 30.7254 52.2827C30.924 52.2827 31.4561 52.157 31.9075 52.0035C32.7972 51.7008 35.8382 50.725 41.0602 49.0662C42.8851 48.4865 44.46 47.9374 44.56 47.8461C44.66 47.7547 45.3783 45.8423 46.1562 43.5962C46.9342 41.3502 47.7995 38.8558 48.0791 38.0531C48.3587 37.2504 48.8023 35.9697 49.0648 35.2071L49.5421 33.8207L52.4164 32.4049C53.9972 31.6262 56.8004 30.2545 58.6454 29.3568C61.1124 28.1566 62.0003 27.657 62.0003 27.4694C62.0003 27.3231 56.894 22.3062 50.0252 15.704C33.8903 0.195757 34.183 0.471739 33.88 0.476701C33.7333 0.479036 32.9165 0.747282 32.0648 1.07259ZM38.0003 5.37212C39.5211 6.82894 40.7653 8.05502 40.7653 8.09691C40.7653 8.16915 39.1607 9.22637 33.1859 13.0908L30.5464 14.798L29.4162 13.686C28.5996 12.8824 28.2169 12.6002 28.0371 12.6685C27.5823 12.8411 27.7783 13.2404 28.8206 14.2641C29.3883 14.8216 29.8529 15.3585 29.8529 15.4572C29.8529 15.6141 29.5511 16.3383 28.5257 18.6424C28.3829 18.9635 27.7192 20.4577 27.051 21.9627C26.3829 23.4676 25.8085 24.6991 25.7749 24.6991C25.6166 24.6991 17.6132 17.0315 17.6132 16.8799C17.6132 16.7279 18.6864 13.2511 19.5015 10.7614C19.6593 10.2798 20.0023 9.21265 20.2636 8.38982C20.5251 7.56698 20.8132 6.89389 20.9041 6.89389C20.9948 6.89389 22.342 8.14784 23.8979 9.68026C26.7371 12.4767 27.2079 12.8058 27.3151 12.0685C27.347 11.8499 26.6088 11.0594 24.4764 9.02891C22.8916 7.51955 21.5948 6.19963 21.5948 6.09557C21.5948 5.99151 21.7109 5.87227 21.8529 5.83068C22.1525 5.74297 23.2037 5.35461 27.8621 3.61086C29.7275 2.91266 31.7796 2.15025 32.4223 1.91659C33.0649 1.68293 33.6228 1.46008 33.662 1.4214C33.7498 1.33456 34.4719 1.99219 38.0003 5.37212ZM44.3157 11.4547C45.8499 12.9195 47.1056 14.1599 47.1058 14.2108C47.106 14.2618 46.9423 14.4097 46.7421 14.5396C46.4019 14.7603 46.3461 14.7568 45.8988 14.4877C44.6143 13.7145 42.809 14.0863 42.1448 15.2609C42.0075 15.5037 41.9104 15.4976 40.387 15.1508C39.5002 14.949 38.4095 14.7086 37.9634 14.6167C37.5174 14.5247 36.9533 14.3989 36.71 14.3371C36.4667 14.2752 35.8694 14.1443 35.3828 14.046C34.1848 13.8042 34.0974 13.7737 34.154 13.6184C34.1951 13.5055 41.332 8.80445 41.4774 8.79452C41.5042 8.79263 42.7814 9.98981 44.3157 11.4547ZM37.309 15.3555C39.5118 15.8353 41.4228 16.2692 41.5557 16.3197C41.6887 16.3702 41.7975 16.5605 41.7975 16.7425C41.7975 16.9245 41.8371 17.2691 41.8854 17.5081C41.9704 17.9288 41.8989 17.9953 39.6593 19.5772C38.3867 20.4761 37.2931 21.1916 37.2289 21.1676C37.071 21.1079 31.3275 15.542 31.3275 15.4486C31.3275 15.2626 32.6196 14.4953 32.9426 14.4896C33.1413 14.4859 35.1063 14.8756 37.309 15.3555ZM45.4497 15.245C45.7766 15.5135 46.074 16.1873 46.074 16.6595C46.074 17.4311 44.7194 20.4857 44.3736 20.4939C44.015 20.5022 42.6823 17.4479 42.6823 16.6174C42.6823 16.0154 43.2262 15.1882 43.7162 15.0447C44.177 14.9099 45.1832 15.0261 45.4497 15.245ZM50.9374 17.8145C52.5612 19.3659 53.8897 20.6816 53.8897 20.7383C53.8897 20.7951 53.1118 21.4304 52.1611 22.1501C51.2104 22.8697 49.0848 24.4931 47.4373 25.7572C45.79 27.0214 44.3937 28.0559 44.3344 28.0559C44.275 28.0559 43.3657 27.2021 42.3137 26.1586C41.2617 25.1151 40.2909 24.2613 40.1564 24.2613C40.0221 24.2613 39.8693 24.3716 39.8169 24.5065C39.7183 24.7609 39.7432 24.7899 42.4676 27.5881C43.194 28.3342 43.8078 29.0302 43.8317 29.135C43.884 29.3645 42.74 33.1652 42.5669 33.3366C42.4998 33.403 40.491 32.9666 38.1028 32.3671C32.8965 31.06 33.0971 31.1162 33.0971 30.9663C33.0971 30.9 33.4699 30.0703 33.9256 29.1224C34.3812 28.1747 35.0034 26.8737 35.308 26.2315C36.8365 23.0103 37.0905 22.51 37.1977 22.51C37.2615 22.51 37.573 22.7727 37.8897 23.0937C38.4923 23.7044 38.9432 23.8369 39.0941 23.4478C39.152 23.2984 38.9596 22.9926 38.5431 22.5727C38.1606 22.187 37.9599 21.8786 38.044 21.8059C38.394 21.5038 41.9888 18.9815 42.1644 18.9148C42.2939 18.8656 42.5737 19.244 42.9821 20.0212C43.6987 21.3843 44.0958 21.9262 44.3782 21.9262C44.6767 21.9262 45.0885 21.3396 45.895 19.7663C46.7894 18.0213 47.0271 17.1904 46.9012 16.2508C46.809 15.5624 46.8227 15.5261 47.2877 15.2316C47.553 15.0636 47.8183 14.9413 47.8775 14.96C47.9367 14.9786 49.3136 16.2631 50.9374 17.8145ZM33.6303 19.0242L36.4522 21.8142L35.6432 23.512C35.1982 24.4459 34.5667 25.7682 34.2398 26.4505C33.9129 27.1328 33.3235 28.3683 32.9299 29.1961C32.4251 30.2577 32.1597 30.6687 32.029 30.5909C31.5993 30.3351 26.6086 25.489 26.6086 25.3277C26.6086 25.1517 27.0737 24.0595 28.4925 20.9046C28.6549 20.5434 29.1024 19.5254 29.4871 18.6424C30.3419 16.6802 30.567 16.2343 30.7031 16.2343C30.7612 16.2343 32.0784 17.4898 33.6303 19.0242ZM23.6329 23.9316C27.0945 27.2019 30.3247 30.2526 30.8114 30.7109L31.6962 31.5442L31.0388 32.2081C30.6772 32.5733 30.2948 32.872 30.1891 32.872C29.9493 32.872 16.7285 19.9047 16.7285 19.6694C16.7285 19.3959 17.1742 17.9857 17.2608 17.9857C17.304 17.9857 20.1715 20.6614 23.6329 23.9316ZM22.7008 26.9565L29.4842 33.5908L27.4197 35.5071L26.3874 35.4192C25.8197 35.3707 25.0566 35.274 24.6916 35.2039C24.3266 35.134 23.1321 34.9399 22.0372 34.7728C19.9243 34.4504 16.8935 33.9745 15.5487 33.754C15.1027 33.6808 14.1527 33.5367 13.4378 33.4335L12.1377 33.2458L7.71538 28.9512C5.02517 26.3387 3.34613 24.6041 3.42871 24.5224C3.55229 24.4001 15.4275 20.3733 15.7699 20.3376C15.851 20.3291 18.9699 23.3077 22.7008 26.9565ZM57.3168 23.9453C58.7167 25.2968 60.0446 26.5564 60.2676 26.7447C60.4905 26.9328 60.6721 27.1571 60.6709 27.2429C60.6682 27.423 49.7496 32.7767 49.2491 32.8433C48.9888 32.8779 48.496 32.4524 46.9765 30.8813C45.9093 29.778 45.0555 28.8177 45.0791 28.7476C45.1456 28.5503 54.3816 21.5095 54.5887 21.4983C54.6891 21.4929 55.9167 22.594 57.3168 23.9453ZM16.9896 24.5749C16.0458 24.8354 15.2491 26.0344 15.2584 27.1802C15.2635 27.8107 15.887 29.3882 16.7147 30.8653C17.8797 32.9443 18.0789 32.858 19.6988 29.5732C20.2802 28.3944 20.3393 28.1739 20.3403 27.1802C20.3412 26.2545 20.2844 26.0014 19.9727 25.5399C19.3662 24.6421 18.1598 24.252 16.9896 24.5749ZM18.8107 25.5871C19.2516 25.8153 19.5729 26.7228 19.4726 27.4569C19.3694 28.2123 18.077 31.0061 17.8633 30.9356C17.6159 30.854 16.4502 28.4735 16.2722 27.6868C16.1197 27.0123 16.1323 26.8525 16.3768 26.3569C16.8365 25.4253 17.8679 25.099 18.8107 25.5871ZM46.7195 31.8546C47.7433 32.9005 48.5809 33.8231 48.5809 33.9052C48.5809 33.987 48.478 34.2512 48.3521 34.4922C48.194 34.7946 48.0456 34.9059 47.8728 34.8519C47.7351 34.8089 46.7297 34.5521 45.6386 34.2813C44.5475 34.0104 43.6314 33.7195 43.6028 33.6349C43.5744 33.5502 43.7569 32.7693 44.0085 31.8995C44.5904 29.8872 44.5662 29.9531 44.724 29.9531C44.7977 29.9531 45.6956 30.8088 46.7195 31.8546ZM38.8269 33.4679C42.0423 34.2773 45.3367 35.1056 46.1478 35.3084C46.9588 35.5113 47.6743 35.7247 47.7376 35.7825C47.801 35.8402 47.4811 36.9659 47.0268 38.2838C46.5726 39.6018 46.0108 41.2383 45.7784 41.9206C44.8265 44.7147 44.1952 46.4557 44.0996 46.5502C44.0439 46.6054 42.2186 44.8901 40.0433 42.7385C37.1736 39.8998 36.0117 38.841 35.8093 38.8795C35.6559 38.9087 35.5303 39.0445 35.5303 39.1811C35.5303 39.3177 37.2723 41.1604 39.4012 43.276C41.5303 45.3916 43.2722 47.1855 43.2722 47.2627C43.2722 47.383 41.0598 48.1259 32.312 50.9427L30.7158 51.4566L26.0816 46.8719C23.5328 44.3503 21.4473 42.2481 21.4473 42.2004C21.4473 42.1526 22.2298 41.3969 23.1863 40.5211C28.3424 35.7995 29.8956 34.3992 30.0317 34.3502C30.1143 34.3202 31.1938 35.2956 32.4303 36.5174C34.0211 38.0894 34.7593 38.7235 34.9552 38.6862C35.6493 38.5539 35.3446 38.0917 33.075 35.8329L30.8114 33.5803L31.6962 32.7885C32.1828 32.3532 32.6709 31.9968 32.7808 31.9967C32.8908 31.9965 35.6115 32.6587 38.8269 33.4679ZM15.4013 34.6232C15.8474 34.6974 16.6437 34.8249 17.1709 34.9068C17.698 34.9887 18.9589 35.1847 19.9727 35.3423C20.9865 35.4999 22.7782 35.7736 23.9543 35.9503C25.1303 36.1269 26.1457 36.3178 26.2108 36.3744C26.3445 36.4909 20.9305 41.4828 20.6705 41.4828C20.4807 41.4828 13.4842 34.6241 13.4842 34.4382C13.4842 34.3214 13.7227 34.3443 15.4013 34.6232Z" fill="black"/>
</svg>
