<svg width="47" height="48" viewBox="0 0 47 48" fill="none" xmlns="http://www.w3.org/2000/svg">
<path fill-rule="evenodd" clip-rule="evenodd" d="M37.5306 0.141641C36.9352 0.246909 35.1164 0.570266 33.4889 0.860161C31.8613 1.15006 29.7242 1.52878 28.7398 1.70171C26.5803 2.08118 26.3147 2.17668 26.1047 2.64942C25.937 3.02697 26.0294 3.69322 27.2866 11.1716C27.5261 12.5966 27.9835 15.3282 28.303 17.2419C28.6226 19.1555 29.008 21.4541 29.1597 22.3498C29.3114 23.2456 29.6685 25.3776 29.9532 27.0876C30.2378 28.7977 30.5951 30.9297 30.7471 31.8255C30.8991 32.7212 31.2564 34.8532 31.541 36.5633C31.8257 38.2733 32.1831 40.4053 32.3349 41.3011C32.4869 42.1968 32.7765 43.9291 32.9786 45.1505C33.3064 47.1338 33.3871 47.4089 33.7327 47.721C34.1713 48.1173 34.0024 48.1266 37.3863 47.5195C38.5374 47.3129 41.0054 46.8757 42.8706 46.5478C44.7358 46.22 46.4075 45.8538 46.5853 45.7343C46.7631 45.6147 46.9462 45.3635 46.9921 45.176C47.038 44.9886 46.8796 43.6735 46.6402 42.2538C46.2397 39.88 45.9499 38.1473 44.7352 30.8631C44.4975 29.438 44.1789 27.5392 44.027 26.6435C43.8752 25.7477 43.5179 23.6157 43.2332 21.9057C42.9486 20.1956 42.5909 18.0636 42.4385 17.1679C42.286 16.2721 41.9283 14.1401 41.6437 12.43C41.359 10.72 41.0018 8.58797 40.8499 7.69223C40.6981 6.79649 40.373 4.86435 40.1274 3.39859C39.7146 0.933152 39.4545 0.067317 39.127 0.067317C39.0558 0.067317 38.9112 0.0409624 38.8055 0.00868606C38.6997 -0.0234422 38.1261 0.036373 37.5306 0.141641ZM1.13357 1.69535C0.791318 1.88279 0.501033 2.20836 0.303564 2.62677L0 3.26993L0.00317613 24.3584C0.00620744 44.5976 0.0171774 45.4711 0.274839 46.053C0.431746 46.4075 0.75451 46.7932 1.05201 46.9819C1.55593 47.3012 1.61266 47.3037 7.16777 47.2479C13.8439 47.1808 12.001 47.181 18.621 47.2469C24.9574 47.31 24.8858 47.3218 25.5114 46.1082L25.8413 45.4686L25.8037 24.1853L25.7662 2.90201L25.4642 2.48404C25.2981 2.25411 24.9443 1.91388 24.678 1.72807L24.1935 1.38991L18.6285 1.44957C12.0141 1.52034 13.8494 1.51886 7.21743 1.45831C1.93615 1.40989 1.63388 1.42174 1.13357 1.69535ZM38.11 4.29122C38.2733 5.26603 38.629 7.39612 38.9006 9.02474C39.4959 12.595 40.0434 15.8564 40.4167 18.0562C40.5686 18.9519 40.926 21.0839 41.2109 22.794C41.4957 24.5041 41.9246 27.0691 42.1639 28.4942C42.4032 29.9192 42.7874 32.2178 43.0173 33.6021C43.4656 36.2996 44.1732 40.5108 44.5224 42.5579C44.6402 43.2492 44.6891 43.8636 44.6311 43.9232C44.5307 44.0262 43.1931 44.2785 38.108 45.1535C36.8774 45.3652 35.7323 45.573 35.5633 45.6151C35.2132 45.7025 35.3218 46.1711 34.3587 40.4127C34.0455 38.5398 33.6546 36.2079 33.4899 35.2308C33.3253 34.2536 32.9302 31.8884 32.6121 29.9747C32.2939 28.0611 31.871 25.5293 31.6722 24.3486C31.4735 23.1678 31.0886 20.8693 30.8171 19.2406C30.5454 17.612 30.1941 15.5133 30.0362 14.5769C29.8783 13.6404 29.5811 11.8748 29.3755 10.6534C29.1701 9.4319 28.839 7.47326 28.6396 6.3008C28.4404 5.12834 28.3294 4.12303 28.3931 4.06692C28.4567 4.01066 29.7755 3.74341 31.3236 3.47277C32.8718 3.20212 34.9179 2.83642 35.8706 2.66008C36.8233 2.4836 37.6501 2.37967 37.708 2.42912C37.7659 2.47857 37.9468 3.31642 38.11 4.29122ZM11.8366 24.3486V45.0765H7.0009H2.16523V24.3486V3.62067H7.0009H11.8366V24.3486ZM23.601 24.3486V45.0025L18.8014 45.0414L14.0018 45.0805V24.3486V3.61668L18.8014 3.65576L23.601 3.6947V24.3486ZM35.061 4.4264C35.0259 4.46238 34.6091 4.55758 34.1348 4.63782C30.5452 5.24515 30.3995 5.29342 30.1543 5.95479C29.9773 6.43212 30.35 7.14072 30.845 7.2682C31.1991 7.35925 34.4818 6.88547 35.6672 6.57204C36.6717 6.30642 37.0078 5.42104 36.3688 4.7234C36.0711 4.39827 35.2665 4.21571 35.061 4.4264ZM4.03367 5.67037C3.59962 6.03089 3.59385 6.78035 4.02169 7.21934C4.32511 7.5304 4.45185 7.54417 7.01736 7.54417H9.69632L10.0448 7.12873C10.4715 6.61986 10.4835 6.29532 10.0939 5.78748L9.79477 5.39735H7.07856C4.65408 5.39735 4.32714 5.42667 4.03367 5.67037ZM15.7445 5.78748C15.3442 6.30938 15.3675 6.75133 15.8179 7.18529C16.1842 7.53825 16.234 7.54417 18.8451 7.54417C21.3858 7.54417 21.5136 7.53026 21.8167 7.21934C22.2445 6.78035 22.2388 6.03089 21.8047 5.67037C21.5112 5.42667 21.1843 5.39735 18.7598 5.39735H16.0436L15.7445 5.78748ZM33.9456 8.6583C32.6487 8.89104 31.4317 9.18612 31.2413 9.31404C30.8102 9.60379 30.6528 10.1978 30.888 10.6485C31.2357 11.3149 31.5403 11.3334 34.2324 10.8516C36.4048 10.463 36.7797 10.3552 37.0615 10.0389C37.2402 9.83846 37.3863 9.51895 37.3863 9.329C37.3863 8.91695 36.9941 8.41342 36.5923 8.30978C36.4336 8.26876 35.2425 8.42555 33.9456 8.6583ZM4.09791 9.59357C3.58822 10.0432 3.5579 10.7995 4.03367 11.1947C4.32584 11.4373 4.65048 11.4677 6.95428 11.4677C8.50501 11.4677 9.66096 11.4046 9.83215 11.3106C10.5245 10.9305 10.4593 9.75629 9.72692 9.41413C9.50607 9.31079 8.43529 9.24682 6.93003 9.24682C4.58032 9.24682 4.47654 9.25956 4.09791 9.59357ZM16.0949 9.42568C15.3728 9.85045 15.2511 10.5417 15.7997 11.1042C16.1494 11.4631 16.1864 11.4677 18.747 11.4677C20.1731 11.4677 21.4451 11.4262 21.5736 11.3757C21.9 11.2472 22.2623 10.4739 22.1563 10.1316C22.108 9.97497 21.901 9.71172 21.6964 9.54679C21.3554 9.27155 21.1205 9.24727 18.8541 9.25127C17.2678 9.25423 16.2802 9.31656 16.0949 9.42568ZM34.1111 12.637C31.7779 13.0892 31.4276 13.2867 31.497 14.1105C31.5264 14.4595 31.6621 14.7144 31.9248 14.9147L32.3095 15.208L34.884 14.7382C37.6841 14.2272 38.0117 14.0717 38.0117 13.2544C38.0117 13.0067 37.8935 12.6699 37.7489 12.506C37.3988 12.1094 36.7061 12.1344 34.1111 12.637ZM4.03367 13.5174C3.5579 13.9125 3.58822 14.6688 4.09791 15.1185C4.47654 15.4525 4.58032 15.4652 6.93003 15.4652C8.43529 15.4652 9.50607 15.4012 9.72692 15.2979C10.4593 14.9557 10.5245 13.7815 9.83215 13.4014C9.66096 13.3074 8.50501 13.2444 6.95428 13.2444C4.65048 13.2444 4.32584 13.2747 4.03367 13.5174ZM15.7997 13.6078C15.2422 14.1795 15.3773 14.8864 16.1214 15.293C16.3254 15.4044 17.2996 15.4652 18.8806 15.4652C21.1166 15.4652 21.3564 15.4396 21.6964 15.1652C21.901 15.0003 22.108 14.7371 22.1563 14.5804C22.2623 14.2381 21.9 13.4648 21.5736 13.3363C21.4451 13.2858 20.1731 13.2444 18.747 13.2444C16.1864 13.2444 16.1494 13.2489 15.7997 13.6078ZM5.77394 35.3927C3.38858 36.4525 3.20656 39.8344 5.46186 41.1902C6.7213 41.9472 8.5935 41.5984 9.42841 40.4511C10.0114 39.6498 10.1347 39.3008 10.1419 38.4314C10.1613 36.1133 7.81921 34.4841 5.77394 35.3927ZM17.5303 35.436C16.3211 35.9993 15.4561 37.5838 15.6767 38.8315C15.9766 40.5281 17.1825 41.5744 18.8375 41.5744C20.6169 41.5744 21.945 40.2108 21.9378 38.3916C21.9283 36.0146 19.6162 34.4641 17.5303 35.436ZM37.1553 35.786C36.2081 36.4401 35.602 37.6038 35.6919 38.5949C35.8452 40.2845 37.0019 41.5283 38.525 41.6413C39.5603 41.7182 40.2751 41.4943 40.9579 40.8796C42.2603 39.7065 42.3578 37.5767 41.1678 36.2905C40.5273 35.5985 39.8158 35.3048 38.7797 35.3048C37.9722 35.3048 37.7617 35.3671 37.1553 35.786ZM7.78428 37.7677C8.1772 38.28 8.16204 38.643 7.72914 39.0869C7.05402 39.7795 6.06264 39.4031 6.06264 38.4542C6.06264 37.7683 6.40749 37.3776 7.01274 37.3776C7.35124 37.3776 7.57007 37.4882 7.78428 37.7677ZM19.5117 37.6226C19.8829 37.9671 19.8556 38.7703 19.4598 39.1485C19.0329 39.5565 18.5394 39.5282 18.0931 39.0705C17.7934 38.7631 17.7399 38.6004 17.8129 38.2191C17.8626 37.9599 18.0121 37.6645 18.1453 37.5626C18.4869 37.3016 19.1997 37.3329 19.5117 37.6226ZM39.4598 37.6845C40.238 38.3123 39.7949 39.5109 38.7952 39.4818C37.8846 39.4553 37.514 38.4175 38.1737 37.7411C38.6064 37.297 38.9604 37.2815 39.4598 37.6845Z" fill="black"/>
</svg>
