<svg width="38" height="32" viewBox="0 0 38 32" fill="none" xmlns="http://www.w3.org/2000/svg">
<path fill-rule="evenodd" clip-rule="evenodd" d="M18.5816 0.368608C17.0571 0.951137 15.8877 1.39322 14.6649 1.84936C14.0387 2.08293 13.1141 2.43117 12.6103 2.62336C12.1065 2.81547 11.6517 2.97268 11.5997 2.97268C11.4371 2.97268 11.2222 3.27188 11.0819 3.69386C11.0078 3.91697 10.7145 4.82971 10.4302 5.72217C9.95527 7.21311 9.01098 10.166 8.67787 11.2015C8.60163 11.4386 8.47093 11.6687 8.38749 11.713C8.30406 11.7571 6.43397 12.39 4.23177 13.1193C2.02949 13.8486 0.176525 14.4854 0.113858 14.5345C0.0512815 14.5836 0 14.6933 0 14.7783C0 14.8634 1.6667 16.5521 3.70375 18.531C5.7408 20.5098 9.68529 24.3499 12.4692 27.0645C16.3817 30.8793 17.5817 32 17.7542 32C17.8769 32 18.2056 31.9224 18.4844 31.8276C19.0339 31.6406 20.9123 31.0379 24.1378 30.0133C25.265 29.6552 26.2378 29.3161 26.2996 29.2596C26.3614 29.2032 26.805 28.0219 27.2855 26.6345C27.7661 25.2473 28.3006 23.7065 28.4733 23.2107C28.646 22.7149 28.92 21.9238 29.0821 21.4528L29.3769 20.5964L31.1523 19.7219C32.1287 19.241 33.8602 18.3937 34.9999 17.8392C36.5237 17.0978 37.0721 16.7892 37.0721 16.6734C37.0721 16.583 33.918 13.4842 29.6753 9.40611C19.7091 -0.172995 19.8899 -0.00252723 19.7028 0.000537767C19.6121 0.00198012 19.1076 0.16767 18.5816 0.368608ZM22.2478 3.02434C23.1872 3.92418 23.9557 4.68151 23.9557 4.70738C23.9557 4.752 22.9646 5.40503 19.274 7.79203L17.6437 8.84648L16.9456 8.15965C16.4412 7.6633 16.2048 7.48896 16.0938 7.53114C15.8128 7.63779 15.9339 7.88443 16.5777 8.51672C16.9284 8.86108 17.2153 9.19273 17.2153 9.25367C17.2153 9.35058 17.0289 9.79789 16.3955 11.2211C16.3073 11.4195 15.8974 12.3424 15.4847 13.272C15.0719 14.2016 14.7172 14.9622 14.6964 14.9622C14.5987 14.9622 9.65514 10.2261 9.65514 10.1324C9.65514 10.0386 10.318 7.89101 10.8215 6.35319C10.919 6.05571 11.1308 5.39655 11.2922 4.88831C11.4537 4.38006 11.6317 3.9643 11.6878 3.9643C11.7438 3.9643 12.576 4.73884 13.5371 5.68538C15.2907 7.41269 15.5816 7.61597 15.6478 7.16055C15.6675 7.02551 15.2115 6.53727 13.8944 5.28306C12.9155 4.35076 12.1145 3.53547 12.1145 3.4712C12.1145 3.40692 12.1862 3.33327 12.2739 3.30758C12.459 3.2534 13.1082 3.01352 15.9856 1.93644C17.1379 1.50518 18.4054 1.03425 18.8024 0.889928C19.1993 0.745603 19.5439 0.607948 19.5681 0.584059C19.6223 0.530421 20.0684 0.936624 22.2478 3.02434ZM26.1487 6.78139C27.0963 7.6862 27.8719 8.45236 27.8721 8.48382C27.8722 8.51528 27.7711 8.60669 27.6474 8.68692C27.4373 8.82322 27.4028 8.82106 27.1266 8.65483C26.3331 8.17723 25.218 8.40692 24.8078 9.13242C24.723 9.28243 24.663 9.27864 23.722 9.06445C23.1742 8.93978 22.5006 8.79131 22.225 8.73452C21.9495 8.67772 21.6011 8.60002 21.4508 8.56179C21.3005 8.52357 20.9316 8.44271 20.631 8.38204C19.891 8.23267 19.837 8.21383 19.872 8.11791C19.8974 8.04814 24.3057 5.14441 24.3955 5.13828C24.4121 5.13711 25.201 5.87659 26.1487 6.78139ZM21.8208 9.19084C23.1814 9.48724 24.3618 9.75525 24.4439 9.78644C24.5261 9.81763 24.5933 9.93518 24.5933 10.0476C24.5933 10.16 24.6177 10.3728 24.6476 10.5205C24.7 10.7803 24.6559 10.8214 23.2725 11.7985C22.4865 12.3537 21.811 12.7957 21.7713 12.7809C21.6738 12.744 18.1262 9.30605 18.1262 9.24835C18.1262 9.13351 18.9243 8.65951 19.1237 8.656C19.2465 8.65374 20.4602 8.89444 21.8208 9.19084ZM26.8491 9.1226C27.0511 9.28847 27.2348 9.70468 27.2348 9.9963C27.2348 10.4729 26.3981 12.3597 26.1845 12.3647C25.9629 12.3699 25.1398 10.4833 25.1398 9.97034C25.1398 9.59848 25.4757 9.08753 25.7784 8.99892C26.063 8.91562 26.6845 8.98738 26.8491 9.1226ZM30.2388 10.7097C31.2418 11.668 32.0623 12.4807 32.0623 12.5157C32.0623 12.5508 31.5819 12.9432 30.9946 13.3877C30.4074 13.8322 29.0945 14.8349 28.0769 15.6158C27.0593 16.3966 26.1968 17.0356 26.1602 17.0356C26.1235 17.0356 25.5619 16.5082 24.9121 15.8637C24.2623 15.2191 23.6626 14.6918 23.5796 14.6918C23.4966 14.6918 23.4022 14.7599 23.3699 14.8432C23.309 15.0004 23.3244 15.0183 25.0072 16.7467C25.4559 17.2075 25.835 17.6374 25.8497 17.7022C25.8821 17.844 25.1754 20.1916 25.0685 20.2974C25.027 20.3384 23.7863 20.0689 22.3111 19.6986C19.0953 18.8912 19.2192 18.9259 19.2192 18.8333C19.2192 18.7924 19.4495 18.2799 19.7309 17.6944C20.0124 17.109 20.3967 16.3054 20.5848 15.9088C21.529 13.919 21.6858 13.61 21.752 13.61C21.7915 13.61 21.9838 13.7723 22.1795 13.9706C22.5517 14.3478 22.8302 14.4296 22.9234 14.1893C22.9592 14.097 22.8403 13.9081 22.5831 13.6488C22.3468 13.4105 22.2228 13.22 22.2748 13.1752C22.491 12.9886 24.7114 11.4305 24.8199 11.3893C24.8999 11.359 25.0727 11.5927 25.325 12.0727C25.7676 12.9147 26.0129 13.2494 26.1873 13.2494C26.3716 13.2494 26.626 12.8871 27.1242 11.9154C27.6766 10.8375 27.8235 10.3243 27.7457 9.74389C27.6888 9.31867 27.6972 9.29622 27.9844 9.1143C28.1483 9.01055 28.3121 8.935 28.3488 8.94654C28.3853 8.95808 29.2358 9.75146 30.2388 10.7097ZM19.5486 11.457L21.2916 13.1803L20.7919 14.229C20.517 14.8058 20.127 15.6226 19.925 16.044C19.7231 16.4654 19.359 17.2286 19.1159 17.7399C18.8041 18.3957 18.6402 18.6495 18.5595 18.6015C18.294 18.4434 15.2114 15.4501 15.2114 15.3505C15.2114 15.2418 15.4987 14.5671 16.375 12.6184C16.4753 12.3953 16.7518 11.7665 16.9894 11.2211C17.5173 10.0091 17.6564 9.73371 17.7405 9.73371C17.7764 9.73371 18.59 10.5091 19.5486 11.457ZM13.3734 14.4881C15.5115 16.5082 17.5068 18.3925 17.8074 18.6756L18.3539 19.1903L17.9478 19.6004C17.7245 19.8259 17.4883 20.0105 17.423 20.0105C17.2749 20.0105 9.10862 12.0008 9.10862 11.8555C9.10862 11.6866 9.38398 10.8155 9.43744 10.8155C9.46413 10.8155 11.2353 12.4682 13.3734 14.4881ZM12.7976 16.3565L16.9876 20.4544L15.7124 21.6381L15.0748 21.5838C14.7241 21.5539 14.2527 21.4941 14.0273 21.4508C13.8018 21.4076 13.064 21.2877 12.3877 21.1845C11.0826 20.9854 9.21055 20.6914 8.37993 20.5552C8.1044 20.5101 7.51762 20.421 7.07603 20.3573L6.27302 20.2413L3.54143 17.5887C1.87975 15.9749 0.842638 14.9035 0.893647 14.8531C0.969977 14.7775 8.30506 12.2903 8.51656 12.2682C8.56666 12.263 10.4931 14.1028 12.7976 16.3565ZM34.1792 14.4966C35.0439 15.3314 35.8641 16.1094 36.0018 16.2257C36.1395 16.3419 36.2517 16.4805 36.2509 16.5335C36.2493 16.6447 29.5051 19.9516 29.196 19.9927C29.0352 20.0141 28.7308 19.7513 27.7922 18.7809C27.133 18.0993 26.6056 17.5062 26.6202 17.4629C26.6613 17.341 32.3662 12.9921 32.4941 12.9851C32.5561 12.9818 33.3144 13.662 34.1792 14.4966ZM9.26993 14.8855C8.68698 15.0464 8.19484 15.787 8.20058 16.4947C8.20377 16.8842 8.58888 17.8586 9.10015 18.7709C9.81973 20.0551 9.94279 20.0018 10.9434 17.9729C11.3024 17.2447 11.339 17.1085 11.3396 16.4947C11.3401 15.9229 11.3051 15.7666 11.1125 15.4816C10.7379 14.927 9.9927 14.686 9.26993 14.8855ZM10.3948 15.5107C10.6671 15.6517 10.8656 16.2122 10.8036 16.6656C10.7399 17.1322 9.9416 18.8579 9.80962 18.8144C9.65678 18.764 8.93674 17.2936 8.8268 16.8076C8.73262 16.3911 8.74036 16.2923 8.89138 15.9862C9.17539 15.4108 9.81244 15.2092 10.3948 15.5107ZM27.6335 19.382C28.2659 20.028 28.7832 20.5979 28.7832 20.6486C28.7832 20.6992 28.7197 20.8623 28.6419 21.0112C28.5442 21.198 28.4526 21.2667 28.3458 21.2334C28.2608 21.2068 27.6397 21.0482 26.9658 20.8809C26.2919 20.7136 25.726 20.5339 25.7084 20.4817C25.6908 20.4294 25.8035 19.947 25.9589 19.4097C26.3184 18.1668 26.3034 18.2075 26.4009 18.2075C26.4464 18.2075 27.0011 18.736 27.6335 19.382ZM22.7583 20.3785C24.7445 20.8785 26.7793 21.3901 27.2803 21.5154C27.7813 21.6407 28.2232 21.7725 28.2623 21.8082C28.3015 21.8439 28.1039 22.5392 27.8233 23.3532C27.5427 24.1673 27.1957 25.1781 27.0522 25.5996C26.4642 27.3254 26.0742 28.4008 26.0152 28.4592C25.9808 28.4933 24.8533 27.4338 23.5097 26.1047C21.7372 24.3514 21.0195 23.6974 20.8944 23.7212C20.7997 23.7392 20.7221 23.823 20.7221 23.9074C20.7221 23.9918 21.7981 25.13 23.1131 26.4368C24.4282 27.7435 25.5041 28.8516 25.5041 28.8993C25.5041 28.9736 24.1376 29.4324 18.7342 31.1724L17.7483 31.4898L14.8859 28.6579C13.3115 27.1003 12.0234 25.8019 12.0234 25.7724C12.0234 25.7429 12.5067 25.2761 13.0975 24.7351C16.2823 21.8187 17.2417 20.9538 17.3258 20.9235C17.3768 20.905 18.0435 21.5074 18.8073 22.2621C19.7899 23.2331 20.2459 23.6248 20.3669 23.6017C20.7956 23.5201 20.6074 23.2346 19.2055 21.8394L17.8074 20.4479L18.3539 19.9589C18.6545 19.69 18.956 19.4698 19.0238 19.4698C19.0918 19.4697 20.7723 19.8787 22.7583 20.3785ZM8.28885 21.0921C8.56438 21.1379 9.05625 21.2167 9.38188 21.2673C9.70751 21.3179 10.4863 21.4389 11.1125 21.5363C11.7387 21.6336 12.8454 21.8027 13.5718 21.9118C14.2983 22.0209 14.9255 22.1388 14.9656 22.1738C15.0483 22.2457 11.7041 25.3291 11.5435 25.3291C11.4263 25.3291 7.10472 21.0927 7.10472 20.9778C7.10472 20.9057 7.25201 20.9199 8.28885 21.0921Z" fill="white"/>
<path fill-rule="evenodd" clip-rule="evenodd" d="M18.9527 0.368608C17.4282 0.951137 16.2588 1.39322 15.036 1.84936C14.4098 2.08293 13.4852 2.43117 12.9814 2.62336C12.4776 2.81547 12.0228 2.97268 11.9708 2.97268C11.8082 2.97268 11.5933 3.27188 11.453 3.69386C11.3789 3.91697 11.0856 4.82971 10.8013 5.72217C10.3264 7.21311 9.38207 10.166 9.04897 11.2015C8.97273 11.4386 8.84202 11.6687 8.75858 11.713C8.67515 11.7571 6.80506 12.39 4.60287 13.1193C2.40059 13.8486 0.547619 14.4854 0.484952 14.5345C0.422375 14.5836 0.371094 14.6933 0.371094 14.7783C0.371094 14.8634 2.03779 16.5521 4.07484 18.531C6.11189 20.5098 10.0564 24.3499 12.8403 27.0645C16.7528 30.8793 17.9528 32 18.1253 32C18.248 32 18.5767 31.9224 18.8555 31.8276C19.405 31.6406 21.2834 31.0379 24.5089 30.0133C25.6361 29.6552 26.6089 29.3161 26.6707 29.2596C26.7324 29.2032 27.1761 28.0219 27.6566 26.6345C28.1372 25.2473 28.6717 23.7065 28.8444 23.2107C29.0171 22.7149 29.2911 21.9238 29.4532 21.4528L29.748 20.5964L31.5234 19.7219C32.4998 19.241 34.2313 18.3937 35.371 17.8392C36.8948 17.0978 37.4432 16.7892 37.4432 16.6734C37.4432 16.583 34.2891 13.4842 30.0464 9.40611C20.0802 -0.172995 20.261 -0.00252723 20.0739 0.000537767C19.9832 0.00198012 19.4787 0.16767 18.9527 0.368608ZM22.6189 3.02434C23.5583 3.92418 24.3268 4.68151 24.3268 4.70738C24.3268 4.752 23.3357 5.40503 19.6451 7.79203L18.0148 8.84648L17.3167 8.15965C16.8122 7.6633 16.5759 7.48896 16.4648 7.53114C16.1839 7.63779 16.305 7.88443 16.9488 8.51672C17.2995 8.86108 17.5864 9.19273 17.5864 9.25367C17.5864 9.35058 17.4 9.79789 16.7666 11.2211C16.6784 11.4195 16.2685 12.3424 15.8558 13.272C15.443 14.2016 15.0883 14.9622 15.0675 14.9622C14.9698 14.9622 10.0262 10.2261 10.0262 10.1324C10.0262 10.0386 10.6891 7.89101 11.1926 6.35319C11.2901 6.05571 11.5019 5.39655 11.6633 4.88831C11.8248 4.38006 12.0028 3.9643 12.0589 3.9643C12.1149 3.9643 12.9471 4.73884 13.9081 5.68538C15.6618 7.41269 15.9527 7.61597 16.0189 7.16055C16.0386 7.02551 15.5826 6.53727 14.2655 5.28306C13.2866 4.35076 12.4856 3.53547 12.4856 3.4712C12.4856 3.40692 12.5572 3.33327 12.645 3.30758C12.83 3.2534 13.4793 3.01352 16.3567 1.93644C17.509 1.50518 18.7765 1.03425 19.1735 0.889928C19.5704 0.745603 19.915 0.607948 19.9392 0.584059C19.9934 0.530421 20.4395 0.936624 22.6189 3.02434ZM26.5198 6.78139C27.4674 7.6862 28.243 8.45236 28.2432 8.48382C28.2433 8.51528 28.1422 8.60669 28.0185 8.68692C27.8084 8.82322 27.7739 8.82106 27.4977 8.65483C26.7042 8.17723 25.5891 8.40692 25.1789 9.13242C25.0941 9.28243 25.0341 9.27864 24.0931 9.06445C23.5453 8.93978 22.8717 8.79131 22.5961 8.73452C22.3206 8.67772 21.9722 8.60002 21.8219 8.56179C21.6716 8.52357 21.3027 8.44271 21.0021 8.38204C20.2621 8.23267 20.2081 8.21383 20.2431 8.11791C20.2685 8.04814 24.6768 5.14441 24.7666 5.13828C24.7832 5.13711 25.5721 5.87659 26.5198 6.78139ZM22.1919 9.19084C23.5525 9.48724 24.7329 9.75525 24.815 9.78644C24.8971 9.81763 24.9644 9.93518 24.9644 10.0476C24.9644 10.16 24.9888 10.3728 25.0187 10.5205C25.0711 10.7803 25.0269 10.8214 23.6436 11.7985C22.8575 12.3537 22.1821 12.7957 22.1424 12.7809C22.0449 12.744 18.4972 9.30605 18.4972 9.24835C18.4972 9.13351 19.2953 8.65951 19.4948 8.656C19.6176 8.65374 20.8313 8.89444 22.1919 9.19084ZM27.2202 9.1226C27.4221 9.28847 27.6059 9.70468 27.6059 9.9963C27.6059 10.4729 26.7692 12.3597 26.5556 12.3647C26.334 12.3699 25.5109 10.4833 25.5109 9.97034C25.5109 9.59848 25.8468 9.08753 26.1495 8.99892C26.4341 8.91562 27.0556 8.98738 27.2202 9.1226ZM30.6099 10.7097C31.6128 11.668 32.4334 12.4807 32.4334 12.5157C32.4334 12.5508 31.953 12.9432 31.3657 13.3877C30.7785 13.8322 29.4656 14.8349 28.448 15.6158C27.4304 16.3966 26.5679 17.0356 26.5313 17.0356C26.4946 17.0356 25.933 16.5082 25.2832 15.8637C24.6334 15.2191 24.0337 14.6918 23.9507 14.6918C23.8677 14.6918 23.7733 14.7599 23.741 14.8432C23.6801 15.0004 23.6954 15.0183 25.3783 16.7467C25.827 17.2075 26.2061 17.6374 26.2208 17.7022C26.2532 17.844 25.5465 20.1916 25.4396 20.2974C25.3981 20.3384 24.1573 20.0689 22.6822 19.6986C19.4664 18.8912 19.5903 18.9259 19.5903 18.8333C19.5903 18.7924 19.8206 18.2799 20.102 17.6944C20.3835 17.109 20.7678 16.3054 20.9559 15.9088C21.9 13.919 22.0569 13.61 22.1231 13.61C22.1626 13.61 22.3549 13.7723 22.5506 13.9706C22.9228 14.3478 23.2013 14.4296 23.2945 14.1893C23.3303 14.097 23.2114 13.9081 22.9542 13.6488C22.7179 13.4105 22.5939 13.22 22.6459 13.1752C22.8621 12.9886 25.0825 11.4305 25.191 11.3893C25.271 11.359 25.4438 11.5927 25.6961 12.0727C26.1387 12.9147 26.3839 13.2494 26.5584 13.2494C26.7427 13.2494 26.9971 12.8871 27.4953 11.9154C28.0477 10.8375 28.1946 10.3243 28.1168 9.74389C28.0598 9.31867 28.0683 9.29622 28.3555 9.1143C28.5194 9.01055 28.6832 8.935 28.7199 8.94654C28.7564 8.95808 29.6069 9.75146 30.6099 10.7097ZM19.9197 11.457L21.6627 13.1803L21.163 14.229C20.8881 14.8058 20.498 15.6226 20.2961 16.044C20.0942 16.4654 19.7301 17.2286 19.487 17.7399C19.1752 18.3957 19.0112 18.6495 18.9305 18.6015C18.6651 18.4434 15.5825 15.4501 15.5825 15.3505C15.5825 15.2418 15.8698 14.5671 16.7461 12.6184C16.8464 12.3953 17.1228 11.7665 17.3605 11.2211C17.8884 10.0091 18.0275 9.73371 18.1116 9.73371C18.1475 9.73371 18.9611 10.5091 19.9197 11.457ZM13.7445 14.4881C15.8826 16.5082 17.8779 18.3925 18.1784 18.6756L18.725 19.1903L18.3189 19.6004C18.0956 19.8259 17.8594 20.0105 17.7941 20.0105C17.646 20.0105 9.47972 12.0008 9.47972 11.8555C9.47972 11.6866 9.75507 10.8155 9.80854 10.8155C9.83522 10.8155 11.6064 12.4682 13.7445 14.4881ZM13.1687 16.3565L17.3587 20.4544L16.0835 21.6381L15.4459 21.5838C15.0952 21.5539 14.6238 21.4941 14.3984 21.4508C14.1729 21.4076 13.4351 21.2877 12.7588 21.1845C11.4537 20.9854 9.58164 20.6914 8.75103 20.5552C8.47549 20.5101 7.88871 20.421 7.44713 20.3573L6.64411 20.2413L3.91253 17.5887C2.25084 15.9749 1.21373 14.9035 1.26474 14.8531C1.34107 14.7775 8.67615 12.2903 8.88765 12.2682C8.93775 12.263 10.8642 14.1028 13.1687 16.3565ZM34.5503 14.4966C35.415 15.3314 36.2352 16.1094 36.3729 16.2257C36.5106 16.3419 36.6228 16.4805 36.622 16.5335C36.6204 16.6447 29.8762 19.9516 29.5671 19.9927C29.4063 20.0141 29.1019 19.7513 28.1633 18.7809C27.5041 18.0993 26.9767 17.5062 26.9913 17.4629C27.0324 17.341 32.7373 12.9921 32.8652 12.9851C32.9272 12.9818 33.6855 13.662 34.5503 14.4966ZM9.64103 14.8855C9.05808 15.0464 8.56594 15.787 8.57168 16.4947C8.57487 16.8842 8.95998 17.8586 9.47124 18.7709C10.1908 20.0551 10.3139 20.0018 11.3145 17.9729C11.6735 17.2447 11.7101 17.1085 11.7107 16.4947C11.7112 15.9229 11.6762 15.7666 11.4836 15.4816C11.109 14.927 10.3638 14.686 9.64103 14.8855ZM10.7659 15.5107C11.0382 15.6517 11.2367 16.2122 11.1747 16.6656C11.111 17.1322 10.3127 18.8579 10.1807 18.8144C10.0279 18.764 9.30784 17.2936 9.19789 16.8076C9.10371 16.3911 9.11145 16.2923 9.26248 15.9862C9.54648 15.4108 10.1835 15.2092 10.7659 15.5107ZM28.0046 19.382C28.637 20.028 29.1543 20.5979 29.1543 20.6486C29.1543 20.6992 29.0908 20.8623 29.013 21.0112C28.9153 21.198 28.8237 21.2667 28.7169 21.2334C28.6319 21.2068 28.0108 21.0482 27.3369 20.8809C26.6629 20.7136 26.0971 20.5339 26.0794 20.4817C26.0619 20.4294 26.1746 19.947 26.33 19.4097C26.6895 18.1668 26.6745 18.2075 26.772 18.2075C26.8175 18.2075 27.3721 18.736 28.0046 19.382ZM23.1294 20.3785C25.1156 20.8785 27.1504 21.3901 27.6514 21.5154C28.1524 21.6407 28.5943 21.7725 28.6334 21.8082C28.6726 21.8439 28.475 22.5392 28.1944 23.3532C27.9138 24.1673 27.5668 25.1781 27.4232 25.5996C26.8353 27.3254 26.4453 28.4008 26.3863 28.4592C26.3519 28.4933 25.2244 27.4338 23.8808 26.1047C22.1083 24.3514 21.3906 23.6974 21.2655 23.7212C21.1708 23.7392 21.0932 23.823 21.0932 23.9074C21.0932 23.9918 22.1692 25.13 23.4842 26.4368C24.7993 27.7435 25.8752 28.8516 25.8752 28.8993C25.8752 28.9736 24.5087 29.4324 19.1053 31.1724L18.1194 31.4898L15.2569 28.6579C13.6826 27.1003 12.3945 25.8019 12.3945 25.7724C12.3945 25.7429 12.8778 25.2761 13.4686 24.7351C16.6534 21.8187 17.6128 20.9538 17.6969 20.9235C17.7479 20.905 18.4146 21.5074 19.1784 22.2621C20.161 23.2331 20.617 23.6248 20.738 23.6017C21.1667 23.5201 20.9785 23.2346 19.5766 21.8394L18.1784 20.4479L18.725 19.9589C19.0255 19.69 19.327 19.4698 19.3949 19.4698C19.4629 19.4697 21.1434 19.8787 23.1294 20.3785ZM8.65994 21.0921C8.93547 21.1379 9.42734 21.2167 9.75297 21.2673C10.0786 21.3179 10.8574 21.4389 11.4836 21.5363C12.1098 21.6336 13.2165 21.8027 13.9429 21.9118C14.6694 22.0209 15.2966 22.1388 15.3367 22.1738C15.4194 22.2457 12.0752 25.3291 11.9146 25.3291C11.7974 25.3291 7.47582 21.0927 7.47582 20.9778C7.47582 20.9057 7.6231 20.9199 8.65994 21.0921Z" fill="white"/>
<path fill-rule="evenodd" clip-rule="evenodd" d="M19.1163 0.368608C17.5917 0.951137 16.4224 1.39322 15.1995 1.84936C14.5733 2.08293 13.6488 2.43117 13.145 2.62336C12.6412 2.81547 12.1864 2.97268 12.1344 2.97268C11.9717 2.97268 11.7569 3.27188 11.6166 3.69386C11.5424 3.91697 11.2491 4.82971 10.9649 5.72217C10.4899 7.21311 9.54564 10.166 9.21254 11.2015C9.1363 11.4386 9.00559 11.6687 8.92216 11.713C8.83872 11.7571 6.96863 12.39 4.76644 13.1193C2.56416 13.8486 0.711193 14.4854 0.648526 14.5345C0.58595 14.5836 0.534668 14.6933 0.534668 14.7783C0.534668 14.8634 2.20136 16.5521 4.23842 18.531C6.27547 20.5098 10.22 24.3499 13.0039 27.0645C16.9163 30.8793 18.1164 32 18.2889 32C18.4116 32 18.7403 31.9224 19.0191 31.8276C19.5686 31.6406 21.447 31.0379 24.6725 30.0133C25.7997 29.6552 26.7725 29.3161 26.8343 29.2596C26.896 29.2032 27.3397 28.0219 27.8202 26.6345C28.3008 25.2473 28.8352 23.7065 29.0079 23.2107C29.1806 22.7149 29.4546 21.9238 29.6168 21.4528L29.9116 20.5964L31.687 19.7219C32.6634 19.241 34.3949 18.3937 35.5345 17.8392C37.0583 17.0978 37.6068 16.7892 37.6068 16.6734C37.6068 16.583 34.4527 13.4842 30.21 9.40611C20.2438 -0.172995 20.4246 -0.00252723 20.2374 0.000537767C20.1468 0.00198012 19.6423 0.16767 19.1163 0.368608ZM22.7825 3.02434C23.7218 3.92418 24.4903 4.68151 24.4903 4.70738C24.4903 4.752 23.4992 5.40503 19.8087 7.79203L18.1783 8.84648L17.4803 8.15965C16.9758 7.6633 16.7395 7.48896 16.6284 7.53114C16.3475 7.63779 16.4686 7.88443 17.1124 8.51672C17.463 8.86108 17.75 9.19273 17.75 9.25367C17.75 9.35058 17.5636 9.79789 16.9302 11.2211C16.842 11.4195 16.432 12.3424 16.0193 13.272C15.6066 14.2016 15.2518 14.9622 15.2311 14.9622C15.1333 14.9622 10.1898 10.2261 10.1898 10.1324C10.1898 10.0386 10.8526 7.89101 11.3562 6.35319C11.4536 6.05571 11.6655 5.39655 11.8269 4.88831C11.9884 4.38006 12.1664 3.9643 12.2225 3.9643C12.2785 3.9643 13.1107 4.73884 14.0717 5.68538C15.8254 7.41269 16.1162 7.61597 16.1825 7.16055C16.2021 7.02551 15.7462 6.53727 14.4291 5.28306C13.4501 4.35076 12.6491 3.53547 12.6491 3.4712C12.6491 3.40692 12.7208 3.33327 12.8085 3.30758C12.9936 3.2534 13.6429 3.01352 16.5203 1.93644C17.6725 1.50518 18.9401 1.03425 19.337 0.889928C19.734 0.745603 20.0786 0.607948 20.1028 0.584059C20.157 0.530421 20.6031 0.936624 22.7825 3.02434ZM26.6833 6.78139C27.631 7.6862 28.4066 8.45236 28.4068 8.48382C28.4069 8.51528 28.3058 8.60669 28.1821 8.68692C27.9719 8.82322 27.9375 8.82106 27.6612 8.65483C26.8678 8.17723 25.7527 8.40692 25.3425 9.13242C25.2577 9.28243 25.1976 9.27864 24.2567 9.06445C23.7089 8.93978 23.0352 8.79131 22.7597 8.73452C22.4842 8.67772 22.1358 8.60002 21.9855 8.56179C21.8352 8.52357 21.4663 8.44271 21.1657 8.38204C20.4257 8.23267 20.3717 8.21383 20.4067 8.11791C20.4321 8.04814 24.8404 5.14441 24.9302 5.13828C24.9468 5.13711 25.7357 5.87659 26.6833 6.78139ZM22.3555 9.19084C23.7161 9.48724 24.8965 9.75525 24.9786 9.78644C25.0607 9.81763 25.1279 9.93518 25.1279 10.0476C25.1279 10.16 25.1524 10.3728 25.1822 10.5205C25.2347 10.7803 25.1905 10.8214 23.8072 11.7985C23.0211 12.3537 22.3456 12.7957 22.306 12.7809C22.2085 12.744 18.6608 9.30605 18.6608 9.24835C18.6608 9.13351 19.4589 8.65951 19.6584 8.656C19.7812 8.65374 20.9949 8.89444 22.3555 9.19084ZM27.3838 9.1226C27.5857 9.28847 27.7694 9.70468 27.7694 9.9963C27.7694 10.4729 26.9327 12.3597 26.7191 12.3647C26.4976 12.3699 25.6745 10.4833 25.6745 9.97034C25.6745 9.59848 26.0104 9.08753 26.3131 8.99892C26.5977 8.91562 27.2192 8.98738 27.3838 9.1226ZM30.7735 10.7097C31.7764 11.668 32.597 12.4807 32.597 12.5157C32.597 12.5508 32.1165 12.9432 31.5293 13.3877C30.9421 13.8322 29.6292 14.8349 28.6115 15.6158C27.594 16.3966 26.7315 17.0356 26.6949 17.0356C26.6582 17.0356 26.0966 16.5082 25.4467 15.8637C24.7969 15.2191 24.1973 14.6918 24.1142 14.6918C24.0313 14.6918 23.9369 14.7599 23.9046 14.8432C23.8436 15.0004 23.859 15.0183 25.5418 16.7467C25.9905 17.2075 26.3696 17.6374 26.3844 17.7022C26.4167 17.844 25.7101 20.1916 25.6031 20.2974C25.5617 20.3384 24.3209 20.0689 22.8458 19.6986C19.63 18.8912 19.7539 18.9259 19.7539 18.8333C19.7539 18.7924 19.9841 18.2799 20.2656 17.6944C20.547 17.109 20.9313 16.3054 21.1195 15.9088C22.0636 13.919 22.2205 13.61 22.2867 13.61C22.3261 13.61 22.5185 13.7723 22.7142 13.9706C23.0863 14.3478 23.3649 14.4296 23.4581 14.1893C23.4939 14.097 23.375 13.9081 23.1178 13.6488C22.8815 13.4105 22.7575 13.22 22.8094 13.1752C23.0257 12.9886 25.2461 11.4305 25.3546 11.3893C25.4345 11.359 25.6073 11.5927 25.8596 12.0727C26.3022 12.9147 26.5475 13.2494 26.722 13.2494C26.9063 13.2494 27.1607 12.8871 27.6589 11.9154C28.2113 10.8375 28.3581 10.3243 28.2803 9.74389C28.2234 9.31867 28.2319 9.29622 28.5191 9.1143C28.683 9.01055 28.8468 8.935 28.8834 8.94654C28.92 8.95808 29.7704 9.75146 30.7735 10.7097ZM20.0832 11.457L21.8263 13.1803L21.3266 14.229C21.0517 14.8058 20.6616 15.6226 20.4597 16.044C20.2577 16.4654 19.8937 17.2286 19.6506 17.7399C19.3388 18.3957 19.1748 18.6495 19.0941 18.6015C18.8287 18.4434 15.7461 15.4501 15.7461 15.3505C15.7461 15.2418 16.0334 14.5671 16.9097 12.6184C17.01 12.3953 17.2864 11.7665 17.5241 11.2211C18.052 10.0091 18.1911 9.73371 18.2752 9.73371C18.3111 9.73371 19.1246 10.5091 20.0832 11.457ZM13.908 14.4881C16.0462 16.5082 18.0414 18.3925 18.342 18.6756L18.8885 19.1903L18.4825 19.6004C18.2591 19.8259 18.0229 20.0105 17.9576 20.0105C17.8095 20.0105 9.64329 12.0008 9.64329 11.8555C9.64329 11.6866 9.91864 10.8155 9.97211 10.8155C9.9988 10.8155 11.77 12.4682 13.908 14.4881ZM13.3323 16.3565L17.5222 20.4544L16.247 21.6381L15.6094 21.5838C15.2588 21.5539 14.7874 21.4941 14.5619 21.4508C14.3365 21.4076 13.5987 21.2877 12.9224 21.1845C11.6173 20.9854 9.74521 20.6914 8.9146 20.5552C8.63906 20.5101 8.05229 20.421 7.6107 20.3573L6.80768 20.2413L4.0761 17.5887C2.41441 15.9749 1.37731 14.9035 1.42831 14.8531C1.50464 14.7775 8.83973 12.2903 9.05123 12.2682C9.10133 12.263 11.0278 14.1028 13.3323 16.3565ZM34.7139 14.4966C35.5785 15.3314 36.3988 16.1094 36.5365 16.2257C36.6742 16.3419 36.7863 16.4805 36.7856 16.5335C36.784 16.6447 30.0398 19.9516 29.7306 19.9927C29.5699 20.0141 29.2654 19.7513 28.3269 18.7809C27.6677 18.0993 27.1403 17.5062 27.1549 17.4629C27.196 17.341 32.9009 12.9921 33.0288 12.9851C33.0908 12.9818 33.8491 13.662 34.7139 14.4966ZM9.8046 14.8855C9.22165 15.0464 8.72951 15.787 8.73525 16.4947C8.73844 16.8842 9.12355 17.8586 9.63482 18.7709C10.3544 20.0551 10.4775 20.0018 11.478 17.9729C11.8371 17.2447 11.8736 17.1085 11.8743 16.4947C11.8748 15.9229 11.8397 15.7666 11.6472 15.4816C11.2725 14.927 10.5274 14.686 9.8046 14.8855ZM10.9294 15.5107C11.2018 15.6517 11.4003 16.2122 11.3383 16.6656C11.2746 17.1322 10.4763 18.8579 10.3443 18.8144C10.1914 18.764 9.47141 17.2936 9.36147 16.8076C9.26729 16.3911 9.27503 16.2923 9.42605 15.9862C9.71006 15.4108 10.3471 15.2092 10.9294 15.5107ZM28.1681 19.382C28.8005 20.028 29.3179 20.5979 29.3179 20.6486C29.3179 20.6992 29.2543 20.8623 29.1765 21.0112C29.0789 21.198 28.9873 21.2667 28.8805 21.2334C28.7954 21.2068 28.1744 21.0482 27.5005 20.8809C26.8265 20.7136 26.2607 20.5339 26.243 20.4817C26.2254 20.4294 26.3382 19.947 26.4936 19.4097C26.853 18.1668 26.8381 18.2075 26.9356 18.2075C26.9811 18.2075 27.5357 18.736 28.1681 19.382ZM23.293 20.3785C25.2792 20.8785 27.314 21.3901 27.815 21.5154C28.316 21.6407 28.7579 21.7725 28.797 21.8082C28.8362 21.8439 28.6386 22.5392 28.358 23.3532C28.0774 24.1673 27.7304 25.1781 27.5868 25.5996C26.9989 27.3254 26.6089 28.4008 26.5499 28.4592C26.5155 28.4933 25.388 27.4338 24.0444 26.1047C22.2718 24.3514 21.5542 23.6974 21.4291 23.7212C21.3344 23.7392 21.2568 23.823 21.2568 23.9074C21.2568 23.9918 22.3328 25.13 23.6478 26.4368C24.9629 27.7435 26.0388 28.8516 26.0388 28.8993C26.0388 28.9736 24.6722 29.4324 19.2689 31.1724L18.283 31.4898L15.4205 28.6579C13.8462 27.1003 12.558 25.8019 12.558 25.7724C12.558 25.7429 13.0414 25.2761 13.6321 24.7351C16.817 21.8187 17.7764 20.9538 17.8605 20.9235C17.9115 20.905 18.5782 21.5074 19.342 22.2621C20.3246 23.2331 20.7806 23.6248 20.9015 23.6017C21.3303 23.5201 21.1421 23.2346 19.7402 21.8394L18.342 20.4479L18.8885 19.9589C19.1891 19.69 19.4906 19.4698 19.5585 19.4698C19.6264 19.4697 21.307 19.8787 23.293 20.3785ZM8.82351 21.0921C9.09905 21.1379 9.59091 21.2167 9.91655 21.2673C10.2422 21.3179 11.021 21.4389 11.6472 21.5363C12.2734 21.6336 13.3801 21.8027 14.1065 21.9118C14.8329 22.0209 15.4601 22.1388 15.5003 22.1738C15.5829 22.2457 12.2388 25.3291 12.0782 25.3291C11.961 25.3291 7.63939 21.0927 7.63939 20.9778C7.63939 20.9057 7.78668 20.9199 8.82351 21.0921Z" fill="white"/>
<path fill-rule="evenodd" clip-rule="evenodd" d="M19.4873 0.368608C17.9628 0.951137 16.7935 1.39322 15.5706 1.84936C14.9444 2.08293 14.0199 2.43117 13.5161 2.62336C13.0123 2.81547 12.5575 2.97268 12.5055 2.97268C12.3428 2.97268 12.1279 3.27188 11.9877 3.69386C11.9135 3.91697 11.6202 4.82971 11.336 5.72217C10.861 7.21311 9.91674 10.166 9.58364 11.2015C9.5074 11.4386 9.37669 11.6687 9.29325 11.713C9.20982 11.7571 7.33973 12.39 5.13754 13.1193C2.93525 13.8486 1.08229 14.4854 1.01962 14.5345C0.957043 14.5836 0.905762 14.6933 0.905762 14.7783C0.905762 14.8634 2.57246 16.5521 4.60951 18.531C6.64656 20.5098 10.5911 24.3499 13.375 27.0645C17.2874 30.8793 18.4875 32 18.66 32C18.7827 32 19.1113 31.9224 19.3902 31.8276C19.9397 31.6406 21.8181 31.0379 25.0436 30.0133C26.1708 29.6552 27.1436 29.3161 27.2054 29.2596C27.2671 29.2032 27.7108 28.0219 28.1913 26.6345C28.6718 25.2473 29.2063 23.7065 29.379 23.2107C29.5517 22.7149 29.8257 21.9238 29.9879 21.4528L30.2827 20.5964L32.0581 19.7219C33.0345 19.241 34.766 18.3937 35.9056 17.8392C37.4294 17.0978 37.9778 16.7892 37.9778 16.6734C37.9778 16.583 34.8238 13.4842 30.5811 9.40611C20.6149 -0.172995 20.7957 -0.00252723 20.6085 0.000537767C20.5179 0.00198012 20.0134 0.16767 19.4873 0.368608ZM23.1536 3.02434C24.0929 3.92418 24.8614 4.68151 24.8614 4.70738C24.8614 4.752 23.8703 5.40503 20.1798 7.79203L18.5494 8.84648L17.8514 8.15965C17.3469 7.6633 17.1105 7.48896 16.9995 7.53114C16.7186 7.63779 16.8397 7.88443 17.4835 8.51672C17.8341 8.86108 18.1211 9.19273 18.1211 9.25367C18.1211 9.35058 17.9347 9.79789 17.3013 11.2211C17.2131 11.4195 16.8031 12.3424 16.3904 13.272C15.9777 14.2016 15.6229 14.9622 15.6022 14.9622C15.5044 14.9622 10.5609 10.2261 10.5609 10.1324C10.5609 10.0386 11.2237 7.89101 11.7273 6.35319C11.8247 6.05571 12.0366 5.39655 12.198 4.88831C12.3595 4.38006 12.5375 3.9643 12.5936 3.9643C12.6496 3.9643 13.4818 4.73884 14.4428 5.68538C16.1965 7.41269 16.4873 7.61597 16.5536 7.16055C16.5732 7.02551 16.1173 6.53727 14.8001 5.28306C13.8212 4.35076 13.0202 3.53547 13.0202 3.4712C13.0202 3.40692 13.0919 3.33327 13.1796 3.30758C13.3647 3.2534 14.014 3.01352 16.8914 1.93644C18.0436 1.50518 19.3112 1.03425 19.7081 0.889928C20.1051 0.745603 20.4497 0.607948 20.4739 0.584059C20.5281 0.530421 20.9741 0.936624 23.1536 3.02434ZM27.0544 6.78139C28.0021 7.6862 28.7777 8.45236 28.7779 8.48382C28.778 8.51528 28.6769 8.60669 28.5532 8.68692C28.343 8.82322 28.3086 8.82106 28.0323 8.65483C27.2389 8.17723 26.1238 8.40692 25.7135 9.13242C25.6287 9.28243 25.5687 9.27864 24.6278 9.06445C24.08 8.93978 23.4063 8.79131 23.1308 8.73452C22.8553 8.67772 22.5069 8.60002 22.3566 8.56179C22.2063 8.52357 21.8374 8.44271 21.5368 8.38204C20.7968 8.23267 20.7428 8.21383 20.7778 8.11791C20.8032 8.04814 25.2115 5.14441 25.3013 5.13828C25.3179 5.13711 26.1068 5.87659 27.0544 6.78139ZM22.7266 9.19084C24.0872 9.48724 25.2676 9.75525 25.3497 9.78644C25.4318 9.81763 25.499 9.93518 25.499 10.0476C25.499 10.16 25.5235 10.3728 25.5533 10.5205C25.6058 10.7803 25.5616 10.8214 24.1783 11.7985C23.3922 12.3537 22.7167 12.7957 22.6771 12.7809C22.5795 12.744 19.0319 9.30605 19.0319 9.24835C19.0319 9.13351 19.83 8.65951 20.0295 8.656C20.1523 8.65374 21.366 8.89444 22.7266 9.19084ZM27.7549 9.1226C27.9568 9.28847 28.1405 9.70468 28.1405 9.9963C28.1405 10.4729 27.3038 12.3597 27.0902 12.3647C26.8687 12.3699 26.0456 10.4833 26.0456 9.97034C26.0456 9.59848 26.3815 9.08753 26.6842 8.99892C26.9688 8.91562 27.5903 8.98738 27.7549 9.1226ZM31.1446 10.7097C32.1475 11.668 32.9681 12.4807 32.9681 12.5157C32.9681 12.5508 32.4876 12.9432 31.9004 13.3877C31.3132 13.8322 30.0002 14.8349 28.9826 15.6158C27.9651 16.3966 27.1026 17.0356 27.066 17.0356C27.0293 17.0356 26.4676 16.5082 25.8178 15.8637C25.168 15.2191 24.5684 14.6918 24.4853 14.6918C24.4024 14.6918 24.308 14.7599 24.2757 14.8432C24.2147 15.0004 24.2301 15.0183 25.9129 16.7467C26.3616 17.2075 26.7407 17.6374 26.7555 17.7022C26.7878 17.844 26.0812 20.1916 25.9742 20.2974C25.9328 20.3384 24.692 20.0689 23.2169 19.6986C20.0011 18.8912 20.125 18.9259 20.125 18.8333C20.125 18.7924 20.3552 18.2799 20.6367 17.6944C20.9181 17.109 21.3024 16.3054 21.4906 15.9088C22.4347 13.919 22.5916 13.61 22.6578 13.61C22.6972 13.61 22.8896 13.7723 23.0853 13.9706C23.4574 14.3478 23.736 14.4296 23.8292 14.1893C23.865 14.097 23.7461 13.9081 23.4889 13.6488C23.2526 13.4105 23.1286 13.22 23.1805 13.1752C23.3968 12.9886 25.6172 11.4305 25.7257 11.3893C25.8056 11.359 25.9784 11.5927 26.2307 12.0727C26.6733 12.9147 26.9186 13.2494 27.093 13.2494C27.2774 13.2494 27.5318 12.8871 28.03 11.9154C28.5824 10.8375 28.7292 10.3243 28.6514 9.74389C28.5945 9.31867 28.603 9.29622 28.8902 9.1143C29.054 9.01055 29.2179 8.935 29.2545 8.94654C29.2911 8.95808 30.1415 9.75146 31.1446 10.7097ZM20.4543 11.457L22.1973 13.1803L21.6976 14.229C21.4227 14.8058 21.0327 15.6226 20.8308 16.044C20.6288 16.4654 20.2648 17.2286 20.0217 17.7399C19.7099 18.3957 19.5459 18.6495 19.4652 18.6015C19.1998 18.4434 16.1172 15.4501 16.1172 15.3505C16.1172 15.2418 16.4044 14.5671 17.2808 12.6184C17.3811 12.3953 17.6575 11.7665 17.8952 11.2211C18.4231 10.0091 18.5622 9.73371 18.6463 9.73371C18.6821 9.73371 19.4957 10.5091 20.4543 11.457ZM14.2791 14.4881C16.4173 16.5082 18.4125 18.3925 18.7131 18.6756L19.2596 19.1903L18.8536 19.6004C18.6302 19.8259 18.394 20.0105 18.3287 20.0105C18.1806 20.0105 10.0144 12.0008 10.0144 11.8555C10.0144 11.6866 10.2897 10.8155 10.3432 10.8155C10.3699 10.8155 12.1411 12.4682 14.2791 14.4881ZM13.7034 16.3565L17.8933 20.4544L16.6181 21.6381L15.9805 21.5838C15.6298 21.5539 15.1585 21.4941 14.933 21.4508C14.7076 21.4076 13.9698 21.2877 13.2935 21.1845C11.9884 20.9854 10.1163 20.6914 9.28569 20.5552C9.01016 20.5101 8.42338 20.421 7.98179 20.3573L7.17878 20.2413L4.44719 17.5887C2.78551 15.9749 1.7484 14.9035 1.79941 14.8531C1.87574 14.7775 9.21082 12.2903 9.42232 12.2682C9.47242 12.263 11.3989 14.1028 13.7034 16.3565ZM35.0849 14.4966C35.9496 15.3314 36.7699 16.1094 36.9076 16.2257C37.0453 16.3419 37.1574 16.4805 37.1567 16.5335C37.1551 16.6447 30.4109 19.9516 30.1017 19.9927C29.941 20.0141 29.6365 19.7513 28.698 18.7809C28.0388 18.0993 27.5114 17.5062 27.526 17.4629C27.5671 17.341 33.272 12.9921 33.3999 12.9851C33.4619 12.9818 34.2202 13.662 35.0849 14.4966ZM10.1757 14.8855C9.59274 15.0464 9.10061 15.787 9.10635 16.4947C9.10953 16.8842 9.49465 17.8586 10.0059 18.7709C10.7255 20.0551 10.8486 20.0018 11.8491 17.9729C12.2082 17.2447 12.2447 17.1085 12.2454 16.4947C12.2459 15.9229 12.2108 15.7666 12.0183 15.4816C11.6436 14.927 10.8985 14.686 10.1757 14.8855ZM11.3005 15.5107C11.5729 15.6517 11.7713 16.2122 11.7094 16.6656C11.6456 17.1322 10.8474 18.8579 10.7154 18.8144C10.5625 18.764 9.8425 17.2936 9.73256 16.8076C9.63838 16.3911 9.64612 16.2923 9.79714 15.9862C10.0812 15.4108 10.7182 15.2092 11.3005 15.5107ZM28.5392 19.382C29.1716 20.028 29.689 20.5979 29.689 20.6486C29.689 20.6992 29.6254 20.8623 29.5476 21.0112C29.45 21.198 29.3584 21.2667 29.2516 21.2334C29.1665 21.2068 28.5455 21.0482 27.8716 20.8809C27.1976 20.7136 26.6318 20.5339 26.6141 20.4817C26.5965 20.4294 26.7093 19.947 26.8647 19.4097C27.2241 18.1668 27.2092 18.2075 27.3066 18.2075C27.3522 18.2075 27.9068 18.736 28.5392 19.382ZM23.6641 20.3785C25.6502 20.8785 27.6851 21.3901 28.1861 21.5154C28.6871 21.6407 29.129 21.7725 29.1681 21.8082C29.2072 21.8439 29.0097 22.5392 28.729 23.3532C28.4485 24.1673 28.1015 25.1781 27.9579 25.5996C27.37 27.3254 26.98 28.4008 26.921 28.4592C26.8866 28.4933 25.7591 27.4338 24.4155 26.1047C22.6429 24.3514 21.9253 23.6974 21.8002 23.7212C21.7055 23.7392 21.6279 23.823 21.6279 23.9074C21.6279 23.9918 22.7039 25.13 24.0189 26.4368C25.334 27.7435 26.4099 28.8516 26.4099 28.8993C26.4099 28.9736 25.0433 29.4324 19.64 31.1724L18.6541 31.4898L15.7916 28.6579C14.2173 27.1003 12.9291 25.8019 12.9291 25.7724C12.9291 25.7429 13.4124 25.2761 14.0032 24.7351C17.1881 21.8187 18.1475 20.9538 18.2315 20.9235C18.2826 20.905 18.9493 21.5074 19.7131 22.2621C20.6957 23.2331 21.1517 23.6248 21.2726 23.6017C21.7014 23.5201 21.5132 23.2346 20.1113 21.8394L18.7131 20.4479L19.2596 19.9589C19.5602 19.69 19.8617 19.4698 19.9296 19.4698C19.9975 19.4697 21.6781 19.8787 23.6641 20.3785ZM9.19461 21.0921C9.47014 21.1379 9.96201 21.2167 10.2876 21.2673C10.6133 21.3179 11.3921 21.4389 12.0183 21.5363C12.6445 21.6336 13.7512 21.8027 14.4776 21.9118C15.204 22.0209 15.8312 22.1388 15.8714 22.1738C15.954 22.2457 12.6099 25.3291 12.4493 25.3291C12.3321 25.3291 8.01049 21.0927 8.01049 20.9778C8.01049 20.9057 8.15777 20.9199 9.19461 21.0921Z" fill="white"/>
</svg>
