<svg width="50" height="50" viewBox="0 0 25 33" fill="none" xmlns="http://www.w3.org/2000/svg">
<path fill-rule="evenodd" clip-rule="evenodd" d="M11.3021 0.0972311C10.5964 0.212053 10.365 0.275425 9.8465 0.495818C7.93587 1.30817 6.72989 2.80027 6.41415 4.74248C6.25263 5.73605 6.49189 6.65318 7.28685 8.08848C7.67057 8.78124 7.87726 9.09796 8.68379 10.2291C8.91747 10.5568 9.08836 10.8551 9.06365 10.892C9.03887 10.9287 8.91448 10.9799 8.78725 11.0056C8.40024 11.0836 7.39716 11.4577 6.63461 11.8084C4.0652 12.9899 1.81909 15.3015 0.782107 17.8315C0.46393 18.6079 0.147957 19.9138 0.0447311 20.8793C-0.152359 22.722 0.311373 24.9602 1.2478 26.6866C2.26378 28.5596 3.6512 30.007 5.51918 31.1429C9.12707 33.3367 13.7952 33.6075 17.6252 31.8452C18.6451 31.3759 19.2908 30.9868 20.1548 30.3211C22.0493 28.8611 23.5363 26.6673 24.1122 24.4827C24.9153 21.4356 24.3485 18.3115 22.5202 15.7093C21.3398 14.029 19.6145 12.606 17.7144 11.7455C17.0035 11.4236 16.095 11.0946 15.685 11.0107C15.5642 10.986 15.4486 10.9257 15.4281 10.8769C15.4077 10.8279 15.6922 10.3698 16.0604 9.85871C16.7321 8.92612 17.6533 7.31414 17.8616 6.70665C18.2913 5.45417 18.1683 4.28174 17.4715 2.98684C16.6372 1.43643 15.049 0.380491 13.1117 0.0879817C12.3209 -0.0313921 12.0857 -0.0302358 11.3021 0.0972311ZM13.1275 0.930463C13.6461 1.02606 13.8817 1.10259 14.5279 1.3852C15.2357 1.69483 16.287 2.66037 16.6241 3.31042C17.6032 5.19851 17.3708 6.38408 15.4843 9.12737C14.9104 9.96183 13.101 12.2145 12.5242 12.8126L12.2454 13.1017L11.9642 12.8126C10.993 11.8143 9.2528 9.57343 8.45704 8.29638C7.32604 6.48127 7.09771 5.57181 7.45043 4.28594C7.65476 3.54101 8.13525 2.77353 8.74005 2.2263C9.26287 1.75315 9.36287 1.68262 9.88584 1.41865C10.8607 0.926489 12.0965 0.740347 13.1275 0.930463ZM11.7836 2.67107C10.4991 2.86154 9.50457 3.87261 9.42738 5.06642C9.35453 6.19194 9.98781 7.14932 11.12 7.62537C12.9301 8.38641 15.0786 7.10365 15.0786 5.26188C15.0786 4.24944 14.474 3.36325 13.462 2.89254C13.181 2.76175 12.9929 2.71681 12.3642 2.63002C12.2777 2.6181 12.0164 2.6366 11.7836 2.67107ZM13.1464 3.70157C13.8152 4.06157 14.1345 4.57527 14.1345 5.29151C14.1345 5.66611 14.0934 5.80058 13.8783 6.13132C13.2364 7.11774 11.9191 7.29572 10.9281 6.5299C10.5658 6.2499 10.3481 5.75889 10.3481 5.22163C10.3481 4.7122 10.4752 4.41904 10.8585 4.04495C11.4774 3.44071 12.4036 3.30175 13.1464 3.70157ZM9.93982 11.8497C10.1663 12.0452 10.1708 12.208 9.95469 12.3859C9.45169 12.8001 8.0664 14.5726 7.71518 15.2514C7.63808 15.4005 7.53729 15.5223 7.49126 15.5222C7.25287 15.5218 5.72524 14.6654 5.13334 14.2003L4.82618 13.959L5.01533 13.7952C5.70707 13.1959 7.40479 12.3135 8.54831 11.9588C9.55209 11.6474 9.69261 11.6365 9.93982 11.8497ZM15.9948 11.9764C17.2257 12.3811 18.8849 13.2509 19.4387 13.7819L19.66 13.994L18.9738 14.46C18.2693 14.9385 17.3797 15.4253 17.0906 15.4907C16.9584 15.5205 16.8847 15.4553 16.7007 15.1456C16.2821 14.4409 15.4944 13.3957 14.9301 12.7959C14.6223 12.4688 14.3705 12.1661 14.3705 12.1231C14.3705 12.0801 14.4325 11.9644 14.5082 11.866C14.6297 11.7081 14.6876 11.6917 14.9999 11.7264C15.1947 11.748 15.6424 11.8605 15.9948 11.9764ZM11.7801 13.8785C11.9808 14.0673 12.1906 14.2217 12.2462 14.2217C12.3587 14.2217 12.9067 13.7251 13.3981 13.1778L13.719 12.8205L14.0483 13.1417C14.703 13.7803 16.0228 15.5847 16.0228 15.8412C16.0228 15.895 15.9608 15.9554 15.8851 15.9753C14.2159 16.4143 13.6209 16.4983 12.2069 16.4947C10.8998 16.4913 10.1914 16.4006 9.04005 16.0892C8.62124 15.9759 8.46963 15.9022 8.46963 15.8119C8.46963 15.559 9.78191 13.7861 10.4753 13.1025L10.7677 12.8142L11.0914 13.1747C11.2695 13.373 11.5794 13.6897 11.7801 13.8785ZM4.57646 14.8831C5.0501 15.2457 6.08732 15.87 6.65522 16.1344C7.13414 16.3572 7.13375 16.354 6.77717 17.2553C6.40802 18.1883 6.17662 19.1363 6.02729 20.3277C5.97749 20.7251 5.92037 21.0746 5.90038 21.1045C5.83563 21.2008 1.01248 21.1702 0.977308 21.0733C0.941667 20.9751 1.10162 19.9298 1.23474 19.3913C1.50744 18.2879 2.10194 17.0446 2.84081 16.0323C3.33397 15.3566 4.02217 14.583 4.13019 14.583C4.16009 14.583 4.36088 14.7181 4.57646 14.8831ZM20.7817 14.9624C21.589 15.8011 22.4813 17.2205 22.9008 18.3329C23.233 19.2142 23.4952 20.3541 23.4966 20.9238L23.4972 21.1587H21.0628C19.7239 21.1587 18.6096 21.1307 18.5867 21.0966C18.5637 21.0624 18.4892 20.6193 18.421 20.1116C18.2884 19.1234 17.9078 17.6718 17.5727 16.8769L17.3671 16.3888L17.5407 16.2923C17.6362 16.2391 17.9799 16.0556 18.3044 15.8844C18.9497 15.5441 19.5115 15.1897 19.9905 14.821C20.1606 14.6901 20.326 14.583 20.3581 14.583C20.3903 14.583 20.5809 14.7538 20.7817 14.9624ZM9.68159 17.1144C10.9723 17.3626 12.1349 17.4376 13.1707 17.3396C14.2088 17.2413 15.3065 17.0451 15.9717 16.8388C16.504 16.6737 16.5162 16.6819 16.7929 17.3897C17.1757 18.3691 17.5963 20.2164 17.5963 20.9185V21.1587H12.2462H6.89606V20.8824C6.89606 19.8631 7.68143 16.9302 8.0033 16.7476C8.04665 16.7229 8.28096 16.7645 8.52407 16.8398C8.76711 16.9152 9.28796 17.0388 9.68159 17.1144ZM5.9062 22.1161C5.92155 22.1658 5.97544 22.5967 6.02587 23.0736C6.15168 24.2622 6.34901 25.1415 6.73146 26.2169C6.82328 26.4752 6.93327 26.743 6.97592 26.812C7.13894 27.0761 7.05947 27.1889 6.52957 27.4453C5.87552 27.762 5.09605 28.2341 4.54333 28.6485L4.11831 28.9673L3.92555 28.8024C3.56906 28.4975 2.67086 27.3421 2.30894 26.7227C1.88077 25.9901 1.52208 25.1743 1.31468 24.4616C1.11688 23.7818 0.877071 22.2966 0.940565 22.1446C0.985176 22.0379 1.23891 22.0258 3.4342 22.0258C5.32202 22.0258 5.88457 22.0463 5.9062 22.1161ZM17.5963 22.4107C17.5963 22.8281 17.4028 24.1974 17.2779 24.6633C17.0441 25.5358 16.6617 26.5888 16.5336 26.7129C16.4479 26.796 16.3471 26.788 15.893 26.6627C14.4167 26.255 13.8723 26.1834 12.2462 26.1829C10.6832 26.1824 10.2176 26.2384 8.86924 26.5884C7.92376 26.8339 7.94996 26.8428 7.68741 26.1845C7.27631 25.1535 6.89606 23.3753 6.89606 22.4837V22.0258H12.2462H17.5963V22.4107ZM23.5167 22.4594C23.4776 23.2366 23.2429 24.3044 22.9028 25.2524C22.5544 26.2235 21.543 27.8021 20.7673 28.5857L20.3894 28.9674L19.6278 28.4412C19.2089 28.1518 18.5462 27.7524 18.1551 27.5537C17.7385 27.342 17.443 27.1457 17.4415 27.0797C17.4401 27.0176 17.5273 26.7601 17.635 26.5073C17.9649 25.7343 18.3032 24.3562 18.4334 23.2543C18.5016 22.678 18.5703 22.1653 18.5862 22.1151C18.6089 22.0434 19.1458 22.0278 21.0758 22.0429L23.5366 22.0619L23.5167 22.4594ZM14.8033 27.2644C15.2793 27.3725 15.7666 27.5073 15.8862 27.5639L16.1037 27.6669L15.8972 28.0077C15.1956 29.1659 14.2202 30.3318 13.2546 31.166C12.3534 31.9447 12.2992 31.9734 12.0298 31.8145C11.6408 31.5852 10.2342 30.2408 9.7432 29.629C9.47915 29.3 9.06381 28.7349 8.82022 28.3733C8.45161 27.826 8.39504 27.6998 8.48253 27.6205C8.61188 27.5032 9.9779 27.1681 10.6726 27.0833C10.9539 27.049 11.8036 27.0314 12.5609 27.0443C13.7394 27.0644 14.0625 27.0961 14.8033 27.2644ZM7.78969 28.419C8.34555 29.396 9.18474 30.4344 10.1649 31.358C10.4874 31.6619 10.7513 31.9479 10.7513 31.9935C10.7513 32.0858 10.485 32.0576 9.64981 31.877C8.49315 31.6268 7.25987 31.1574 6.25184 30.5836C5.76065 30.3041 4.85042 29.6665 4.85042 29.6019C4.85042 29.383 7.03249 28.0407 7.40747 28.0287C7.52069 28.0251 7.62793 28.1347 7.78969 28.419ZM17.5399 28.2135C18.0471 28.4484 19.2361 29.1895 19.4652 29.4135C19.5584 29.5047 19.6098 29.6135 19.5794 29.6553C19.4646 29.8129 18.4493 30.4781 17.8553 30.7849C16.8813 31.2879 15.8188 31.6661 14.6852 31.9132C14.0239 32.0573 13.7411 32.0812 13.7411 31.9932C13.7411 31.9475 14.0686 31.5936 14.4689 31.2069C15.2734 30.4296 16.0755 29.4387 16.5907 28.5855C16.776 28.2787 16.973 28.0266 17.0285 28.0255C17.0841 28.0243 17.3142 28.109 17.5399 28.2135Z" fill="white"/>
<path fill-rule="evenodd" clip-rule="evenodd" d="M11.8333 0.0972311C11.1276 0.212053 10.8962 0.275425 10.3778 0.495818C8.46712 1.30817 7.26114 2.80027 6.9454 4.74248C6.78388 5.73605 7.02314 6.65318 7.8181 8.08848C8.20182 8.78124 8.40851 9.09796 9.21504 10.2291C9.44872 10.5568 9.61961 10.8551 9.5949 10.892C9.57012 10.9287 9.44573 10.9799 9.3185 11.0056C8.93149 11.0836 7.92841 11.4577 7.16586 11.8084C4.59645 12.9899 2.35034 15.3015 1.31336 17.8315C0.99518 18.6079 0.679207 19.9138 0.575981 20.8793C0.378891 22.722 0.842623 24.9602 1.77905 26.6866C2.79503 28.5596 4.18245 30.007 6.05043 31.1429C9.65832 33.3367 14.3265 33.6075 18.1565 31.8452C19.1764 31.3759 19.8221 30.9868 20.6861 30.3211C22.5806 28.8611 24.0676 26.6673 24.6434 24.4827C25.4466 21.4356 24.8798 18.3115 23.0515 15.7093C21.871 14.029 20.1458 12.606 18.2456 11.7455C17.5347 11.4236 16.6262 11.0946 16.2163 11.0107C16.0954 10.986 15.9798 10.9257 15.9594 10.8769C15.939 10.8279 16.2235 10.3698 16.5916 9.85871C17.2634 8.92612 18.1846 7.31414 18.3929 6.70665C18.8226 5.45417 18.6996 4.28174 18.0027 2.98684C17.1684 1.43643 15.5803 0.380491 13.6429 0.0879817C12.8521 -0.0313921 12.6169 -0.0302358 11.8333 0.0972311ZM13.6587 0.930463C14.1774 1.02606 14.4129 1.10259 15.0591 1.3852C15.7669 1.69483 16.8182 2.66037 17.1554 3.31042C18.1344 5.19851 17.9021 6.38408 16.0155 9.12737C15.4417 9.96183 13.6322 12.2145 13.0554 12.8126L12.7767 13.1017L12.4955 12.8126C11.5243 11.8143 9.78405 9.57343 8.98829 8.29638C7.85729 6.48127 7.62896 5.57181 7.98168 4.28594C8.18601 3.54101 8.6665 2.77353 9.2713 2.2263C9.79412 1.75315 9.89412 1.68262 10.4171 1.41865C11.392 0.926489 12.6277 0.740347 13.6587 0.930463ZM12.3148 2.67107C11.0304 2.86154 10.0358 3.87261 9.95863 5.06642C9.88578 6.19194 10.5191 7.14932 11.6512 7.62537C13.4613 8.38641 15.6099 7.10365 15.6099 5.26188C15.6099 4.24944 15.0052 3.36325 13.9933 2.89254C13.7122 2.76175 13.5241 2.71681 12.8955 2.63002C12.8089 2.6181 12.5476 2.6366 12.3148 2.67107ZM13.6777 3.70157C14.3465 4.06157 14.6657 4.57527 14.6657 5.29151C14.6657 5.66611 14.6247 5.80058 14.4096 6.13132C13.7677 7.11774 12.4503 7.29572 11.4593 6.5299C11.097 6.2499 10.8793 5.75889 10.8793 5.22163C10.8793 4.7122 11.0065 4.41904 11.3897 4.04495C12.0087 3.44071 12.9348 3.30175 13.6777 3.70157ZM10.4711 11.8497C10.6976 12.0452 10.7021 12.208 10.4859 12.3859C9.98294 12.8001 8.59765 14.5726 8.24643 15.2514C8.16933 15.4005 8.06854 15.5223 8.02251 15.5222C7.78412 15.5218 6.25649 14.6654 5.66459 14.2003L5.35743 13.959L5.54658 13.7952C6.23832 13.1959 7.93604 12.3135 9.07956 11.9588C10.0833 11.6474 10.2239 11.6365 10.4711 11.8497ZM16.5261 11.9764C17.7569 12.3811 19.4161 13.2509 19.9699 13.7819L20.1912 13.994L19.5051 14.46C18.8005 14.9385 17.9109 15.4253 17.6218 15.4907C17.4897 15.5205 17.4159 15.4553 17.2319 15.1456C16.8133 14.4409 16.0256 13.3957 15.4613 12.7959C15.1535 12.4688 14.9018 12.1661 14.9018 12.1231C14.9018 12.0801 14.9638 11.9644 15.0395 11.866C15.1609 11.7081 15.2188 11.6917 15.5312 11.7264C15.7259 11.748 16.1736 11.8605 16.5261 11.9764ZM12.3114 13.8785C12.5121 14.0673 12.7218 14.2217 12.7774 14.2217C12.89 14.2217 13.438 13.7251 13.9293 13.1778L14.2502 12.8205L14.5796 13.1417C15.2343 13.7803 16.554 15.5847 16.554 15.8412C16.554 15.895 16.492 15.9554 16.4163 15.9753C14.7472 16.4143 14.1521 16.4983 12.7381 16.4947C11.431 16.4913 10.7226 16.4006 9.5713 16.0892C9.15249 15.9759 9.00088 15.9022 9.00088 15.8119C9.00088 15.559 10.3132 13.7861 11.0066 13.1025L11.2989 12.8142L11.6227 13.1747C11.8007 13.373 12.1106 13.6897 12.3114 13.8785ZM5.10771 14.8831C5.58135 15.2457 6.61857 15.87 7.18647 16.1344C7.66539 16.3572 7.665 16.354 7.30842 17.2553C6.93927 18.1883 6.70787 19.1363 6.55854 20.3277C6.50874 20.7251 6.45162 21.0746 6.43163 21.1045C6.36688 21.2008 1.54373 21.1702 1.50856 21.0733C1.47292 20.9751 1.63287 19.9298 1.76599 19.3913C2.03869 18.2879 2.63319 17.0446 3.37206 16.0323C3.86522 15.3566 4.55342 14.583 4.66144 14.583C4.69134 14.583 4.89213 14.7181 5.10771 14.8831ZM21.313 14.9624C22.1202 15.8011 23.0126 17.2205 23.432 18.3329C23.7643 19.2142 24.0264 20.3541 24.0279 20.9238L24.0285 21.1587H21.5941C20.2551 21.1587 19.1409 21.1307 19.1179 21.0966C19.0949 21.0624 19.0204 20.6193 18.9523 20.1116C18.8196 19.1234 18.439 17.6718 18.104 16.8769L17.8983 16.3888L18.072 16.2923C18.1675 16.2391 18.5111 16.0556 18.8357 15.8844C19.4809 15.5441 20.0428 15.1897 20.5218 14.821C20.6918 14.6901 20.8573 14.583 20.8894 14.583C20.9215 14.583 21.1121 14.7538 21.313 14.9624ZM10.2128 17.1144C11.5036 17.3626 12.6662 17.4376 13.7019 17.3396C14.7401 17.2413 15.8377 17.0451 16.503 16.8388C17.0353 16.6737 17.0474 16.6819 17.3241 17.3897C17.707 18.3691 18.1276 20.2164 18.1276 20.9185V21.1587H12.7774H7.42731V20.8824C7.42731 19.8631 8.21268 16.9302 8.53455 16.7476C8.5779 16.7229 8.81221 16.7645 9.05532 16.8398C9.29836 16.9152 9.81921 17.0388 10.2128 17.1144ZM6.43745 22.1161C6.4528 22.1658 6.50669 22.5967 6.55712 23.0736C6.68293 24.2622 6.88026 25.1415 7.26271 26.2169C7.35453 26.4752 7.46452 26.743 7.50717 26.812C7.67019 27.0761 7.59072 27.1889 7.06082 27.4453C6.40677 27.762 5.6273 28.2341 5.07458 28.6485L4.64956 28.9673L4.4568 28.8024C4.10031 28.4975 3.20211 27.3421 2.84019 26.7227C2.41202 25.9901 2.05333 25.1743 1.84593 24.4616C1.64813 23.7818 1.40832 22.2966 1.47182 22.1446C1.51643 22.0379 1.77016 22.0258 3.96545 22.0258C5.85327 22.0258 6.41582 22.0463 6.43745 22.1161ZM18.1276 22.4107C18.1276 22.8281 17.934 24.1974 17.8092 24.6633C17.5753 25.5358 17.193 26.5888 17.0649 26.7129C16.9792 26.796 16.8783 26.788 16.4242 26.6627C14.948 26.255 14.4036 26.1834 12.7774 26.1829C11.2144 26.1824 10.7488 26.2384 9.40049 26.5884C8.45501 26.8339 8.48121 26.8428 8.21866 26.1845C7.80756 25.1535 7.42731 23.3753 7.42731 22.4837V22.0258H12.7774H18.1276V22.4107ZM24.0479 22.4594C24.0089 23.2366 23.7742 24.3044 23.4341 25.2524C23.0857 26.2235 22.0743 27.8021 21.2986 28.5857L20.9207 28.9674L20.1591 28.4412C19.7402 28.1518 19.0775 27.7524 18.6864 27.5537C18.2698 27.342 17.9742 27.1457 17.9728 27.0797C17.9713 27.0176 18.0585 26.7601 18.1663 26.5073C18.4962 25.7343 18.8344 24.3562 18.9647 23.2543C19.0329 22.678 19.1016 22.1653 19.1174 22.1151C19.1401 22.0434 19.6771 22.0278 21.6071 22.0429L24.0678 22.0619L24.0479 22.4594ZM15.3345 27.2644C15.8105 27.3725 16.2978 27.5073 16.4174 27.5639L16.6349 27.6669L16.4284 28.0077C15.7269 29.1659 14.7514 30.3318 13.7859 31.166C12.8846 31.9447 12.8305 31.9734 12.5611 31.8145C12.172 31.5852 10.7655 30.2408 10.2744 29.629C10.0104 29.3 9.59506 28.7349 9.35147 28.3733C8.98286 27.826 8.92629 27.6998 9.01378 27.6205C9.14313 27.5032 10.5091 27.1681 11.2039 27.0833C11.4852 27.049 12.3349 27.0314 13.0922 27.0443C14.2707 27.0644 14.5937 27.0961 15.3345 27.2644ZM8.32094 28.419C8.8768 29.396 9.71599 30.4344 10.6962 31.358C11.0187 31.6619 11.2826 31.9479 11.2826 31.9935C11.2826 32.0858 11.0162 32.0576 10.1811 31.877C9.0244 31.6268 7.79112 31.1574 6.78309 30.5836C6.2919 30.3041 5.38167 29.6665 5.38167 29.6019C5.38167 29.383 7.56374 28.0407 7.93872 28.0287C8.05194 28.0251 8.15918 28.1347 8.32094 28.419ZM18.0712 28.2135C18.5783 28.4484 19.7673 29.1895 19.9964 29.4135C20.0897 29.5047 20.1411 29.6135 20.1106 29.6553C19.9959 29.8129 18.9805 30.4781 18.3865 30.7849C17.4126 31.2879 16.35 31.6661 15.2165 31.9132C14.5552 32.0573 14.2723 32.0812 14.2723 31.9932C14.2723 31.9475 14.5999 31.5936 15.0001 31.2069C15.8047 30.4296 16.6067 29.4387 17.1219 28.5855C17.3072 28.2787 17.5042 28.0266 17.5598 28.0255C17.6153 28.0243 17.8454 28.109 18.0712 28.2135Z" fill="white"/>
</svg>
