<svg width="180" height="160" viewBox="0 0 180 160" fill="none" xmlns="http://www.w3.org/2000/svg">
<path d="M47.3233 49.3145C42.89 57.1345 40.3066 65.4945 39.5733 74.3945C39.54 74.7211 39.44 75.0211 39.2733 75.2944C37.0233 78.9044 35.8033 83.3644 34.4433 87.3544C31.0733 97.2944 38.0333 104.564 46.2133 109.164C46.508 109.335 46.7532 109.583 46.9233 109.884C53.21 121.204 62.3333 129.351 74.2933 134.324C74.6466 134.471 74.8266 134.734 74.8333 135.114L74.9133 145.604C74.92 146.018 74.7266 146.154 74.3333 146.014C70.42 144.641 67.4133 145.461 65.3133 148.474C62.2233 152.904 67.5733 158.404 71.7033 154.864C73.6366 153.204 75.5866 151.508 77.5533 149.774C77.8266 149.534 77.9633 149.231 77.9633 148.864V136.144C77.9638 136.064 77.9825 135.985 78.0179 135.913C78.0533 135.842 78.1045 135.779 78.1674 135.731C78.2303 135.682 78.3033 135.649 78.3807 135.634C78.458 135.619 78.5377 135.623 78.6133 135.644C86.54 137.871 94.5066 138.031 102.513 136.124C102.94 136.018 103.153 136.188 103.153 136.634L103.103 149.604C103.097 149.944 103.22 150.234 103.473 150.474C105.563 152.454 109.113 156.514 112.023 156.544C120.083 156.624 116.553 142.934 106.703 146.674C106.377 146.794 106.213 146.681 106.213 146.334V135.874C106.213 135.534 106.373 135.301 106.693 135.174C124.553 128.128 136.127 115.334 141.413 96.7944C141.567 96.2611 141.77 96.2411 142.023 96.7345C142.703 98.0645 143.243 99.4645 143.983 100.424C146.963 104.294 151.523 104.444 155.183 101.514C159.493 98.0545 161.753 89.8945 162.703 84.0145" stroke="#818182" stroke-width="2"/>
<path d="M162.703 84.0156L165.353 85.6456C165.481 85.7231 165.625 85.7698 165.774 85.782C165.923 85.7941 166.073 85.7713 166.213 85.7155C169.683 84.3655 168.703 81.5655 169.423 78.6855" stroke="#F8C28C" stroke-width="2"/>
<path d="M169.424 78.6859C172.404 76.8059 175.554 69.9859 170.494 68.0859" stroke="#818182" stroke-width="2"/>
<path d="M170.493 68.0844C172.186 50.4977 174.776 32.9244 178.263 15.3644C178.286 15.2474 178.274 15.1262 178.227 15.0165C178.18 14.9068 178.101 14.8139 178.001 14.75C177.9 14.6861 177.782 14.6542 177.663 14.6586C177.544 14.6629 177.429 14.7033 177.333 14.7744C176.773 15.1944 176.4 15.8844 176.213 16.8444C173.026 33.2111 169.66 49.5411 166.113 65.8344C166.02 66.2477 166.046 66.6677 166.193 67.0944" stroke="#F8C28C" stroke-width="2"/>
<path d="M166.193 67.0945C166.113 67.2879 165.976 67.3712 165.783 67.3445C165.483 67.3179 165.333 67.1512 165.333 66.8445L165.323 64.6045C165.324 64.233 165.178 63.8899 164.918 63.6507C164.657 63.4114 164.303 63.2956 163.933 63.3287C163.563 63.3619 163.207 63.5413 162.945 63.8274C162.682 64.1136 162.534 64.483 162.533 64.8545C162.453 74.7879 160.453 84.5512 156.533 94.1445C155.473 96.7445 151.663 102.655 148.163 100.215C145.729 98.5145 144.409 95.9712 144.203 92.5845C143.929 88.0245 143.753 83.4479 143.673 78.8545C143.479 67.4612 140.443 56.9745 134.562 47.3945" stroke="#818182" stroke-width="2"/>
<path d="M134.563 47.3954C137.293 44.9554 134.883 43.1954 132.633 42.3754C132.313 42.2554 132.133 42.0254 132.093 41.6854C130.023 23.0354 120.793 8.04536 101.313 4.75536C100.986 4.70203 100.763 4.51871 100.643 4.20538C98.6128 -1.04462 84.6429 1.43538 80.6629 2.73538C79.3295 3.17538 78.4662 4.36204 78.0728 6.29537C78.0423 6.44651 77.9704 6.58681 77.8647 6.70129C77.759 6.81577 77.6236 6.90013 77.4729 6.94537C60.8829 12.0154 48.5529 25.2254 48.6929 43.2154C48.6929 43.5754 48.5195 43.8054 48.1728 43.9054L45.7028 44.6054C45.4285 44.6832 45.1754 44.8225 44.9628 45.0126C44.7502 45.2027 44.5836 45.4387 44.4757 45.7027C44.3678 45.9667 44.3214 46.2518 44.3399 46.5364C44.3585 46.821 44.4416 47.0976 44.5828 47.3454C45.0828 48.232 45.9962 48.8887 47.3228 49.3154" stroke="#898EA3" stroke-width="2"/>
<path d="M134.563 47.3956C133.223 47.0889 132.469 47.3889 132.303 48.2956" stroke="#0B1025" stroke-width="2"/>
<path d="M132.304 48.2945C120.464 43.3745 107.934 41.2178 94.7143 41.8245C86.881 42.1845 79.4443 43.2578 72.4043 45.0445" stroke="#166B96" stroke-width="2"/>
<path d="M72.4037 45.0449L57.2637 47.8749" stroke="#517791" stroke-width="2"/>
<path d="M57.2625 47.875L50.0625 49.495" stroke="#166B96" stroke-width="2"/>
<path d="M50.0642 49.4961C49.5442 48.0561 48.6309 47.9961 47.3242 49.3161" stroke="#0B1025" stroke-width="2"/>
<path d="M169.423 78.685C167.763 79.1984 166.02 79.1984 164.193 78.685C163.786 78.5717 163.55 78.7217 163.483 79.135L162.703 84.015" stroke="#7A440F" stroke-width="2"/>
<path d="M122.154 65.2651L132.834 62.7051" stroke="#1C4E6A" stroke-width="2"/>
<path d="M132.303 48.2949L138.153 60.6549C138.333 61.0349 138.219 61.2783 137.813 61.3849L132.833 62.7049" stroke="#0E5E75" stroke-width="2"/>
<path d="M132.833 62.705C131.513 57.495 127.763 51.905 122.573 50.135C120.233 49.335 117.073 49.605 117.823 52.875C118.803 57.1683 120.247 61.2983 122.153 65.265" stroke="#27A9DB" stroke-width="2"/>
<path d="M122.153 65.2661L118.943 66.0861C118.872 66.1036 118.798 66.1062 118.726 66.0937C118.654 66.0812 118.585 66.0539 118.524 66.0135C118.463 65.9731 118.411 65.9205 118.371 65.859C118.331 65.7975 118.305 65.7284 118.293 65.6561C116.313 52.2861 99.843 50.3761 95.503 63.7161C95.3896 64.0761 95.1996 64.1228 94.933 63.8561C92.1063 61.0561 89.3829 61.1761 86.7629 64.2161C86.7117 64.2759 86.6453 64.3205 86.5706 64.3452C86.4958 64.3698 86.4154 64.3737 86.3379 64.3563C86.2603 64.339 86.1883 64.3011 86.1294 64.2465C86.0705 64.1919 86.0268 64.1227 86.003 64.0461C82.033 50.3161 64.8829 52.0961 63.1129 65.9961C63.0663 66.3361 62.873 66.4794 62.533 66.4261L44.533 63.6161C44.193 63.5628 44.0696 63.3694 44.163 63.0361C45.4763 58.2961 47.443 53.7828 50.063 49.4961" stroke="#0E5E75" stroke-width="2"/>
<path d="M57.2637 47.8749C57.6637 51.9049 60.7237 54.3349 64.5237 52.0549C67.5237 50.2482 70.1504 47.9116 72.4037 45.0449" stroke="#54C5E1" stroke-width="2"/>
<path d="M170.493 68.0857L166.193 67.0957" stroke="#7A440F" stroke-width="2"/>
<path d="M12.1626 151.715C8.62259 151.875 5.1259 152.555 1.67257 153.755C1.48432 153.819 1.31962 153.937 1.19988 154.096C1.08014 154.255 1.01089 154.446 1.00118 154.644C0.991473 154.843 1.04175 155.04 1.14544 155.209C1.24913 155.379 1.40144 155.513 1.58257 155.595C3.41591 156.422 5.45924 156.992 7.71258 157.305C22.4659 159.338 37.2059 159.268 51.9326 157.095C53.7859 156.822 55.7192 156.352 57.7326 155.685C57.8974 155.63 58.0423 155.528 58.149 155.391C58.2558 155.254 58.3196 155.088 58.3324 154.915C58.3453 154.742 58.3065 154.568 58.2212 154.417C58.1358 154.266 58.0075 154.143 57.8526 154.065C54.2526 152.258 50.5926 151.652 46.8726 152.245" stroke="#EBECEB" stroke-width="2"/>
<path d="M46.8732 152.245C49.5832 146.405 48.9032 141.685 48.8932 135.775C48.8932 135.468 48.7399 135.308 48.4332 135.295L47.1332 135.235C46.7199 135.215 46.5399 134.998 46.5932 134.585C47.7032 126.115 44.5132 114.775 34.6932 113.535C34.3599 113.495 34.0632 113.372 33.8032 113.165C30.6566 110.692 27.4532 110.735 24.1932 113.295C23.9332 113.495 23.6366 113.608 23.3032 113.635C13.1932 114.515 11.8832 126.545 12.9332 134.555C12.9432 134.627 12.9377 134.7 12.9172 134.769C12.8967 134.839 12.8616 134.903 12.8143 134.958C12.767 135.013 12.7086 135.057 12.6429 135.087C12.5771 135.118 12.5057 135.134 12.4332 135.135L10.7132 135.155C10.4132 135.162 10.2599 135.315 10.2532 135.615C10.1332 142.405 9.36325 147.095 12.1632 151.715" stroke="#818182" stroke-width="2"/>
<path d="M46.8741 152.245C40.2607 156.638 31.6807 158.115 21.1341 156.675C17.1874 156.135 14.1974 154.482 12.1641 151.715" stroke="#6D6E6E" stroke-width="2"/>
<path d="M96.7538 4.4661L98.2338 4.7161C98.5938 4.7761 98.7672 4.62276 98.7538 4.25609C98.7405 3.77609 98.4538 3.47942 97.8938 3.36609C92.3672 2.24609 86.6405 2.57942 80.7138 4.36609C80.5547 4.41861 80.4184 4.52431 80.3279 4.66544C80.2375 4.80656 80.1984 4.9745 80.2172 5.14107C80.2359 5.30763 80.3114 5.46267 80.431 5.58012C80.5506 5.69758 80.707 5.77031 80.8738 5.78609C81.2405 5.81275 81.5005 6.08277 81.6538 6.5961C81.7405 6.88277 81.7338 7.22943 81.6338 7.63609C80.8605 10.6961 80.2938 13.8128 79.9338 16.9861C79.8938 17.3328 80.0505 17.4994 80.4038 17.4861L95.9738 16.8361C96.0667 16.8323 96.1578 16.81 96.242 16.7706C96.3261 16.7312 96.4016 16.6754 96.4639 16.6065C96.5263 16.5376 96.5743 16.457 96.6052 16.3694C96.6361 16.2818 96.6492 16.1889 96.6438 16.0961L96.0638 5.08609C96.0598 4.99642 96.0756 4.90694 96.11 4.82423C96.1445 4.74152 96.1968 4.6677 96.263 4.6082C96.3292 4.5487 96.4077 4.50505 96.4926 4.48045C96.5776 4.45586 96.6669 4.45095 96.7538 4.4661Z" stroke="#825130" stroke-width="2"/>
<path d="M108.344 17.7248C112.164 18.0448 113.824 19.3348 113.504 23.4448C113.197 27.4448 112.7 31.4215 112.014 35.3748C111.954 35.7081 112.087 35.9248 112.414 36.0248L129.784 41.3548C130.13 41.4615 130.287 41.3315 130.254 40.9648C128.704 23.1248 117.874 7.21481 98.5237 6.43481C98.0503 6.41481 97.827 6.64147 97.8537 7.1148L98.3537 16.2848C98.3737 16.7315 98.607 16.9715 99.0537 17.0048C102.194 17.2381 105.29 17.4781 108.344 17.7248Z" stroke="#825130" stroke-width="2"/>
<path d="M65.8231 38.4457C65.0831 34.5957 61.9731 23.7058 65.9931 21.1058C68.7797 19.3124 72.5731 18.2924 77.3731 18.0458C77.5518 18.0372 77.7223 17.9683 77.8568 17.8502C77.9912 17.7321 78.0816 17.5719 78.1131 17.3957L79.7131 8.37576C79.7731 8.05576 79.6464 7.93908 79.3331 8.02575C62.7331 12.6158 50.5731 25.1357 50.1231 42.7857C50.1224 42.8419 50.1349 42.8975 50.1596 42.9479C50.1842 42.9984 50.2204 43.0424 50.2651 43.0764C50.3098 43.1104 50.3618 43.1335 50.417 43.1438C50.4722 43.1541 50.5291 43.1514 50.5831 43.1357L65.5031 38.9658C65.7697 38.8924 65.8764 38.7191 65.8231 38.4457Z" stroke="#825130" stroke-width="2"/>
<path d="M80.8328 35.9746C90.1262 34.4813 99.7295 34.2713 109.643 35.3446C109.996 35.378 110.206 35.2213 110.273 34.8746C111.073 30.8546 111.523 26.7813 111.623 22.6546C111.673 20.4946 111.223 19.9246 109.093 19.6946C96.2528 18.3546 84.1528 18.6046 72.7928 20.4446C70.2228 20.8646 65.4628 22.3146 65.6128 25.8746C65.7395 28.808 66.3928 32.6646 67.5728 37.4446C67.6595 37.7846 67.8762 37.9313 68.2229 37.8846C71.0095 37.518 75.2128 36.8813 80.8328 35.9746Z" stroke="#825130" stroke-width="2"/>
<path d="M98.0643 40.0155C109.371 40.0621 120.374 42.0988 131.074 46.1255C132.168 46.5388 133.088 46.4688 133.834 45.9155C133.951 45.8286 134.043 45.7117 134.099 45.5772C134.156 45.4426 134.174 45.2953 134.154 45.1509C134.133 45.0065 134.074 44.8703 133.983 44.7567C133.891 44.6431 133.771 44.5563 133.634 44.5055C120.684 39.7455 107.774 35.7855 93.9543 36.6455C77.9809 37.6321 62.1243 40.8255 46.3843 46.2255C45.9976 46.3588 45.9376 46.5821 46.2043 46.8955C46.9309 47.7421 47.9443 48.0288 49.2443 47.7555C58.8776 45.7488 68.5409 43.8888 78.2343 42.1755C86.4809 40.7155 93.091 39.9955 98.0643 40.0155Z" stroke="#825130" stroke-width="2"/>
<path d="M88.7031 29.435C90.7831 28.7617 91.9132 29.375 92.0932 31.275C92.1098 31.4522 92.1897 31.6175 92.3183 31.7405C92.4468 31.8636 92.6154 31.9362 92.7931 31.945L93.8132 31.995C93.8914 31.9993 93.9693 31.9835 94.0398 31.9492C94.1103 31.9149 94.1712 31.8631 94.2169 31.7985C94.2626 31.734 94.2917 31.6587 94.3015 31.5795C94.3113 31.5003 94.3016 31.4197 94.2732 31.345L90.9231 22.785C90.8066 22.4823 90.5968 22.2244 90.3242 22.0486C90.0515 21.8729 89.7299 21.7884 89.4061 21.8073C89.0822 21.8262 88.7727 21.9476 88.5224 22.1539C88.272 22.3602 88.0937 22.6408 88.0131 22.955L85.7631 31.695C85.7411 31.7771 85.7404 31.8634 85.761 31.9458C85.7817 32.0283 85.8229 32.1041 85.8809 32.1661C85.939 32.2282 86.0119 32.2744 86.0928 32.3004C86.1736 32.3265 86.2598 32.3315 86.3432 32.315L87.0232 32.185C87.5165 32.0917 87.8065 31.7984 87.8932 31.305L88.1032 30.115C88.1698 29.7683 88.3698 29.5417 88.7031 29.435Z" stroke="#F8C28C" stroke-width="2"/>
<path d="M98.3826 28.5452C105.273 28.7252 103.653 20.3652 96.5026 22.2252C96.2093 22.2986 96.0593 22.4886 96.0526 22.7952L95.7526 31.4752C95.7393 31.8686 95.9326 32.0686 96.3326 32.0752H96.9826C97.4826 32.0819 97.7393 31.8352 97.7526 31.3352L97.8126 29.0852C97.8139 29.0121 97.8297 28.94 97.8592 28.8731C97.8887 28.8062 97.9312 28.7459 97.9843 28.6956C98.0373 28.6453 98.0999 28.6061 98.1683 28.5803C98.2367 28.5545 98.3095 28.5426 98.3826 28.5452Z" stroke="#F8C28C" stroke-width="2"/>
<path d="M106.324 31.2153C105.98 31.1293 105.684 30.9138 105.496 30.6138C105.308 30.3138 105.243 29.9526 105.315 29.6061C105.388 29.2596 105.592 28.9545 105.884 28.7549C106.176 28.5553 106.535 28.4766 106.884 28.5353L108.644 28.8553C108.73 28.8709 108.819 28.8686 108.904 28.8485C108.99 28.8283 109.07 28.7909 109.141 28.7383C109.211 28.6858 109.27 28.6194 109.313 28.5432C109.357 28.4669 109.384 28.3826 109.394 28.2953L109.464 27.7653C109.51 27.3186 109.31 27.0786 108.864 27.0453L106.194 26.8553C106.131 26.8517 106.069 26.8351 106.012 26.8065C105.956 26.778 105.906 26.738 105.865 26.6892C105.825 26.6404 105.795 26.5837 105.778 26.5228C105.76 26.4619 105.755 26.3981 105.764 26.3353L105.954 24.8553C105.966 24.7688 105.995 24.6856 106.041 24.611C106.086 24.5363 106.146 24.4716 106.217 24.4211C106.288 24.3705 106.369 24.335 106.455 24.3168C106.54 24.2986 106.628 24.2981 106.714 24.3153L109.324 24.8253C109.904 24.9386 110.164 24.6986 110.104 24.1053L110.044 23.6053C110.01 23.2586 109.82 23.072 109.474 23.0453L104.694 22.6353C104.623 22.6285 104.552 22.6358 104.485 22.6568C104.417 22.6779 104.355 22.7123 104.3 22.758C104.246 22.8036 104.202 22.8597 104.17 22.9227C104.138 22.9858 104.119 23.0547 104.114 23.1253L103.404 32.1053C103.398 32.1855 103.408 32.266 103.434 32.3421C103.459 32.4183 103.499 32.4886 103.551 32.549C103.603 32.6094 103.666 32.6587 103.737 32.6941C103.808 32.7295 103.885 32.7503 103.964 32.7553L108.884 33.0953C108.992 33.1035 109.101 33.0844 109.2 33.0398C109.299 32.9952 109.385 32.9265 109.451 32.84C109.516 32.7535 109.559 32.6519 109.575 32.5445C109.592 32.4371 109.581 32.3274 109.544 32.2253L109.414 31.8553C109.287 31.522 109.047 31.362 108.694 31.3753C107.694 31.4086 106.904 31.3553 106.324 31.2153Z" stroke="#F8C28C" stroke-width="2"/>
<path d="M78.3627 30.4058C80.4094 29.3791 81.606 29.8758 81.9527 31.8958C82.0127 32.2491 82.2227 32.4258 82.5827 32.4258L83.6227 32.4058C83.7167 32.4048 83.8089 32.3802 83.8908 32.3342C83.9728 32.2882 84.0418 32.2223 84.0917 32.1426C84.1415 32.063 84.1704 31.972 84.1758 31.8782C84.1813 31.7844 84.163 31.6907 84.1227 31.6058L80.2627 23.5158C80.1209 23.215 79.8867 22.9674 79.5942 22.8091C79.3017 22.6508 78.9663 22.5902 78.6369 22.6359C78.3076 22.6817 78.0014 22.8316 77.7632 23.0636C77.525 23.2956 77.3671 23.5977 77.3127 23.9258L75.7827 32.7058C75.6827 33.2658 75.9094 33.4892 76.4627 33.3758C77.7294 33.1358 78.2527 32.3658 78.0327 31.0658C77.9794 30.7592 78.0894 30.5391 78.3627 30.4058Z" stroke="#F8C28C" stroke-width="2"/>
<path d="M70.0133 26.2656L72.7633 25.8556C72.8813 25.8393 72.9899 25.7814 73.0703 25.6919C73.1506 25.6024 73.1977 25.4869 73.2033 25.3656L73.2233 24.9156C73.2299 24.6823 73.1199 24.5356 72.8933 24.4756C70.9933 24.0156 69.5333 24.3256 68.5133 25.4056C67.1799 26.819 67.1499 28.089 68.4233 29.2156C69.3733 30.0556 70.8232 30.2956 72.0732 30.6556C72.3061 30.721 72.5133 30.8564 72.6667 31.0434C72.8201 31.2304 72.9123 31.46 72.9308 31.7012C72.9494 31.9424 72.8934 32.1834 72.7704 32.3917C72.6474 32.6 72.4634 32.7654 72.2433 32.8656C71.2766 33.319 70.2766 33.3923 69.2433 33.0856C69.1776 33.0662 69.1086 33.0604 69.0406 33.0687C68.9726 33.077 68.907 33.0992 68.8479 33.1339C68.7889 33.1686 68.7375 33.215 68.6972 33.2704C68.6568 33.3257 68.6282 33.3888 68.6133 33.4556C68.5399 33.769 68.5933 34.059 68.7733 34.3256C68.9466 34.5856 69.2466 34.749 69.6733 34.8156C72.1533 35.1956 76.0833 33.1456 74.4933 30.2756C73.6633 28.7956 71.4433 28.4156 69.9233 28.0156C69.7245 27.9611 69.5497 27.84 69.4284 27.6725C69.3071 27.505 69.2467 27.3015 69.2572 27.0961C69.2678 26.8907 69.3487 26.696 69.4864 26.5448C69.6241 26.3935 69.8101 26.295 70.0133 26.2656Z" stroke="#F8C28C" stroke-width="2"/>
<path d="M89.1335 24.9261C88.7268 26.1728 88.5935 26.9861 88.7335 27.3661C88.8073 27.5782 88.9542 27.7554 89.1477 27.8661C89.3412 27.9769 89.5688 28.0139 89.7899 27.9707C90.011 27.9274 90.2112 27.8067 90.3547 27.63C90.4982 27.4533 90.5758 27.2322 90.5735 27.0061C90.5668 26.2194 90.2935 25.4894 89.7535 24.8161C89.4735 24.4761 89.2668 24.5128 89.1335 24.9261Z" stroke="#F8C28C" stroke-width="2"/>
<path d="M97.9834 24.2455L97.9434 26.4256C97.9421 26.5109 97.9576 26.5957 97.9891 26.6751C98.0205 26.7544 98.0673 26.8268 98.1267 26.8881C98.1862 26.9494 98.2571 26.9984 98.3354 27.0323C98.4138 27.0661 98.4981 27.0842 98.5834 27.0855L98.7134 27.0956C99.0026 27.1012 99.2898 27.0665 99.5585 26.9936C99.8271 26.9208 100.072 26.811 100.279 26.6708C100.486 26.5305 100.652 26.3625 100.766 26.1763C100.88 25.9901 100.94 25.7893 100.943 25.5855V25.2056C100.951 24.7949 100.726 24.3967 100.319 24.0986C99.9123 23.8004 99.3563 23.6267 98.7734 23.6155L98.6434 23.6055C98.5581 23.6042 98.4733 23.6197 98.3939 23.6512C98.3145 23.6826 98.2422 23.7294 98.1809 23.7888C98.1196 23.8483 98.0706 23.9192 98.0367 23.9975C98.0028 24.0759 97.9847 24.1602 97.9834 24.2455Z" stroke="#F8C28C" stroke-width="2"/>
<path d="M78.9639 25.1856C78.4373 26.4056 78.2439 27.209 78.3839 27.5956C78.4548 27.796 78.5931 27.9614 78.7753 28.0636C78.9574 28.1659 79.1721 28.1985 79.3824 28.156C79.5928 28.1134 79.7858 27.9983 79.9283 27.8304C80.0709 27.6625 80.1542 27.4523 80.1639 27.2356C80.1906 26.5623 79.9239 25.8623 79.3639 25.1356C79.1973 24.929 79.0639 24.9456 78.9639 25.1856Z" stroke="#F8C28C" stroke-width="2"/>
<path d="M60.2529 57.895C60.2529 57.094 59.9347 56.3259 59.3683 55.7595C58.802 55.1932 58.0338 54.875 57.2329 54.875C56.4319 54.875 55.6638 55.1932 55.0974 55.7595C54.5311 56.3259 54.2129 57.094 54.2129 57.895C54.2129 58.6959 54.5311 59.4641 55.0974 60.0305C55.6638 60.5968 56.4319 60.915 57.2329 60.915C58.0338 60.915 58.802 60.5968 59.3683 60.0305C59.9347 59.4641 60.2529 58.6959 60.2529 57.895Z" stroke="#54C5E1" stroke-width="2"/>
<path d="M74.827 77.9738C76.1125 77.9603 77.3826 77.6679 78.5646 77.1133C79.7467 76.5586 80.8175 75.7526 81.7161 74.7412C82.6146 73.7298 83.3233 72.5328 83.8015 71.2186C84.2798 69.9045 84.5183 68.4988 84.5035 67.0819C84.4886 65.665 84.2207 64.2647 83.715 62.9608C83.2094 61.6569 82.4758 60.475 81.5563 59.4827C80.6368 58.4903 79.5492 57.7068 78.3558 57.1771C77.1624 56.6473 75.8865 56.3815 74.601 56.395C73.3154 56.4085 72.0453 56.7009 70.8633 57.2555C69.6813 57.8102 68.6104 58.6162 67.7119 59.6276C66.8133 60.639 66.1047 61.836 65.6264 63.1502C65.1482 64.4644 64.9096 65.87 64.9245 67.2869C64.9393 68.7038 65.2072 70.1042 65.7129 71.4081C66.2186 72.7119 66.9521 73.8938 67.8717 74.8862C68.7912 75.8786 69.8787 76.662 71.0721 77.1918C72.2655 77.7215 73.5414 77.9873 74.827 77.9738Z" stroke="#0E5E75" stroke-width="2"/>
<path d="M106.789 77.9659C109.386 77.9478 111.868 76.7946 113.69 74.7603C115.511 72.7259 116.524 69.9768 116.504 67.1179C116.494 65.7022 116.231 64.3023 115.73 62.9978C115.229 61.6934 114.499 60.5101 113.583 59.5154C112.667 58.5208 111.582 57.7343 110.391 57.2009C109.199 56.6674 107.924 56.3975 106.639 56.4065C104.042 56.4246 101.56 57.5777 99.7383 59.6121C97.9164 61.6465 96.9042 64.3955 96.9241 67.2545C96.934 68.6701 97.197 70.0701 97.6981 71.3745C98.1992 72.6789 98.9286 73.8623 99.8447 74.8569C100.761 75.8516 101.846 76.638 103.037 77.1715C104.229 77.7049 105.504 77.9749 106.789 77.9659Z" stroke="#0E5E75" stroke-width="2"/>
<path d="M133.222 64.5352L122.982 67.0352" stroke="#1C4E6A" stroke-width="2"/>
<path d="M122.984 67.0354L118.824 68.0454C118.477 68.1321 118.284 68.3521 118.244 68.7054C116.524 83.2354 97.3241 83.5054 95.1341 68.9654C93.9441 61.1554 87.1941 62.9254 86.1241 69.4654C83.8441 83.4154 65.2341 83.0954 63.1841 68.8954C63.1374 68.5554 62.9441 68.3588 62.6041 68.3054L44.0641 65.3954C43.6841 65.3354 43.4507 65.4921 43.3641 65.8654C40.2041 79.8454 41.6341 93.2754 47.6541 106.155C47.8162 106.498 48.0873 106.777 48.4241 106.945C54.9641 110.265 62.5241 110.625 69.7041 110.935C74.784 111.155 78.6807 112.032 81.3941 113.565" stroke="#0E5E75" stroke-width="2"/>
<path d="M81.394 113.565C80.6806 114.778 79.754 115.298 78.614 115.125C78.5409 115.114 78.4662 115.119 78.3958 115.142C78.3253 115.164 78.2609 115.202 78.2077 115.254C78.1544 115.305 78.1138 115.368 78.0889 115.438C78.0639 115.507 78.0554 115.582 78.064 115.655C78.654 120.655 77.144 122.515 71.924 122.065C67.804 121.705 65.894 118.505 66.324 114.505C66.335 114.405 66.3257 114.305 66.2966 114.209C66.2675 114.113 66.2192 114.024 66.1547 113.947C66.0902 113.87 66.0107 113.808 65.9212 113.763C65.8317 113.718 65.734 113.691 65.634 113.685L59.834 113.375" stroke="#1C4E6A" stroke-width="2"/>
<path d="M59.8343 113.375L51.2843 111.525C50.911 111.445 50.8276 111.565 51.0343 111.885C70.7143 143.155 113.794 142.185 132.564 111.135C141.404 96.5212 143.561 80.6779 139.034 63.6045C138.948 63.2779 138.741 63.1545 138.414 63.2345L133.224 64.5345" stroke="#0E5E75" stroke-width="2"/>
<path d="M59.8333 113.375C59.6799 114.722 59.9866 115.848 60.7533 116.755C73.5533 131.885 93.3133 137.025 110.913 127.385C132.663 115.475 139.243 87.4852 133.223 64.5352" stroke="#27A9DB" stroke-width="2"/>
<path d="M122.983 67.0352C123.336 67.1885 123.409 67.3518 123.203 67.5252C123.141 67.5805 123.093 67.6502 123.063 67.7285C123.034 67.8068 123.023 67.8913 123.033 67.9752C125.633 89.1852 111.093 106.755 90.9326 112.105C87.4393 113.032 84.2592 113.518 81.3926 113.565" stroke="#27A9DB" stroke-width="2"/>
<path d="M37.9033 85.4562C35.0766 93.2495 37.0033 99.3295 43.6833 103.696C44.0099 103.909 44.0999 103.833 43.9533 103.466C41.6799 97.9928 40.4433 93.9561 40.2433 91.3561C40.0499 88.7228 39.71 86.1028 39.2233 83.4962C39.1566 83.1162 39.0266 83.0961 38.8333 83.4361C38.4466 84.1361 38.1366 84.8095 37.9033 85.4562Z" stroke="#818182" stroke-width="2"/>
<path d="M82.5642 67.1942C82.5642 65.107 81.7351 63.1052 80.2592 61.6293C78.7832 60.1534 76.7815 59.3242 74.6942 59.3242C72.607 59.3242 70.6052 60.1534 69.1293 61.6293C67.6534 63.1052 66.8242 65.107 66.8242 67.1942C66.8242 69.2815 67.6534 71.2832 69.1293 72.7592C70.6052 74.2351 72.607 75.0642 74.6942 75.0642C76.7815 75.0642 78.7832 74.2351 80.2592 72.7592C81.7351 71.2832 82.5642 69.2815 82.5642 67.1942Z" stroke="#0E5E75" stroke-width="2"/>
<path d="M114.574 67.1942C114.574 65.107 113.745 63.1052 112.269 61.6293C110.793 60.1534 108.791 59.3242 106.704 59.3242C104.617 59.3242 102.615 60.1534 101.139 61.6293C99.6632 63.1052 98.834 65.107 98.834 67.1942C98.834 69.2815 99.6632 71.2832 101.139 72.7592C102.615 74.2351 104.617 75.0642 106.704 75.0642C108.791 75.0642 110.793 74.2351 112.269 72.7592C113.745 71.2832 114.574 69.2815 114.574 67.1942Z" stroke="#0E5E75" stroke-width="2"/>
<path d="M78.5541 65.655C78.5541 64.7851 78.2086 63.9508 77.5934 63.3357C76.9783 62.7206 76.144 62.375 75.2741 62.375C74.4042 62.375 73.57 62.7206 72.9548 63.3357C72.3397 63.9508 71.9941 64.7851 71.9941 65.655C71.9941 66.5249 72.3397 67.3592 72.9548 67.9743C73.57 68.5894 74.4042 68.935 75.2741 68.935C76.144 68.935 76.9783 68.5894 77.5934 67.9743C78.2086 67.3592 78.5541 66.5249 78.5541 65.655Z" stroke="#818182" stroke-width="2"/>
<path d="M72.1534 70.7154C72.1534 70.3335 72.0017 69.9672 71.7317 69.6971C71.4616 69.4271 71.0954 69.2754 70.7134 69.2754C70.3315 69.2754 69.9653 69.4271 69.6952 69.6971C69.4252 69.9672 69.2734 70.3335 69.2734 70.7154C69.2734 71.0973 69.4252 71.4636 69.6952 71.7336C69.9653 72.0037 70.3315 72.1554 70.7134 72.1554C71.0954 72.1554 71.4616 72.0037 71.7317 71.7336C72.0017 71.4636 72.1534 71.0973 72.1534 70.7154Z" stroke="#818182" stroke-width="2"/>
<path d="M109.254 65.8955C109.254 65.0229 108.907 64.1861 108.29 63.5691C107.673 62.9521 106.836 62.6055 105.964 62.6055C105.091 62.6055 104.254 62.9521 103.637 63.5691C103.02 64.1861 102.674 65.0229 102.674 65.8955C102.674 66.768 103.02 67.6049 103.637 68.2219C104.254 68.8389 105.091 69.1855 105.964 69.1855C106.836 69.1855 107.673 68.8389 108.29 68.2219C108.907 67.6049 109.254 66.768 109.254 65.8955Z" stroke="#818182" stroke-width="2"/>
<path d="M112.763 70.2545C112.763 69.8725 112.611 69.5063 112.341 69.2362C112.071 68.9662 111.705 68.8145 111.323 68.8145C110.941 68.8145 110.575 68.9662 110.305 69.2362C110.035 69.5063 109.883 69.8725 109.883 70.2545C109.883 70.6364 110.035 71.0027 110.305 71.2727C110.575 71.5428 110.941 71.6945 111.323 71.6945C111.705 71.6945 112.071 71.5428 112.341 71.2727C112.611 71.0027 112.763 70.6364 112.763 70.2545Z" stroke="#818182" stroke-width="2"/>
<path d="M97.4233 91.2744C91.93 94.1344 86.5833 93.761 81.3833 90.1544C80.9766 89.8744 80.58 89.8411 80.1933 90.0544C80.0855 90.1147 79.9944 90.201 79.9285 90.3055C79.8626 90.41 79.8239 90.5294 79.816 90.6526C79.808 90.7759 79.8311 90.8992 79.883 91.0113C79.9349 91.1234 80.0141 91.2207 80.1133 91.2944C86.4666 95.9544 93.04 96.1077 99.8333 91.7544C100.233 91.4944 100.417 91.1844 100.383 90.8244C100.369 90.6829 100.324 90.5464 100.25 90.4249C100.176 90.3034 100.076 90.1999 99.9574 90.1222C99.8384 90.0445 99.7035 89.9945 99.5626 89.9758C99.4217 89.9571 99.2784 89.9703 99.1433 90.0144C98.5533 90.2144 98.0433 90.9544 97.4233 91.2744Z" stroke="#166B96" stroke-width="2"/>
<path d="M98.0439 125.105C109.864 122.215 123.674 112.895 127.304 100.625C127.323 100.568 127.32 100.506 127.298 100.451C127.275 100.395 127.233 100.35 127.179 100.322C127.125 100.293 127.062 100.284 127.001 100.296C126.94 100.308 126.884 100.339 126.844 100.385C118.074 110.945 110.714 118.875 97.8939 124.675C97.8447 124.701 97.8064 124.743 97.7859 124.794C97.7654 124.846 97.7641 124.903 97.7824 124.955C97.8006 125.008 97.8371 125.052 97.8852 125.079C97.9332 125.107 97.9896 125.116 98.0439 125.105Z" stroke="#62B5D6" stroke-width="2"/>
<path d="M25.4342 115.675L32.9642 115.805C33.0787 115.796 33.1751 115.744 33.2352 115.661C33.2953 115.577 33.3148 115.467 33.2902 115.351C33.2655 115.236 33.1984 115.122 33.1014 115.032C33.0045 114.943 32.8845 114.883 32.7642 114.865C30.4775 114.705 28.2108 114.701 25.9642 114.855C25.6508 114.875 25.4042 114.995 25.2242 115.215C24.9775 115.515 25.0475 115.668 25.4342 115.675Z" stroke="#6C3F1D" stroke-width="2"/>
<path d="M43.3729 128.665C43.8062 132.145 44.0262 135.645 44.0329 139.165C44.0329 139.372 44.1362 139.479 44.3429 139.485L44.7329 139.495C44.8337 139.499 44.9322 139.465 45.0097 139.401C45.0872 139.336 45.1382 139.245 45.1529 139.145C46.4229 130.665 45.9229 118.865 36.3929 115.145C36.1195 115.039 35.9195 115.119 35.7929 115.385C35.6595 115.665 35.7795 115.875 36.1529 116.015C42.2829 118.255 42.5729 122.195 43.3729 128.665Z" stroke="#6C3F1D" stroke-width="2"/>
<path d="M14.4825 127.765C15.0359 122.819 17.3226 118.975 21.3426 116.235C21.4241 116.178 21.4872 116.098 21.5244 116.005C21.5616 115.912 21.5713 115.811 21.5523 115.712C21.5333 115.614 21.4865 115.524 21.4174 115.452C21.3482 115.379 21.2598 115.329 21.1626 115.305C20.9159 115.252 20.6426 115.329 20.3426 115.535C16.0626 118.495 13.9826 122.569 14.1026 127.755C14.1019 127.78 14.1062 127.805 14.1151 127.829C14.124 127.852 14.1375 127.873 14.1547 127.891C14.1718 127.909 14.1924 127.924 14.2152 127.934C14.238 127.944 14.2626 127.95 14.2876 127.95C14.3125 127.951 14.3373 127.947 14.3607 127.938C14.384 127.929 14.4053 127.916 14.4234 127.898C14.4415 127.881 14.456 127.861 14.4662 127.838C14.4763 127.815 14.4819 127.79 14.4825 127.765Z" stroke="#6C3F1D" stroke-width="2"/>
<path d="M43.1131 140.366C42.9631 135.876 42.3531 121.516 38.8731 118.606C35.7531 116.006 22.0931 116.296 19.3231 119.476C14.5231 124.986 15.0931 133.176 15.2331 140.276C15.2331 140.596 15.0731 140.773 14.7531 140.806C14.6465 140.819 14.5365 140.829 14.4231 140.836C14.2949 140.846 14.1753 140.904 14.0881 140.999C14.001 141.093 13.9527 141.217 13.9531 141.346L14.0031 150.946C14.0031 151.259 14.0898 151.549 14.2631 151.816C18.2331 158.026 34.9331 155.966 40.8931 154.286C46.7931 152.626 45.0331 145.756 44.9931 141.246C44.9865 140.819 44.7765 140.649 44.3631 140.736L43.7431 140.856C43.3365 140.943 43.1265 140.779 43.1131 140.366Z" stroke="#7A440F" stroke-width="2"/>
<path d="M12.1778 149.413C12.3713 149.41 12.5449 148.715 12.6603 147.48C12.7757 146.246 12.8234 144.574 12.793 142.832C12.7779 141.969 12.7441 141.115 12.6936 140.319C12.643 139.522 12.5765 138.799 12.4981 138.19C12.4197 137.581 12.3308 137.099 12.2364 136.77C12.1421 136.442 12.0442 136.274 11.9484 136.275C11.7548 136.279 11.5813 136.974 11.4659 138.209C11.3505 139.443 11.3028 141.115 11.3332 142.857C11.3482 143.72 11.382 144.574 11.4326 145.37C11.4832 146.166 11.5496 146.89 11.6281 147.499C11.7065 148.107 11.7954 148.59 11.8897 148.918C11.984 149.247 12.0819 149.415 12.1778 149.413Z" stroke="#7A440F" stroke-width="2"/>
<path d="M46.7561 149.952C46.8572 149.956 46.9629 149.78 47.0672 149.435C47.1715 149.091 47.2724 148.584 47.364 147.944C47.4557 147.304 47.5363 146.543 47.6014 145.705C47.6664 144.867 47.7146 143.968 47.7431 143.06C47.8008 141.226 47.775 139.464 47.6714 138.162C47.5679 136.861 47.395 136.126 47.1909 136.119C47.0899 136.116 46.9842 136.292 46.8799 136.636C46.7756 136.981 46.6747 137.488 46.5831 138.128C46.4914 138.768 46.4108 139.529 46.3457 140.367C46.2807 141.204 46.2325 142.103 46.2039 143.012C46.1463 144.846 46.1721 146.608 46.2756 147.909C46.3792 149.211 46.552 149.946 46.7561 149.952Z" stroke="#6C3F1D" stroke-width="2"/>
<path d="M20.563 150.865L37.803 150.685C38.214 150.681 38.6203 150.597 38.9985 150.436C39.3768 150.275 39.7196 150.041 40.0075 149.747C40.2953 149.454 40.5226 149.107 40.6762 148.726C40.8299 148.344 40.9069 147.936 40.903 147.525L40.813 138.625C40.8003 137.376 40.5342 136.142 40.0298 134.993C39.5253 133.844 38.7925 132.803 37.8732 131.929C36.9538 131.055 35.8659 130.366 34.6717 129.9C33.4774 129.434 32.2002 129.202 30.913 129.215L27.013 129.255C24.4143 129.283 21.9326 130.31 20.1136 132.112C18.2945 133.915 17.2872 136.344 17.313 138.865L17.403 147.765C17.4069 148.176 17.4917 148.583 17.6527 148.961C17.8136 149.339 18.0475 149.682 18.3409 149.97C18.6343 150.258 18.9816 150.485 19.3629 150.639C19.7441 150.792 20.1519 150.869 20.563 150.865Z" stroke="#7A440F" stroke-width="2"/>
<path d="M20.1329 149.274L38.1729 149.234C38.5425 149.232 38.896 149.083 39.1564 148.821C39.4168 148.558 39.5629 148.204 39.5629 147.834L39.5529 138.754C39.5476 136.601 38.7049 134.538 37.2102 133.019C35.7156 131.5 33.6914 130.649 31.5829 130.654H26.6429C25.5989 130.657 24.5656 130.87 23.6021 131.28C22.6385 131.691 21.7636 132.291 21.0272 133.047C20.2908 133.803 19.7074 134.699 19.3104 135.685C18.9133 136.672 18.7103 137.728 18.7129 138.794L18.7229 147.874C18.7229 148.059 18.7595 148.242 18.8304 148.412C18.9014 148.583 19.0054 148.738 19.1365 148.868C19.2676 148.998 19.4231 149.101 19.5941 149.171C19.7651 149.24 19.9482 149.276 20.1329 149.274Z" stroke="#6C3F1D" stroke-width="2"/>
<path d="M36.7937 135.846C36.7937 135.737 36.7505 135.633 36.6736 135.556C36.5968 135.479 36.4925 135.436 36.3838 135.436H21.5038C21.4499 135.436 21.3966 135.446 21.3468 135.467C21.2971 135.487 21.2519 135.518 21.2138 135.556C21.1758 135.594 21.1456 135.639 21.125 135.689C21.1044 135.738 21.0938 135.792 21.0938 135.846V136.506C21.0938 136.614 21.1369 136.719 21.2138 136.795C21.2907 136.872 21.395 136.916 21.5038 136.916H36.3838C36.4925 136.916 36.5968 136.872 36.6736 136.795C36.7505 136.719 36.7937 136.614 36.7937 136.506V135.846Z" stroke="#6C3F1D" stroke-width="2"/>
<path d="M134.563 47.3954C133.223 47.0887 132.47 47.3887 132.303 48.2954C120.463 43.3754 107.933 41.2187 94.7128 41.8254C86.8795 42.1854 79.4429 43.2587 72.4029 45.0454L57.2628 47.8754L50.0629 49.4954C49.5429 48.0554 48.6295 47.9954 47.3228 49.3154C45.9962 48.8887 45.0828 48.232 44.5828 47.3454C44.4416 47.0976 44.3585 46.821 44.3399 46.5364C44.3214 46.2518 44.3678 45.9667 44.4757 45.7027C44.5836 45.4387 44.7502 45.2027 44.9628 45.0126C45.1754 44.8225 45.4285 44.6832 45.7028 44.6054L48.1728 43.9054C48.5195 43.8054 48.6929 43.5754 48.6929 43.2154C48.5529 25.2254 60.8829 12.0154 77.4729 6.94537C77.6236 6.90013 77.759 6.81577 77.8647 6.70129C77.9704 6.58681 78.0423 6.44651 78.0728 6.29537C78.4662 4.36204 79.3295 3.17538 80.6629 2.73538C84.6429 1.43538 98.6128 -1.04462 100.643 4.20538C100.763 4.51871 100.986 4.70203 101.313 4.75536C120.793 8.04536 130.023 23.0354 132.093 41.6854C132.133 42.0254 132.313 42.2554 132.633 42.3754C134.883 43.1954 137.293 44.9554 134.563 47.3954ZM96.7529 4.46537L98.2328 4.71537C98.5928 4.77537 98.7662 4.62203 98.7529 4.25536C98.7395 3.77536 98.4528 3.4787 97.8928 3.36537C92.3662 2.24537 86.6395 2.5787 80.7128 4.36537C80.5537 4.41788 80.4174 4.52359 80.327 4.66471C80.2365 4.80584 80.1974 4.97378 80.2162 5.14034C80.2349 5.30691 80.3105 5.46194 80.43 5.5794C80.5496 5.69686 80.706 5.76958 80.8729 5.78536C81.2395 5.81203 81.4995 6.08204 81.6529 6.59538C81.7395 6.88204 81.7329 7.2287 81.6329 7.63537C80.8595 10.6954 80.2928 13.812 79.9328 16.9854C79.8928 17.332 80.0495 17.4987 80.4029 17.4854L95.9729 16.8354C96.0657 16.8315 96.1568 16.8093 96.241 16.7699C96.3251 16.7304 96.4006 16.6747 96.4629 16.6058C96.5253 16.5369 96.5733 16.4563 96.6042 16.3687C96.6351 16.281 96.6482 16.1881 96.6428 16.0954L96.0629 5.08537C96.0588 4.9957 96.0746 4.90622 96.1091 4.82351C96.1435 4.7408 96.1958 4.66697 96.262 4.60748C96.3282 4.54798 96.4067 4.50432 96.4917 4.47973C96.5766 4.45514 96.6659 4.45023 96.7529 4.46537ZM108.343 17.7254C112.163 18.0454 113.823 19.3354 113.503 23.4454C113.196 27.4454 112.7 31.422 112.013 35.3754C111.953 35.7087 112.086 35.9254 112.413 36.0254L129.783 41.3554C130.13 41.462 130.286 41.332 130.253 40.9654C128.703 23.1254 117.873 7.21537 98.5228 6.43537C98.0495 6.41537 97.8262 6.64203 97.8529 7.11537L98.3529 16.2854C98.3729 16.732 98.6062 16.972 99.0528 17.0054C102.193 17.2387 105.29 17.4787 108.343 17.7254ZM65.8228 38.4454C65.0828 34.5954 61.9728 23.7054 65.9928 21.1054C68.7795 19.312 72.5729 18.292 77.3729 18.0454C77.5516 18.0368 77.7221 17.9679 77.8566 17.8498C77.991 17.7317 78.0813 17.5715 78.1128 17.3954L79.7128 8.37538C79.7728 8.05538 79.6462 7.9387 79.3328 8.02537C62.7328 12.6154 50.5729 25.1354 50.1229 42.7854C50.1222 42.8415 50.1347 42.8971 50.1594 42.9475C50.184 42.998 50.2201 43.042 50.2649 43.076C50.3096 43.1101 50.3616 43.1331 50.4168 43.1434C50.472 43.1537 50.5289 43.151 50.5828 43.1354L65.5029 38.9654C65.7695 38.892 65.8762 38.7187 65.8228 38.4454ZM80.8328 35.9754C90.1262 34.482 99.7295 34.272 109.643 35.3454C109.996 35.3787 110.206 35.222 110.273 34.8754C111.073 30.8554 111.523 26.782 111.623 22.6554C111.673 20.4954 111.223 19.9254 109.093 19.6954C96.2529 18.3554 84.1528 18.6054 72.7928 20.4454C70.2228 20.8654 65.4628 22.3154 65.6128 25.8754C65.7395 28.8087 66.3928 32.6654 67.5728 37.4454C67.6595 37.7854 67.8762 37.932 68.2229 37.8854C71.0095 37.5187 75.2128 36.882 80.8328 35.9754ZM98.0629 40.0154C109.37 40.062 120.373 42.0987 131.073 46.1254C132.166 46.5387 133.086 46.4687 133.833 45.9154C133.95 45.8285 134.042 45.7116 134.098 45.5771C134.154 45.4425 134.173 45.2953 134.153 45.1508C134.132 45.0064 134.073 44.8702 133.981 44.7566C133.89 44.643 133.77 44.5562 133.633 44.5054C120.683 39.7454 107.773 35.7854 93.9528 36.6454C77.9795 37.632 62.1229 40.8254 46.3829 46.2254C45.9962 46.3587 45.9362 46.582 46.2028 46.8954C46.9295 47.742 47.9428 48.0287 49.2428 47.7554C58.8762 45.7487 68.5395 43.8887 78.2328 42.1754C86.4795 40.7154 93.0895 39.9954 98.0629 40.0154Z" fill="#131D46"/>
<path d="M96.0638 5.08609L96.6438 16.0961C96.6492 16.1889 96.6361 16.2818 96.6052 16.3694C96.5743 16.457 96.5263 16.5376 96.4639 16.6065C96.4016 16.6754 96.3261 16.7312 96.242 16.7706C96.1578 16.81 96.0667 16.8323 95.9738 16.8361L80.4038 17.4861C80.0505 17.4994 79.8938 17.3328 79.9338 16.9861C80.2938 13.8128 80.8605 10.6961 81.6338 7.63609C81.7338 7.22943 81.7405 6.88277 81.6538 6.5961C81.5005 6.08277 81.2405 5.81275 80.8738 5.78609C80.707 5.77031 80.5506 5.69758 80.431 5.58012C80.3114 5.46267 80.2359 5.30763 80.2172 5.14107C80.1984 4.9745 80.2375 4.80656 80.3279 4.66544C80.4184 4.52431 80.5547 4.41861 80.7138 4.36609C86.6405 2.57942 92.3672 2.24609 97.8938 3.36609C98.4538 3.47942 98.7405 3.77609 98.7538 4.25609C98.7672 4.62276 98.5938 4.7761 98.2338 4.7161L96.7538 4.4661C96.6669 4.45095 96.5776 4.45586 96.4926 4.48045C96.4077 4.50505 96.3292 4.5487 96.263 4.6082C96.1968 4.6677 96.1445 4.74152 96.11 4.82423C96.0756 4.90694 96.0598 4.99642 96.0638 5.08609Z" fill="#F18419"/>
<path d="M108.344 17.7248C105.29 17.4781 102.194 17.2381 99.0537 17.0048C98.607 16.9715 98.3737 16.7315 98.3537 16.2848L97.8537 7.1148C97.827 6.64147 98.0503 6.41481 98.5237 6.43481C117.874 7.21481 128.704 23.1248 130.254 40.9648C130.287 41.3315 130.13 41.4615 129.784 41.3548L112.414 36.0248C112.087 35.9248 111.954 35.7081 112.014 35.3748C112.7 31.4215 113.197 27.4448 113.504 23.4448C113.824 19.3348 112.164 18.0448 108.344 17.7248Z" fill="#F18419"/>
<path d="M65.9931 21.1058C61.9731 23.7058 65.0831 34.5957 65.8231 38.4457C65.8764 38.7191 65.7697 38.8924 65.5031 38.9658L50.5831 43.1357C50.5291 43.1514 50.4722 43.1541 50.417 43.1438C50.3618 43.1335 50.3098 43.1104 50.2651 43.0764C50.2204 43.0424 50.1842 42.9984 50.1596 42.9479C50.1349 42.8975 50.1224 42.8419 50.1231 42.7857C50.5731 25.1357 62.7331 12.6158 79.3331 8.02575C79.6464 7.93908 79.7731 8.05576 79.7131 8.37576L78.1131 17.3957C78.0816 17.5719 77.9912 17.7321 77.8568 17.8502C77.7223 17.9683 77.5518 18.0372 77.3731 18.0458C72.5731 18.2924 68.7797 19.3124 65.9931 21.1058Z" fill="#F18419"/>
<path d="M170.493 68.0863L166.193 67.0963C166.046 66.6697 166.02 66.2497 166.113 65.8363C169.66 49.543 173.026 33.213 176.213 16.8463C176.4 15.8863 176.773 15.1963 177.333 14.7763C177.429 14.7053 177.544 14.6649 177.663 14.6605C177.782 14.6562 177.9 14.6881 178.001 14.752C178.101 14.8159 178.18 14.9088 178.227 15.0184C178.274 15.1281 178.286 15.2494 178.263 15.3663C174.776 32.9263 172.186 50.4997 170.493 68.0863Z" fill="#F18419"/>
<path d="M80.8328 35.9746C75.2128 36.8813 71.0095 37.518 68.2229 37.8846C67.8762 37.9313 67.6595 37.7846 67.5728 37.4446C66.3928 32.6646 65.7395 28.808 65.6128 25.8746C65.4628 22.3146 70.2228 20.8646 72.7928 20.4446C84.1528 18.6046 96.2528 18.3546 109.093 19.6946C111.223 19.9246 111.673 20.4946 111.623 22.6546C111.523 26.7813 111.073 30.8546 110.273 34.8746C110.206 35.2213 109.996 35.378 109.643 35.3446C99.7295 34.2713 90.1262 34.4813 80.8328 35.9746ZM88.7028 29.4346C90.7828 28.7613 91.9128 29.3746 92.0928 31.2746C92.1095 31.4518 92.1894 31.6171 92.3179 31.7401C92.4465 31.8632 92.6151 31.9358 92.7928 31.9446L93.8128 31.9946C93.8911 31.9989 93.969 31.9832 94.0395 31.9488C94.11 31.9145 94.1709 31.8627 94.2166 31.7982C94.2623 31.7336 94.2914 31.6583 94.3012 31.5791C94.311 31.4999 94.3013 31.4193 94.2728 31.3446L90.9228 22.7846C90.8063 22.4819 90.5965 22.224 90.3238 22.0483C90.0511 21.8725 89.7296 21.788 89.4057 21.8069C89.0819 21.8258 88.7724 21.9472 88.522 22.1535C88.2717 22.3598 88.0933 22.6404 88.0128 22.9546L85.7628 31.6946C85.7408 31.7767 85.7401 31.863 85.7607 31.9454C85.7813 32.0279 85.8226 32.1037 85.8806 32.1657C85.9387 32.2278 86.0116 32.274 86.0925 32.3001C86.1733 32.3261 86.2595 32.3311 86.3428 32.3146L87.0228 32.1846C87.5162 32.0913 87.8062 31.798 87.8928 31.3046L88.1029 30.1146C88.1695 29.768 88.3695 29.5413 88.7028 29.4346ZM98.3829 28.5446C105.273 28.7246 103.653 20.3646 96.5029 22.2246C96.2095 22.298 96.0595 22.488 96.0528 22.7946L95.7529 31.4746C95.7395 31.868 95.9328 32.068 96.3328 32.0746H96.9828C97.4828 32.0813 97.7395 31.8346 97.7529 31.3346L97.8129 29.0846C97.8141 29.0115 97.83 28.9394 97.8595 28.8725C97.8889 28.8056 97.9314 28.7453 97.9845 28.695C98.0376 28.6447 98.1001 28.6055 98.1685 28.5797C98.2369 28.5539 98.3098 28.542 98.3829 28.5446ZM106.323 31.2146C105.979 31.1287 105.683 30.9131 105.495 30.6131C105.307 30.3131 105.242 29.952 105.315 29.6054C105.387 29.2589 105.591 28.9538 105.883 28.7542C106.175 28.5546 106.534 28.4759 106.883 28.5346L108.643 28.8546C108.729 28.8703 108.818 28.8679 108.903 28.8478C108.989 28.8277 109.069 28.7902 109.14 28.7377C109.21 28.6851 109.269 28.6187 109.312 28.5425C109.356 28.4663 109.383 28.3819 109.393 28.2946L109.463 27.7646C109.51 27.318 109.31 27.078 108.863 27.0446L106.193 26.8546C106.13 26.8511 106.068 26.8345 106.011 26.8059C105.955 26.7773 105.905 26.7373 105.864 26.6885C105.824 26.6397 105.794 26.5831 105.777 26.5222C105.759 26.4613 105.754 26.3974 105.763 26.3346L105.953 24.8546C105.965 24.7681 105.994 24.685 106.04 24.6103C106.085 24.5356 106.145 24.471 106.216 24.4204C106.287 24.3698 106.368 24.3343 106.454 24.3161C106.539 24.298 106.627 24.2975 106.713 24.3146L109.323 24.8246C109.903 24.938 110.163 24.698 110.103 24.1046L110.043 23.6046C110.009 23.258 109.82 23.0713 109.473 23.0446L104.693 22.6346C104.622 22.6278 104.551 22.6351 104.484 22.6562C104.416 22.6772 104.354 22.7116 104.299 22.7573C104.245 22.803 104.201 22.859 104.169 22.9221C104.137 22.9852 104.118 23.0541 104.113 23.1246L103.403 32.1046C103.397 32.1848 103.407 32.2653 103.433 32.3415C103.458 32.4176 103.498 32.4879 103.55 32.5483C103.602 32.6087 103.665 32.658 103.736 32.6934C103.807 32.7288 103.884 32.7496 103.963 32.7546L108.883 33.0946C108.991 33.1028 109.1 33.0838 109.199 33.0392C109.298 32.9946 109.384 32.9259 109.45 32.8394C109.515 32.7528 109.558 32.6512 109.575 32.5438C109.591 32.4365 109.58 32.3267 109.543 32.2246L109.413 31.8546C109.286 31.5213 109.046 31.3613 108.693 31.3746C107.693 31.408 106.903 31.3546 106.323 31.2146ZM78.3628 30.4046C80.4095 29.378 81.6062 29.8746 81.9528 31.8946C82.0128 32.248 82.2228 32.4246 82.5828 32.4246L83.6228 32.4046C83.7168 32.4036 83.809 32.379 83.891 32.333C83.9729 32.287 84.042 32.2212 84.0918 32.1415C84.1416 32.0618 84.1705 31.9708 84.1759 31.877C84.1814 31.7832 84.1631 31.6895 84.1228 31.6046L80.2628 23.5146C80.121 23.2138 79.8868 22.9662 79.5943 22.8079C79.3018 22.6497 78.9665 22.589 78.6371 22.6348C78.3077 22.6806 78.0015 22.8304 77.7633 23.0624C77.5251 23.2945 77.3673 23.5966 77.3128 23.9246L75.7829 32.7046C75.6829 33.2646 75.9095 33.488 76.4628 33.3746C77.7295 33.1346 78.2529 32.3646 78.0329 31.0646C77.9795 30.758 78.0895 30.538 78.3628 30.4046ZM70.0128 26.2646L72.7628 25.8546C72.8809 25.8383 72.9895 25.7804 73.0698 25.6909C73.1502 25.6014 73.1973 25.4859 73.2028 25.3646L73.2229 24.9146C73.2295 24.6813 73.1195 24.5346 72.8928 24.4746C70.9928 24.0146 69.5328 24.3246 68.5128 25.4046C67.1795 26.818 67.1495 28.088 68.4228 29.2146C69.3728 30.0546 70.8228 30.2946 72.0728 30.6546C72.3057 30.72 72.5129 30.8554 72.6662 31.0424C72.8196 31.2294 72.9119 31.459 72.9304 31.7002C72.949 31.9414 72.893 32.1824 72.77 32.3907C72.647 32.599 72.463 32.7644 72.2428 32.8646C71.2762 33.318 70.2762 33.3913 69.2428 33.0846C69.1772 33.0652 69.1082 33.0594 69.0402 33.0677C68.9722 33.076 68.9066 33.0982 68.8475 33.1329C68.7884 33.1676 68.7371 33.214 68.6968 33.2694C68.6564 33.3247 68.6278 33.3878 68.6128 33.4546C68.5395 33.768 68.5928 34.058 68.7728 34.3246C68.9462 34.5846 69.2462 34.748 69.6728 34.8146C72.1528 35.1946 76.0828 33.1446 74.4928 30.2746C73.6628 28.7946 71.4428 28.4146 69.9228 28.0146C69.724 27.9602 69.5493 27.839 69.428 27.6715C69.3067 27.504 69.2463 27.3005 69.2568 27.0951C69.2674 26.8897 69.3483 26.695 69.486 26.5438C69.6237 26.3925 69.8097 26.294 70.0128 26.2646Z" fill="#F18419"/>
<path d="M88.1032 30.115L87.8932 31.305C87.8065 31.7984 87.5165 32.0917 87.0232 32.185L86.3432 32.315C86.2598 32.3315 86.1736 32.3265 86.0928 32.3004C86.0119 32.2744 85.939 32.2282 85.8809 32.1661C85.8229 32.1041 85.7817 32.0283 85.761 31.9458C85.7404 31.8634 85.7411 31.7771 85.7631 31.695L88.0131 22.955C88.0937 22.6408 88.272 22.3602 88.5224 22.1539C88.7727 21.9476 89.0822 21.8262 89.4061 21.8073C89.7299 21.7884 90.0515 21.8729 90.3242 22.0486C90.5968 22.2244 90.8066 22.4823 90.9231 22.785L94.2732 31.345C94.3016 31.4197 94.3113 31.5003 94.3015 31.5795C94.2917 31.6587 94.2626 31.734 94.2169 31.7985C94.1712 31.8631 94.1103 31.9149 94.0398 31.9492C93.9693 31.9835 93.8914 31.9993 93.8132 31.995L92.7931 31.945C92.6154 31.9362 92.4468 31.8636 92.3183 31.7405C92.1897 31.6175 92.1098 31.4522 92.0932 31.275C91.9132 29.375 90.7831 28.7617 88.7031 29.435C88.3698 29.5417 88.1698 29.7683 88.1032 30.115ZM89.1332 24.925C88.7265 26.1717 88.5931 26.985 88.7331 27.365C88.807 27.5771 88.9539 27.7543 89.1474 27.8651C89.3409 27.9758 89.5685 28.0128 89.7896 27.9696C90.0107 27.9263 90.2109 27.8056 90.3544 27.6289C90.4979 27.4522 90.5754 27.2311 90.5731 27.005C90.5665 26.2183 90.2932 25.4884 89.7532 24.815C89.4732 24.475 89.2665 24.5117 89.1332 24.925Z" fill="white"/>
<path d="M97.8126 29.0852L97.7526 31.3352C97.7393 31.8352 97.4826 32.0819 96.9826 32.0752H96.3326C95.9326 32.0686 95.7393 31.8686 95.7526 31.4752L96.0526 22.7952C96.0593 22.4886 96.2093 22.2986 96.5026 22.2252C103.653 20.3652 105.273 28.7252 98.3826 28.5452C98.3095 28.5426 98.2367 28.5545 98.1683 28.5803C98.0999 28.6061 98.0373 28.6453 97.9843 28.6956C97.9312 28.7459 97.8887 28.8062 97.8592 28.8731C97.8297 28.94 97.8139 29.0121 97.8126 29.0852ZM97.9826 24.2452L97.9426 26.4253C97.9413 26.5106 97.9568 26.5954 97.9882 26.6748C98.0197 26.7541 98.0665 26.8265 98.1259 26.8878C98.1853 26.9491 98.2562 26.9981 98.3346 27.032C98.413 27.0658 98.4972 27.0839 98.5826 27.0852L98.7126 27.0952C99.0018 27.1009 99.289 27.0662 99.5576 26.9933C99.8263 26.9205 100.071 26.8107 100.278 26.6705C100.485 26.5302 100.651 26.3622 100.765 26.176C100.879 25.9897 100.939 25.789 100.943 25.5852V25.2053C100.95 24.7945 100.725 24.3964 100.318 24.0983C99.9115 23.8001 99.3555 23.6264 98.7726 23.6152L98.6426 23.6052C98.5572 23.6039 98.4724 23.6194 98.3931 23.6509C98.3137 23.6823 98.2413 23.7291 98.18 23.7885C98.1187 23.848 98.0697 23.9189 98.0359 23.9972C98.002 24.0756 97.9839 24.1599 97.9826 24.2452Z" fill="white"/>
<path d="M106.324 31.2153C106.904 31.3553 107.694 31.4086 108.694 31.3753C109.047 31.362 109.287 31.522 109.414 31.8553L109.544 32.2253C109.581 32.3274 109.592 32.4371 109.575 32.5445C109.559 32.6519 109.516 32.7535 109.451 32.84C109.385 32.9265 109.299 32.9952 109.2 33.0398C109.101 33.0844 108.992 33.1035 108.884 33.0953L103.964 32.7553C103.885 32.7503 103.808 32.7295 103.737 32.6941C103.666 32.6587 103.603 32.6094 103.551 32.549C103.499 32.4886 103.459 32.4183 103.434 32.3421C103.408 32.266 103.398 32.1855 103.404 32.1053L104.114 23.1253C104.119 23.0547 104.138 22.9858 104.17 22.9227C104.202 22.8597 104.246 22.8036 104.3 22.758C104.355 22.7123 104.417 22.6779 104.485 22.6568C104.552 22.6358 104.623 22.6285 104.694 22.6353L109.474 23.0453C109.82 23.072 110.01 23.2586 110.044 23.6053L110.104 24.1053C110.164 24.6986 109.904 24.9386 109.324 24.8253L106.714 24.3153C106.628 24.2981 106.54 24.2986 106.455 24.3168C106.369 24.335 106.288 24.3705 106.217 24.4211C106.146 24.4716 106.086 24.5363 106.041 24.611C105.995 24.6856 105.966 24.7688 105.954 24.8553L105.764 26.3353C105.755 26.3981 105.76 26.4619 105.778 26.5228C105.795 26.5837 105.825 26.6404 105.865 26.6892C105.906 26.738 105.956 26.778 106.012 26.8065C106.069 26.8351 106.131 26.8517 106.194 26.8553L108.864 27.0453C109.31 27.0786 109.51 27.3186 109.464 27.7653L109.394 28.2953C109.384 28.3826 109.357 28.4669 109.313 28.5432C109.27 28.6194 109.211 28.6858 109.141 28.7383C109.07 28.7909 108.99 28.8283 108.904 28.8485C108.819 28.8686 108.73 28.8709 108.644 28.8553L106.884 28.5353C106.535 28.4766 106.176 28.5553 105.884 28.7549C105.592 28.9545 105.388 29.2596 105.315 29.6061C105.243 29.9526 105.308 30.3138 105.496 30.6138C105.684 30.9138 105.98 31.1293 106.324 31.2153Z" fill="white"/>
<path d="M78.0327 31.0658C78.2527 32.3658 77.7294 33.1358 76.4627 33.3758C75.9094 33.4892 75.6827 33.2658 75.7827 32.7058L77.3127 23.9258C77.3671 23.5977 77.525 23.2956 77.7632 23.0636C78.0014 22.8316 78.3076 22.6817 78.6369 22.6359C78.9663 22.5902 79.3017 22.6508 79.5942 22.8091C79.8867 22.9674 80.1209 23.215 80.2627 23.5158L84.1227 31.6058C84.163 31.6907 84.1813 31.7844 84.1758 31.8782C84.1704 31.972 84.1415 32.063 84.0917 32.1426C84.0418 32.2223 83.9728 32.2882 83.8908 32.3342C83.8089 32.3802 83.7167 32.4048 83.6227 32.4058L82.5827 32.4258C82.2227 32.4258 82.0127 32.2491 81.9527 31.8958C81.606 29.8758 80.4094 29.3791 78.3627 30.4058C78.0894 30.5391 77.9794 30.7592 78.0327 31.0658ZM78.9627 25.1858C78.4361 26.4058 78.2427 27.2092 78.3827 27.5958C78.4536 27.7962 78.5919 27.9616 78.7741 28.0638C78.9562 28.1661 79.1709 28.1987 79.3812 28.1562C79.5916 28.1136 79.7846 27.9985 79.9271 27.8306C80.0697 27.6627 80.153 27.4525 80.1627 27.2358C80.1894 26.5625 79.9227 25.8625 79.3627 25.1358C79.196 24.9291 79.0627 24.9458 78.9627 25.1858Z" fill="white"/>
<path d="M97.9834 24.2455C97.9847 24.1602 98.0028 24.0759 98.0367 23.9975C98.0706 23.9192 98.1196 23.8483 98.1809 23.7888C98.2422 23.7294 98.3145 23.6826 98.3939 23.6512C98.4733 23.6197 98.5581 23.6042 98.6434 23.6055L98.7734 23.6155C99.3563 23.6267 99.9123 23.8004 100.319 24.0986C100.726 24.3967 100.951 24.7949 100.943 25.2056V25.5855C100.94 25.7893 100.88 25.9901 100.766 26.1763C100.652 26.3625 100.486 26.5305 100.279 26.6708C100.072 26.811 99.8271 26.9208 99.5585 26.9936C99.2898 27.0665 99.0026 27.1012 98.7134 27.0956L98.5834 27.0855C98.4981 27.0842 98.4138 27.0661 98.3354 27.0323C98.2571 26.9984 98.1862 26.9494 98.1267 26.8881C98.0673 26.8268 98.0205 26.7544 97.9891 26.6751C97.9576 26.5957 97.9421 26.5109 97.9434 26.4256L97.9834 24.2455Z" fill="#F18419"/>
<path d="M70.0133 26.2656C69.8101 26.295 69.6241 26.3935 69.4864 26.5448C69.3487 26.696 69.2678 26.8907 69.2572 27.0961C69.2467 27.3015 69.3071 27.505 69.4284 27.6725C69.5497 27.84 69.7245 27.9611 69.9233 28.0156C71.4433 28.4156 73.6633 28.7956 74.4933 30.2756C76.0833 33.1456 72.1533 35.1956 69.6733 34.8156C69.2466 34.749 68.9466 34.5856 68.7733 34.3256C68.5933 34.059 68.5399 33.769 68.6133 33.4556C68.6282 33.3888 68.6568 33.3257 68.6972 33.2704C68.7375 33.215 68.7889 33.1686 68.8479 33.1339C68.907 33.0992 68.9726 33.077 69.0406 33.0687C69.1086 33.0604 69.1776 33.0662 69.2433 33.0856C70.2766 33.3923 71.2766 33.319 72.2433 32.8656C72.4634 32.7654 72.6474 32.6 72.7704 32.3917C72.8934 32.1834 72.9494 31.9424 72.9308 31.7012C72.9123 31.46 72.8201 31.2304 72.6667 31.0434C72.5133 30.8564 72.3061 30.721 72.0732 30.6556C70.8232 30.2956 69.3733 30.0556 68.4233 29.2156C67.1499 28.089 67.1799 26.819 68.5133 25.4056C69.5333 24.3256 70.9933 24.0156 72.8933 24.4756C73.1199 24.5356 73.2299 24.6823 73.2233 24.9156L73.2033 25.3656C73.1977 25.4869 73.1506 25.6024 73.0703 25.6919C72.9899 25.7814 72.8813 25.8393 72.7633 25.8556L70.0133 26.2656Z" fill="white"/>
<path d="M89.1335 24.9261C89.2668 24.5128 89.4735 24.4761 89.7535 24.8161C90.2935 25.4894 90.5668 26.2194 90.5735 27.0061C90.5758 27.2322 90.4982 27.4533 90.3547 27.63C90.2112 27.8067 90.011 27.9274 89.7899 27.9707C89.5688 28.0139 89.3412 27.9769 89.1477 27.8661C88.9542 27.7554 88.8073 27.5782 88.7335 27.3661C88.5935 26.9861 88.7268 26.1728 89.1335 24.9261Z" fill="#F18419"/>
<path d="M78.962 25.1856C79.062 24.9456 79.1953 24.929 79.362 25.1356C79.922 25.8623 80.1887 26.5623 80.162 27.2356C80.1523 27.4523 80.069 27.6625 79.9264 27.8304C79.7838 27.9983 79.5908 28.1134 79.3805 28.156C79.1701 28.1985 78.9555 28.1659 78.7733 28.0636C78.5912 27.9614 78.4528 27.796 78.382 27.5956C78.242 27.209 78.4353 26.4056 78.962 25.1856Z" fill="#F18419"/>
<path d="M78.2323 42.1755C68.539 43.8888 58.8757 45.7488 49.2423 47.7555C47.9423 48.0288 46.929 47.7421 46.2023 46.8955C45.9357 46.5821 45.9957 46.3588 46.3823 46.2255C62.1223 40.8255 77.979 37.6321 93.9523 36.6455C107.772 35.7855 120.682 39.7455 133.632 44.5055C133.769 44.5563 133.889 44.6431 133.981 44.7567C134.072 44.8703 134.132 45.0065 134.152 45.1509C134.173 45.2953 134.154 45.4426 134.097 45.5772C134.041 45.7117 133.95 45.8286 133.832 45.9155C133.086 46.4688 132.166 46.5388 131.072 46.1255C120.372 42.0988 109.369 40.0621 98.0623 40.0155C93.089 39.9955 86.479 40.7155 78.2323 42.1755Z" fill="#F18419"/>
<path d="M132.303 48.2965L138.153 60.6565C138.333 61.0365 138.22 61.2798 137.813 61.3865L132.833 62.7065C131.513 57.4965 127.763 51.9065 122.573 50.1365C120.233 49.3365 117.073 49.6065 117.823 52.8765C118.803 57.1698 120.246 61.2998 122.153 65.2665L118.943 66.0865C118.872 66.104 118.798 66.1066 118.726 66.0941C118.654 66.0816 118.585 66.0543 118.524 66.0139C118.463 65.9735 118.411 65.9209 118.371 65.8594C118.331 65.7978 118.305 65.7287 118.293 65.6564C116.313 52.2864 99.843 50.3764 95.503 63.7164C95.3896 64.0764 95.1996 64.1231 94.933 63.8565C92.1063 61.0565 89.3829 61.1764 86.7629 64.2164C86.7117 64.2763 86.6453 64.3209 86.5706 64.3455C86.4958 64.3702 86.4154 64.3741 86.3379 64.3567C86.2603 64.3393 86.1883 64.3014 86.1294 64.2469C86.0705 64.1923 86.0268 64.1231 86.003 64.0465C82.033 50.3165 64.8829 52.0965 63.1129 65.9965C63.0663 66.3365 62.873 66.4798 62.533 66.4265L44.533 63.6165C44.193 63.5631 44.0696 63.3698 44.163 63.0364C45.4763 58.2964 47.443 53.7831 50.063 49.4965L57.2629 47.8765C57.6629 51.9065 60.723 54.3364 64.523 52.0564C67.523 50.2498 70.1496 47.9131 72.403 45.0465C79.443 43.2598 86.8796 42.1865 94.713 41.8265C107.933 41.2198 120.463 43.3765 132.303 48.2965ZM60.253 57.8964C60.253 57.0955 59.9348 56.3274 59.3684 55.761C58.8021 55.1946 58.0339 54.8765 57.2329 54.8765C56.432 54.8765 55.6639 55.1946 55.0975 55.761C54.5311 56.3274 54.213 57.0955 54.213 57.8964C54.213 58.6974 54.5311 59.4656 55.0975 60.0319C55.6639 60.5983 56.432 60.9165 57.2329 60.9165C58.0339 60.9165 58.8021 60.5983 59.3684 60.0319C59.9348 59.4656 60.253 58.6974 60.253 57.8964Z" fill="#19B9E6"/>
<path d="M72.4037 45.0449C70.1504 47.9116 67.5237 50.2482 64.5237 52.0549C60.7237 54.3349 57.6637 51.9049 57.2637 47.8749L72.4037 45.0449Z" fill="#8FD0DB"/>
<path d="M134.563 47.3956C140.443 56.9756 143.48 67.4622 143.673 78.8556C143.753 83.4489 143.93 88.0256 144.203 92.5856C144.41 95.9722 145.73 98.5155 148.163 100.216C151.663 102.656 155.473 96.7456 156.533 94.1456C160.453 84.5522 162.453 74.7889 162.533 64.8556C162.535 64.4841 162.683 64.1146 162.946 63.8284C163.208 63.5423 163.564 63.3629 163.934 63.3298C164.304 63.2966 164.658 63.4124 164.918 63.6517C165.179 63.8909 165.325 64.2341 165.323 64.6056L165.333 66.8456C165.333 67.1522 165.483 67.3189 165.783 67.3456C165.977 67.3722 166.113 67.2889 166.193 67.0956L170.493 68.0856C175.553 69.9856 172.403 76.8056 169.423 78.6856C167.763 79.1989 166.02 79.1989 164.193 78.6856C163.787 78.5722 163.55 78.7222 163.483 79.1356L162.703 84.0156C161.753 89.8956 159.493 98.0556 155.183 101.516C151.523 104.446 146.963 104.296 143.983 100.426C143.243 99.4656 142.703 98.0656 142.023 96.7356C141.77 96.2422 141.567 96.2622 141.413 96.7956C136.127 115.336 124.553 128.129 106.693 135.176C106.373 135.302 106.213 135.536 106.213 135.876V146.336C106.213 146.682 106.377 146.796 106.703 146.676C116.553 142.936 120.083 156.626 112.023 156.546C109.113 156.516 105.563 152.456 103.473 150.476C103.22 150.236 103.097 149.946 103.103 149.606L103.153 136.636C103.153 136.189 102.94 136.019 102.513 136.126C94.5066 138.032 86.54 137.872 78.6133 135.646C78.5377 135.624 78.458 135.621 78.3807 135.636C78.3033 135.651 78.2303 135.684 78.1674 135.732C78.1045 135.78 78.0533 135.843 78.0179 135.915C77.9825 135.986 77.9638 136.065 77.9633 136.146V148.866C77.9633 149.232 77.8266 149.536 77.5533 149.776C75.5866 151.509 73.6366 153.206 71.7033 154.866C67.5733 158.406 62.2233 152.906 65.3133 148.476C67.4133 145.462 70.42 144.642 74.3333 146.016C74.7266 146.156 74.92 146.019 74.9133 145.606L74.8333 135.116C74.8266 134.736 74.6466 134.472 74.2933 134.326C62.3333 129.352 53.21 121.206 46.9233 109.886C46.7532 109.584 46.508 109.336 46.2133 109.166C38.0333 104.566 31.0733 97.2956 34.4433 87.3556C35.8033 83.3656 37.0233 78.9056 39.2733 75.2956C39.44 75.0222 39.54 74.7222 39.5733 74.3956C40.3066 65.4956 42.89 57.1356 47.3233 49.3156C48.63 47.9956 49.5433 48.0556 50.0633 49.4956C47.4433 53.7822 45.4767 58.2956 44.1633 63.0356C44.07 63.3689 44.1933 63.5622 44.5333 63.6156L62.5333 66.4256C62.8733 66.4789 63.0666 66.3356 63.1133 65.9956C64.8833 52.0956 82.0333 50.3156 86.0033 64.0456C86.0272 64.1222 86.0709 64.1914 86.1298 64.246C86.1887 64.3005 86.2606 64.3385 86.3382 64.3558C86.4158 64.3732 86.4962 64.3693 86.5709 64.3446C86.6457 64.32 86.7121 64.2754 86.7633 64.2156C89.3833 61.1756 92.1066 61.0556 94.9333 63.8556C95.2 64.1222 95.39 64.0756 95.5033 63.7156C99.8433 50.3756 116.313 52.2856 118.293 65.6556C118.305 65.7278 118.332 65.7969 118.371 65.8585C118.411 65.92 118.463 65.9726 118.524 66.013C118.585 66.0534 118.654 66.0807 118.726 66.0932C118.798 66.1057 118.872 66.1031 118.943 66.0856L122.153 65.2656L132.833 62.7056L137.813 61.3856C138.22 61.2789 138.333 61.0356 138.153 60.6556L132.303 48.2956C132.47 47.3889 133.223 47.0889 134.563 47.3956ZM74.8263 77.975C76.1119 77.9615 77.382 77.6691 78.564 77.1144C79.746 76.5598 80.8169 75.7538 81.7154 74.7423C82.614 73.7309 83.3226 72.534 83.8009 71.2198C84.2791 69.9056 84.5176 68.5 84.5028 67.0831C84.488 65.6662 84.2201 64.2658 83.7144 62.9619C83.2087 61.658 82.4752 60.4762 81.5556 59.4838C80.6361 58.4914 79.5486 57.708 78.3552 57.1782C77.1618 56.6484 75.8859 56.3827 74.6003 56.3962C73.3147 56.4096 72.0447 56.702 70.8626 57.2567C69.6806 57.8113 68.6098 58.6174 67.7112 59.6288C66.8127 60.6402 66.104 61.8372 65.6258 63.1513C65.1475 64.4655 64.909 65.8712 64.9238 67.2881C64.9387 68.705 65.2066 70.1053 65.7122 71.4092C66.2179 72.7131 66.9515 73.895 67.871 74.8873C68.7905 75.8797 69.878 76.6631 71.0714 77.1929C72.2648 77.7227 73.5407 77.9884 74.8263 77.975ZM106.789 77.9653C109.385 77.9471 111.867 76.794 113.689 74.7596C115.511 72.7253 116.523 69.9762 116.503 67.1173C116.493 65.7016 116.23 64.3016 115.729 62.9972C115.228 61.6928 114.499 60.5095 113.583 59.5148C112.666 58.5202 111.582 57.7337 110.39 57.2002C109.199 56.6668 107.924 56.3969 106.638 56.4059C104.042 56.424 101.559 57.5771 99.7377 59.6115C97.9158 61.6459 96.9036 64.3949 96.9235 67.2539C96.9334 68.6695 97.1964 70.0695 97.6975 71.3739C98.1986 72.6783 98.928 73.8617 99.8441 74.8563C100.76 75.8509 101.845 76.6374 103.036 77.1709C104.228 77.7043 105.503 77.9743 106.789 77.9653ZM133.223 64.5356L122.983 67.0356L118.823 68.0456C118.477 68.1322 118.283 68.3522 118.243 68.7056C116.523 83.2356 97.3233 83.5056 95.1333 68.9656C93.9433 61.1556 87.1933 62.9256 86.1233 69.4656C83.8433 83.4156 65.2333 83.0956 63.1833 68.8956C63.1366 68.5556 62.9433 68.3589 62.6033 68.3056L44.0633 65.3956C43.6833 65.3356 43.45 65.4922 43.3633 65.8656C40.2033 79.8456 41.6333 93.2756 47.6533 106.156C47.8154 106.499 48.0865 106.777 48.4233 106.946C54.9633 110.266 62.5233 110.626 69.7033 110.936C74.7833 111.156 78.68 112.032 81.3933 113.566C80.68 114.779 79.7533 115.299 78.6133 115.126C78.5402 115.114 78.4655 115.12 78.3951 115.142C78.3246 115.165 78.2602 115.203 78.207 115.254C78.1538 115.306 78.1131 115.369 78.0882 115.438C78.0633 115.508 78.0547 115.582 78.0633 115.656C78.6533 120.656 77.1433 122.516 71.9233 122.066C67.8033 121.706 65.8933 118.506 66.3233 114.506C66.3343 114.406 66.325 114.305 66.2959 114.209C66.2668 114.113 66.2185 114.024 66.154 113.948C66.0895 113.871 66.0101 113.808 65.9206 113.763C65.831 113.718 65.7333 113.692 65.6333 113.686L59.8333 113.376L51.2833 111.526C50.91 111.446 50.8267 111.566 51.0333 111.886C70.7133 143.156 113.793 142.186 132.563 111.136C141.403 96.5222 143.56 80.6789 139.033 63.6056C138.947 63.2789 138.74 63.1556 138.413 63.2356L133.223 64.5356ZM37.9033 85.4556C35.0766 93.2489 37.0033 99.3289 43.6833 103.696C44.01 103.909 44.1 103.832 43.9533 103.466C41.68 97.9922 40.4433 93.9556 40.2433 91.3556C40.05 88.7222 39.71 86.1022 39.2233 83.4956C39.1567 83.1156 39.0266 83.0956 38.8333 83.4356C38.4466 84.1356 38.1366 84.8089 37.9033 85.4556Z" fill="#030304"/>
<path d="M132.833 62.705L122.153 65.265C120.247 61.2983 118.803 57.1683 117.823 52.875C117.073 49.605 120.233 49.335 122.573 50.135C127.763 51.905 131.513 57.495 132.833 62.705Z" fill="#3499D0"/>
<path d="M57.2329 60.915C58.9008 60.915 60.2529 59.5629 60.2529 57.895C60.2529 56.2271 58.9008 54.875 57.2329 54.875C55.565 54.875 54.2129 56.2271 54.2129 57.895C54.2129 59.5629 55.565 60.915 57.2329 60.915Z" fill="#8FD0DB"/>
<path d="M74.825 77.9758C73.5394 77.9892 72.2635 77.7235 71.0701 77.1937C69.8767 76.6639 68.7892 75.8805 67.8697 74.8881C66.9502 73.8958 66.2166 72.7139 65.7109 71.41C65.2053 70.1061 64.9374 68.7058 64.9225 67.2889C64.9077 65.872 65.1462 64.4663 65.6245 63.1521C66.1027 61.838 66.8114 60.641 67.7099 59.6296C68.6085 58.6182 69.6793 57.8121 70.8613 57.2575C72.0434 56.7028 73.3134 56.4104 74.599 56.397C75.8846 56.3835 77.1605 56.6492 78.3539 57.179C79.5473 57.7088 80.6348 58.4922 81.5543 59.4846C82.4739 60.477 83.2074 61.6588 83.7131 62.9627C84.2188 64.2666 84.4867 65.667 84.5015 67.0839C84.5163 68.5008 84.2778 69.9064 83.7996 71.2206C83.3213 72.5348 82.6127 73.7317 81.7141 74.7431C80.8156 75.7546 79.7447 76.5606 78.5627 77.1152C77.3807 77.6699 76.1106 77.9623 74.825 77.9758ZM82.562 67.1964C82.562 65.1091 81.7329 63.1073 80.2569 61.6314C78.781 60.1555 76.7793 59.3264 74.692 59.3264C72.6048 59.3264 70.603 60.1555 69.1271 61.6314C67.6512 63.1073 66.822 65.1091 66.822 67.1964C66.822 69.2836 67.6512 71.2854 69.1271 72.7613C70.603 74.2372 72.6048 75.0664 74.692 75.0664C76.7793 75.0664 78.781 74.2372 80.2569 72.7613C81.7329 71.2854 82.562 69.2836 82.562 67.1964Z" fill="#19B9E6"/>
<path d="M106.787 77.9659C105.502 77.9749 104.227 77.7049 103.035 77.1715C101.844 76.638 100.759 75.8516 99.8428 74.8569C98.9267 73.8623 98.1973 72.6789 97.6962 71.3745C97.195 70.0701 96.932 68.6701 96.9222 67.2545C96.9022 64.3955 97.9145 61.6465 99.7363 59.6121C101.558 57.5777 104.04 56.4246 106.637 56.4065C107.922 56.3975 109.197 56.6674 110.389 57.2009C111.58 57.7343 112.665 58.5208 113.581 59.5154C114.497 60.5101 115.227 61.6934 115.728 62.9978C116.229 64.3023 116.492 65.7022 116.502 67.1179C116.522 69.9768 115.509 72.7259 113.688 74.7603C111.866 76.7946 109.384 77.9478 106.787 77.9659ZM114.572 67.1962C114.572 65.1089 113.743 63.1072 112.267 61.6312C110.791 60.1553 108.789 59.3262 106.702 59.3262C104.615 59.3262 102.613 60.1553 101.137 61.6312C99.6611 63.1072 98.832 65.1089 98.832 67.1962C98.832 69.2834 99.6611 71.2852 101.137 72.7611C102.613 74.237 104.615 75.0662 106.702 75.0662C108.789 75.0662 110.791 74.237 112.267 72.7611C113.743 71.2852 114.572 69.2834 114.572 67.1962Z" fill="#19B9E6"/>
<path d="M82.5623 67.1962C82.5623 69.2834 81.7331 71.2852 80.2572 72.7611C78.7813 74.237 76.7795 75.0662 74.6923 75.0662C72.605 75.0662 70.6033 74.237 69.1273 72.7611C67.6514 71.2852 66.8223 69.2834 66.8223 67.1962C66.8223 65.1089 67.6514 63.1072 69.1273 61.6312C70.6033 60.1553 72.605 59.3262 74.6923 59.3262C76.7795 59.3262 78.7813 60.1553 80.2572 61.6312C81.7331 63.1072 82.5623 65.1089 82.5623 67.1962ZM78.5523 65.6562C78.5523 64.7862 78.2067 63.952 77.5916 63.3369C76.9765 62.7217 76.1422 62.3762 75.2723 62.3762C74.4024 62.3762 73.5681 62.7217 72.953 63.3369C72.3379 63.952 71.9923 64.7862 71.9923 65.6562C71.9923 66.5261 72.3379 67.3604 72.953 67.9755C73.5681 68.5906 74.4024 68.9362 75.2723 68.9362C76.1422 68.9362 76.9765 68.5906 77.5916 67.9755C78.2067 67.3604 78.5523 66.5261 78.5523 65.6562ZM72.1523 70.7162C72.1523 70.3342 72.0006 69.968 71.7305 69.6979C71.4604 69.4279 71.0942 69.2762 70.7123 69.2762C70.3304 69.2762 69.9641 69.4279 69.6941 69.6979C69.424 69.968 69.2723 70.3342 69.2723 70.7162C69.2723 71.0981 69.424 71.4644 69.6941 71.7344C69.9641 72.0045 70.3304 72.1562 70.7123 72.1562C71.0942 72.1562 71.4604 72.0045 71.7305 71.7344C72.0006 71.4644 72.1523 71.0981 72.1523 70.7162Z" fill="#030304"/>
<path d="M114.572 67.1962C114.572 69.2834 113.743 71.2852 112.267 72.7611C110.791 74.237 108.789 75.0662 106.702 75.0662C104.615 75.0662 102.613 74.237 101.137 72.7611C99.6612 71.2852 98.832 69.2834 98.832 67.1962C98.832 65.1089 99.6612 63.1072 101.137 61.6312C102.613 60.1553 104.615 59.3262 106.702 59.3262C108.789 59.3262 110.791 60.1553 112.267 61.6312C113.743 63.1072 114.572 65.1089 114.572 67.1962ZM109.252 65.8962C109.252 65.0236 108.905 64.1868 108.288 63.5698C107.671 62.9528 106.835 62.6062 105.962 62.6062C105.089 62.6062 104.253 62.9528 103.636 63.5698C103.019 64.1868 102.672 65.0236 102.672 65.8962C102.672 66.7687 103.019 67.6056 103.636 68.2226C104.253 68.8396 105.089 69.1862 105.962 69.1862C106.835 69.1862 107.671 68.8396 108.288 68.2226C108.905 67.6056 109.252 66.7687 109.252 65.8962ZM112.762 70.2562C112.762 69.8743 112.61 69.508 112.34 69.2379C112.07 68.9679 111.704 68.8162 111.322 68.8162C110.94 68.8162 110.574 68.9679 110.304 69.2379C110.034 69.508 109.882 69.8743 109.882 70.2562C109.882 70.6381 110.034 71.0044 110.304 71.2744C110.574 71.5445 110.94 71.6962 111.322 71.6962C111.704 71.6962 112.07 71.5445 112.34 71.2744C112.61 71.0044 112.762 70.6381 112.762 70.2562Z" fill="#030304"/>
<path d="M75.2722 68.935C77.0837 68.935 78.5522 67.4665 78.5522 65.655C78.5522 63.8435 77.0837 62.375 75.2722 62.375C73.4607 62.375 71.9922 63.8435 71.9922 65.655C71.9922 67.4665 73.4607 68.935 75.2722 68.935Z" fill="white"/>
<path d="M105.964 69.1855C107.781 69.1855 109.254 67.7125 109.254 65.8955C109.254 64.0785 107.781 62.6055 105.964 62.6055C104.147 62.6055 102.674 64.0785 102.674 65.8955C102.674 67.7125 104.147 69.1855 105.964 69.1855Z" fill="white"/>
<path d="M59.8323 113.375C59.679 114.721 59.9857 115.848 60.7523 116.755C73.5523 131.885 93.3123 137.025 110.912 127.385C132.662 115.475 139.242 87.4845 133.222 64.5345L138.412 63.2345C138.739 63.1545 138.946 63.2779 139.032 63.6045C143.559 80.6779 141.402 96.5212 132.562 111.135C113.792 142.185 70.7123 143.155 51.0323 111.885C50.8257 111.565 50.909 111.445 51.2823 111.525L59.8323 113.375Z" fill="#19B9E6"/>
<path d="M122.982 67.0354C123.335 67.1887 123.409 67.3521 123.202 67.5254C123.14 67.5808 123.093 67.6505 123.063 67.7288C123.033 67.807 123.023 67.8916 123.032 67.9754C125.632 89.1854 111.092 106.755 90.9321 112.105C87.4388 113.032 84.2588 113.519 81.3921 113.565C78.6788 112.032 74.7821 111.155 69.7021 110.935C62.5221 110.625 54.9621 110.265 48.4221 106.945C48.0853 106.777 47.8142 106.498 47.6521 106.155C41.6321 93.2754 40.2021 79.8454 43.3621 65.8654C43.4488 65.4921 43.6821 65.3354 44.0621 65.3954L62.6021 68.3054C62.9421 68.3588 63.1354 68.5554 63.1821 68.8954C65.2321 83.0954 83.8421 83.4154 86.1221 69.4654C87.1921 62.9254 93.9421 61.1554 95.1321 68.9654C97.3221 83.5054 116.522 83.2354 118.242 68.7054C118.282 68.3521 118.475 68.1321 118.822 68.0454L122.982 67.0354ZM97.4221 91.2754C91.9288 94.1354 86.5821 93.7621 81.3821 90.1554C80.9755 89.8754 80.5788 89.8421 80.1921 90.0554C80.0843 90.1157 79.9932 90.202 79.9273 90.3065C79.8614 90.411 79.8228 90.5304 79.8148 90.6537C79.8068 90.777 79.8299 90.9003 79.8818 91.0124C79.9337 91.1245 80.0129 91.2218 80.1121 91.2954C86.4654 95.9554 93.0388 96.1087 99.8321 91.7554C100.232 91.4954 100.415 91.1854 100.382 90.8254C100.368 90.684 100.323 90.5475 100.249 90.4259C100.175 90.3044 100.075 90.201 99.9562 90.1232C99.8372 90.0455 99.7023 89.9955 99.5614 89.9768C99.4205 89.9582 99.2772 89.9714 99.1421 90.0154C98.5521 90.2154 98.0421 90.9554 97.4221 91.2754Z" fill="#19B9E6"/>
<path d="M133.223 64.5352C139.243 87.4852 132.663 115.475 110.913 127.385C93.3133 137.025 73.5533 131.885 60.7533 116.755C59.9866 115.848 59.6799 114.722 59.8333 113.375L65.6333 113.685C65.7333 113.691 65.831 113.718 65.9205 113.763C66.01 113.808 66.0894 113.871 66.154 113.947C66.2185 114.024 66.2668 114.113 66.2959 114.209C66.325 114.305 66.3343 114.406 66.3232 114.505C65.8932 118.505 67.8033 121.705 71.9233 122.065C77.1432 122.515 78.6533 120.655 78.0633 115.655C78.0547 115.582 78.0632 115.507 78.0881 115.438C78.1131 115.368 78.1537 115.305 78.2069 115.254C78.2602 115.203 78.3245 115.164 78.395 115.142C78.4655 115.12 78.5402 115.114 78.6133 115.125C79.7533 115.298 80.6799 114.778 81.3933 113.565C84.2599 113.518 87.4399 113.032 90.9333 112.105C111.093 106.755 125.633 89.1852 123.033 67.9752C123.024 67.8913 123.035 67.8068 123.064 67.7285C123.094 67.6502 123.141 67.5805 123.203 67.5252C123.41 67.3518 123.337 67.1885 122.983 67.0352L133.223 64.5352ZM98.0432 125.105C109.863 122.215 123.673 112.895 127.303 100.625C127.322 100.568 127.32 100.506 127.297 100.451C127.274 100.395 127.232 100.35 127.178 100.322C127.124 100.293 127.061 100.284 127 100.296C126.939 100.307 126.884 100.339 126.843 100.385C118.073 110.945 110.713 118.875 97.8933 124.675C97.844 124.701 97.8057 124.743 97.7852 124.794C97.7647 124.846 97.7634 124.903 97.7817 124.955C97.7999 125.008 97.8364 125.051 97.8845 125.079C97.9325 125.107 97.9889 125.116 98.0432 125.105Z" fill="#3499D0"/>
<path d="M111.323 71.6964C112.118 71.6964 112.763 71.0517 112.763 70.2564C112.763 69.4611 112.118 68.8164 111.323 68.8164C110.527 68.8164 109.883 69.4611 109.883 70.2564C109.883 71.0517 110.527 71.6964 111.323 71.6964Z" fill="white"/>
<path d="M70.7134 72.1554C71.5087 72.1554 72.1534 71.5107 72.1534 70.7154C72.1534 69.9201 71.5087 69.2754 70.7134 69.2754C69.9181 69.2754 69.2734 69.9201 69.2734 70.7154C69.2734 71.5107 69.9181 72.1554 70.7134 72.1554Z" fill="white"/>
<path d="M169.423 78.685C168.703 81.565 169.683 84.365 166.213 85.715C166.073 85.7708 165.923 85.7936 165.774 85.7814C165.625 85.7693 165.481 85.7226 165.353 85.645L162.703 84.015L163.483 79.135C163.55 78.7217 163.786 78.5717 164.193 78.685C166.02 79.1984 167.763 79.1984 169.423 78.685Z" fill="#F18419"/>
<path d="M37.9033 85.4562C38.1366 84.8095 38.4466 84.1361 38.8333 83.4361C39.0266 83.0961 39.1566 83.1162 39.2233 83.4962C39.71 86.1028 40.0499 88.7228 40.2433 91.3561C40.4433 93.9561 41.6799 97.9928 43.9533 103.466C44.0999 103.833 44.0099 103.909 43.6833 103.696C37.0033 99.3295 35.0766 93.2495 37.9033 85.4562Z" fill="white"/>
<path d="M97.4233 91.2764C98.0433 90.9564 98.5533 90.2163 99.1433 90.0163C99.2784 89.9723 99.4217 89.9591 99.5626 89.9777C99.7035 89.9964 99.8384 90.0464 99.9574 90.1242C100.076 90.2019 100.176 90.3053 100.25 90.4269C100.324 90.5484 100.369 90.6849 100.383 90.8263C100.417 91.1863 100.233 91.4963 99.8333 91.7563C93.04 96.1097 86.4666 95.9563 80.1133 91.2963C80.0141 91.2227 79.9349 91.1254 79.883 91.0133C79.8311 90.9012 79.808 90.7779 79.816 90.6546C79.8239 90.5313 79.8626 90.412 79.9285 90.3075C79.9944 90.203 80.0855 90.1167 80.1933 90.0564C80.58 89.843 80.9766 89.8763 81.3833 90.1563C86.5833 93.763 91.93 94.1364 97.4233 91.2764Z" fill="#131D46"/>
<path d="M127.302 100.625C123.672 112.895 109.862 122.215 98.042 125.105C97.9876 125.116 97.9313 125.107 97.8832 125.079C97.8352 125.052 97.7986 125.008 97.7804 124.955C97.7622 124.903 97.7634 124.846 97.7839 124.794C97.8044 124.743 97.8428 124.701 97.892 124.675C110.712 118.875 118.072 110.945 126.842 100.385C126.883 100.339 126.938 100.308 126.999 100.296C127.06 100.284 127.123 100.293 127.177 100.322C127.231 100.35 127.273 100.395 127.296 100.451C127.318 100.506 127.321 100.568 127.302 100.625Z" fill="#8FD0DB"/>
<path d="M46.8732 152.245C40.2599 156.638 31.6799 158.115 21.1332 156.675C17.1866 156.135 14.1966 154.482 12.1632 151.715C9.36325 147.095 10.1332 142.405 10.2532 135.615C10.2599 135.315 10.4132 135.162 10.7132 135.155L12.4332 135.135C12.5057 135.134 12.5771 135.118 12.6429 135.087C12.7086 135.057 12.767 135.013 12.8143 134.958C12.8616 134.903 12.8967 134.839 12.9172 134.769C12.9377 134.7 12.9432 134.627 12.9332 134.555C11.8832 126.545 13.1932 114.515 23.3032 113.635C23.6366 113.608 23.9332 113.495 24.1932 113.295C27.4532 110.735 30.6566 110.692 33.8032 113.165C34.0632 113.372 34.3599 113.495 34.6932 113.535C44.5132 114.775 47.7032 126.115 46.5932 134.585C46.5399 134.998 46.7199 135.215 47.1332 135.235L48.4332 135.295C48.7399 135.308 48.8932 135.468 48.8932 135.775C48.9032 141.685 49.5832 146.405 46.8732 152.245ZM25.4332 115.675L32.9632 115.805C33.0777 115.796 33.1741 115.745 33.2342 115.661C33.2943 115.577 33.3139 115.467 33.2892 115.351C33.2646 115.236 33.1974 115.122 33.1005 115.032C33.0036 114.943 32.8836 114.883 32.7632 114.865C30.4766 114.705 28.2099 114.702 25.9632 114.855C25.6499 114.875 25.4032 114.995 25.2232 115.215C24.9766 115.515 25.0466 115.668 25.4332 115.675ZM43.3732 128.665C43.8066 132.145 44.0266 135.645 44.0332 139.165C44.0332 139.372 44.1366 139.478 44.3432 139.485L44.7332 139.495C44.834 139.498 44.9326 139.465 45.0101 139.4C45.0876 139.336 45.1385 139.245 45.1532 139.145C46.4232 130.665 45.9232 118.865 36.3932 115.145C36.1199 115.038 35.9199 115.118 35.7932 115.385C35.6599 115.665 35.7799 115.875 36.1532 116.015C42.2832 118.255 42.5732 122.195 43.3732 128.665ZM14.4832 127.765C15.0366 122.818 17.3232 118.975 21.3432 116.235C21.4248 116.177 21.4879 116.097 21.5251 116.004C21.5623 115.911 21.572 115.81 21.553 115.712C21.534 115.614 21.4872 115.523 21.418 115.451C21.3489 115.379 21.2605 115.328 21.1632 115.305C20.9166 115.252 20.6432 115.328 20.3432 115.535C16.0632 118.495 13.9832 122.568 14.1032 127.755C14.1026 127.78 14.1068 127.805 14.1158 127.828C14.1247 127.851 14.1382 127.873 14.1553 127.891C14.1725 127.909 14.1931 127.923 14.2159 127.933C14.2387 127.944 14.2633 127.949 14.2882 127.95C14.3132 127.951 14.338 127.946 14.3613 127.937C14.3846 127.928 14.4059 127.915 14.424 127.898C14.4422 127.881 14.4567 127.86 14.4669 127.837C14.477 127.814 14.4826 127.79 14.4832 127.765ZM43.1132 140.365C42.9632 135.875 42.3532 121.515 38.8732 118.605C35.7532 116.005 22.0932 116.295 19.3232 119.475C14.5232 124.985 15.0932 133.175 15.2332 140.275C15.2332 140.595 15.0732 140.772 14.7532 140.805C14.6466 140.818 14.5366 140.828 14.4232 140.835C14.295 140.845 14.1754 140.903 14.0882 140.998C14.001 141.092 13.9528 141.216 13.9532 141.345L14.0032 150.945C14.0032 151.258 14.0899 151.548 14.2632 151.815C18.2332 158.025 34.9332 155.965 40.8932 154.285C46.7932 152.625 45.0332 145.755 44.9932 141.245C44.9866 140.818 44.7766 140.648 44.3632 140.735L43.7432 140.855C43.3366 140.942 43.1266 140.778 43.1132 140.365ZM12.1779 149.414C12.3715 149.41 12.5451 148.715 12.6604 147.481C12.7758 146.246 12.8235 144.574 12.7931 142.832C12.7781 141.969 12.7443 141.116 12.6937 140.319C12.6431 139.523 12.5767 138.8 12.4983 138.191C12.4198 137.582 12.3309 137.099 12.2366 136.771C12.1423 136.442 12.0444 136.274 11.9485 136.276C11.755 136.279 11.5814 136.975 11.466 138.209C11.3507 139.443 11.3029 141.115 11.3333 142.858C11.3484 143.72 11.3822 144.574 11.4328 145.371C11.4834 146.167 11.5498 146.89 11.6282 147.499C11.7066 148.108 11.7955 148.59 11.8899 148.919C11.9842 149.247 12.0821 149.416 12.1779 149.414ZM46.7558 149.951C46.8569 149.955 46.9626 149.779 47.0669 149.434C47.1712 149.09 47.2721 148.583 47.3637 147.943C47.4554 147.303 47.536 146.542 47.6011 145.704C47.6661 144.866 47.7143 143.967 47.7428 143.059C47.8005 141.225 47.7747 139.463 47.6711 138.161C47.5676 136.86 47.3947 136.125 47.1906 136.118C47.0896 136.115 46.9839 136.291 46.8796 136.635C46.7753 136.98 46.6744 137.487 46.5828 138.127C46.4911 138.767 46.4105 139.528 46.3454 140.366C46.2804 141.204 46.2322 142.102 46.2036 143.011C46.146 144.845 46.1718 146.607 46.2753 147.908C46.3789 149.21 46.5517 149.945 46.7558 149.951Z" fill="#030304"/>
<path d="M32.9622 115.805L25.4322 115.675C25.0456 115.668 24.9756 115.515 25.2222 115.215C25.4022 114.995 25.6489 114.875 25.9622 114.855C28.2089 114.701 30.4755 114.705 32.7622 114.865C32.8825 114.883 33.0026 114.943 33.0995 115.032C33.1964 115.122 33.2636 115.236 33.2882 115.351C33.3129 115.467 33.2933 115.577 33.2332 115.661C33.1731 115.744 33.0767 115.796 32.9622 115.805Z" fill="#D47A36"/>
<path d="M43.3729 128.665C42.5729 122.195 42.2829 118.255 36.1529 116.015C35.7795 115.875 35.6595 115.665 35.7929 115.385C35.9195 115.119 36.1195 115.039 36.3929 115.145C45.9229 118.865 46.4229 130.665 45.1529 139.145C45.1382 139.245 45.0872 139.336 45.0097 139.401C44.9322 139.465 44.8337 139.499 44.7329 139.495L44.3429 139.485C44.1362 139.479 44.0329 139.372 44.0329 139.165C44.0262 135.645 43.8062 132.145 43.3729 128.665Z" fill="#D47A36"/>
<path d="M14.4825 127.765C14.4819 127.79 14.4763 127.815 14.4662 127.838C14.456 127.861 14.4415 127.881 14.4234 127.898C14.4053 127.916 14.384 127.929 14.3607 127.938C14.3373 127.947 14.3125 127.951 14.2876 127.95C14.2626 127.95 14.238 127.944 14.2152 127.934C14.1924 127.924 14.1718 127.909 14.1547 127.891C14.1375 127.873 14.124 127.852 14.1151 127.829C14.1062 127.805 14.1019 127.78 14.1026 127.755C13.9826 122.569 16.0626 118.495 20.3426 115.535C20.6426 115.329 20.9159 115.252 21.1626 115.305C21.2598 115.329 21.3482 115.379 21.4174 115.452C21.4865 115.524 21.5333 115.614 21.5523 115.712C21.5713 115.811 21.5616 115.912 21.5244 116.005C21.4872 116.098 21.4241 116.178 21.3426 116.235C17.3226 118.975 15.0359 122.819 14.4825 127.765Z" fill="#D47A36"/>
<path d="M43.7431 140.856L44.3631 140.736C44.7765 140.649 44.9865 140.819 44.9931 141.246C45.0331 145.756 46.7931 152.626 40.8931 154.286C34.9331 155.966 18.2331 158.026 14.2631 151.816C14.0898 151.549 14.0031 151.259 14.0031 150.946L13.9531 141.346C13.9527 141.217 14.001 141.093 14.0881 140.999C14.1753 140.904 14.2949 140.846 14.4231 140.836C14.5365 140.829 14.6465 140.819 14.7531 140.806C15.0731 140.773 15.2331 140.596 15.2331 140.276C15.0931 133.176 14.5231 124.986 19.3231 119.476C22.0931 116.296 35.7531 116.006 38.8731 118.606C42.3531 121.516 42.9631 135.876 43.1131 140.366C43.1265 140.779 43.3365 140.943 43.7431 140.856ZM20.5631 150.866L37.8031 150.686C38.2142 150.682 38.6204 150.597 38.9987 150.436C39.3769 150.275 39.7198 150.041 40.0076 149.748C40.2955 149.455 40.5227 149.107 40.6764 148.726C40.83 148.345 40.9071 147.937 40.9031 147.526L40.8131 138.626C40.8005 137.377 40.5343 136.142 40.0299 134.993C39.5255 133.844 38.7927 132.803 37.8733 131.929C36.954 131.056 35.8661 130.366 34.6718 129.901C33.4776 129.435 32.2004 129.202 30.9131 129.216L27.0131 129.256C24.4145 129.283 21.9328 130.311 20.1137 132.113C18.2947 133.915 17.2873 136.344 17.3131 138.866L17.4031 147.766C17.4071 148.177 17.4919 148.583 17.6528 148.961C17.8138 149.34 18.0476 149.683 18.3411 149.97C18.6345 150.258 18.9818 150.486 19.363 150.639C19.7443 150.793 20.1521 150.87 20.5631 150.866Z" fill="#F18419"/>
<path d="M20.563 150.865C20.1519 150.869 19.7441 150.792 19.3629 150.639C18.9816 150.485 18.6343 150.258 18.3409 149.97C18.0475 149.682 17.8136 149.339 17.6527 148.961C17.4917 148.583 17.4069 148.176 17.403 147.765L17.313 138.865C17.2872 136.344 18.2945 133.915 20.1136 132.112C21.9326 130.31 24.4143 129.283 27.013 129.255L30.913 129.215C32.2002 129.202 33.4774 129.434 34.6717 129.9C35.8659 130.366 36.9538 131.055 37.8732 131.929C38.7925 132.803 39.5253 133.844 40.0298 134.993C40.5342 136.142 40.8003 137.376 40.813 138.625L40.903 147.525C40.9069 147.936 40.8299 148.344 40.6762 148.726C40.5226 149.107 40.2953 149.454 40.0075 149.747C39.7196 150.041 39.3768 150.275 38.9985 150.436C38.6203 150.597 38.214 150.681 37.803 150.685L20.563 150.865ZM20.133 149.275L38.173 149.235C38.5425 149.233 38.8961 149.084 39.1565 148.822C39.4169 148.56 39.563 148.205 39.563 147.835L39.553 138.755C39.5476 136.602 38.705 134.539 37.2103 133.02C35.7156 131.501 33.6914 130.65 31.583 130.655H26.643C25.5989 130.658 24.5657 130.871 23.6021 131.281C22.6386 131.692 21.7637 132.292 21.0273 133.048C20.2909 133.804 19.7075 134.7 19.3104 135.686C18.9133 136.673 18.7103 137.729 18.713 138.795L18.723 147.875C18.723 148.06 18.7595 148.243 18.8305 148.413C18.9015 148.584 19.0055 148.739 19.1366 148.869C19.2676 148.999 19.4231 149.102 19.5941 149.172C19.7652 149.242 19.9483 149.277 20.133 149.275Z" fill="#030304"/>
<path d="M20.1329 149.276C19.9482 149.278 19.7651 149.242 19.5941 149.173C19.4231 149.103 19.2676 149 19.1365 148.87C19.0054 148.74 18.9014 148.585 18.8304 148.414C18.7595 148.244 18.7229 148.061 18.7229 147.876L18.7129 138.796C18.7103 137.73 18.9133 136.674 19.3104 135.687C19.7074 134.701 20.2908 133.805 21.0272 133.049C21.7636 132.293 22.6385 131.692 23.6021 131.282C24.5656 130.871 25.5989 130.659 26.6429 130.656H31.5829C33.6914 130.651 35.7156 131.501 37.2102 133.021C38.7049 134.54 39.5476 136.603 39.5529 138.756L39.5629 147.836C39.5629 148.206 39.4168 148.56 39.1564 148.823C38.896 149.085 38.5425 149.234 38.1729 149.236L20.1329 149.276ZM36.7929 135.846C36.7929 135.738 36.7497 135.633 36.6728 135.556C36.5959 135.479 36.4917 135.436 36.3829 135.436H21.5029C21.4491 135.436 21.3957 135.447 21.346 135.467C21.2963 135.488 21.2511 135.518 21.213 135.556C21.1749 135.594 21.1447 135.64 21.1241 135.689C21.1035 135.739 21.0929 135.792 21.0929 135.846V136.506C21.0929 136.615 21.1361 136.719 21.213 136.796C21.2899 136.873 21.3942 136.916 21.5029 136.916H36.3829C36.4917 136.916 36.5959 136.873 36.6728 136.796C36.7497 136.719 36.7929 136.615 36.7929 136.506V135.846Z" fill="#D47A36"/>
<path d="M36.3838 135.436H21.5038C21.2773 135.436 21.0938 135.619 21.0938 135.846V136.506C21.0938 136.732 21.2773 136.916 21.5038 136.916H36.3838C36.6102 136.916 36.7937 136.732 36.7937 136.506V135.846C36.7937 135.619 36.6102 135.436 36.3838 135.436Z" fill="#030304"/>
<path d="M11.3326 142.858C11.3959 146.486 11.7741 149.421 12.1772 149.414C12.5803 149.407 12.8557 146.461 12.7924 142.833C12.7291 139.205 12.351 136.269 11.9478 136.276C11.5447 136.283 11.2693 139.23 11.3326 142.858Z" fill="#F18419"/>
<path d="M46.2024 143.011C46.0823 146.831 46.3296 149.938 46.7546 149.952C47.1797 149.965 47.6216 146.879 47.7416 143.059C47.8617 139.239 47.6144 136.132 47.1894 136.118C46.7643 136.105 46.3224 139.191 46.2024 143.011Z" fill="#D47A36"/>
<path d="M12.1626 151.715C14.1959 154.482 17.1859 156.135 21.1326 156.675C31.6793 158.115 40.2592 156.638 46.8726 152.245C50.5926 151.652 54.2526 152.258 57.8526 154.065C58.0075 154.143 58.1358 154.266 58.2212 154.417C58.3065 154.568 58.3453 154.742 58.3324 154.915C58.3196 155.088 58.2558 155.254 58.149 155.391C58.0423 155.528 57.8974 155.63 57.7326 155.685C55.7192 156.352 53.7859 156.822 51.9326 157.095C37.2059 159.268 22.4659 159.338 7.71258 157.305C5.45924 156.992 3.41591 156.422 1.58257 155.595C1.40144 155.513 1.24913 155.379 1.14544 155.209C1.04175 155.04 0.991473 154.843 1.00118 154.644C1.01089 154.446 1.08014 154.255 1.19988 154.096C1.31962 153.937 1.48432 153.819 1.67257 153.755C5.1259 152.555 8.62259 151.875 12.1626 151.715Z" fill="#D7D8D7"/>
</svg>
