 <svg xmlns="http://www.w3.org/2000/svg" width="25" height="29" viewBox="0 0 25 29" fill="none">
                                <path fill-rule="evenodd" clip-rule="evenodd" d="M3.92721 0.0655112C3.06262 0.215582 2.19416 0.985866 1.89821 1.86503C1.83814 2.04332 1.78908 2.59365 1.78908 3.08801C1.78908 3.9544 1.79906 3.99702 2.06431 4.2656C2.35829 4.56317 2.66158 4.61551 3.05132 4.43569C3.40348 4.27323 3.57815 3.80528 3.57815 3.02384C3.57815 2.43404 3.6081 2.31239 3.80169 2.11636C3.93653 1.97992 4.18898 1.86618 4.43729 1.83004C4.66394 1.79715 8.86318 1.78304 13.7691 1.79858L22.6888 1.82699L22.9333 2.0746C23.0863 2.22963 23.1976 2.47027 23.2303 2.71769C23.3377 3.5285 24.1471 3.87402 24.7358 3.36041C24.972 3.15427 24.999 3.07094 24.9902 2.57382C24.9726 1.57948 24.3507 0.681814 23.357 0.21625C22.9311 0.0166949 22.8704 0.0153603 13.6535 0.00124943C8.55226 -0.00647343 4.17542 0.0224158 3.92721 0.0655112ZM23.4889 5.75001C22.8699 6.42628 23.5863 7.53161 24.416 7.18036C24.8394 7.00121 24.9958 6.77286 24.9958 6.3337C24.9958 6.0369 24.9386 5.90447 24.7337 5.72598C24.3602 5.40067 23.7987 5.41154 23.4889 5.75001ZM0.289736 6.60267C0.0484934 6.80814 0 6.91845 0 7.26159C0 7.60473 0.0484934 7.71505 0.289736 7.92051L0.579378 8.16736H2.6532H4.72693L5.04708 7.84319C5.22316 7.6649 5.36723 7.42482 5.36723 7.30964C5.36723 7.0136 5.09379 6.58131 4.82938 6.45927C4.6904 6.3952 3.83898 6.35582 2.59228 6.35582H0.579378L0.289736 6.60267ZM13.4412 6.45937C12.2623 6.74063 11.2352 7.73392 10.8836 8.93278C10.3721 10.6768 11.203 12.5127 12.8531 13.2845C13.3281 13.5066 13.5457 13.5491 14.2185 13.5512C15.5551 13.5553 16.5405 13.0439 17.249 11.9784C17.6775 11.3338 17.8406 10.7827 17.8406 9.97889C17.8406 9.17505 17.6775 8.62396 17.249 7.97934C16.4214 6.73463 14.8748 6.11727 13.4412 6.45937ZM15.0683 8.38188C15.309 8.50516 15.6044 8.76736 15.763 8.99857C15.9942 9.33532 16.0389 9.49455 16.0389 9.97889C16.0389 10.4632 15.9942 10.6225 15.763 10.9592C14.7898 12.3777 12.6831 11.8296 12.5431 10.1216C12.4269 8.7031 13.8206 7.74289 15.0683 8.38188ZM23.4904 9.37146L23.2609 9.62212L23.236 18.141L23.2109 26.6598L22.9499 26.9242L22.6888 27.1885L13.675 27.2163C8.71723 27.2316 4.51855 27.218 4.34444 27.1861C4.17034 27.1542 3.92674 27.0257 3.80301 26.9004C3.60791 26.7029 3.57815 26.5826 3.57815 25.9916C3.57815 25.2102 3.40348 24.7422 3.05132 24.5798C2.65819 24.3983 2.35838 24.4521 2.05603 24.7582L1.7725 25.0454L1.80518 26.0692C1.82985 26.8436 1.88277 27.1853 2.02222 27.4714C2.27175 27.9833 2.7903 28.49 3.35 28.769L3.81356 29H13.371C22.8898 29 22.9301 28.9991 23.357 28.7992C23.9581 28.5177 24.4514 28.0506 24.7471 27.4831L25 26.9978V18.3054V9.61287L24.7717 9.36688C24.4462 9.01601 23.8137 9.0183 23.4904 9.37146ZM0.289736 10.2257C0.0484934 10.4312 0 10.5415 0 10.8847C0 11.2278 0.0484934 11.3381 0.289736 11.5436L0.579378 11.7904H2.59228C3.83898 11.7904 4.6904 11.751 4.82938 11.687C5.07552 11.5733 5.36723 11.1383 5.36723 10.8847C5.36723 10.631 5.07552 10.196 4.82938 10.0823C4.6904 10.0183 3.83898 9.97889 2.59228 9.97889H0.579378L0.289736 10.2257ZM0.289736 13.8488C0.0484934 14.0543 0 14.1646 0 14.5077C0 14.8509 0.0484934 14.9612 0.289736 15.1666L0.579378 15.4135H2.59228C3.83898 15.4135 4.6904 15.3741 4.82938 15.31C5.07552 15.1964 5.36723 14.7613 5.36723 14.5077C5.36723 14.2541 5.07552 13.8191 4.82938 13.7054C4.6904 13.6413 3.83898 13.602 2.59228 13.602H0.579378L0.289736 13.8488ZM13.5959 14.565C10.305 14.9727 8.00377 17.6724 8.00377 21.1256C8.00377 21.5449 8.05443 22.0004 8.11629 22.1379C8.35424 22.6667 8.26996 22.6596 14.3622 22.6596H19.9768L20.2521 22.3809C20.5227 22.1069 20.5273 22.0847 20.5273 21.0614C20.5273 19.0988 19.9862 17.7264 18.6926 16.4084C17.3003 14.9898 15.4803 14.3315 13.5959 14.565ZM15.5431 16.5204C16.2891 16.7444 16.671 16.9652 17.2685 17.5182C18.1193 18.3056 18.7382 19.5757 18.7382 20.5344V20.8481H14.2567H9.77514L9.84247 20.3529C10.0936 18.504 11.2892 17.0643 13.0414 16.5008C13.5837 16.3264 14.9321 16.337 15.5431 16.5204ZM0.289736 17.4719C0.0484934 17.6773 0 17.7877 0 18.1308C0 18.4739 0.0484934 18.5843 0.289736 18.7897L0.579378 19.0366H2.60132C4.16714 19.0366 4.68183 19.006 4.88277 18.9007C5.14077 18.7656 5.36723 18.3993 5.36723 18.1172C5.36723 17.8755 5.06987 17.4395 4.82938 17.3285C4.6904 17.2644 3.83898 17.225 2.59228 17.225H0.579378L0.289736 17.4719ZM0.289736 21.0949C0.0484934 21.3004 0 21.4107 0 21.7539C0 22.097 0.0484934 22.2073 0.289736 22.4128L0.579378 22.6596H2.59228C3.83898 22.6596 4.6904 22.6203 4.82938 22.5562C5.09379 22.4341 5.36723 22.0019 5.36723 21.7058C5.36723 21.5906 5.22316 21.3506 5.04708 21.1723L4.72693 20.8481H2.6532H0.579378L0.289736 21.0949Z" fill="white"/>
                                </svg>