 <svg xmlns="http://www.w3.org/2000/svg" width="34" height="30" viewBox="0 0 34 30" fill="none">
                                <mask id="path-1-inside-1_350_223" fill="white">
                                <path fill-rule="evenodd" clip-rule="evenodd" d="M17.0418 0.34557C15.6436 0.891691 14.5711 1.30614 13.4496 1.73378C12.8753 1.95275 12.0274 2.27922 11.5653 2.4594C11.1033 2.6395 10.6862 2.78689 10.6385 2.78689C10.4893 2.78689 10.2922 3.06739 10.1636 3.46299C10.0956 3.67216 9.82658 4.52785 9.56586 5.36453C9.13029 6.76229 8.26426 9.53059 7.95876 10.5014C7.88884 10.7237 7.76896 10.9394 7.69244 10.9809C7.61592 11.0223 5.9008 11.6156 3.8811 12.2993C1.86131 12.9831 0.161897 13.5801 0.104423 13.6261C0.0470319 13.6721 0 13.775 0 13.8547C0 13.9345 1.52858 15.5176 3.39683 17.3728C5.26507 19.2279 8.88269 22.828 11.4359 25.3729C15.0242 28.9493 16.1248 30 16.283 30C16.3955 30 16.6969 29.9272 16.9526 29.8383C17.4566 29.663 19.1793 29.098 22.1376 28.1374C23.1714 27.8017 24.0636 27.4838 24.1202 27.4309C24.1768 27.378 24.5838 26.2705 25.0244 24.9699C25.4652 23.6693 25.9554 22.2248 26.1138 21.76C26.2721 21.2952 26.5234 20.5536 26.6721 20.112L26.9425 19.3091L28.5708 18.4893C29.4663 18.0384 31.0543 17.2441 32.0995 16.7242C33.497 16.0292 34 15.7399 34 15.6313C34 15.5465 31.1073 12.6414 27.2162 8.81823C18.0759 -0.162183 18.2417 -0.00236928 18.07 0.000504157C17.9869 0.00185636 17.5242 0.157191 17.0418 0.34557ZM20.4042 2.83532C21.2657 3.67892 21.9705 4.38891 21.9705 4.41317C21.9705 4.455 21.0615 5.06721 17.6768 7.30503L16.1816 8.29357L15.5413 7.64967C15.0787 7.18434 14.8619 7.0209 14.7601 7.06045C14.5025 7.16043 14.6135 7.39165 15.2039 7.98443C15.5256 8.30726 15.7887 8.61819 15.7887 8.67532C15.7887 8.76617 15.6178 9.18552 15.0369 10.5198C14.956 10.7057 14.58 11.571 14.2015 12.4425C13.823 13.314 13.4976 14.0271 13.4785 14.0271C13.3889 14.0271 8.85504 9.58696 8.85504 9.49915C8.85504 9.41117 9.46294 7.39782 9.92474 5.95612C10.0141 5.67723 10.2084 5.05927 10.3565 4.58279C10.5046 4.1063 10.6678 3.71653 10.7193 3.71653C10.7706 3.71653 11.5339 4.44266 12.4153 5.33005C14.0236 6.9494 14.2904 7.13997 14.3511 6.71302C14.3691 6.58641 13.9509 6.12869 12.743 4.95287C11.8452 4.07884 11.1106 3.3145 11.1106 3.25425C11.1106 3.19399 11.1763 3.12494 11.2568 3.10085C11.4265 3.05006 12.022 2.82517 14.6609 1.81542C15.7177 1.41111 16.8802 0.969612 17.2443 0.834308C17.6083 0.699003 17.9243 0.569951 17.9466 0.547555C17.9963 0.49727 18.4054 0.878085 20.4042 2.83532ZM23.9818 6.35755C24.8509 7.20581 25.5622 7.92408 25.5624 7.95358C25.5625 7.98307 25.4698 8.06877 25.3563 8.14399C25.1636 8.27177 25.132 8.26974 24.8786 8.1139C24.1509 7.66615 23.1283 7.88149 22.752 8.56165C22.6742 8.70228 22.6192 8.69873 21.7562 8.49793C21.2538 8.38104 20.636 8.24185 20.3833 8.18861C20.1306 8.13537 19.8111 8.06252 19.6732 8.02668C19.5354 7.99085 19.1971 7.91504 18.9214 7.85816C18.2427 7.71813 18.1932 7.70046 18.2253 7.61054C18.2486 7.54513 22.2916 4.82289 22.3739 4.81714C22.3891 4.81604 23.1126 5.5093 23.9818 6.35755ZM20.0126 8.61641C21.2604 8.89429 22.343 9.14555 22.4183 9.17479C22.4936 9.20403 22.5553 9.31423 22.5553 9.41962C22.5553 9.52501 22.5777 9.72454 22.6051 9.86298C22.6532 10.1065 22.6127 10.1451 21.344 11.0611C20.623 11.5816 20.0035 11.996 19.9672 11.982C19.8777 11.9475 16.6241 8.72442 16.6241 8.67033C16.6241 8.56266 17.356 8.11829 17.539 8.115C17.6516 8.11288 18.7647 8.33853 20.0126 8.61641ZM24.6242 8.55244C24.8094 8.70794 24.9779 9.09813 24.9779 9.37153C24.9779 9.81835 24.2105 11.5872 24.0146 11.5919C23.8114 11.5968 23.0565 9.82807 23.0565 9.34719C23.0565 8.99858 23.3646 8.51956 23.6422 8.43648C23.9033 8.35839 24.4732 8.42567 24.6242 8.55244ZM27.733 10.0404C28.6528 10.9387 29.4054 11.7006 29.4054 11.7335C29.4054 11.7664 28.9647 12.1343 28.4262 12.551C27.8876 12.9677 26.6835 13.9078 25.7502 14.6398C24.817 15.3719 24.026 15.9709 23.9924 15.9709C23.9587 15.9709 23.4436 15.4765 22.8477 14.8722C22.2517 14.268 21.7018 13.7736 21.6256 13.7736C21.5495 13.7736 21.4629 13.8374 21.4333 13.9155C21.3774 14.0628 21.3915 14.0797 22.9349 15.7C23.3464 16.132 23.6941 16.5351 23.7076 16.5958C23.7373 16.7287 23.0892 18.9296 22.9911 19.0288C22.9531 19.0673 21.8151 18.8146 20.4622 18.4674C17.5129 17.7105 17.6265 17.743 17.6265 17.6562C17.6265 17.6179 17.8377 17.1374 18.0959 16.5885C18.354 16.0397 18.7064 15.2863 18.879 14.9145C19.7449 13.0491 19.8887 12.7594 19.9495 12.7594C19.9857 12.7594 20.1621 12.9115 20.3415 13.0974C20.6829 13.451 20.9383 13.5278 21.0238 13.3025C21.0566 13.2159 20.9476 13.0389 20.7117 12.7957C20.495 12.5724 20.3813 12.3938 20.4289 12.3517C20.6272 12.1768 22.6636 10.7161 22.7631 10.6775C22.8365 10.649 22.9949 10.8682 23.2263 11.3182C23.6323 12.1076 23.8572 12.4213 24.0172 12.4213C24.1863 12.4213 24.4196 12.0817 24.8765 11.1706C25.3831 10.1601 25.5178 9.67899 25.4465 9.1349C25.3942 8.73625 25.402 8.71521 25.6654 8.54466C25.8157 8.44739 25.966 8.37656 25.9996 8.38738C26.0331 8.3982 26.8131 9.142 27.733 10.0404ZM17.9286 10.7409L19.5272 12.3565L19.0689 13.3397C18.8168 13.8805 18.4591 14.6461 18.2739 15.0412C18.0887 15.4363 17.7548 16.1518 17.5318 16.6312C17.2459 17.2459 17.0955 17.4839 17.0215 17.4389C16.778 17.2907 13.9509 14.4845 13.9509 14.3911C13.9509 14.2892 14.2143 13.6567 15.0181 11.8298C15.11 11.6206 15.3636 11.0311 15.5815 10.5198C16.0657 9.38353 16.1933 9.12535 16.2704 9.12535C16.3033 9.12535 17.0495 9.85233 17.9286 10.7409ZM12.2651 13.5826C14.2261 15.4764 16.056 17.243 16.3317 17.5083L16.8329 17.9909L16.4605 18.3754C16.2557 18.5868 16.0391 18.7598 15.9792 18.7598C15.8433 18.7598 8.35381 11.2508 8.35381 11.1145C8.35381 10.9561 8.60634 10.1395 8.65538 10.1395C8.67986 10.1395 10.3043 11.689 12.2651 13.5826ZM11.7371 15.3342L15.5799 19.176L14.9951 19.7309L14.4103 20.2857L13.8256 20.2348C13.5039 20.2067 13.0716 20.1507 12.8649 20.1101C12.6581 20.0697 11.9815 19.9573 11.3612 19.8605C10.1642 19.6738 8.44729 19.3982 7.6855 19.2705C7.4328 19.2282 6.89465 19.1447 6.48966 19.0849L5.75318 18.9762L3.24796 16.4894C1.72398 14.9765 0.772811 13.9721 0.819592 13.9247C0.889597 13.8539 7.61684 11.5221 7.81081 11.5014C7.85676 11.4965 9.62359 13.2213 11.7371 15.3342ZM31.3468 13.5906C32.1399 14.3732 32.8921 15.1026 33.0184 15.2116C33.1447 15.3206 33.2476 15.4505 33.2469 15.5001C33.2454 15.6044 27.0601 18.7046 26.7765 18.7432C26.6291 18.7632 26.3499 18.5168 25.4891 17.607C24.8846 16.9681 24.4009 16.412 24.4143 16.3715C24.4519 16.2572 29.6841 12.1801 29.8014 12.1736C29.8583 12.1704 30.5537 12.8081 31.3468 13.5906ZM8.50175 13.9552C7.96711 14.106 7.51576 14.8003 7.52102 15.4638C7.52394 15.8289 7.87714 16.7424 8.34604 17.5978C9.00599 18.8016 9.11885 18.7517 10.0365 16.8496C10.3658 16.167 10.3993 16.0393 10.3999 15.4638C10.4004 14.9277 10.3682 14.7812 10.1916 14.514C9.84805 13.994 9.16463 13.7681 8.50175 13.9552ZM9.53337 14.5413C9.78314 14.6734 9.96517 15.1989 9.90837 15.624C9.84989 16.0615 9.11776 17.6793 8.99672 17.6385C8.85654 17.5912 8.19617 16.2128 8.09534 15.7571C8.00896 15.3666 8.01606 15.2741 8.15457 14.9871C8.41504 14.4476 8.99931 14.2587 9.53337 14.5413ZM25.3435 18.1707C25.9235 18.7763 26.398 19.3106 26.398 19.3581C26.398 19.4055 26.3397 19.5585 26.2684 19.698C26.1788 19.8731 26.0948 19.9376 25.9969 19.9063C25.9189 19.8814 25.3493 19.7327 24.7312 19.5759C24.1131 19.419 23.5942 19.2506 23.578 19.2016C23.5618 19.1525 23.6653 18.7003 23.8078 18.1966C24.1374 17.0313 24.1237 17.0695 24.2131 17.0695C24.2549 17.0695 24.7635 17.565 25.3435 18.1707ZM20.8724 19.1049C22.694 19.5736 24.5602 20.0532 25.0197 20.1707C25.4791 20.2881 25.8844 20.4117 25.9203 20.4452C25.9562 20.4786 25.775 21.1305 25.5176 21.8936C25.2603 22.6569 24.942 23.6045 24.8104 23.9996C24.2712 25.6176 23.9135 26.6257 23.8594 26.6805C23.8278 26.7125 22.7938 25.7192 21.5615 24.4732C19.9359 22.8294 19.2777 22.2163 19.163 22.2386C19.0761 22.2555 19.0049 22.3341 19.0049 22.4132C19.0049 22.4923 19.9918 23.5594 21.1978 24.7845C22.4039 26.0096 23.3907 27.0484 23.3907 27.0931C23.3907 27.1627 22.1373 27.5929 17.1818 29.2241L16.2776 29.5217L13.6523 26.8668C12.2084 25.4066 11.027 24.1892 11.027 24.1616C11.027 24.134 11.4703 23.6964 12.0121 23.1892C14.933 20.455 15.8129 19.6441 15.89 19.6157C15.9368 19.5984 16.5483 20.1632 17.2488 20.8708C18.15 21.781 18.5682 22.1483 18.6791 22.1266C19.0723 22.0501 18.8997 21.7824 17.614 20.4744L16.3317 19.1699L16.8329 18.7115C17.1086 18.4594 17.3851 18.253 17.4473 18.2529C17.5097 18.2528 19.0509 18.6362 20.8724 19.1049ZM7.60197 19.7739C7.85467 19.8168 8.30577 19.8907 8.60442 19.9381C8.90307 19.9855 9.61732 20.099 10.1916 20.1903C10.766 20.2815 11.781 20.44 12.4472 20.5423C13.1134 20.6446 13.6886 20.7551 13.7255 20.7879C13.8012 20.8554 10.7342 23.7461 10.5869 23.7461C10.4794 23.7461 6.51597 19.7744 6.51597 19.6667C6.51597 19.5991 6.65105 19.6124 7.60197 19.7739Z"/>
                                </mask>
                                <path fill-rule="evenodd" clip-rule="evenodd" d="M17.0418 0.34557C15.6436 0.891691 14.5711 1.30614 13.4496 1.73378C12.8753 1.95275 12.0274 2.27922 11.5653 2.4594C11.1033 2.6395 10.6862 2.78689 10.6385 2.78689C10.4893 2.78689 10.2922 3.06739 10.1636 3.46299C10.0956 3.67216 9.82658 4.52785 9.56586 5.36453C9.13029 6.76229 8.26426 9.53059 7.95876 10.5014C7.88884 10.7237 7.76896 10.9394 7.69244 10.9809C7.61592 11.0223 5.9008 11.6156 3.8811 12.2993C1.86131 12.9831 0.161897 13.5801 0.104423 13.6261C0.0470319 13.6721 0 13.775 0 13.8547C0 13.9345 1.52858 15.5176 3.39683 17.3728C5.26507 19.2279 8.88269 22.828 11.4359 25.3729C15.0242 28.9493 16.1248 30 16.283 30C16.3955 30 16.6969 29.9272 16.9526 29.8383C17.4566 29.663 19.1793 29.098 22.1376 28.1374C23.1714 27.8017 24.0636 27.4838 24.1202 27.4309C24.1768 27.378 24.5838 26.2705 25.0244 24.9699C25.4652 23.6693 25.9554 22.2248 26.1138 21.76C26.2721 21.2952 26.5234 20.5536 26.6721 20.112L26.9425 19.3091L28.5708 18.4893C29.4663 18.0384 31.0543 17.2441 32.0995 16.7242C33.497 16.0292 34 15.7399 34 15.6313C34 15.5465 31.1073 12.6414 27.2162 8.81823C18.0759 -0.162183 18.2417 -0.00236928 18.07 0.000504157C17.9869 0.00185636 17.5242 0.157191 17.0418 0.34557ZM20.4042 2.83532C21.2657 3.67892 21.9705 4.38891 21.9705 4.41317C21.9705 4.455 21.0615 5.06721 17.6768 7.30503L16.1816 8.29357L15.5413 7.64967C15.0787 7.18434 14.8619 7.0209 14.7601 7.06045C14.5025 7.16043 14.6135 7.39165 15.2039 7.98443C15.5256 8.30726 15.7887 8.61819 15.7887 8.67532C15.7887 8.76617 15.6178 9.18552 15.0369 10.5198C14.956 10.7057 14.58 11.571 14.2015 12.4425C13.823 13.314 13.4976 14.0271 13.4785 14.0271C13.3889 14.0271 8.85504 9.58696 8.85504 9.49915C8.85504 9.41117 9.46294 7.39782 9.92474 5.95612C10.0141 5.67723 10.2084 5.05927 10.3565 4.58279C10.5046 4.1063 10.6678 3.71653 10.7193 3.71653C10.7706 3.71653 11.5339 4.44266 12.4153 5.33005C14.0236 6.9494 14.2904 7.13997 14.3511 6.71302C14.3691 6.58641 13.9509 6.12869 12.743 4.95287C11.8452 4.07884 11.1106 3.3145 11.1106 3.25425C11.1106 3.19399 11.1763 3.12494 11.2568 3.10085C11.4265 3.05006 12.022 2.82517 14.6609 1.81542C15.7177 1.41111 16.8802 0.969612 17.2443 0.834308C17.6083 0.699003 17.9243 0.569951 17.9466 0.547555C17.9963 0.49727 18.4054 0.878085 20.4042 2.83532ZM23.9818 6.35755C24.8509 7.20581 25.5622 7.92408 25.5624 7.95358C25.5625 7.98307 25.4698 8.06877 25.3563 8.14399C25.1636 8.27177 25.132 8.26974 24.8786 8.1139C24.1509 7.66615 23.1283 7.88149 22.752 8.56165C22.6742 8.70228 22.6192 8.69873 21.7562 8.49793C21.2538 8.38104 20.636 8.24185 20.3833 8.18861C20.1306 8.13537 19.8111 8.06252 19.6732 8.02668C19.5354 7.99085 19.1971 7.91504 18.9214 7.85816C18.2427 7.71813 18.1932 7.70046 18.2253 7.61054C18.2486 7.54513 22.2916 4.82289 22.3739 4.81714C22.3891 4.81604 23.1126 5.5093 23.9818 6.35755ZM20.0126 8.61641C21.2604 8.89429 22.343 9.14555 22.4183 9.17479C22.4936 9.20403 22.5553 9.31423 22.5553 9.41962C22.5553 9.52501 22.5777 9.72454 22.6051 9.86298C22.6532 10.1065 22.6127 10.1451 21.344 11.0611C20.623 11.5816 20.0035 11.996 19.9672 11.982C19.8777 11.9475 16.6241 8.72442 16.6241 8.67033C16.6241 8.56266 17.356 8.11829 17.539 8.115C17.6516 8.11288 18.7647 8.33853 20.0126 8.61641ZM24.6242 8.55244C24.8094 8.70794 24.9779 9.09813 24.9779 9.37153C24.9779 9.81835 24.2105 11.5872 24.0146 11.5919C23.8114 11.5968 23.0565 9.82807 23.0565 9.34719C23.0565 8.99858 23.3646 8.51956 23.6422 8.43648C23.9033 8.35839 24.4732 8.42567 24.6242 8.55244ZM27.733 10.0404C28.6528 10.9387 29.4054 11.7006 29.4054 11.7335C29.4054 11.7664 28.9647 12.1343 28.4262 12.551C27.8876 12.9677 26.6835 13.9078 25.7502 14.6398C24.817 15.3719 24.026 15.9709 23.9924 15.9709C23.9587 15.9709 23.4436 15.4765 22.8477 14.8722C22.2517 14.268 21.7018 13.7736 21.6256 13.7736C21.5495 13.7736 21.4629 13.8374 21.4333 13.9155C21.3774 14.0628 21.3915 14.0797 22.9349 15.7C23.3464 16.132 23.6941 16.5351 23.7076 16.5958C23.7373 16.7287 23.0892 18.9296 22.9911 19.0288C22.9531 19.0673 21.8151 18.8146 20.4622 18.4674C17.5129 17.7105 17.6265 17.743 17.6265 17.6562C17.6265 17.6179 17.8377 17.1374 18.0959 16.5885C18.354 16.0397 18.7064 15.2863 18.879 14.9145C19.7449 13.0491 19.8887 12.7594 19.9495 12.7594C19.9857 12.7594 20.1621 12.9115 20.3415 13.0974C20.6829 13.451 20.9383 13.5278 21.0238 13.3025C21.0566 13.2159 20.9476 13.0389 20.7117 12.7957C20.495 12.5724 20.3813 12.3938 20.4289 12.3517C20.6272 12.1768 22.6636 10.7161 22.7631 10.6775C22.8365 10.649 22.9949 10.8682 23.2263 11.3182C23.6323 12.1076 23.8572 12.4213 24.0172 12.4213C24.1863 12.4213 24.4196 12.0817 24.8765 11.1706C25.3831 10.1601 25.5178 9.67899 25.4465 9.1349C25.3942 8.73625 25.402 8.71521 25.6654 8.54466C25.8157 8.44739 25.966 8.37656 25.9996 8.38738C26.0331 8.3982 26.8131 9.142 27.733 10.0404ZM17.9286 10.7409L19.5272 12.3565L19.0689 13.3397C18.8168 13.8805 18.4591 14.6461 18.2739 15.0412C18.0887 15.4363 17.7548 16.1518 17.5318 16.6312C17.2459 17.2459 17.0955 17.4839 17.0215 17.4389C16.778 17.2907 13.9509 14.4845 13.9509 14.3911C13.9509 14.2892 14.2143 13.6567 15.0181 11.8298C15.11 11.6206 15.3636 11.0311 15.5815 10.5198C16.0657 9.38353 16.1933 9.12535 16.2704 9.12535C16.3033 9.12535 17.0495 9.85233 17.9286 10.7409ZM12.2651 13.5826C14.2261 15.4764 16.056 17.243 16.3317 17.5083L16.8329 17.9909L16.4605 18.3754C16.2557 18.5868 16.0391 18.7598 15.9792 18.7598C15.8433 18.7598 8.35381 11.2508 8.35381 11.1145C8.35381 10.9561 8.60634 10.1395 8.65538 10.1395C8.67986 10.1395 10.3043 11.689 12.2651 13.5826ZM11.7371 15.3342L15.5799 19.176L14.9951 19.7309L14.4103 20.2857L13.8256 20.2348C13.5039 20.2067 13.0716 20.1507 12.8649 20.1101C12.6581 20.0697 11.9815 19.9573 11.3612 19.8605C10.1642 19.6738 8.44729 19.3982 7.6855 19.2705C7.4328 19.2282 6.89465 19.1447 6.48966 19.0849L5.75318 18.9762L3.24796 16.4894C1.72398 14.9765 0.772811 13.9721 0.819592 13.9247C0.889597 13.8539 7.61684 11.5221 7.81081 11.5014C7.85676 11.4965 9.62359 13.2213 11.7371 15.3342ZM31.3468 13.5906C32.1399 14.3732 32.8921 15.1026 33.0184 15.2116C33.1447 15.3206 33.2476 15.4505 33.2469 15.5001C33.2454 15.6044 27.0601 18.7046 26.7765 18.7432C26.6291 18.7632 26.3499 18.5168 25.4891 17.607C24.8846 16.9681 24.4009 16.412 24.4143 16.3715C24.4519 16.2572 29.6841 12.1801 29.8014 12.1736C29.8583 12.1704 30.5537 12.8081 31.3468 13.5906ZM8.50175 13.9552C7.96711 14.106 7.51576 14.8003 7.52102 15.4638C7.52394 15.8289 7.87714 16.7424 8.34604 17.5978C9.00599 18.8016 9.11885 18.7517 10.0365 16.8496C10.3658 16.167 10.3993 16.0393 10.3999 15.4638C10.4004 14.9277 10.3682 14.7812 10.1916 14.514C9.84805 13.994 9.16463 13.7681 8.50175 13.9552ZM9.53337 14.5413C9.78314 14.6734 9.96517 15.1989 9.90837 15.624C9.84989 16.0615 9.11776 17.6793 8.99672 17.6385C8.85654 17.5912 8.19617 16.2128 8.09534 15.7571C8.00896 15.3666 8.01606 15.2741 8.15457 14.9871C8.41504 14.4476 8.99931 14.2587 9.53337 14.5413ZM25.3435 18.1707C25.9235 18.7763 26.398 19.3106 26.398 19.3581C26.398 19.4055 26.3397 19.5585 26.2684 19.698C26.1788 19.8731 26.0948 19.9376 25.9969 19.9063C25.9189 19.8814 25.3493 19.7327 24.7312 19.5759C24.1131 19.419 23.5942 19.2506 23.578 19.2016C23.5618 19.1525 23.6653 18.7003 23.8078 18.1966C24.1374 17.0313 24.1237 17.0695 24.2131 17.0695C24.2549 17.0695 24.7635 17.565 25.3435 18.1707ZM20.8724 19.1049C22.694 19.5736 24.5602 20.0532 25.0197 20.1707C25.4791 20.2881 25.8844 20.4117 25.9203 20.4452C25.9562 20.4786 25.775 21.1305 25.5176 21.8936C25.2603 22.6569 24.942 23.6045 24.8104 23.9996C24.2712 25.6176 23.9135 26.6257 23.8594 26.6805C23.8278 26.7125 22.7938 25.7192 21.5615 24.4732C19.9359 22.8294 19.2777 22.2163 19.163 22.2386C19.0761 22.2555 19.0049 22.3341 19.0049 22.4132C19.0049 22.4923 19.9918 23.5594 21.1978 24.7845C22.4039 26.0096 23.3907 27.0484 23.3907 27.0931C23.3907 27.1627 22.1373 27.5929 17.1818 29.2241L16.2776 29.5217L13.6523 26.8668C12.2084 25.4066 11.027 24.1892 11.027 24.1616C11.027 24.134 11.4703 23.6964 12.0121 23.1892C14.933 20.455 15.8129 19.6441 15.89 19.6157C15.9368 19.5984 16.5483 20.1632 17.2488 20.8708C18.15 21.781 18.5682 22.1483 18.6791 22.1266C19.0723 22.0501 18.8997 21.7824 17.614 20.4744L16.3317 19.1699L16.8329 18.7115C17.1086 18.4594 17.3851 18.253 17.4473 18.2529C17.5097 18.2528 19.0509 18.6362 20.8724 19.1049ZM7.60197 19.7739C7.85467 19.8168 8.30577 19.8907 8.60442 19.9381C8.90307 19.9855 9.61732 20.099 10.1916 20.1903C10.766 20.2815 11.781 20.44 12.4472 20.5423C13.1134 20.6446 13.6886 20.7551 13.7255 20.7879C13.8012 20.8554 10.7342 23.7461 10.5869 23.7461C10.4794 23.7461 6.51597 19.7744 6.51597 19.6667C6.51597 19.5991 6.65105 19.6124 7.60197 19.7739Z" fill="white" stroke="white" stroke-width="8" mask="url(#path-1-inside-1_350_223)"/>
                                </svg>