<svg xmlns="http://www.w3.org/2000/svg" width="26" height="26" viewBox="0 0 26 26" fill="none">
                                <path fill-rule="evenodd" clip-rule="evenodd" d="M20.7616 0.0767223C20.4322 0.133743 19.4261 0.308894 18.5258 0.46592C17.6254 0.622947 16.4432 0.828091 15.8986 0.921762C14.704 1.12731 14.5571 1.17903 14.4409 1.4351C14.3481 1.63961 14.3992 2.0005 15.0947 6.05126C15.2272 6.82316 15.4803 8.3028 15.657 9.33935C15.8338 10.3759 16.047 11.621 16.1309 12.1062C16.2148 12.5914 16.4124 13.7462 16.5698 14.6725C16.7273 15.5988 16.925 16.7536 17.009 17.2388C17.0931 17.724 17.2908 18.8788 17.4482 19.8051C17.6057 20.7314 17.8034 21.8862 17.8874 22.3714C17.9715 22.8566 18.1317 23.7949 18.2435 24.4565C18.4248 25.5308 18.4695 25.6798 18.6606 25.8489C18.9033 26.0635 18.8099 26.0686 20.6818 25.7397C21.3186 25.6278 22.6838 25.391 23.7157 25.2134C24.7474 25.0358 25.6722 24.8375 25.7706 24.7728C25.869 24.708 25.9702 24.5719 25.9956 24.4703C26.021 24.3688 25.9334 23.6565 25.8009 22.8875C25.5794 21.6017 25.4191 20.6631 24.7471 16.7175C24.6156 15.9456 24.4394 14.9171 24.3554 14.4319C24.2714 13.9467 24.0737 12.7918 23.9163 11.8656C23.7588 10.9393 23.5609 9.78445 23.4766 9.29925C23.3923 8.81406 23.1944 7.65922 23.0369 6.73294C22.8795 5.80666 22.6818 4.65182 22.5978 4.16663C22.5138 3.68143 22.334 2.63486 22.1982 1.8409C21.9698 0.505457 21.8259 0.0364634 21.6447 0.0364634C21.6053 0.0364634 21.5253 0.022188 21.4669 0.00470495C21.4083 -0.0126979 21.091 0.0197021 20.7616 0.0767223ZM0.62708 0.918313C0.43775 1.01984 0.277167 1.1962 0.167929 1.42283L0 1.77121L0.00175701 13.1941C0.00343391 24.157 0.00950238 24.6302 0.152039 24.9453C0.238838 25.1374 0.417388 25.3463 0.581964 25.4485C0.860729 25.6215 0.892111 25.6229 3.96515 25.5926C7.65832 25.5563 6.63885 25.5564 10.301 25.5921C13.8062 25.6262 13.7666 25.6326 14.1127 24.9753L14.2952 24.6288L14.2744 13.1004L14.2536 1.57192L14.0866 1.34552C13.9947 1.22098 13.799 1.03668 13.6516 0.936037L13.3837 0.752866L10.3051 0.785185C6.64611 0.82352 7.66136 0.822718 3.99262 0.789917C1.07106 0.763692 0.903849 0.770109 0.62708 0.918313ZM21.0821 2.32441C21.1725 2.85243 21.3692 4.00623 21.5195 4.8884C21.8488 6.82228 22.1517 8.58887 22.3582 9.78044C22.4422 10.2656 22.6399 11.4205 22.7975 12.3468C22.9551 13.273 23.1923 14.6624 23.3247 15.4343C23.4571 16.2062 23.6696 17.4513 23.7968 18.2012C24.0448 19.6623 24.4363 21.9433 24.6294 23.0522C24.6946 23.4267 24.7217 23.7595 24.6896 23.7917C24.634 23.8475 23.8941 23.9842 21.081 24.4581C20.4003 24.5728 19.7668 24.6853 19.6733 24.7082C19.4797 24.7555 19.5397 25.0093 19.0069 21.8902C18.8337 20.8757 18.6174 19.6126 18.5263 19.0833C18.4353 18.554 18.2167 17.2729 18.0407 16.2363C17.8647 15.1998 17.6308 13.8284 17.5208 13.1888C17.4109 12.5492 17.198 11.3042 17.0478 10.422C16.8975 9.53984 16.7031 8.40305 16.6158 7.8958C16.5284 7.38855 16.364 6.4322 16.2503 5.77057C16.1366 5.10894 15.9535 4.04801 15.8432 3.41293C15.733 2.77785 15.6716 2.23331 15.7068 2.20291C15.742 2.17244 16.4715 2.02768 17.328 1.88108C18.1844 1.73448 19.3163 1.53639 19.8433 1.44088C20.3703 1.34528 20.8277 1.28899 20.8598 1.31577C20.8918 1.34256 20.9918 1.79639 21.0821 2.32441ZM6.54789 13.1888V24.4164H3.87284H1.19779V13.1888V1.9612H3.87284H6.54789V13.1888ZM13.0559 13.1888V24.3763L10.4008 24.3974L7.74568 24.4186V13.1888V1.95903L10.4008 1.98021L13.0559 2.0013V13.1888ZM19.3954 2.39763C19.376 2.41712 19.1455 2.46869 18.8831 2.51215C16.8973 2.84112 16.8167 2.86727 16.6811 3.22551C16.5832 3.48407 16.7894 3.86789 17.0632 3.93694C17.2591 3.98626 19.0751 3.72963 19.7308 3.55985C20.2865 3.41598 20.4724 2.9364 20.1189 2.55851C19.9542 2.3824 19.5091 2.28351 19.3954 2.39763ZM2.23139 3.07145C1.99128 3.26673 1.98808 3.67269 2.22477 3.91047C2.39262 4.07897 2.46273 4.08643 3.88194 4.08643H5.36392L5.55669 3.86139C5.79273 3.58576 5.79936 3.40996 5.58384 3.13489L5.41838 2.92357H3.9158C2.5746 2.92357 2.39373 2.93945 2.23139 3.07145ZM8.70974 3.13489C8.48831 3.41758 8.50116 3.65697 8.7503 3.89203C8.95297 4.08322 8.98052 4.08643 10.425 4.08643C11.8304 4.08643 11.9011 4.07889 12.0688 3.91047C12.3055 3.67269 12.3023 3.26673 12.0622 3.07145C11.8998 2.93945 11.719 2.92357 10.3778 2.92357H8.87519L8.70974 3.13489ZM18.7784 4.68991C18.061 4.81598 17.3878 4.97582 17.2824 5.04511C17.0439 5.20205 16.9569 5.5238 17.087 5.76792C17.2793 6.12889 17.4478 6.13892 18.9371 5.87796C20.1388 5.66744 20.3462 5.60905 20.5021 5.43775C20.601 5.32917 20.6818 5.1561 20.6818 5.05321C20.6818 4.83002 20.4648 4.55727 20.2426 4.50113C20.1547 4.47891 19.4959 4.56384 18.7784 4.68991ZM2.26693 5.19652C1.98497 5.44008 1.9682 5.84973 2.23139 6.06377C2.39302 6.19522 2.5726 6.21166 3.84705 6.21166C4.7049 6.21166 5.34436 6.17749 5.43906 6.12657C5.82204 5.9207 5.78602 5.28466 5.38085 5.09932C5.25868 5.04334 4.66633 5.0087 3.83363 5.0087C2.5338 5.0087 2.47638 5.01559 2.26693 5.19652ZM8.90354 5.10557C8.50412 5.33566 8.4368 5.7101 8.74024 6.01477C8.93372 6.20917 8.95417 6.21166 10.3707 6.21166C11.1596 6.21166 11.8633 6.1892 11.9343 6.16185C12.1149 6.09224 12.3153 5.67337 12.2567 5.48796C12.2299 5.40311 12.1154 5.26052 12.0023 5.17118C11.8136 5.02209 11.6837 5.00894 10.4299 5.0111C9.55242 5.01271 9.00607 5.04647 8.90354 5.10557ZM18.87 6.84505C17.5793 7.08998 17.3855 7.19696 17.4239 7.64318C17.4402 7.8322 17.5152 7.9703 17.6606 8.07881L17.8734 8.23768L19.2975 7.98321C20.8465 7.70637 21.0278 7.62217 21.0278 7.17948C21.0278 7.04531 20.9624 6.86286 20.8824 6.77408C20.6887 6.55923 20.3055 6.57278 18.87 6.84505ZM2.23139 7.32191C1.9682 7.53595 1.98497 7.9456 2.26693 8.18916C2.47638 8.37009 2.5338 8.37698 3.83363 8.37698C4.66633 8.37698 5.25868 8.34234 5.38085 8.28636C5.78602 8.10102 5.82204 7.46498 5.43906 7.25911C5.34436 7.20819 4.7049 7.17402 3.84705 7.17402C2.5726 7.17402 2.39302 7.19046 2.23139 7.32191ZM8.74024 7.37091C8.43185 7.68055 8.50659 8.06349 8.91823 8.28372C9.03106 8.34402 9.56999 8.37698 10.4446 8.37698C11.6815 8.37698 11.8142 8.36311 12.0023 8.2145C12.1154 8.12516 12.2299 7.98257 12.2567 7.89773C12.3153 7.71231 12.1149 7.29344 11.9343 7.22383C11.8633 7.19648 11.1596 7.17402 10.3707 7.17402C8.95417 7.17402 8.93372 7.17651 8.74024 7.37091ZM3.19409 19.1711C1.87453 19.7451 1.77384 21.577 3.02145 22.3113C3.71817 22.7214 4.75385 22.5325 5.21572 21.911C5.53824 21.477 5.60643 21.288 5.61043 20.817C5.62113 19.5614 4.32552 18.6789 3.19409 19.1711ZM9.69759 19.1945C9.02867 19.4996 8.55019 20.3579 8.67221 21.0337C8.83814 21.9527 9.50523 22.5195 10.4207 22.5195C11.4051 22.5195 12.1398 21.7808 12.1358 20.7955C12.1305 19.5079 10.8515 18.6681 9.69759 19.1945ZM20.554 19.3841C20.03 19.7384 19.6947 20.3687 19.7445 20.9056C19.8293 21.8208 20.4691 22.4945 21.3117 22.5557C21.8844 22.5973 22.2799 22.4761 22.6576 22.1431C23.3781 21.5077 23.432 20.354 22.7737 19.6574C22.4194 19.2825 22.0258 19.1234 21.4526 19.1234C21.0059 19.1234 20.8895 19.1572 20.554 19.3841ZM4.3062 20.4575C4.52356 20.735 4.51517 20.9316 4.2757 21.1721C3.90223 21.5472 3.3538 21.3434 3.3538 20.8294C3.3538 20.4578 3.54457 20.2462 3.87939 20.2462C4.06664 20.2462 4.1877 20.3061 4.3062 20.4575ZM10.7937 20.3789C10.999 20.5655 10.9839 21.0006 10.765 21.2054C10.5289 21.4265 10.2558 21.4111 10.0089 21.1632C9.84316 20.9967 9.81354 20.9085 9.85394 20.702C9.88141 20.5616 9.96414 20.4016 10.0378 20.3464C10.2268 20.205 10.6211 20.222 10.7937 20.3789ZM21.8288 20.4124C22.2593 20.7525 22.0142 21.4018 21.4612 21.386C20.9574 21.3716 20.7524 20.8095 21.1174 20.4431C21.3568 20.2026 21.5526 20.1941 21.8288 20.4124Z" fill="white"/>
                                </svg> 