<svg xmlns="http://www.w3.org/2000/svg" width="20" height="30" viewBox="0 0 20 30" fill="none">
                            <path fill-rule="evenodd" clip-rule="evenodd" d="M9.2382 0.0883919C8.66139 0.192775 8.47225 0.250386 8.04844 0.450744C6.48671 1.18924 5.50095 2.5457 5.24287 4.31134C5.11084 5.21459 5.30641 6.04834 5.95621 7.35317C6.26985 7.98295 6.4388 8.27087 7.09805 9.2992C7.28905 9.59711 7.42874 9.86828 7.40854 9.90178C7.38829 9.93522 7.28661 9.98173 7.18262 10.005C6.86627 10.076 6.04637 10.4161 5.42307 10.7349C3.32286 11.809 1.48691 13.9104 0.639287 16.2105C0.379212 16.9163 0.120939 18.1034 0.0365628 18.9811C-0.124537 20.6564 0.254513 22.6911 1.01994 24.2605C1.85039 25.9632 2.98445 27.2791 4.51133 28.3117C7.46038 30.3061 11.2761 30.5523 14.4067 28.9501C15.2404 28.5236 15.7682 28.1698 16.4744 27.5646C18.0229 26.2374 19.2384 24.243 19.7091 22.257C20.3656 19.4869 19.9023 16.6468 18.4078 14.2811C17.4429 12.7536 16.0327 11.46 14.4796 10.6777C13.8985 10.3851 13.1559 10.086 12.8208 10.0097C12.722 9.98725 12.6275 9.93246 12.6108 9.88805C12.5941 9.84358 12.8267 9.4271 13.1276 8.96247C13.6767 8.11466 14.4296 6.64922 14.5999 6.09696C14.9511 4.95833 14.8506 3.8925 14.281 2.71531C13.5991 1.30584 12.3009 0.345901 10.7174 0.0799833C10.071 -0.0285383 9.87873 -0.0274871 9.2382 0.0883919ZM10.7303 0.845876C11.1542 0.932785 11.3468 1.00235 11.875 1.25927C12.4535 1.54076 13.3128 2.41852 13.5884 3.00948C14.3887 4.72592 14.1988 5.80371 12.6567 8.29761C12.1876 9.05621 10.7086 11.1041 10.2371 11.6479L10.0093 11.9106L9.77944 11.6479C8.98558 10.7403 7.56315 8.70312 6.91271 7.54216C5.98823 5.89207 5.8016 5.06528 6.08991 3.89631C6.25693 3.2191 6.64967 2.52139 7.14403 2.02391C7.57138 1.59377 7.65312 1.52965 8.0806 1.28968C8.87747 0.842262 9.88754 0.673042 10.7303 0.845876ZM9.63178 2.42824C8.5819 2.6014 7.76894 3.52055 7.70585 4.60583C7.6463 5.62904 8.16394 6.49938 9.08938 6.93215C10.5689 7.62401 12.3251 6.45786 12.3251 4.78353C12.3251 3.86313 11.8309 3.0575 11.0037 2.62958C10.774 2.51068 10.6202 2.46982 10.1064 2.39093C10.0357 2.38009 9.82208 2.39691 9.63178 2.42824ZM10.7458 3.36506C11.2924 3.69233 11.5534 4.15933 11.5534 4.81046C11.5534 5.151 11.5198 5.27325 11.344 5.57392C10.8193 6.47067 9.74252 6.63247 8.93252 5.93628C8.63637 5.68172 8.45842 5.23535 8.45842 4.74694C8.45842 4.28382 8.56235 4.01731 8.87561 3.67723C9.38155 3.12792 10.1385 3.00159 10.7458 3.36506ZM8.12471 10.7725C8.30986 10.9501 8.31353 11.0981 8.13687 11.2599C7.72573 11.6364 6.5934 13.2478 6.30632 13.8649C6.24329 14.0004 6.16091 14.1112 6.12329 14.1111C5.92842 14.1107 4.67976 13.3322 4.19595 12.9094L3.94488 12.69L4.09948 12.5411C4.6649 11.9963 6.05261 11.1941 6.98731 10.8716C7.80779 10.5886 7.92265 10.5786 8.12471 10.7725ZM13.074 10.8876C14.0801 11.2555 15.4363 12.0463 15.889 12.529L16.0699 12.7218L15.509 13.1454C14.9331 13.5804 14.206 14.023 13.9697 14.0824C13.8616 14.1096 13.8014 14.0503 13.651 13.7687C13.3088 13.1281 12.6649 12.1779 12.2037 11.6327C11.9521 11.3353 11.7463 11.06 11.7463 11.021C11.7463 10.9819 11.797 10.8768 11.8589 10.7873C11.9582 10.6438 12.0055 10.6289 12.2608 10.6604C12.42 10.68 12.7859 10.7822 13.074 10.8876ZM9.62895 12.6168C9.79301 12.7884 9.96446 12.9288 10.0099 12.9288C10.1019 12.9288 10.5498 12.4774 10.9514 11.9799L11.2138 11.655L11.483 11.947C12.0181 12.5275 13.0969 14.1679 13.0969 14.4011C13.0969 14.45 13.0462 14.5049 12.9843 14.523C11.62 14.9221 11.1336 14.9985 9.97777 14.9951C8.90937 14.9921 8.33032 14.9097 7.38925 14.6265C7.04692 14.5235 6.923 14.4565 6.923 14.3745C6.923 14.1445 7.99564 12.5328 8.56241 11.9113L8.80139 11.6493L9.06603 11.977C9.21157 12.1573 9.46489 12.4451 9.62895 12.6168ZM3.74075 13.5301C4.12791 13.8597 4.97572 14.4273 5.43992 14.6676C5.83138 14.8702 5.83106 14.8672 5.5396 15.6866C5.23785 16.5348 5.04871 17.3966 4.92665 18.4797C4.88594 18.841 4.83925 19.1588 4.82292 19.1859C4.76999 19.2735 0.82759 19.2457 0.798843 19.1575C0.76971 19.0682 0.900454 18.118 1.00927 17.6285C1.23217 16.6254 1.7181 15.495 2.32205 14.5748C2.72515 13.9605 3.28768 13.2573 3.37598 13.2573C3.40042 13.2573 3.56454 13.3801 3.74075 13.5301ZM16.9868 13.6022C17.6466 14.3646 18.376 15.655 18.7189 16.6663C18.9905 17.4675 19.2047 18.5038 19.2059 19.0217L19.2064 19.2352H17.2166C16.1221 19.2352 15.2113 19.2097 15.1926 19.1787C15.1738 19.1477 15.1129 18.7448 15.0572 18.2833C14.9488 17.3849 14.6376 16.0652 14.3638 15.3426L14.1957 14.8989L14.3376 14.8111C14.4157 14.7629 14.6966 14.596 14.9619 14.4404C15.4893 14.131 15.9485 13.8088 16.3401 13.4737C16.479 13.3546 16.6143 13.2573 16.6405 13.2573C16.6668 13.2573 16.8226 13.4125 16.9868 13.6022ZM7.91364 15.5586C8.96867 15.7842 9.91899 15.8524 10.7656 15.7633C11.6142 15.6739 12.5114 15.4955 13.0551 15.308C13.4903 15.1579 13.5002 15.1653 13.7263 15.8089C14.0393 16.6992 14.3831 18.3786 14.3831 19.0168V19.2352H10.0099H5.63677V18.984C5.63677 18.0573 6.27873 15.3911 6.54182 15.2251C6.57726 15.2027 6.76878 15.2404 6.9675 15.3089C7.16616 15.3775 7.5919 15.4898 7.91364 15.5586ZM4.82768 20.1056C4.84022 20.1508 4.88427 20.5424 4.92549 20.976C5.02833 22.0565 5.18962 22.8559 5.50223 23.8335C5.57729 24.0684 5.66719 24.3118 5.70205 24.3746C5.8353 24.6146 5.77035 24.7171 5.33721 24.9503C4.80259 25.2381 4.16546 25.6674 3.71368 26.0441L3.36627 26.3339L3.20871 26.184C2.91731 25.9068 2.18314 24.8564 1.88731 24.2934C1.53733 23.6273 1.24413 22.8857 1.07461 22.2378C0.91293 21.6198 0.71691 20.2697 0.768809 20.1315C0.805273 20.0344 1.01268 20.0235 2.80709 20.0235C4.35017 20.0235 4.80999 20.0421 4.82768 20.1056ZM14.3831 20.3733C14.3831 20.7528 14.2249 21.9976 14.1228 22.4212C13.9317 23.2143 13.6191 24.1717 13.5144 24.2844C13.4444 24.36 13.362 24.3528 12.9907 24.2388C11.7841 23.8682 11.3391 23.8031 10.0099 23.8027C8.73232 23.8022 8.35173 23.853 7.24963 24.1713C6.4768 24.3944 6.49822 24.4026 6.28361 23.804C5.94759 22.8668 5.63677 21.2503 5.63677 20.4397V20.0235H10.0099H14.3831V20.3733ZM19.2223 20.4176C19.1904 21.1242 18.9986 22.0949 18.7205 22.9568C18.4358 23.8396 17.6091 25.2747 16.975 25.987L16.6661 26.334L16.0436 25.8556C15.7012 25.5926 15.1595 25.2295 14.8398 25.0488C14.4993 24.8563 14.2577 24.6779 14.2565 24.6179C14.2554 24.5615 14.3266 24.3273 14.4147 24.0976C14.6844 23.3948 14.9609 22.142 15.0673 21.1403C15.123 20.6163 15.1792 20.1503 15.1922 20.1047C15.2107 20.0395 15.6496 20.0253 17.2272 20.039L19.2386 20.0563L19.2223 20.4176ZM12.1 24.7858C12.4891 24.8841 12.8875 25.0066 12.9852 25.0581L13.163 25.1517L12.9942 25.4616C12.4208 26.5145 11.6234 27.5744 10.8342 28.3327C10.0975 29.0407 10.0533 29.0667 9.83307 28.9223C9.51505 28.7138 8.36537 27.4917 7.964 26.9355C7.74817 26.6364 7.40867 26.1226 7.20957 25.7939C6.90827 25.2963 6.86203 25.1817 6.93354 25.1095C7.03927 25.0029 8.15584 24.6983 8.72371 24.6212C8.95362 24.59 9.64818 24.574 10.2672 24.5857C11.2305 24.604 11.4945 24.6328 12.1 24.7858ZM6.36722 25.8354C6.82158 26.7236 7.50752 27.6676 8.30871 28.5073C8.57232 28.7836 8.78802 29.0436 8.78802 29.085C8.78802 29.1689 8.57032 29.1433 7.88766 28.9791C6.94222 28.7516 5.93415 28.3249 5.11019 27.8033C4.7087 27.5492 3.96469 26.9695 3.96469 26.9108C3.96469 26.7119 5.74829 25.4915 6.0548 25.4807C6.14734 25.4774 6.235 25.577 6.36722 25.8354ZM14.337 25.6486C14.7515 25.8622 15.7234 26.5359 15.9107 26.7395C15.9869 26.8224 16.0289 26.9213 16.004 26.9594C15.9102 27.1026 15.0803 27.7073 14.5947 27.9863C13.7986 28.4435 12.9301 28.7874 12.0036 29.012C11.463 29.143 11.2318 29.1648 11.2318 29.0848C11.2318 29.0432 11.4996 28.7214 11.8267 28.3699C12.4844 27.6633 13.1399 26.7624 13.5611 25.9868C13.7125 25.7079 13.8735 25.4788 13.9189 25.4777C13.9644 25.4767 14.1525 25.5536 14.337 25.6486Z" fill="white"/>
                            </svg> 