<svg width="170" height="140" viewBox="0 0 170 140" fill="none" xmlns="http://www.w3.org/2000/svg">
<ellipse cx="40" cy="19.9264" rx="22" ry="19.8449" fill="white"/>
<ellipse cx="40.5" cy="19.4756" rx="8.5" ry="7.66735" fill="#1784A9"/>
<ellipse cx="90" cy="19.9264" rx="22" ry="19.8449" fill="white"/>
<ellipse cx="90.5" cy="19.4756" rx="8.5" ry="7.66735" fill="#1784A9"/>
<rect x="58" y="14.5143" width="14" height="12.6286" fill="white"/>
<rect x="33" y="35.2612" width="14" height="12.6286" fill="white"/>
<rect x="85" y="35.2612" width="14" height="12.6286" fill="white"/>
<ellipse cx="40" cy="65.0286" rx="22" ry="19.8449" fill="white"/>
<ellipse cx="40.5" cy="64.5775" rx="8.5" ry="7.66735" fill="#1784A9"/>
<ellipse cx="90" cy="65.0286" rx="22" ry="19.8449" fill="white"/>
<ellipse cx="90.5" cy="64.5775" rx="8.5" ry="7.66735" fill="#1784A9"/>
<rect x="58" y="59.6163" width="14" height="12.6286" fill="white"/>
<path d="M22.8871 107.968C22.745 106.536 22.1354 105.423 21.0582 104.63C19.9811 103.837 18.5192 103.44 16.6726 103.44C15.4179 103.44 14.3584 103.618 13.4943 103.973C12.6302 104.316 11.9673 104.796 11.5057 105.411C11.0559 106.027 10.831 106.725 10.831 107.506C10.8073 108.157 10.9434 108.726 11.2393 109.211C11.5471 109.696 11.9673 110.116 12.5 110.472C13.0327 110.815 13.6482 111.117 14.3466 111.377C15.045 111.626 15.7907 111.839 16.5838 112.016L19.8509 112.798C21.437 113.153 22.893 113.626 24.2188 114.218C25.5445 114.81 26.6927 115.538 27.6634 116.402C28.634 117.266 29.3857 118.284 29.9183 119.456C30.4628 120.628 30.741 121.971 30.7528 123.486C30.741 125.712 30.1728 127.641 29.0483 129.275C27.9356 130.896 26.3258 132.157 24.2188 133.057C22.1236 133.945 19.5964 134.388 16.6371 134.388C13.7015 134.388 11.1446 133.939 8.96662 133.039C6.80043 132.139 5.10772 130.808 3.88849 129.044C2.68111 127.268 2.04782 125.073 1.98864 122.457H9.42827C9.51113 123.676 9.86032 124.694 10.4759 125.511C11.1032 126.316 11.9377 126.925 12.9794 127.339C14.0329 127.742 15.2225 127.943 16.5483 127.943C17.8504 127.943 18.9808 127.754 19.9396 127.375C20.9103 126.996 21.6619 126.469 22.1946 125.795C22.7273 125.12 22.9936 124.345 22.9936 123.469C22.9936 122.652 22.7509 121.965 22.2656 121.409C21.7921 120.853 21.0938 120.379 20.1705 119.989C19.259 119.598 18.1404 119.243 16.8146 118.923L12.8551 117.929C9.7893 117.183 7.36861 116.017 5.59304 114.431C3.81747 112.845 2.93561 110.708 2.94744 108.021C2.93561 105.82 3.52154 103.896 4.70526 102.251C5.90081 100.605 7.54025 99.321 9.62358 98.3977C11.7069 97.4744 14.0743 97.0127 16.7259 97.0127C19.4247 97.0127 21.7803 97.4744 23.7926 98.3977C25.8168 99.321 27.3911 100.605 28.5156 102.251C29.6402 103.896 30.2202 105.802 30.2557 107.968H22.8871ZM41.3619 133.874H33.1232L45.6765 97.5099H55.5842L68.1197 133.874H59.881L50.7724 105.82H50.4883L41.3619 133.874ZM40.8469 119.58H60.3072V125.582H40.8469V119.58ZM78.7642 133.874H70.5256L83.0788 97.5099H92.9865L105.522 133.874H97.2834L88.1747 105.82H87.8906L78.7642 133.874ZM78.2493 119.58H97.7095V125.582H78.2493V119.58ZM109.899 133.874V97.5099H124.245C127.003 97.5099 129.353 98.0366 131.294 99.0902C133.236 100.132 134.715 101.582 135.733 103.44C136.763 105.287 137.278 107.418 137.278 109.832C137.278 112.247 136.757 114.378 135.716 116.224C134.674 118.071 133.165 119.509 131.188 120.539C129.223 121.569 126.844 122.084 124.05 122.084H114.906V115.923H122.807C124.287 115.923 125.506 115.668 126.465 115.159C127.435 114.638 128.158 113.922 128.631 113.011C129.116 112.087 129.359 111.028 129.359 109.832C129.359 108.625 129.116 107.571 128.631 106.672C128.158 105.76 127.435 105.056 126.465 104.559C125.494 104.05 124.263 103.795 122.772 103.795H117.587V133.874H109.899ZM142.272 133.874V97.5099H166.775V103.849H149.96V112.513H165.514V118.852H149.96V127.535H166.846V133.874H142.272Z" fill="white"/>
</svg>
