<svg width="67" height="88" viewBox="0 0 67 88" fill="none" xmlns="http://www.w3.org/2000/svg">
<path id="image 41 (Traced)" fill-rule="evenodd" clip-rule="evenodd" d="M53.5011 0.197708C52.6523 0.344645 50.0595 0.795996 47.7394 1.20064C45.4193 1.60529 42.3729 2.13393 40.9695 2.37531C37.8911 2.90498 37.5125 3.03828 37.2131 3.69815C36.974 4.22514 37.1057 5.15512 38.898 15.5936C39.2393 17.5828 39.8914 21.3957 40.3468 24.0668C40.8024 26.7379 41.3518 29.9463 41.5681 31.1966C41.7844 32.4469 42.2934 35.4229 42.6992 37.8098C43.105 40.1968 43.6143 43.1727 43.831 44.423C44.0477 45.6733 44.5569 48.6493 44.9627 51.0362C45.3685 53.4232 45.878 56.3991 46.0945 57.6494C46.3112 58.8997 46.7239 61.3177 47.012 63.0226C47.4793 65.7909 47.5944 66.1749 48.087 66.6105C48.7123 67.1637 48.4716 67.1768 53.2953 66.3292C54.9364 66.0409 58.4545 65.4307 61.1135 64.9729C63.7723 64.5154 66.1553 64.0043 66.4088 63.8375C66.6624 63.6705 66.9233 63.3198 66.9887 63.0582C67.0541 62.7966 66.8284 60.961 66.487 58.9793C65.9162 55.6659 65.503 53.2473 63.7714 43.0797C63.4325 41.0906 62.9784 38.4402 62.7619 37.1898C62.5454 35.9395 62.0362 32.9636 61.6304 30.5767C61.2246 28.1897 60.7147 25.2138 60.4974 23.9635C60.2801 22.7132 59.7702 19.7372 59.3644 17.3503C58.9586 14.9633 58.4493 11.9874 58.2328 10.7371C58.0164 9.48676 57.553 6.78982 57.2029 4.74387C56.6144 1.30252 56.2436 0.0939633 55.7767 0.0939633C55.6753 0.0939633 55.4691 0.0571767 55.3185 0.0121243C55.1676 -0.0327214 54.3499 0.0507707 53.5011 0.197708ZM1.61594 2.36642C1.12805 2.62806 0.714239 3.08251 0.432741 3.66654L0 4.56427L0.00452767 34.0002C0.00884891 62.2508 0.0244869 63.4701 0.391792 64.2822C0.615468 64.7772 1.07558 65.3156 1.49968 65.5788C2.21803 66.0246 2.2989 66.0281 10.2179 65.9502C19.7349 65.8566 17.1078 65.8568 26.5448 65.9488C35.5776 66.0368 35.4755 66.0533 36.3674 64.3593L36.8376 63.4666L36.7841 33.7586L36.7306 4.05072L36.3001 3.46731C36.0632 3.14637 35.5589 2.67146 35.1792 2.4121L34.4887 1.94008L26.5555 2.02336C17.1265 2.12215 19.7427 2.12008 10.2887 2.03556C2.76004 1.96798 2.32915 1.98451 1.61594 2.36642ZM54.3271 5.98983C54.5598 7.3505 55.0668 10.3237 55.4541 12.597C56.3027 17.5805 57.0832 22.1328 57.6153 25.2034C57.8318 26.4537 58.3413 29.4297 58.7475 31.8166C59.1535 34.2036 59.7648 37.784 60.106 39.7731C60.4472 41.7623 60.9947 44.9707 61.3225 46.903C61.9617 50.6682 62.9704 56.5463 63.4681 59.4038C63.636 60.3687 63.7058 61.2263 63.6231 61.3094C63.4799 61.4532 61.5732 61.8054 54.3242 63.0268C52.57 63.3223 50.9376 63.6122 50.6966 63.6711C50.1976 63.7931 50.3523 64.4472 48.9794 56.4094C48.5329 53.7952 47.9757 50.5402 47.7409 49.1763C47.5063 47.8123 46.9431 44.5109 46.4896 41.8397C46.036 39.1686 45.4331 35.6347 45.1498 33.9866C44.8664 32.3385 44.3178 29.13 43.9308 26.8567C43.5435 24.5834 43.0427 21.654 42.8175 20.3469C42.5924 19.0397 42.1687 16.5753 41.8757 14.8703C41.5829 13.1654 41.1109 10.4314 40.8267 8.79486C40.5427 7.1583 40.3845 5.75506 40.4752 5.67674C40.566 5.59821 42.4459 5.22518 44.6528 4.8474C46.8597 4.46962 49.7766 3.95917 51.1347 3.71303C52.4928 3.46669 53.6715 3.32162 53.754 3.39064C53.8365 3.45967 54.0943 4.62917 54.3271 5.98983ZM16.8734 33.9866V62.9193H9.98001H3.0866V33.9866V5.05386H9.98001H16.8734V33.9866ZM33.644 33.9866V62.816L26.802 62.8703L19.96 62.9249V33.9866V5.04828L26.802 5.10284L33.644 5.15719V33.9866ZM49.9805 6.17852C49.9305 6.22873 49.3364 6.36162 48.6603 6.47363C43.5431 7.32136 43.3355 7.38873 42.9859 8.31189C42.7336 8.97817 43.2649 9.96726 43.9705 10.1452C44.4752 10.2723 49.1549 9.61097 50.8448 9.17347C52.2767 8.80271 52.7558 7.56687 51.8448 6.59308C51.4205 6.13925 50.2735 5.88443 49.9805 6.17852ZM5.75013 7.91489C5.13137 8.41811 5.12314 9.46424 5.73305 10.077C6.16559 10.5112 6.34626 10.5304 10.0035 10.5304H13.8224L14.3192 9.95052C14.9274 9.24022 14.9445 8.78721 14.3891 8.07836L13.9628 7.53381H10.0907C6.63455 7.53381 6.16847 7.57473 5.75013 7.91489ZM22.4443 8.07836C21.8737 8.80685 21.9068 9.42373 22.5489 10.0295C23.0711 10.5221 23.1421 10.5304 26.8643 10.5304C30.4862 10.5304 30.6683 10.511 31.1004 10.077C31.7103 9.46424 31.7021 8.41811 31.0833 7.91489C30.665 7.57473 30.1989 7.53381 26.7427 7.53381H22.8707L22.4443 8.07836ZM48.3905 12.0855C46.5418 12.4104 44.807 12.8223 44.5355 13.0008C43.9209 13.4053 43.6966 14.2344 44.0318 14.8635C44.5275 15.7937 44.9617 15.8195 48.7994 15.147C51.8963 14.6046 52.4307 14.4541 52.8323 14.0127C53.0871 13.7329 53.2953 13.2869 53.2953 13.0217C53.2953 12.4466 52.7362 11.7437 52.1636 11.5991C51.9372 11.5418 50.2394 11.7607 48.3905 12.0855ZM5.8417 13.391C5.11512 14.0187 5.0719 15.0743 5.75013 15.6259C6.16662 15.9646 6.6294 16.007 9.91355 16.007C12.1242 16.007 13.772 15.9189 14.0161 15.7877C15.0029 15.2572 14.9101 13.6182 13.866 13.1406C13.5512 12.9963 12.0248 12.907 9.87898 12.907C6.5294 12.907 6.38145 12.9248 5.8417 13.391ZM22.9437 13.1567C21.9145 13.7496 21.741 14.7145 22.5229 15.4996C23.0215 16.0006 23.0742 16.007 26.7244 16.007C28.7575 16.007 30.5707 15.9491 30.7539 15.8786C31.2191 15.6992 31.7356 14.6198 31.5846 14.142C31.5156 13.9234 31.2206 13.5559 30.929 13.3257C30.4427 12.9415 30.1079 12.9076 26.8771 12.9132C24.6159 12.9174 23.2079 13.0044 22.9437 13.1567ZM48.6265 17.6392C45.3004 18.2703 44.801 18.546 44.9 19.6959C44.9419 20.183 45.1354 20.5389 45.5099 20.8185L46.0583 21.2279L49.7282 20.5721C53.7198 19.8587 54.1869 19.6417 54.1869 18.501C54.1869 18.1552 54.0184 17.6851 53.8122 17.4563C53.3132 16.9026 52.3257 16.9376 48.6265 17.6392ZM5.75013 18.868C5.0719 19.4196 5.11512 20.4752 5.8417 21.1028C6.38145 21.5691 6.5294 21.5868 9.87898 21.5868C12.0248 21.5868 13.5512 21.4976 13.866 21.3533C14.9101 20.8757 15.0029 19.2367 14.0161 18.7062C13.772 18.5749 12.1242 18.4869 9.91355 18.4869C6.6294 18.4869 6.16662 18.5293 5.75013 18.868ZM22.5229 18.9943C21.7282 19.7922 21.9208 20.779 22.9816 21.3465C23.2724 21.5019 24.6611 21.5868 26.915 21.5868C30.1024 21.5868 30.4442 21.5511 30.929 21.1681C31.2206 20.9379 31.5156 20.5705 31.5846 20.3518C31.7356 19.874 31.2191 18.7946 30.7539 18.6152C30.5707 18.5448 28.7575 18.4869 26.7244 18.4869C23.0742 18.4869 23.0215 18.4933 22.5229 18.9943ZM8.23094 49.4023C4.83053 50.8816 4.57105 55.6022 7.78605 57.4946C9.58143 58.5513 12.2503 58.0644 13.4405 56.463C14.2716 55.3445 14.4474 54.8574 14.4576 53.6439C14.4852 50.4082 11.1465 48.1341 8.23094 49.4023ZM24.9899 49.4627C23.2662 50.249 22.0332 52.4608 22.3476 54.2023C22.7752 56.5704 24.4942 58.0309 26.8534 58.0309C29.39 58.0309 31.2833 56.1276 31.273 53.5883C31.2595 50.2703 27.9636 48.1062 24.9899 49.4627ZM52.9661 49.9512C51.6158 50.8643 50.7517 52.4886 50.8799 53.872C51.0985 56.2305 52.7473 57.9666 54.9187 58.1243C56.3945 58.2316 57.4135 57.9191 58.3868 57.0611C60.2435 55.4237 60.3824 52.4508 58.686 50.6555C57.7729 49.6896 56.7587 49.2796 55.2816 49.2796C54.1306 49.2796 53.8305 49.3666 52.9661 49.9512ZM11.0967 52.7174C11.6569 53.4325 11.6353 53.9392 11.0181 54.5588C10.0557 55.5256 8.64248 55.0002 8.64248 53.6757C8.64248 52.7183 9.13408 52.1729 9.99688 52.1729C10.4794 52.1729 10.7914 52.3272 11.0967 52.7174ZM27.8146 52.5149C28.3436 52.9958 28.3048 54.1169 27.7405 54.6448C27.132 55.2143 26.4285 55.1748 25.7923 54.5358C25.3651 54.1068 25.2887 53.8797 25.3928 53.3475C25.4636 52.9857 25.6768 52.5734 25.8667 52.4312C26.3536 52.0668 27.3697 52.1105 27.8146 52.5149ZM56.2512 52.6013C57.3606 53.4775 56.7288 55.1507 55.3039 55.11C54.0056 55.073 53.4774 53.6245 54.4178 52.6802C55.0347 52.0604 55.5393 52.0387 56.2512 52.6013Z" fill="black"/>
</svg>
