<svg width="67" height="88" viewBox="0 0 84 70" fill="none" xmlns="http://www.w3.org/2000/svg">
<mask id="path-1-inside-1_350_290" fill="white">
<path fill-rule="evenodd" clip-rule="evenodd" d="M42.1032 0.852405C38.6489 2.19951 35.9993 3.22182 33.2285 4.27665C31.8096 4.81678 29.7147 5.62208 28.5732 6.06653C27.4317 6.51077 26.4012 6.87433 26.2833 6.87433C25.9147 6.87433 25.4279 7.56622 25.11 8.54205C24.942 9.058 24.2774 11.1687 23.6333 13.2325C22.5572 16.6803 20.4176 23.5088 19.6628 25.9034C19.4901 26.4517 19.1939 26.9839 19.0048 27.0862C18.8158 27.1884 14.5784 28.6518 9.58859 30.3383C4.59854 32.025 0.39998 33.4976 0.257985 33.611C0.116197 33.7246 0 33.9783 0 34.1749C0 34.3717 3.77649 38.2766 8.39216 42.8529C13.0078 47.4289 21.9455 56.3091 28.2535 62.5866C37.1185 71.4084 39.8377 74 40.2286 74C40.5066 74 41.2512 73.8205 41.883 73.6012C43.1281 73.1689 47.3843 71.7751 54.6929 69.4056C57.2469 68.5776 59.4512 67.7934 59.5911 67.6629C59.731 67.5324 60.7363 64.8007 61.825 61.5924C62.9139 58.3843 64.125 54.8212 64.5163 53.6747C64.9076 52.5281 65.5285 50.6988 65.8958 49.6096L66.5639 47.6292L70.5866 45.6069C72.7991 44.4947 76.7223 42.5354 79.3047 41.2531C82.7573 39.5387 84 38.8251 84 38.5572C84 38.3481 76.8534 31.1822 67.24 21.7516C44.6581 -0.400052 45.0678 -0.00584422 44.6436 0.00124359C44.4383 0.00457902 43.2951 0.387737 42.1032 0.852405ZM50.4103 6.99378C52.5388 9.07468 54.2801 10.826 54.2801 10.8858C54.2801 10.989 52.0344 12.4991 43.6722 18.0191L39.978 20.4575L38.3963 18.8692C37.2533 17.7214 36.7177 17.3182 36.4661 17.4158C35.8296 17.6624 36.1039 18.2327 37.5627 19.6949C38.3572 20.4913 39.0074 21.2582 39.0074 21.3991C39.0074 21.6232 38.5851 22.6576 37.1499 25.9489C36.9501 26.4075 36.0211 28.5417 35.086 30.6914C34.1508 32.8411 33.347 34.6002 33.2999 34.6002C33.0785 34.6002 21.8771 23.6478 21.8771 23.4312C21.8771 23.2142 23.379 18.248 24.5199 14.6918C24.7408 14.0038 25.2208 12.4795 25.5866 11.3042C25.9525 10.1289 26.3558 9.16744 26.4829 9.16744C26.6098 9.16744 28.4954 10.9586 30.673 13.1475C34.6466 17.1418 35.3056 17.6119 35.4556 16.5588C35.5002 16.2465 34.467 15.1174 31.4827 12.2171C29.2646 10.0611 27.4496 8.17578 27.4496 8.02714C27.4496 7.8785 27.6121 7.70819 27.8108 7.64878C28.2302 7.52349 29.7013 6.96876 36.2211 4.47803C38.8319 3.48073 41.704 2.39171 42.6035 2.05796C43.5029 1.72421 44.2837 1.40588 44.3386 1.35064C44.4614 1.2266 45.4721 2.16594 50.4103 6.99378ZM59.2491 15.682C61.3964 17.7743 63.1538 19.5461 63.1542 19.6188C63.1544 19.6916 62.9253 19.903 62.645 20.0885C62.1689 20.4037 62.0909 20.3987 61.4649 20.0143C59.667 18.9098 57.1404 19.441 56.2109 21.1187C56.0187 21.4656 55.8827 21.4569 53.7507 20.9615C52.5095 20.6732 50.983 20.3299 50.3587 20.1986C49.7344 20.0672 48.945 19.8875 48.6044 19.7991C48.2639 19.7108 47.428 19.5238 46.7469 19.3835C45.0702 19.038 44.9478 18.9945 45.0271 18.7727C45.0847 18.6113 55.0732 11.8965 55.2767 11.8823C55.3143 11.8796 57.1018 13.5896 59.2491 15.682ZM49.4428 21.2538C52.5258 21.9392 55.2004 22.559 55.3863 22.6311C55.5725 22.7033 55.7248 22.9751 55.7248 23.2351C55.7248 23.495 55.7801 23.9872 55.8478 24.3287C55.9667 24.9295 55.8666 25.0245 52.7322 27.2841C50.9511 28.568 49.4205 29.5901 49.3307 29.5557C49.1097 29.4705 41.0713 21.5202 41.0713 21.3868C41.0713 21.1212 42.8796 20.0251 43.3316 20.017C43.6098 20.0118 46.36 20.5684 49.4428 21.2538ZM60.8362 21.096C61.2938 21.4796 61.7101 22.4421 61.7101 23.1164C61.7101 24.2186 59.8142 28.5818 59.3302 28.5934C58.8283 28.6053 56.9631 24.2426 56.9631 23.0564C56.9631 22.1965 57.7243 21.0149 58.4101 20.81C59.0551 20.6174 60.4633 20.7833 60.8362 21.096ZM68.5168 24.7662C70.7893 26.9822 72.6487 28.8615 72.6487 28.9426C72.6487 29.0237 71.56 29.9312 70.2294 30.9591C68.8988 31.987 65.9239 34.3058 63.6181 36.1115C61.3126 37.9172 59.3583 39.3948 59.2753 39.3948C59.1921 39.3948 57.9195 38.1753 56.4472 36.6848C54.9748 35.1943 53.6161 33.9748 53.4279 33.9748C53.2399 33.9748 53.0261 34.1324 52.9528 34.325C52.8147 34.6883 52.8496 34.7298 56.6626 38.7267C57.6793 39.7924 58.5383 40.7866 58.5717 40.9362C58.645 41.2641 57.0438 46.693 56.8015 46.9377C56.7076 47.0326 53.8962 46.4093 50.5538 45.5529C43.2672 43.6859 43.5479 43.7661 43.5479 43.552C43.5479 43.4574 44.0697 42.2723 44.7074 40.9183C45.3451 39.5645 46.2159 37.7063 46.6423 36.789C48.7815 32.1878 49.1369 31.4732 49.2869 31.4732C49.3763 31.4732 49.8122 31.8484 50.2555 32.307C51.0988 33.1793 51.73 33.3685 51.9411 32.8128C52.0222 32.5993 51.7529 32.1626 51.17 31.5628C50.6347 31.0118 50.3538 30.5714 50.4714 30.4675C50.9614 30.036 55.9925 26.4331 56.2383 26.3379C56.4195 26.2676 56.811 26.8082 57.3827 27.9182C58.3856 29.8653 58.9414 30.6393 59.3366 30.6393C59.7543 30.6393 60.3308 29.8015 61.4595 27.5543C62.7113 25.0616 63.044 23.8748 62.8677 22.5327C62.7387 21.5494 62.7579 21.4975 63.4086 21.0768C63.7799 20.8369 64.1512 20.6622 64.2342 20.6889C64.317 20.7156 66.244 22.5503 68.5168 24.7662ZM44.2942 26.4942L48.2437 30.4794L47.1114 32.9045C46.4885 34.2385 45.6048 36.1272 45.1472 37.1017C44.6896 38.0763 43.8647 39.8412 43.3139 41.0236C42.6074 42.54 42.2359 43.127 42.053 43.0159C41.4516 42.6504 34.4668 35.7284 34.4668 35.498C34.4668 35.2466 35.1178 33.6865 37.1034 29.1801C37.3307 28.6641 37.9571 27.2101 38.4955 25.9489C39.6918 23.1461 40.0069 22.5092 40.1974 22.5092C40.2787 22.5092 42.1222 24.3024 44.2942 26.4942ZM30.3021 33.5038C35.1469 38.1751 39.6678 42.5327 40.3489 43.1872L41.5872 44.3776L40.6671 45.3259C40.1611 45.8475 39.6259 46.2742 39.4779 46.2742C39.1423 46.2742 20.6388 27.7519 20.6388 27.4158C20.6388 27.0252 21.2627 25.0108 21.3839 25.0108C21.4444 25.0108 25.4576 28.8328 30.3021 33.5038ZM28.9975 37.8245L38.4914 47.3009L37.0467 48.6694L35.602 50.038L34.1572 49.9125C33.3627 49.8433 32.2946 49.7051 31.7838 49.605C31.273 49.5052 29.6012 49.2279 28.0688 48.9892C25.1117 48.5287 20.8698 47.8489 18.9877 47.5339C18.3634 47.4295 17.0338 47.2235 16.0333 47.0761L14.2137 46.8081L8.02437 40.6738C4.25923 36.942 1.9093 34.4644 2.02487 34.3477C2.19783 34.173 18.8181 28.4213 19.2973 28.3702C19.4108 28.3581 23.7759 32.6126 28.9975 37.8245ZM77.4451 33.5234C79.4044 35.4538 81.2629 37.2531 81.5749 37.522C81.887 37.7907 82.1411 38.1111 82.1394 38.2337C82.1357 38.4909 66.8543 46.1381 66.1538 46.2331C65.7895 46.2825 65.0998 45.6748 62.9732 43.4307C61.4795 41.8547 60.2845 40.483 60.3176 40.383C60.4107 40.1011 73.3372 30.0442 73.6269 30.0281C73.7675 30.0204 75.4857 31.5933 77.4451 33.5234ZM21.0043 34.4227C19.6834 34.7949 18.5683 36.5074 18.5813 38.1441C18.5886 39.0446 19.4612 41.2979 20.6196 43.4078C22.2501 46.3774 22.5289 46.2542 24.7961 41.5623C25.6097 39.8785 25.6924 39.5635 25.6939 38.1441C25.6951 36.8218 25.6157 36.4603 25.1794 35.8011C24.3305 34.5186 22.642 33.9614 21.0043 34.4227ZM23.553 35.8685C24.1701 36.1945 24.6198 37.4907 24.4795 38.5393C24.335 39.6183 22.5262 43.609 22.2272 43.5083C21.8809 43.3917 20.2494 39.9915 20.0003 38.8676C19.7869 37.9043 19.8044 37.676 20.1466 36.9681C20.7901 35.6375 22.2336 35.1713 23.553 35.8685ZM62.6134 44.821C64.0464 46.3148 65.2187 47.6328 65.2187 47.7499C65.2187 47.8669 65.0746 48.2442 64.8984 48.5884C64.6771 49.0203 64.4695 49.1794 64.2276 49.1022C64.0348 49.0407 62.6277 48.674 61.1006 48.2871C59.5735 47.9002 58.2915 47.4847 58.2514 47.3638C58.2116 47.2429 58.4671 46.1274 58.8192 44.885C59.6336 42.0107 59.5998 42.1049 59.8206 42.1049C59.9238 42.1049 61.1805 43.3271 62.6134 44.821ZM51.5671 47.1253C56.0674 48.2815 60.6781 49.4645 61.8133 49.7543C62.9484 50.0441 63.9498 50.3488 64.0383 50.4314C64.1271 50.5139 63.6794 52.1218 63.0435 54.0043C62.4079 55.8869 61.6215 58.2244 61.2963 59.199C59.964 63.1901 59.0805 65.6768 58.9467 65.8119C58.8687 65.8907 56.3141 63.4406 53.2696 60.3672C49.2533 56.3126 47.6272 54.8002 47.3438 54.8552C47.1292 54.8969 46.9533 55.0908 46.9533 55.2859C46.9533 55.481 49.3914 58.1131 52.371 61.135C55.3508 64.1569 57.7887 66.7194 57.7887 66.8296C57.7887 67.0014 54.6923 68.0625 42.4491 72.0861L40.2152 72.8201L33.7292 66.2714C30.162 62.6695 27.2432 59.6668 27.2432 59.5986C27.2432 59.5305 28.3383 58.451 29.677 57.2C36.8933 50.4558 39.0672 48.4556 39.2577 48.3855C39.3733 48.3428 40.8841 49.736 42.6146 51.4812C44.8411 53.7266 45.8743 54.6324 46.1484 54.579C47.1199 54.3901 46.6935 53.7299 43.517 50.5035L40.3489 47.2859L41.5872 46.1549C42.2683 45.5331 42.9515 45.024 43.1052 45.0238C43.2592 45.0236 47.067 45.9694 51.5671 47.1253ZM18.7813 48.7756C19.4057 48.8815 20.5201 49.0636 21.258 49.1806C21.9958 49.2975 23.7604 49.5775 25.1794 49.8027C26.5983 50.0278 29.1059 50.4187 30.7518 50.6711C32.3978 50.9234 33.819 51.196 33.91 51.2769C34.0972 51.4433 26.5199 58.5736 26.156 58.5736C25.8904 58.5736 16.0983 48.7768 16.0983 48.5112C16.0983 48.3444 16.432 48.3772 18.7813 48.7756Z"/>
</mask>
<path fill-rule="evenodd" clip-rule="evenodd" d="M42.1032 0.852405C38.6489 2.19951 35.9993 3.22182 33.2285 4.27665C31.8096 4.81678 29.7147 5.62208 28.5732 6.06653C27.4317 6.51077 26.4012 6.87433 26.2833 6.87433C25.9147 6.87433 25.4279 7.56622 25.11 8.54205C24.942 9.058 24.2774 11.1687 23.6333 13.2325C22.5572 16.6803 20.4176 23.5088 19.6628 25.9034C19.4901 26.4517 19.1939 26.9839 19.0048 27.0862C18.8158 27.1884 14.5784 28.6518 9.58859 30.3383C4.59854 32.025 0.39998 33.4976 0.257985 33.611C0.116197 33.7246 0 33.9783 0 34.1749C0 34.3717 3.77649 38.2766 8.39216 42.8529C13.0078 47.4289 21.9455 56.3091 28.2535 62.5866C37.1185 71.4084 39.8377 74 40.2286 74C40.5066 74 41.2512 73.8205 41.883 73.6012C43.1281 73.1689 47.3843 71.7751 54.6929 69.4056C57.2469 68.5776 59.4512 67.7934 59.5911 67.6629C59.731 67.5324 60.7363 64.8007 61.825 61.5924C62.9139 58.3843 64.125 54.8212 64.5163 53.6747C64.9076 52.5281 65.5285 50.6988 65.8958 49.6096L66.5639 47.6292L70.5866 45.6069C72.7991 44.4947 76.7223 42.5354 79.3047 41.2531C82.7573 39.5387 84 38.8251 84 38.5572C84 38.3481 76.8534 31.1822 67.24 21.7516C44.6581 -0.400052 45.0678 -0.00584422 44.6436 0.00124359C44.4383 0.00457902 43.2951 0.387737 42.1032 0.852405ZM50.4103 6.99378C52.5388 9.07468 54.2801 10.826 54.2801 10.8858C54.2801 10.989 52.0344 12.4991 43.6722 18.0191L39.978 20.4575L38.3963 18.8692C37.2533 17.7214 36.7177 17.3182 36.4661 17.4158C35.8296 17.6624 36.1039 18.2327 37.5627 19.6949C38.3572 20.4913 39.0074 21.2582 39.0074 21.3991C39.0074 21.6232 38.5851 22.6576 37.1499 25.9489C36.9501 26.4075 36.0211 28.5417 35.086 30.6914C34.1508 32.8411 33.347 34.6002 33.2999 34.6002C33.0785 34.6002 21.8771 23.6478 21.8771 23.4312C21.8771 23.2142 23.379 18.248 24.5199 14.6918C24.7408 14.0038 25.2208 12.4795 25.5866 11.3042C25.9525 10.1289 26.3558 9.16744 26.4829 9.16744C26.6098 9.16744 28.4954 10.9586 30.673 13.1475C34.6466 17.1418 35.3056 17.6119 35.4556 16.5588C35.5002 16.2465 34.467 15.1174 31.4827 12.2171C29.2646 10.0611 27.4496 8.17578 27.4496 8.02714C27.4496 7.8785 27.6121 7.70819 27.8108 7.64878C28.2302 7.52349 29.7013 6.96876 36.2211 4.47803C38.8319 3.48073 41.704 2.39171 42.6035 2.05796C43.5029 1.72421 44.2837 1.40588 44.3386 1.35064C44.4614 1.2266 45.4721 2.16594 50.4103 6.99378ZM59.2491 15.682C61.3964 17.7743 63.1538 19.5461 63.1542 19.6188C63.1544 19.6916 62.9253 19.903 62.645 20.0885C62.1689 20.4037 62.0909 20.3987 61.4649 20.0143C59.667 18.9098 57.1404 19.441 56.2109 21.1187C56.0187 21.4656 55.8827 21.4569 53.7507 20.9615C52.5095 20.6732 50.983 20.3299 50.3587 20.1986C49.7344 20.0672 48.945 19.8875 48.6044 19.7991C48.2639 19.7108 47.428 19.5238 46.7469 19.3835C45.0702 19.038 44.9478 18.9945 45.0271 18.7727C45.0847 18.6113 55.0732 11.8965 55.2767 11.8823C55.3143 11.8796 57.1018 13.5896 59.2491 15.682ZM49.4428 21.2538C52.5258 21.9392 55.2004 22.559 55.3863 22.6311C55.5725 22.7033 55.7248 22.9751 55.7248 23.2351C55.7248 23.495 55.7801 23.9872 55.8478 24.3287C55.9667 24.9295 55.8666 25.0245 52.7322 27.2841C50.9511 28.568 49.4205 29.5901 49.3307 29.5557C49.1097 29.4705 41.0713 21.5202 41.0713 21.3868C41.0713 21.1212 42.8796 20.0251 43.3316 20.017C43.6098 20.0118 46.36 20.5684 49.4428 21.2538ZM60.8362 21.096C61.2938 21.4796 61.7101 22.4421 61.7101 23.1164C61.7101 24.2186 59.8142 28.5818 59.3302 28.5934C58.8283 28.6053 56.9631 24.2426 56.9631 23.0564C56.9631 22.1965 57.7243 21.0149 58.4101 20.81C59.0551 20.6174 60.4633 20.7833 60.8362 21.096ZM68.5168 24.7662C70.7893 26.9822 72.6487 28.8615 72.6487 28.9426C72.6487 29.0237 71.56 29.9312 70.2294 30.9591C68.8988 31.987 65.9239 34.3058 63.6181 36.1115C61.3126 37.9172 59.3583 39.3948 59.2753 39.3948C59.1921 39.3948 57.9195 38.1753 56.4472 36.6848C54.9748 35.1943 53.6161 33.9748 53.4279 33.9748C53.2399 33.9748 53.0261 34.1324 52.9528 34.325C52.8147 34.6883 52.8496 34.7298 56.6626 38.7267C57.6793 39.7924 58.5383 40.7866 58.5717 40.9362C58.645 41.2641 57.0438 46.693 56.8015 46.9377C56.7076 47.0326 53.8962 46.4093 50.5538 45.5529C43.2672 43.6859 43.5479 43.7661 43.5479 43.552C43.5479 43.4574 44.0697 42.2723 44.7074 40.9183C45.3451 39.5645 46.2159 37.7063 46.6423 36.789C48.7815 32.1878 49.1369 31.4732 49.2869 31.4732C49.3763 31.4732 49.8122 31.8484 50.2555 32.307C51.0988 33.1793 51.73 33.3685 51.9411 32.8128C52.0222 32.5993 51.7529 32.1626 51.17 31.5628C50.6347 31.0118 50.3538 30.5714 50.4714 30.4675C50.9614 30.036 55.9925 26.4331 56.2383 26.3379C56.4195 26.2676 56.811 26.8082 57.3827 27.9182C58.3856 29.8653 58.9414 30.6393 59.3366 30.6393C59.7543 30.6393 60.3308 29.8015 61.4595 27.5543C62.7113 25.0616 63.044 23.8748 62.8677 22.5327C62.7387 21.5494 62.7579 21.4975 63.4086 21.0768C63.7799 20.8369 64.1512 20.6622 64.2342 20.6889C64.317 20.7156 66.244 22.5503 68.5168 24.7662ZM44.2942 26.4942L48.2437 30.4794L47.1114 32.9045C46.4885 34.2385 45.6048 36.1272 45.1472 37.1017C44.6896 38.0763 43.8647 39.8412 43.3139 41.0236C42.6074 42.54 42.2359 43.127 42.053 43.0159C41.4516 42.6504 34.4668 35.7284 34.4668 35.498C34.4668 35.2466 35.1178 33.6865 37.1034 29.1801C37.3307 28.6641 37.9571 27.2101 38.4955 25.9489C39.6918 23.1461 40.0069 22.5092 40.1974 22.5092C40.2787 22.5092 42.1222 24.3024 44.2942 26.4942ZM30.3021 33.5038C35.1469 38.1751 39.6678 42.5327 40.3489 43.1872L41.5872 44.3776L40.6671 45.3259C40.1611 45.8475 39.6259 46.2742 39.4779 46.2742C39.1423 46.2742 20.6388 27.7519 20.6388 27.4158C20.6388 27.0252 21.2627 25.0108 21.3839 25.0108C21.4444 25.0108 25.4576 28.8328 30.3021 33.5038ZM28.9975 37.8245L38.4914 47.3009L37.0467 48.6694L35.602 50.038L34.1572 49.9125C33.3627 49.8433 32.2946 49.7051 31.7838 49.605C31.273 49.5052 29.6012 49.2279 28.0688 48.9892C25.1117 48.5287 20.8698 47.8489 18.9877 47.5339C18.3634 47.4295 17.0338 47.2235 16.0333 47.0761L14.2137 46.8081L8.02437 40.6738C4.25923 36.942 1.9093 34.4644 2.02487 34.3477C2.19783 34.173 18.8181 28.4213 19.2973 28.3702C19.4108 28.3581 23.7759 32.6126 28.9975 37.8245ZM77.4451 33.5234C79.4044 35.4538 81.2629 37.2531 81.5749 37.522C81.887 37.7907 82.1411 38.1111 82.1394 38.2337C82.1357 38.4909 66.8543 46.1381 66.1538 46.2331C65.7895 46.2825 65.0998 45.6748 62.9732 43.4307C61.4795 41.8547 60.2845 40.483 60.3176 40.383C60.4107 40.1011 73.3372 30.0442 73.6269 30.0281C73.7675 30.0204 75.4857 31.5933 77.4451 33.5234ZM21.0043 34.4227C19.6834 34.7949 18.5683 36.5074 18.5813 38.1441C18.5886 39.0446 19.4612 41.2979 20.6196 43.4078C22.2501 46.3774 22.5289 46.2542 24.7961 41.5623C25.6097 39.8785 25.6924 39.5635 25.6939 38.1441C25.6951 36.8218 25.6157 36.4603 25.1794 35.8011C24.3305 34.5186 22.642 33.9614 21.0043 34.4227ZM23.553 35.8685C24.1701 36.1945 24.6198 37.4907 24.4795 38.5393C24.335 39.6183 22.5262 43.609 22.2272 43.5083C21.8809 43.3917 20.2494 39.9915 20.0003 38.8676C19.7869 37.9043 19.8044 37.676 20.1466 36.9681C20.7901 35.6375 22.2336 35.1713 23.553 35.8685ZM62.6134 44.821C64.0464 46.3148 65.2187 47.6328 65.2187 47.7499C65.2187 47.8669 65.0746 48.2442 64.8984 48.5884C64.6771 49.0203 64.4695 49.1794 64.2276 49.1022C64.0348 49.0407 62.6277 48.674 61.1006 48.2871C59.5735 47.9002 58.2915 47.4847 58.2514 47.3638C58.2116 47.2429 58.4671 46.1274 58.8192 44.885C59.6336 42.0107 59.5998 42.1049 59.8206 42.1049C59.9238 42.1049 61.1805 43.3271 62.6134 44.821ZM51.5671 47.1253C56.0674 48.2815 60.6781 49.4645 61.8133 49.7543C62.9484 50.0441 63.9498 50.3488 64.0383 50.4314C64.1271 50.5139 63.6794 52.1218 63.0435 54.0043C62.4079 55.8869 61.6215 58.2244 61.2963 59.199C59.964 63.1901 59.0805 65.6768 58.9467 65.8119C58.8687 65.8907 56.3141 63.4406 53.2696 60.3672C49.2533 56.3126 47.6272 54.8002 47.3438 54.8552C47.1292 54.8969 46.9533 55.0908 46.9533 55.2859C46.9533 55.481 49.3914 58.1131 52.371 61.135C55.3508 64.1569 57.7887 66.7194 57.7887 66.8296C57.7887 67.0014 54.6923 68.0625 42.4491 72.0861L40.2152 72.8201L33.7292 66.2714C30.162 62.6695 27.2432 59.6668 27.2432 59.5986C27.2432 59.5305 28.3383 58.451 29.677 57.2C36.8933 50.4558 39.0672 48.4556 39.2577 48.3855C39.3733 48.3428 40.8841 49.736 42.6146 51.4812C44.8411 53.7266 45.8743 54.6324 46.1484 54.579C47.1199 54.3901 46.6935 53.7299 43.517 50.5035L40.3489 47.2859L41.5872 46.1549C42.2683 45.5331 42.9515 45.024 43.1052 45.0238C43.2592 45.0236 47.067 45.9694 51.5671 47.1253ZM18.7813 48.7756C19.4057 48.8815 20.5201 49.0636 21.258 49.1806C21.9958 49.2975 23.7604 49.5775 25.1794 49.8027C26.5983 50.0278 29.1059 50.4187 30.7518 50.6711C32.3978 50.9234 33.819 51.196 33.91 51.2769C34.0972 51.4433 26.5199 58.5736 26.156 58.5736C25.8904 58.5736 16.0983 48.7768 16.0983 48.5112C16.0983 48.3444 16.432 48.3772 18.7813 48.7756Z" fill="black" stroke="black" stroke-width="4" mask="url(#path-1-inside-1_350_290)"/>
</svg>
