<svg width="67" height="88" viewBox="0 0 67 88" fill="none" xmlns="http://www.w3.org/2000/svg">
<path fill-rule="evenodd" clip-rule="evenodd" d="M30.948 0.259283C29.0157 0.565473 28.382 0.734466 26.9623 1.32218C21.7305 3.48845 18.4282 7.46738 17.5636 12.6466C17.1213 15.2961 17.7765 17.7418 19.9533 21.5693C21.004 23.4166 21.57 24.2612 23.7785 27.2776C24.4183 28.1515 24.8863 28.947 24.8186 29.0452C24.7508 29.1433 24.4101 29.2797 24.0618 29.3481C23.002 29.5563 20.2553 30.5538 18.1673 31.489C11.1316 34.6397 4.98114 40.804 2.14161 47.5508C1.27036 49.6211 0.405145 53.1034 0.122485 55.678C-0.417197 60.5921 0.852619 66.5606 3.41681 71.1642C6.19882 76.1589 9.99792 80.0187 15.113 83.0477C24.9923 88.8978 37.7749 89.6201 48.2624 84.9204C51.0552 83.6691 52.8233 82.6314 55.1891 80.8561C60.3767 76.963 64.4486 71.1128 66.0254 65.2871C68.2246 57.1616 66.6726 48.8306 61.6661 41.8913C58.4339 37.4106 53.7096 33.6161 48.5065 31.3213C46.56 30.4629 44.0723 29.5855 42.9496 29.3618C42.6187 29.2959 42.3022 29.1352 42.2462 29.005C42.1904 28.8745 42.9694 27.6528 43.9775 26.2899C45.8169 23.803 48.3393 19.5044 48.9098 17.8844C50.0863 14.5444 49.7496 11.418 47.8414 7.96491C45.5569 3.83048 41.2082 1.01464 35.9031 0.234618C33.7377 -0.0837123 33.0938 -0.0806288 30.948 0.259283ZM35.9464 2.48124C37.3666 2.73617 38.0117 2.94023 39.7811 3.69386C41.7192 4.51955 44.5979 7.09432 45.5211 8.8278C48.2021 13.8627 47.5659 17.0242 42.4 24.3396C40.8286 26.5649 35.8738 32.5719 34.2944 34.167L33.5311 34.9378L32.7611 34.167C30.1017 31.5048 25.3365 25.5291 23.1576 22.1237C20.0606 17.2834 19.4354 14.8581 20.4012 11.4292C20.9607 9.44268 22.2764 7.39608 23.9325 5.93681C25.3641 4.67505 25.638 4.48698 27.07 3.78307C29.7395 2.47064 33.1233 1.97426 35.9464 2.48124ZM32.2665 7.12284C28.7494 7.63078 26.026 10.327 25.8146 13.5104C25.6151 16.5118 27.3492 19.0648 30.4494 20.3343C35.4059 22.3638 41.2892 18.9431 41.2892 14.0317C41.2892 11.3319 39.6335 8.96866 36.8625 7.71345C36.0929 7.36467 35.5778 7.24482 33.8564 7.01339C33.6194 6.9816 32.904 7.03093 32.2665 7.12284ZM35.9983 9.87085C37.8296 10.8308 38.7039 12.2007 38.7039 14.1107C38.7039 15.1096 38.5914 15.4682 38.0024 16.3502C36.2448 18.9806 32.6375 19.4552 29.924 17.4131C28.9318 16.6664 28.3357 15.357 28.3357 13.9244C28.3357 12.5659 28.6839 11.7841 29.7333 10.7865C31.4282 9.17522 33.9641 8.80467 35.9983 9.87085ZM27.2178 31.5992C27.838 32.1204 27.8503 32.5546 27.2585 33.0292C25.8812 34.1335 22.0879 38.8603 21.1262 40.6704C20.915 41.068 20.639 41.3928 20.513 41.3927C19.8602 41.3915 15.6772 39.1077 14.0564 37.8675L13.2153 37.2241L13.7333 36.7871C15.6274 35.1891 20.2762 32.8359 23.4075 31.8902C26.1561 31.0598 26.5409 31.0306 27.2178 31.5992ZM43.798 31.937C47.1684 33.0163 51.7116 35.3357 53.2281 36.7516L53.8342 37.3174L51.9553 38.5599C50.026 39.8359 47.59 41.1343 46.7985 41.3085C46.4365 41.388 46.2347 41.2142 45.7307 40.3881C44.5846 38.5092 42.4276 35.7219 40.8824 34.1225C40.0396 33.2502 39.3502 32.4428 39.3502 32.3282C39.3502 32.2137 39.52 31.9052 39.7272 31.6427C40.0599 31.2217 40.2184 31.178 41.0737 31.2705C41.607 31.3281 42.8328 31.6279 43.798 31.937ZM32.257 37.0093C32.8066 37.5128 33.3809 37.9246 33.5333 37.9246C33.8413 37.9246 35.3419 36.6004 36.6873 35.1409L37.5661 34.188L38.468 35.0446C40.2607 36.7474 43.8745 41.5591 43.8745 42.2432C43.8745 42.3868 43.7047 42.5477 43.4975 42.6008C38.9269 43.7715 37.2975 43.9956 33.4255 43.9857C29.8464 43.9769 27.9066 43.735 24.754 42.9045C23.6072 42.6024 23.192 42.4058 23.192 42.1652C23.192 41.4905 26.7854 36.763 28.6841 34.9399L29.4847 34.1713L30.3712 35.1326C30.8588 35.6614 31.7074 36.5058 32.257 37.0093ZM12.5315 39.6883C13.8285 40.6552 16.6687 42.3201 18.2237 43.025C19.5351 43.6192 19.534 43.6106 18.5577 46.014C17.5468 48.5021 16.9132 51.03 16.5043 54.2072C16.3679 55.267 16.2115 56.1991 16.1568 56.2786C15.9795 56.5355 2.77243 56.454 2.67612 56.1954C2.57853 55.9335 3.01652 53.146 3.38105 51.7103C4.12777 48.7678 5.75565 45.4521 7.77887 42.7527C9.12926 40.9508 11.0137 38.888 11.3095 38.888C11.3914 38.888 11.9412 39.2482 12.5315 39.6883ZM56.9057 39.8997C59.1162 42.1363 61.5597 45.9214 62.7082 48.8877C63.618 51.238 64.3359 54.2777 64.3398 55.7969L64.3415 56.4232H57.6755C54.0091 56.4232 50.958 56.3486 50.8951 56.2576C50.8322 56.1665 50.6282 54.9847 50.4416 53.631C50.0784 50.9957 49.0361 47.1247 48.1187 45.0051L47.5555 43.7034L48.031 43.446C48.2926 43.3044 49.2336 42.8149 50.1223 42.3584C51.8892 41.4509 53.4276 40.5059 54.7392 39.5228C55.2048 39.1736 55.6579 38.888 55.7458 38.888C55.8339 38.888 56.3557 39.3434 56.9057 39.8997ZM26.5107 45.6385C30.045 46.3004 33.2286 46.5004 36.0647 46.2389C38.9075 45.9768 41.9131 45.4535 43.7347 44.9035C45.1923 44.4632 45.2255 44.485 45.9832 46.3726C47.0316 48.9842 48.1833 53.9104 48.1833 55.7826V56.4232H33.5333H18.8832V55.6863C18.8832 52.9682 21.0337 45.1473 21.9151 44.6602C22.0338 44.5945 22.6754 44.7053 23.3411 44.9062C24.0066 45.1072 25.4329 45.4367 26.5107 45.6385ZM16.1727 58.9763C16.2147 59.1089 16.3623 60.2578 16.5004 61.5295C16.8449 64.6992 17.3852 67.0441 18.4325 69.9117C18.6839 70.6006 18.9851 71.3147 19.1019 71.4987C19.5483 72.2029 19.3307 72.5036 17.8797 73.1875C16.0887 74.0319 13.9543 75.291 12.4408 76.3961L11.277 77.246L10.7492 76.8065C9.773 75.9933 7.31351 72.9122 6.32248 71.2606C5.15004 69.3069 4.16784 67.1315 3.59994 65.2308C3.05832 63.4181 2.40165 59.4577 2.57551 59.0523C2.69767 58.7677 3.39247 58.7355 9.40374 58.7355C14.5731 58.7355 16.1135 58.7902 16.1727 58.9763ZM48.1833 59.7618C48.1833 60.875 47.6533 64.5263 47.3114 65.7688C46.6711 68.0954 45.6241 70.9035 45.2734 71.2344C45.0387 71.456 44.7625 71.4348 43.519 71.1004C39.4767 70.0135 37.986 69.8225 33.5333 69.8212C29.2533 69.8198 27.9783 69.9689 24.2863 70.9024C21.6973 71.5569 21.769 71.5808 21.0501 69.8252C19.9244 67.076 18.8832 62.3342 18.8832 59.9566V58.7355H33.5333H48.1833V59.7618ZM64.3947 59.8916C64.2878 61.9643 63.6452 64.8117 62.7138 67.3398C61.7599 69.9295 58.9903 74.139 56.8663 76.2286L55.8315 77.2464L53.746 75.8432C52.599 75.0715 50.7844 74.0065 49.7134 73.4766C48.5726 72.912 47.7634 72.3886 47.7593 72.2125C47.7555 72.047 47.9942 71.3602 48.2893 70.6862C49.1927 68.6247 50.1189 64.9499 50.4754 62.0115C50.6622 60.4745 50.8503 59.1076 50.8938 58.9736C50.9559 58.7825 52.4262 58.7409 57.711 58.781L64.4492 58.8318L64.3947 59.8916ZM40.5351 72.705C41.8386 72.9933 43.173 73.3528 43.5005 73.5037L44.096 73.7783L43.5306 74.6872C41.6095 77.7757 38.9385 80.8849 36.2946 83.1093C33.8267 85.186 33.6785 85.2623 32.9408 84.8387C31.8754 84.2271 28.024 80.6423 26.6794 79.0107C25.9564 78.1334 24.8191 76.6263 24.152 75.6621C23.1427 74.2026 22.9878 73.8662 23.2274 73.6546C23.5816 73.3419 27.3221 72.4483 29.2244 72.2221C29.9946 72.1306 32.3214 72.0838 34.395 72.1181C37.6221 72.1716 38.5067 72.2562 40.5351 72.705ZM21.3302 75.7839C22.8523 78.3893 25.1502 81.1583 27.8342 83.6213C28.7173 84.4318 29.4399 85.1945 29.4399 85.316C29.4399 85.5621 28.7106 85.487 26.4237 85.0052C23.2565 84.3381 19.8794 83.0864 17.1192 81.5564C15.7741 80.8109 13.2817 79.1105 13.2817 78.9383C13.2817 78.3548 19.2568 74.7751 20.2836 74.7433C20.5936 74.7337 20.8872 75.0258 21.3302 75.7839ZM48.0289 75.236C49.4176 75.8625 52.6734 77.8386 53.3007 78.4359C53.556 78.6791 53.6967 78.9693 53.6133 79.0809C53.2992 79.5009 50.5189 81.2749 48.8923 82.093C46.2254 83.4344 43.3158 84.4429 40.212 85.1018C38.4012 85.486 37.6267 85.55 37.6267 85.3153C37.6267 85.1933 38.5235 84.2495 39.6195 83.2184C41.8226 81.1456 44.0188 78.5032 45.4295 76.228C45.9369 75.4099 46.4764 74.7377 46.6285 74.7346C46.7806 74.7316 47.4108 74.9572 48.0289 75.236Z" fill="black"/>
</svg>
