<svg width="22" height="24" viewBox="0 0 22 24" fill="none" xmlns="http://www.w3.org/2000/svg">
<g id="mdi:cup-water">
<path id="Vector" d="M16.8497 8H5.48854L5.09337 4H17.2538M11.1736 19C10.459 19 9.77369 18.6839 9.26841 18.1213C8.76312 17.5587 8.47925 16.7956 8.47925 16C8.47925 14 11.1736 10.6 11.1736 10.6C11.1736 10.6 13.8679 14 13.8679 16C13.8679 16.7956 13.5841 17.5587 13.0788 18.1213C12.5735 18.6839 11.8882 19 11.1736 19ZM3.09058 2L4.8868 20.23C5.00356 21.23 5.75797 22 6.68303 22H15.6642C16.5623 22 17.3436 21.23 17.4604 20.23L19.2566 2H3.09058Z" fill="#01589F"/>
</g>
</svg>
