<svg width="24" height="24" viewBox="0 0 24 24" fill="none" xmlns="http://www.w3.org/2000/svg">
<g id="mingcute:back-2-line" clip-path="url(#clip0_14_95)">
<g id="Group">
<path id="Vector" d="M6.04598 11.6769C6.88355 10.262 8.16288 9.16148 9.68709 8.54481C11.2113 7.92813 12.8959 7.82943 14.4817 8.2639C16.0675 8.69836 17.4666 9.64191 18.4637 10.9493C19.4608 12.2568 20.0005 13.8556 20 15.4999C20 15.7651 20.1053 16.0195 20.2929 16.207C20.4804 16.3945 20.7348 16.4999 21 16.4999C21.2652 16.4999 21.5196 16.3945 21.7071 16.207C21.8946 16.0195 22 15.7651 22 15.4999C22.0001 13.4886 21.3619 11.5292 20.1773 9.90382C18.9927 8.27844 17.3227 7.07097 15.408 6.4553C13.4933 5.83963 11.4326 5.84754 9.52265 6.47788C7.61271 7.10822 5.9521 8.32846 4.77998 9.96288L4.24298 6.91788C4.19697 6.65664 4.04906 6.42438 3.8318 6.2722C3.61454 6.12001 3.34572 6.06036 3.08448 6.10638C2.82324 6.15239 2.59098 6.3003 2.4388 6.51756C2.28661 6.73482 2.22697 7.00364 2.27298 7.26488L3.31498 13.1739C3.36135 13.435 3.50955 13.667 3.72698 13.8189C3.86867 13.9139 4.03052 13.9747 4.19974 13.9963C4.36896 14.018 4.5409 14.0001 4.70198 13.9439L10.382 12.9429C10.6432 12.8969 10.8755 12.749 11.0277 12.5317C11.1798 12.3144 11.2395 12.0456 11.1935 11.7844C11.1475 11.5231 10.9996 11.2909 10.7823 11.1387C10.565 10.9865 10.2962 10.9269 10.035 10.9729L6.04598 11.6769Z" fill="#01589F"/>
</g>
</g>
<defs>
<clipPath id="clip0_14_95">
<rect width="24" height="24" fill="white"/>
</clipPath>
</defs>
</svg>
